G04*
G04 #@! TF.GenerationSoftware,Altium Limited,Altium Designer,21.8.1 (53)*
G04*
G04 Layer_Color=32896*
%FSLAX24Y24*%
%MOIN*%
G70*
G04*
G04 #@! TF.SameCoordinates,95809A84-84CF-4DA7-BFB4-83C52BA3911F*
G04*
G04*
G04 #@! TF.FilePolarity,Positive*
G04*
G01*
G75*
%ADD13C,0.0079*%
%ADD118C,0.0059*%
G36*
X7811Y-419D02*
X7814Y-424D01*
X7818Y-428D01*
X7821Y-432D01*
X7825Y-436D01*
X7828Y-439D01*
X7829Y-439D01*
X7830Y-440D01*
X7830Y-441D01*
X7830Y-441D01*
X7836Y-446D01*
X7842Y-451D01*
X7848Y-455D01*
X7854Y-458D01*
X7859Y-461D01*
X7861Y-462D01*
X7863Y-463D01*
X7864Y-464D01*
X7865Y-464D01*
X7866Y-465D01*
X7866D01*
Y-488D01*
X7862Y-487D01*
X7857Y-485D01*
X7853Y-483D01*
X7849Y-481D01*
X7846Y-479D01*
X7843Y-477D01*
X7841Y-476D01*
X7841Y-476D01*
X7840D01*
X7835Y-473D01*
X7830Y-469D01*
X7826Y-467D01*
X7823Y-464D01*
X7820Y-462D01*
X7818Y-460D01*
X7817Y-459D01*
X7817Y-459D01*
Y-616D01*
X7792D01*
Y-414D01*
X7808D01*
X7811Y-419D01*
D02*
G37*
G36*
X7901Y-4037D02*
X7905Y-4042D01*
X7908Y-4046D01*
X7912Y-4050D01*
X7915Y-4054D01*
X7918Y-4057D01*
X7919Y-4058D01*
X7920Y-4058D01*
X7920Y-4059D01*
X7921Y-4059D01*
X7927Y-4064D01*
X7933Y-4069D01*
X7939Y-4073D01*
X7945Y-4076D01*
X7949Y-4079D01*
X7952Y-4080D01*
X7953Y-4081D01*
X7955Y-4082D01*
X7956Y-4082D01*
X7956Y-4083D01*
X7957D01*
Y-4107D01*
X7952Y-4105D01*
X7948Y-4103D01*
X7944Y-4101D01*
X7940Y-4099D01*
X7936Y-4097D01*
X7933Y-4095D01*
X7931Y-4094D01*
X7931Y-4094D01*
X7931D01*
X7926Y-4091D01*
X7921Y-4088D01*
X7917Y-4085D01*
X7914Y-4082D01*
X7911Y-4080D01*
X7909Y-4078D01*
X7908Y-4077D01*
X7907Y-4077D01*
Y-4234D01*
X7883D01*
Y-4032D01*
X7899D01*
X7901Y-4037D01*
D02*
G37*
G36*
X7815Y-4139D02*
X7791Y-4142D01*
X7789Y-4139D01*
X7787Y-4136D01*
X7784Y-4134D01*
X7782Y-4132D01*
X7780Y-4130D01*
X7778Y-4129D01*
X7777Y-4128D01*
X7777Y-4128D01*
X7773Y-4126D01*
X7769Y-4125D01*
X7766Y-4124D01*
X7762Y-4123D01*
X7759Y-4123D01*
X7757Y-4123D01*
X7751D01*
X7748Y-4123D01*
X7742Y-4125D01*
X7736Y-4127D01*
X7732Y-4129D01*
X7728Y-4131D01*
X7726Y-4133D01*
X7724Y-4134D01*
X7724Y-4135D01*
Y-4135D01*
X7720Y-4140D01*
X7717Y-4145D01*
X7715Y-4151D01*
X7713Y-4156D01*
X7712Y-4161D01*
X7712Y-4163D01*
Y-4165D01*
X7712Y-4166D01*
Y-4167D01*
Y-4168D01*
Y-4168D01*
Y-4172D01*
X7712Y-4176D01*
X7714Y-4183D01*
X7716Y-4189D01*
X7718Y-4194D01*
X7720Y-4198D01*
X7722Y-4202D01*
X7723Y-4203D01*
X7724Y-4203D01*
X7724Y-4204D01*
X7724Y-4204D01*
X7727Y-4206D01*
X7729Y-4208D01*
X7734Y-4212D01*
X7739Y-4214D01*
X7744Y-4216D01*
X7748Y-4217D01*
X7752Y-4217D01*
X7753Y-4217D01*
X7755D01*
X7760Y-4217D01*
X7765Y-4216D01*
X7769Y-4214D01*
X7773Y-4213D01*
X7776Y-4211D01*
X7778Y-4210D01*
X7780Y-4208D01*
X7780Y-4208D01*
X7784Y-4204D01*
X7787Y-4200D01*
X7789Y-4195D01*
X7791Y-4190D01*
X7792Y-4186D01*
X7793Y-4183D01*
X7793Y-4181D01*
X7793Y-4180D01*
Y-4180D01*
Y-4180D01*
X7819Y-4182D01*
X7819Y-4186D01*
X7818Y-4191D01*
X7815Y-4199D01*
X7812Y-4206D01*
X7810Y-4209D01*
X7808Y-4212D01*
X7807Y-4214D01*
X7805Y-4216D01*
X7804Y-4218D01*
X7802Y-4220D01*
X7801Y-4221D01*
X7800Y-4222D01*
X7800Y-4222D01*
X7800Y-4223D01*
X7796Y-4225D01*
X7793Y-4228D01*
X7789Y-4230D01*
X7785Y-4231D01*
X7778Y-4234D01*
X7771Y-4236D01*
X7767Y-4237D01*
X7764Y-4237D01*
X7761Y-4237D01*
X7759Y-4237D01*
X7757Y-4238D01*
X7755D01*
X7748Y-4237D01*
X7743Y-4237D01*
X7737Y-4235D01*
X7732Y-4234D01*
X7727Y-4232D01*
X7723Y-4230D01*
X7719Y-4228D01*
X7716Y-4226D01*
X7712Y-4223D01*
X7709Y-4221D01*
X7707Y-4219D01*
X7705Y-4217D01*
X7704Y-4216D01*
X7702Y-4214D01*
X7702Y-4214D01*
X7702Y-4213D01*
X7699Y-4210D01*
X7696Y-4205D01*
X7694Y-4202D01*
X7692Y-4198D01*
X7689Y-4190D01*
X7688Y-4182D01*
X7687Y-4179D01*
X7686Y-4176D01*
X7686Y-4173D01*
X7686Y-4171D01*
X7686Y-4169D01*
Y-4167D01*
Y-4166D01*
Y-4166D01*
X7686Y-4161D01*
X7686Y-4156D01*
X7687Y-4151D01*
X7688Y-4147D01*
X7690Y-4143D01*
X7691Y-4139D01*
X7693Y-4135D01*
X7695Y-4132D01*
X7696Y-4129D01*
X7698Y-4126D01*
X7700Y-4124D01*
X7701Y-4122D01*
X7702Y-4121D01*
X7703Y-4120D01*
X7704Y-4119D01*
X7704Y-4119D01*
X7707Y-4116D01*
X7711Y-4113D01*
X7715Y-4111D01*
X7718Y-4109D01*
X7722Y-4107D01*
X7726Y-4105D01*
X7733Y-4103D01*
X7736Y-4102D01*
X7739Y-4102D01*
X7742Y-4101D01*
X7744Y-4101D01*
X7746Y-4101D01*
X7752D01*
X7756Y-4101D01*
X7763Y-4103D01*
X7769Y-4105D01*
X7775Y-4107D01*
X7780Y-4109D01*
X7782Y-4111D01*
X7783Y-4111D01*
X7785Y-4112D01*
X7786Y-4113D01*
X7786Y-4113D01*
X7787Y-4113D01*
X7776Y-4059D01*
X7695D01*
Y-4035D01*
X7795D01*
X7815Y-4139D01*
D02*
G37*
D13*
X5092Y-4260D02*
X5120Y-4288D01*
X5215Y-4137D02*
X5242Y-4165D01*
X5530Y-3832D02*
X5557Y-3860D01*
X5407Y-3955D02*
X5435Y-3983D01*
D118*
X10207Y-4612D02*
X10010D01*
X9944Y-4547D01*
X10010Y-4481D01*
X10141D01*
X10207Y-4416D01*
X10141Y-4350D01*
X9944D01*
X9813Y-4612D02*
X9682D01*
X9748D01*
Y-4219D01*
X9813Y-4284D01*
X10207Y-5226D02*
X10010D01*
X9944Y-5161D01*
X10010Y-5095D01*
X10141D01*
X10207Y-5030D01*
X10141Y-4964D01*
X9944D01*
X9551Y-5226D02*
X9813D01*
X9551Y-4964D01*
Y-4898D01*
X9616Y-4833D01*
X9748D01*
X9813Y-4898D01*
X5502Y-5226D02*
X5305D01*
X5240Y-5161D01*
X5305Y-5095D01*
X5436D01*
X5502Y-5030D01*
X5436Y-4964D01*
X5240D01*
X5108Y-5226D02*
Y-4964D01*
X4912D01*
X4846Y-5030D01*
Y-5226D01*
X4452Y-4833D02*
Y-5226D01*
X4649D01*
X4715Y-5161D01*
Y-5030D01*
X4649Y-4964D01*
X4452D01*
X1565Y-2037D02*
X1959D01*
Y-2234D01*
X1893Y-2300D01*
X1827D01*
X1762D01*
X1696Y-2234D01*
Y-2037D01*
Y-2497D02*
Y-2628D01*
X1762Y-2693D01*
X1959D01*
Y-2497D01*
X1893Y-2431D01*
X1827Y-2497D01*
Y-2693D01*
X1631Y-2890D02*
X1696D01*
Y-2825D01*
Y-2956D01*
Y-2890D01*
X1893D01*
X1959Y-2956D01*
M02*
