G04*
G04 #@! TF.GenerationSoftware,Altium Limited,Altium Designer,21.8.1 (53)*
G04*
G04 Layer_Color=8388736*
%FSLAX24Y24*%
%MOIN*%
G70*
G04*
G04 #@! TF.SameCoordinates,95809A84-84CF-4DA7-BFB4-83C52BA3911F*
G04*
G04*
G04 #@! TF.FilePolarity,Negative*
G04*
G01*
G75*
%ADD14R,0.1681X0.1795*%
%ADD15C,0.0787*%
G04:AMPARAMS|DCode=16|XSize=13.8mil|YSize=33.5mil|CornerRadius=0mil|HoleSize=0mil|Usage=FLASHONLY|Rotation=135.000|XOffset=0mil|YOffset=0mil|HoleType=Round|Shape=Round|*
%AMOVALD16*
21,1,0.0197,0.0138,0.0000,0.0000,225.0*
1,1,0.0138,0.0070,0.0070*
1,1,0.0138,-0.0070,-0.0070*
%
%ADD16OVALD16*%

G04:AMPARAMS|DCode=17|XSize=13.8mil|YSize=33.5mil|CornerRadius=0mil|HoleSize=0mil|Usage=FLASHONLY|Rotation=225.000|XOffset=0mil|YOffset=0mil|HoleType=Round|Shape=Round|*
%AMOVALD17*
21,1,0.0197,0.0138,0.0000,0.0000,315.0*
1,1,0.0138,-0.0070,0.0070*
1,1,0.0138,0.0070,-0.0070*
%
%ADD17OVALD17*%

%ADD18P,0.1754X4X180.0*%
%ADD19P,0.1754X4X90.0*%
G04:AMPARAMS|DCode=20|XSize=17.7mil|YSize=25.6mil|CornerRadius=5.4mil|HoleSize=0mil|Usage=FLASHONLY|Rotation=0.000|XOffset=0mil|YOffset=0mil|HoleType=Round|Shape=RoundedRectangle|*
%AMROUNDEDRECTD20*
21,1,0.0177,0.0148,0,0,0.0*
21,1,0.0069,0.0256,0,0,0.0*
1,1,0.0108,0.0034,-0.0074*
1,1,0.0108,-0.0034,-0.0074*
1,1,0.0108,-0.0034,0.0074*
1,1,0.0108,0.0034,0.0074*
%
%ADD20ROUNDEDRECTD20*%
G04:AMPARAMS|DCode=21|XSize=17.7mil|YSize=25.6mil|CornerRadius=5.4mil|HoleSize=0mil|Usage=FLASHONLY|Rotation=90.000|XOffset=0mil|YOffset=0mil|HoleType=Round|Shape=RoundedRectangle|*
%AMROUNDEDRECTD21*
21,1,0.0177,0.0148,0,0,90.0*
21,1,0.0069,0.0256,0,0,90.0*
1,1,0.0108,0.0074,0.0034*
1,1,0.0108,0.0074,-0.0034*
1,1,0.0108,-0.0074,-0.0034*
1,1,0.0108,-0.0074,0.0034*
%
%ADD21ROUNDEDRECTD21*%
G04:AMPARAMS|DCode=22|XSize=17.7mil|YSize=25.6mil|CornerRadius=5.4mil|HoleSize=0mil|Usage=FLASHONLY|Rotation=45.000|XOffset=0mil|YOffset=0mil|HoleType=Round|Shape=RoundedRectangle|*
%AMROUNDEDRECTD22*
21,1,0.0177,0.0148,0,0,45.0*
21,1,0.0069,0.0256,0,0,45.0*
1,1,0.0108,0.0077,-0.0028*
1,1,0.0108,0.0028,-0.0077*
1,1,0.0108,-0.0077,0.0028*
1,1,0.0108,-0.0028,0.0077*
%
%ADD22ROUNDEDRECTD22*%
G04:AMPARAMS|DCode=23|XSize=23.6mil|YSize=39.4mil|CornerRadius=6.9mil|HoleSize=0mil|Usage=FLASHONLY|Rotation=0.000|XOffset=0mil|YOffset=0mil|HoleType=Round|Shape=RoundedRectangle|*
%AMROUNDEDRECTD23*
21,1,0.0236,0.0256,0,0,0.0*
21,1,0.0098,0.0394,0,0,0.0*
1,1,0.0138,0.0049,-0.0128*
1,1,0.0138,-0.0049,-0.0128*
1,1,0.0138,-0.0049,0.0128*
1,1,0.0138,0.0049,0.0128*
%
%ADD23ROUNDEDRECTD23*%
G04:AMPARAMS|DCode=24|XSize=23.6mil|YSize=39.4mil|CornerRadius=6.9mil|HoleSize=0mil|Usage=FLASHONLY|Rotation=90.000|XOffset=0mil|YOffset=0mil|HoleType=Round|Shape=RoundedRectangle|*
%AMROUNDEDRECTD24*
21,1,0.0236,0.0256,0,0,90.0*
21,1,0.0098,0.0394,0,0,90.0*
1,1,0.0138,0.0128,0.0049*
1,1,0.0138,0.0128,-0.0049*
1,1,0.0138,-0.0128,-0.0049*
1,1,0.0138,-0.0128,0.0049*
%
%ADD24ROUNDEDRECTD24*%
G04:AMPARAMS|DCode=25|XSize=27.6mil|YSize=31.5mil|CornerRadius=7.9mil|HoleSize=0mil|Usage=FLASHONLY|Rotation=180.000|XOffset=0mil|YOffset=0mil|HoleType=Round|Shape=RoundedRectangle|*
%AMROUNDEDRECTD25*
21,1,0.0276,0.0157,0,0,180.0*
21,1,0.0118,0.0315,0,0,180.0*
1,1,0.0157,-0.0059,0.0079*
1,1,0.0157,0.0059,0.0079*
1,1,0.0157,0.0059,-0.0079*
1,1,0.0157,-0.0059,-0.0079*
%
%ADD25ROUNDEDRECTD25*%
G04:AMPARAMS|DCode=26|XSize=27.6mil|YSize=51.2mil|CornerRadius=7.9mil|HoleSize=0mil|Usage=FLASHONLY|Rotation=90.000|XOffset=0mil|YOffset=0mil|HoleType=Round|Shape=RoundedRectangle|*
%AMROUNDEDRECTD26*
21,1,0.0276,0.0354,0,0,90.0*
21,1,0.0118,0.0512,0,0,90.0*
1,1,0.0157,0.0177,0.0059*
1,1,0.0157,0.0177,-0.0059*
1,1,0.0157,-0.0177,-0.0059*
1,1,0.0157,-0.0177,0.0059*
%
%ADD26ROUNDEDRECTD26*%
G04:AMPARAMS|DCode=27|XSize=29.1mil|YSize=21.7mil|CornerRadius=6.4mil|HoleSize=0mil|Usage=FLASHONLY|Rotation=0.000|XOffset=0mil|YOffset=0mil|HoleType=Round|Shape=RoundedRectangle|*
%AMROUNDEDRECTD27*
21,1,0.0291,0.0089,0,0,0.0*
21,1,0.0163,0.0217,0,0,0.0*
1,1,0.0128,0.0082,-0.0044*
1,1,0.0128,-0.0082,-0.0044*
1,1,0.0128,-0.0082,0.0044*
1,1,0.0128,0.0082,0.0044*
%
%ADD27ROUNDEDRECTD27*%
G04:AMPARAMS|DCode=28|XSize=25.6mil|YSize=27.6mil|CornerRadius=7.4mil|HoleSize=0mil|Usage=FLASHONLY|Rotation=0.000|XOffset=0mil|YOffset=0mil|HoleType=Round|Shape=RoundedRectangle|*
%AMROUNDEDRECTD28*
21,1,0.0256,0.0128,0,0,0.0*
21,1,0.0108,0.0276,0,0,0.0*
1,1,0.0148,0.0054,-0.0064*
1,1,0.0148,-0.0054,-0.0064*
1,1,0.0148,-0.0054,0.0064*
1,1,0.0148,0.0054,0.0064*
%
%ADD28ROUNDEDRECTD28*%
G04:AMPARAMS|DCode=29|XSize=25.6mil|YSize=27.6mil|CornerRadius=7.4mil|HoleSize=0mil|Usage=FLASHONLY|Rotation=90.000|XOffset=0mil|YOffset=0mil|HoleType=Round|Shape=RoundedRectangle|*
%AMROUNDEDRECTD29*
21,1,0.0256,0.0128,0,0,90.0*
21,1,0.0108,0.0276,0,0,90.0*
1,1,0.0148,0.0064,0.0054*
1,1,0.0148,0.0064,-0.0054*
1,1,0.0148,-0.0064,-0.0054*
1,1,0.0148,-0.0064,0.0054*
%
%ADD29ROUNDEDRECTD29*%
G04:AMPARAMS|DCode=30|XSize=55.1mil|YSize=31.5mil|CornerRadius=8.9mil|HoleSize=0mil|Usage=FLASHONLY|Rotation=0.000|XOffset=0mil|YOffset=0mil|HoleType=Round|Shape=RoundedRectangle|*
%AMROUNDEDRECTD30*
21,1,0.0551,0.0138,0,0,0.0*
21,1,0.0374,0.0315,0,0,0.0*
1,1,0.0177,0.0187,-0.0069*
1,1,0.0177,-0.0187,-0.0069*
1,1,0.0177,-0.0187,0.0069*
1,1,0.0177,0.0187,0.0069*
%
%ADD30ROUNDEDRECTD30*%
G04:AMPARAMS|DCode=31|XSize=15.7mil|YSize=31.5mil|CornerRadius=4.9mil|HoleSize=0mil|Usage=FLASHONLY|Rotation=180.000|XOffset=0mil|YOffset=0mil|HoleType=Round|Shape=RoundedRectangle|*
%AMROUNDEDRECTD31*
21,1,0.0157,0.0217,0,0,180.0*
21,1,0.0059,0.0315,0,0,180.0*
1,1,0.0098,-0.0030,0.0108*
1,1,0.0098,0.0030,0.0108*
1,1,0.0098,0.0030,-0.0108*
1,1,0.0098,-0.0030,-0.0108*
%
%ADD31ROUNDEDRECTD31*%
%ADD32R,0.0669X0.0433*%
G04:AMPARAMS|DCode=33|XSize=33.5mil|YSize=61mil|CornerRadius=9.4mil|HoleSize=0mil|Usage=FLASHONLY|Rotation=225.000|XOffset=0mil|YOffset=0mil|HoleType=Round|Shape=RoundedRectangle|*
%AMROUNDEDRECTD33*
21,1,0.0335,0.0423,0,0,225.0*
21,1,0.0148,0.0610,0,0,225.0*
1,1,0.0187,-0.0202,0.0097*
1,1,0.0187,-0.0097,0.0202*
1,1,0.0187,0.0202,-0.0097*
1,1,0.0187,0.0097,-0.0202*
%
%ADD33ROUNDEDRECTD33*%
G04:AMPARAMS|DCode=34|XSize=15.7mil|YSize=33.5mil|CornerRadius=4.9mil|HoleSize=0mil|Usage=FLASHONLY|Rotation=0.000|XOffset=0mil|YOffset=0mil|HoleType=Round|Shape=RoundedRectangle|*
%AMROUNDEDRECTD34*
21,1,0.0157,0.0236,0,0,0.0*
21,1,0.0059,0.0335,0,0,0.0*
1,1,0.0098,0.0030,-0.0118*
1,1,0.0098,-0.0030,-0.0118*
1,1,0.0098,-0.0030,0.0118*
1,1,0.0098,0.0030,0.0118*
%
%ADD34ROUNDEDRECTD34*%
%ADD35R,0.0610X0.0728*%
G04:AMPARAMS|DCode=36|XSize=39.4mil|YSize=35.4mil|CornerRadius=9.8mil|HoleSize=0mil|Usage=FLASHONLY|Rotation=0.000|XOffset=0mil|YOffset=0mil|HoleType=Round|Shape=RoundedRectangle|*
%AMROUNDEDRECTD36*
21,1,0.0394,0.0157,0,0,0.0*
21,1,0.0197,0.0354,0,0,0.0*
1,1,0.0197,0.0098,-0.0079*
1,1,0.0197,-0.0098,-0.0079*
1,1,0.0197,-0.0098,0.0079*
1,1,0.0197,0.0098,0.0079*
%
%ADD36ROUNDEDRECTD36*%
G04:AMPARAMS|DCode=37|XSize=29.1mil|YSize=21.7mil|CornerRadius=6.4mil|HoleSize=0mil|Usage=FLASHONLY|Rotation=90.000|XOffset=0mil|YOffset=0mil|HoleType=Round|Shape=RoundedRectangle|*
%AMROUNDEDRECTD37*
21,1,0.0291,0.0089,0,0,90.0*
21,1,0.0163,0.0217,0,0,90.0*
1,1,0.0128,0.0044,0.0082*
1,1,0.0128,0.0044,-0.0082*
1,1,0.0128,-0.0044,-0.0082*
1,1,0.0128,-0.0044,0.0082*
%
%ADD37ROUNDEDRECTD37*%
G04:AMPARAMS|DCode=38|XSize=70.9mil|YSize=47.2mil|CornerRadius=12.8mil|HoleSize=0mil|Usage=FLASHONLY|Rotation=270.000|XOffset=0mil|YOffset=0mil|HoleType=Round|Shape=RoundedRectangle|*
%AMROUNDEDRECTD38*
21,1,0.0709,0.0217,0,0,270.0*
21,1,0.0453,0.0472,0,0,270.0*
1,1,0.0256,-0.0108,-0.0226*
1,1,0.0256,-0.0108,0.0226*
1,1,0.0256,0.0108,0.0226*
1,1,0.0256,0.0108,-0.0226*
%
%ADD38ROUNDEDRECTD38*%
G04:AMPARAMS|DCode=39|XSize=82.7mil|YSize=59.1mil|CornerRadius=15.7mil|HoleSize=0mil|Usage=FLASHONLY|Rotation=90.000|XOffset=0mil|YOffset=0mil|HoleType=Round|Shape=RoundedRectangle|*
%AMROUNDEDRECTD39*
21,1,0.0827,0.0276,0,0,90.0*
21,1,0.0512,0.0591,0,0,90.0*
1,1,0.0315,0.0138,0.0256*
1,1,0.0315,0.0138,-0.0256*
1,1,0.0315,-0.0138,-0.0256*
1,1,0.0315,-0.0138,0.0256*
%
%ADD39ROUNDEDRECTD39*%
G04:AMPARAMS|DCode=40|XSize=29.1mil|YSize=21.7mil|CornerRadius=6.4mil|HoleSize=0mil|Usage=FLASHONLY|Rotation=225.000|XOffset=0mil|YOffset=0mil|HoleType=Round|Shape=RoundedRectangle|*
%AMROUNDEDRECTD40*
21,1,0.0291,0.0089,0,0,225.0*
21,1,0.0163,0.0217,0,0,225.0*
1,1,0.0128,-0.0089,-0.0026*
1,1,0.0128,0.0026,0.0089*
1,1,0.0128,0.0089,0.0026*
1,1,0.0128,-0.0026,-0.0089*
%
%ADD40ROUNDEDRECTD40*%
G04:AMPARAMS|DCode=41|XSize=19.7mil|YSize=78.7mil|CornerRadius=5.9mil|HoleSize=0mil|Usage=FLASHONLY|Rotation=225.000|XOffset=0mil|YOffset=0mil|HoleType=Round|Shape=RoundedRectangle|*
%AMROUNDEDRECTD41*
21,1,0.0197,0.0669,0,0,225.0*
21,1,0.0079,0.0787,0,0,225.0*
1,1,0.0118,-0.0264,0.0209*
1,1,0.0118,-0.0209,0.0264*
1,1,0.0118,0.0264,-0.0209*
1,1,0.0118,0.0209,-0.0264*
%
%ADD41ROUNDEDRECTD41*%
G04:AMPARAMS|DCode=42|XSize=43.3mil|YSize=25.6mil|CornerRadius=7.4mil|HoleSize=0mil|Usage=FLASHONLY|Rotation=270.000|XOffset=0mil|YOffset=0mil|HoleType=Round|Shape=RoundedRectangle|*
%AMROUNDEDRECTD42*
21,1,0.0433,0.0108,0,0,270.0*
21,1,0.0285,0.0256,0,0,270.0*
1,1,0.0148,-0.0054,-0.0143*
1,1,0.0148,-0.0054,0.0143*
1,1,0.0148,0.0054,0.0143*
1,1,0.0148,0.0054,-0.0143*
%
%ADD42ROUNDEDRECTD42*%
G04:AMPARAMS|DCode=43|XSize=39.4mil|YSize=39.4mil|CornerRadius=10.8mil|HoleSize=0mil|Usage=FLASHONLY|Rotation=0.000|XOffset=0mil|YOffset=0mil|HoleType=Round|Shape=RoundedRectangle|*
%AMROUNDEDRECTD43*
21,1,0.0394,0.0177,0,0,0.0*
21,1,0.0177,0.0394,0,0,0.0*
1,1,0.0217,0.0089,-0.0089*
1,1,0.0217,-0.0089,-0.0089*
1,1,0.0217,-0.0089,0.0089*
1,1,0.0217,0.0089,0.0089*
%
%ADD43ROUNDEDRECTD43*%
G04:AMPARAMS|DCode=44|XSize=39.4mil|YSize=47.2mil|CornerRadius=10.8mil|HoleSize=0mil|Usage=FLASHONLY|Rotation=0.000|XOffset=0mil|YOffset=0mil|HoleType=Round|Shape=RoundedRectangle|*
%AMROUNDEDRECTD44*
21,1,0.0394,0.0256,0,0,0.0*
21,1,0.0177,0.0472,0,0,0.0*
1,1,0.0217,0.0089,-0.0128*
1,1,0.0217,-0.0089,-0.0128*
1,1,0.0217,-0.0089,0.0128*
1,1,0.0217,0.0089,0.0128*
%
%ADD44ROUNDEDRECTD44*%
G04:AMPARAMS|DCode=45|XSize=29.1mil|YSize=21.7mil|CornerRadius=6.4mil|HoleSize=0mil|Usage=FLASHONLY|Rotation=135.000|XOffset=0mil|YOffset=0mil|HoleType=Round|Shape=RoundedRectangle|*
%AMROUNDEDRECTD45*
21,1,0.0291,0.0089,0,0,135.0*
21,1,0.0163,0.0217,0,0,135.0*
1,1,0.0128,-0.0026,0.0089*
1,1,0.0128,0.0089,-0.0026*
1,1,0.0128,0.0026,-0.0089*
1,1,0.0128,-0.0089,0.0026*
%
%ADD45ROUNDEDRECTD45*%
%ADD46R,0.0787X0.0787*%
%ADD47R,0.0591X0.0669*%
G04:AMPARAMS|DCode=48|XSize=59.1mil|YSize=19.7mil|CornerRadius=5.9mil|HoleSize=0mil|Usage=FLASHONLY|Rotation=0.000|XOffset=0mil|YOffset=0mil|HoleType=Round|Shape=RoundedRectangle|*
%AMROUNDEDRECTD48*
21,1,0.0591,0.0079,0,0,0.0*
21,1,0.0472,0.0197,0,0,0.0*
1,1,0.0118,0.0236,-0.0039*
1,1,0.0118,-0.0236,-0.0039*
1,1,0.0118,-0.0236,0.0039*
1,1,0.0118,0.0236,0.0039*
%
%ADD48ROUNDEDRECTD48*%
G04:AMPARAMS|DCode=49|XSize=68.9mil|YSize=39.4mil|CornerRadius=10.8mil|HoleSize=0mil|Usage=FLASHONLY|Rotation=90.000|XOffset=0mil|YOffset=0mil|HoleType=Round|Shape=RoundedRectangle|*
%AMROUNDEDRECTD49*
21,1,0.0689,0.0177,0,0,90.0*
21,1,0.0472,0.0394,0,0,90.0*
1,1,0.0217,0.0089,0.0236*
1,1,0.0217,0.0089,-0.0236*
1,1,0.0217,-0.0089,-0.0236*
1,1,0.0217,-0.0089,0.0236*
%
%ADD49ROUNDEDRECTD49*%
G04:AMPARAMS|DCode=50|XSize=3.9mil|YSize=3.9mil|CornerRadius=0mil|HoleSize=0mil|Usage=FLASHONLY|Rotation=90.000|XOffset=0mil|YOffset=0mil|HoleType=Round|Shape=RoundedRectangle|*
%AMROUNDEDRECTD50*
21,1,0.0039,0.0039,0,0,90.0*
21,1,0.0039,0.0039,0,0,90.0*
1,1,0.0000,0.0020,0.0020*
1,1,0.0000,0.0020,-0.0020*
1,1,0.0000,-0.0020,-0.0020*
1,1,0.0000,-0.0020,0.0020*
%
%ADD50ROUNDEDRECTD50*%
G04:AMPARAMS|DCode=51|XSize=35.4mil|YSize=35.4mil|CornerRadius=9.8mil|HoleSize=0mil|Usage=FLASHONLY|Rotation=0.000|XOffset=0mil|YOffset=0mil|HoleType=Round|Shape=RoundedRectangle|*
%AMROUNDEDRECTD51*
21,1,0.0354,0.0157,0,0,0.0*
21,1,0.0157,0.0354,0,0,0.0*
1,1,0.0197,0.0079,-0.0079*
1,1,0.0197,-0.0079,-0.0079*
1,1,0.0197,-0.0079,0.0079*
1,1,0.0197,0.0079,0.0079*
%
%ADD51ROUNDEDRECTD51*%
%ADD52C,0.0276*%
%ADD53C,0.0354*%
G04:AMPARAMS|DCode=54|XSize=35.4mil|YSize=35.4mil|CornerRadius=9.8mil|HoleSize=0mil|Usage=FLASHONLY|Rotation=90.000|XOffset=0mil|YOffset=0mil|HoleType=Round|Shape=RoundedRectangle|*
%AMROUNDEDRECTD54*
21,1,0.0354,0.0157,0,0,90.0*
21,1,0.0157,0.0354,0,0,90.0*
1,1,0.0197,0.0079,0.0079*
1,1,0.0197,0.0079,-0.0079*
1,1,0.0197,-0.0079,-0.0079*
1,1,0.0197,-0.0079,0.0079*
%
%ADD54ROUNDEDRECTD54*%
%ADD55C,0.0433*%
G04:AMPARAMS|DCode=56|XSize=66.9mil|YSize=66.9mil|CornerRadius=17.7mil|HoleSize=0mil|Usage=FLASHONLY|Rotation=0.000|XOffset=0mil|YOffset=0mil|HoleType=Round|Shape=RoundedRectangle|*
%AMROUNDEDRECTD56*
21,1,0.0669,0.0315,0,0,0.0*
21,1,0.0315,0.0669,0,0,0.0*
1,1,0.0354,0.0157,-0.0157*
1,1,0.0354,-0.0157,-0.0157*
1,1,0.0354,-0.0157,0.0157*
1,1,0.0354,0.0157,0.0157*
%
%ADD56ROUNDEDRECTD56*%
D14*
X13360Y-2904D02*
D03*
D15*
X512Y-571D02*
D03*
X13720Y-4843D02*
D03*
D16*
X4777Y-4304D02*
D03*
X4638Y-4164D02*
D03*
X4498Y-4025D02*
D03*
X4359Y-3886D02*
D03*
X4220Y-3747D02*
D03*
X4081Y-3608D02*
D03*
X3942Y-3468D02*
D03*
X3802Y-3329D02*
D03*
X3663Y-3190D02*
D03*
X3524Y-3051D02*
D03*
X3385Y-2912D02*
D03*
X3246Y-2772D02*
D03*
X5125Y-893D02*
D03*
X5264Y-1032D02*
D03*
X5403Y-1172D02*
D03*
X5542Y-1311D02*
D03*
X5682Y-1450D02*
D03*
X5821Y-1589D02*
D03*
X5960Y-1728D02*
D03*
X6099Y-1868D02*
D03*
X6238Y-2007D02*
D03*
X6378Y-2146D02*
D03*
X6517Y-2285D02*
D03*
X6656Y-2424D02*
D03*
D17*
X3246D02*
D03*
X3385Y-2285D02*
D03*
X3524Y-2146D02*
D03*
X3663Y-2007D02*
D03*
X3802Y-1868D02*
D03*
X3942Y-1728D02*
D03*
X4081Y-1589D02*
D03*
X4220Y-1450D02*
D03*
X4359Y-1311D02*
D03*
X4498Y-1172D02*
D03*
X4638Y-1032D02*
D03*
X4777Y-893D02*
D03*
X6656Y-2772D02*
D03*
X6517Y-2912D02*
D03*
X6378Y-3051D02*
D03*
X6238Y-3190D02*
D03*
X6099Y-3329D02*
D03*
X5960Y-3468D02*
D03*
X5821Y-3608D02*
D03*
X5682Y-3747D02*
D03*
X5542Y-3886D02*
D03*
X5403Y-4025D02*
D03*
X5264Y-4164D02*
D03*
X5125Y-4304D02*
D03*
D18*
X5627Y-2596D02*
D03*
X4277Y-2598D02*
D03*
D19*
X4951Y-3272D02*
D03*
X4954Y-1922D02*
D03*
D20*
X10935Y-1142D02*
D03*
X10620D02*
D03*
X10778Y-1614D02*
D03*
X12234Y-1144D02*
D03*
X11919D02*
D03*
X12077Y-1616D02*
D03*
X11427D02*
D03*
X11270Y-1144D02*
D03*
X11585D02*
D03*
D21*
X13747Y-531D02*
D03*
X13274Y-689D02*
D03*
Y-374D02*
D03*
D22*
X3970Y-4092D02*
D03*
X3747Y-4314D02*
D03*
X4193Y-4537D02*
D03*
D23*
X8504Y-4833D02*
D03*
X8248Y-4124D02*
D03*
X8760D02*
D03*
D24*
X8701Y-2618D02*
D03*
X7992Y-2874D02*
D03*
Y-2362D02*
D03*
D25*
X8711Y-1083D02*
D03*
X9222D02*
D03*
X8967Y-354D02*
D03*
D26*
X2293Y-3612D02*
D03*
Y-3986D02*
D03*
Y-4360D02*
D03*
X3199D02*
D03*
Y-3986D02*
D03*
Y-3612D02*
D03*
D27*
X6608Y-465D02*
D03*
Y-874D02*
D03*
X7079Y-465D02*
D03*
Y-874D02*
D03*
X9286Y-1488D02*
D03*
Y-1898D02*
D03*
X4656Y-4717D02*
D03*
Y-5126D02*
D03*
X7549Y-874D02*
D03*
Y-465D02*
D03*
X12891Y-263D02*
D03*
Y-673D02*
D03*
X10129Y-356D02*
D03*
Y-766D02*
D03*
X5667Y-465D02*
D03*
Y-874D02*
D03*
X2382Y-661D02*
D03*
Y-1071D02*
D03*
X2795D02*
D03*
Y-661D02*
D03*
X6137Y-465D02*
D03*
Y-874D02*
D03*
D28*
X7795Y-4252D02*
D03*
X7795Y-4587D02*
D03*
X9675Y-738D02*
D03*
Y-1073D02*
D03*
X9675Y-1526D02*
D03*
Y-1860D02*
D03*
X12279Y-728D02*
D03*
Y-394D02*
D03*
X11845Y-728D02*
D03*
Y-394D02*
D03*
X11411Y-728D02*
D03*
Y-394D02*
D03*
X10977Y-728D02*
D03*
Y-394D02*
D03*
X10543Y-728D02*
D03*
X10543Y-394D02*
D03*
X3238Y-4774D02*
D03*
Y-5108D02*
D03*
X8858Y-1860D02*
D03*
Y-1526D02*
D03*
X3612Y-4774D02*
D03*
Y-5108D02*
D03*
D29*
X8307Y-974D02*
D03*
X7972D02*
D03*
X7972Y-492D02*
D03*
X8307D02*
D03*
X7923Y-3701D02*
D03*
X8258D02*
D03*
X8976Y-3701D02*
D03*
X8642D02*
D03*
X8976Y-3317D02*
D03*
X8642D02*
D03*
X7923Y-3317D02*
D03*
X8258D02*
D03*
X640Y-1230D02*
D03*
X974D02*
D03*
D30*
X10640Y-5069D02*
D03*
Y-4262D02*
D03*
X9931Y-4262D02*
D03*
Y-5069D02*
D03*
D31*
X3219Y-1338D02*
D03*
X3474D02*
D03*
X3730D02*
D03*
X3219Y-511D02*
D03*
X3474D02*
D03*
X3730D02*
D03*
D32*
X3474Y-924D02*
D03*
D33*
X6106Y-4250D02*
D03*
X5418Y-4938D02*
D03*
D34*
X1348Y-354D02*
D03*
X1545D02*
D03*
X1742D02*
D03*
X1939D02*
D03*
Y-1496D02*
D03*
X1742D02*
D03*
X1545D02*
D03*
X1348D02*
D03*
D35*
X1644Y-925D02*
D03*
D36*
X10187Y-1781D02*
D03*
Y-1230D02*
D03*
D37*
X1012Y-1614D02*
D03*
X602D02*
D03*
D38*
X11270Y-4941D02*
D03*
X12333D02*
D03*
D39*
X12795Y-1309D02*
D03*
X13937D02*
D03*
D40*
X6391Y-3601D02*
D03*
X6680Y-3891D02*
D03*
D41*
X7233Y-4204D02*
D03*
X6899Y-4538D02*
D03*
X6564Y-4873D02*
D03*
D42*
X12106Y-3376D02*
D03*
X11417D02*
D03*
Y-2195D02*
D03*
X12106D02*
D03*
D43*
X12215Y-4193D02*
D03*
D44*
X11270D02*
D03*
D45*
X2802Y-2198D02*
D03*
X2513Y-2487D02*
D03*
D46*
X541Y-4242D02*
D03*
Y-3297D02*
D03*
D47*
X1506Y-5030D02*
D03*
Y-2510D02*
D03*
D48*
X1585Y-3770D02*
D03*
Y-4026D02*
D03*
Y-3514D02*
D03*
Y-3258D02*
D03*
Y-4281D02*
D03*
D49*
X9419Y-3504D02*
D03*
X10561D02*
D03*
Y-2608D02*
D03*
X9419D02*
D03*
D50*
X13474Y-3504D02*
D03*
Y-2008D02*
D03*
D51*
X9311Y-5098D02*
D03*
X7530Y-5118D02*
D03*
X2215Y-3140D02*
D03*
D52*
X3027Y-1836D02*
D03*
D53*
X2844Y-3100D02*
D03*
D54*
X9311Y-4469D02*
D03*
X2293Y-1880D02*
D03*
D55*
X2736Y-5039D02*
D03*
X4114Y-5049D02*
D03*
D56*
X541Y-5069D02*
D03*
Y-2470D02*
D03*
M02*
