G04*
G04 #@! TF.GenerationSoftware,Altium Limited,Altium Designer,21.8.1 (53)*
G04*
G04 Layer_Physical_Order=1*
G04 Layer_Color=255*
%FSLAX24Y24*%
%MOIN*%
G70*
G04*
G04 #@! TF.SameCoordinates,95809A84-84CF-4DA7-BFB4-83C52BA3911F*
G04*
G04*
G04 #@! TF.FilePolarity,Positive*
G04*
G01*
G75*
%ADD10C,0.0098*%
%ADD57C,0.0157*%
%ADD58C,0.0197*%
%ADD59C,0.0098*%
%ADD60C,0.0060*%
%ADD61C,0.0394*%
G04:AMPARAMS|DCode=62|XSize=9.8mil|YSize=29.5mil|CornerRadius=0mil|HoleSize=0mil|Usage=FLASHONLY|Rotation=135.000|XOffset=0mil|YOffset=0mil|HoleType=Round|Shape=Round|*
%AMOVALD62*
21,1,0.0197,0.0098,0.0000,0.0000,225.0*
1,1,0.0098,0.0070,0.0070*
1,1,0.0098,-0.0070,-0.0070*
%
%ADD62OVALD62*%

G04:AMPARAMS|DCode=63|XSize=9.8mil|YSize=29.5mil|CornerRadius=0mil|HoleSize=0mil|Usage=FLASHONLY|Rotation=225.000|XOffset=0mil|YOffset=0mil|HoleType=Round|Shape=Round|*
%AMOVALD63*
21,1,0.0197,0.0098,0.0000,0.0000,315.0*
1,1,0.0098,-0.0070,0.0070*
1,1,0.0098,0.0070,-0.0070*
%
%ADD63OVALD63*%

%ADD64P,0.1698X4X180.0*%
%ADD65P,0.1698X4X90.0*%
G04:AMPARAMS|DCode=66|XSize=13.8mil|YSize=21.7mil|CornerRadius=3.4mil|HoleSize=0mil|Usage=FLASHONLY|Rotation=0.000|XOffset=0mil|YOffset=0mil|HoleType=Round|Shape=RoundedRectangle|*
%AMROUNDEDRECTD66*
21,1,0.0138,0.0148,0,0,0.0*
21,1,0.0069,0.0217,0,0,0.0*
1,1,0.0069,0.0034,-0.0074*
1,1,0.0069,-0.0034,-0.0074*
1,1,0.0069,-0.0034,0.0074*
1,1,0.0069,0.0034,0.0074*
%
%ADD66ROUNDEDRECTD66*%
G04:AMPARAMS|DCode=67|XSize=13.8mil|YSize=21.7mil|CornerRadius=3.4mil|HoleSize=0mil|Usage=FLASHONLY|Rotation=90.000|XOffset=0mil|YOffset=0mil|HoleType=Round|Shape=RoundedRectangle|*
%AMROUNDEDRECTD67*
21,1,0.0138,0.0148,0,0,90.0*
21,1,0.0069,0.0217,0,0,90.0*
1,1,0.0069,0.0074,0.0034*
1,1,0.0069,0.0074,-0.0034*
1,1,0.0069,-0.0074,-0.0034*
1,1,0.0069,-0.0074,0.0034*
%
%ADD67ROUNDEDRECTD67*%
G04:AMPARAMS|DCode=68|XSize=13.8mil|YSize=21.7mil|CornerRadius=3.4mil|HoleSize=0mil|Usage=FLASHONLY|Rotation=45.000|XOffset=0mil|YOffset=0mil|HoleType=Round|Shape=RoundedRectangle|*
%AMROUNDEDRECTD68*
21,1,0.0138,0.0148,0,0,45.0*
21,1,0.0069,0.0217,0,0,45.0*
1,1,0.0069,0.0077,-0.0028*
1,1,0.0069,0.0028,-0.0077*
1,1,0.0069,-0.0077,0.0028*
1,1,0.0069,-0.0028,0.0077*
%
%ADD68ROUNDEDRECTD68*%
G04:AMPARAMS|DCode=69|XSize=19.7mil|YSize=35.4mil|CornerRadius=4.9mil|HoleSize=0mil|Usage=FLASHONLY|Rotation=0.000|XOffset=0mil|YOffset=0mil|HoleType=Round|Shape=RoundedRectangle|*
%AMROUNDEDRECTD69*
21,1,0.0197,0.0256,0,0,0.0*
21,1,0.0098,0.0354,0,0,0.0*
1,1,0.0098,0.0049,-0.0128*
1,1,0.0098,-0.0049,-0.0128*
1,1,0.0098,-0.0049,0.0128*
1,1,0.0098,0.0049,0.0128*
%
%ADD69ROUNDEDRECTD69*%
G04:AMPARAMS|DCode=70|XSize=19.7mil|YSize=35.4mil|CornerRadius=4.9mil|HoleSize=0mil|Usage=FLASHONLY|Rotation=90.000|XOffset=0mil|YOffset=0mil|HoleType=Round|Shape=RoundedRectangle|*
%AMROUNDEDRECTD70*
21,1,0.0197,0.0256,0,0,90.0*
21,1,0.0098,0.0354,0,0,90.0*
1,1,0.0098,0.0128,0.0049*
1,1,0.0098,0.0128,-0.0049*
1,1,0.0098,-0.0128,-0.0049*
1,1,0.0098,-0.0128,0.0049*
%
%ADD70ROUNDEDRECTD70*%
G04:AMPARAMS|DCode=71|XSize=23.6mil|YSize=27.6mil|CornerRadius=5.9mil|HoleSize=0mil|Usage=FLASHONLY|Rotation=180.000|XOffset=0mil|YOffset=0mil|HoleType=Round|Shape=RoundedRectangle|*
%AMROUNDEDRECTD71*
21,1,0.0236,0.0157,0,0,180.0*
21,1,0.0118,0.0276,0,0,180.0*
1,1,0.0118,-0.0059,0.0079*
1,1,0.0118,0.0059,0.0079*
1,1,0.0118,0.0059,-0.0079*
1,1,0.0118,-0.0059,-0.0079*
%
%ADD71ROUNDEDRECTD71*%
G04:AMPARAMS|DCode=72|XSize=23.6mil|YSize=47.2mil|CornerRadius=5.9mil|HoleSize=0mil|Usage=FLASHONLY|Rotation=90.000|XOffset=0mil|YOffset=0mil|HoleType=Round|Shape=RoundedRectangle|*
%AMROUNDEDRECTD72*
21,1,0.0236,0.0354,0,0,90.0*
21,1,0.0118,0.0472,0,0,90.0*
1,1,0.0118,0.0177,0.0059*
1,1,0.0118,0.0177,-0.0059*
1,1,0.0118,-0.0177,-0.0059*
1,1,0.0118,-0.0177,0.0059*
%
%ADD72ROUNDEDRECTD72*%
G04:AMPARAMS|DCode=73|XSize=25.2mil|YSize=17.7mil|CornerRadius=4.4mil|HoleSize=0mil|Usage=FLASHONLY|Rotation=0.000|XOffset=0mil|YOffset=0mil|HoleType=Round|Shape=RoundedRectangle|*
%AMROUNDEDRECTD73*
21,1,0.0252,0.0089,0,0,0.0*
21,1,0.0163,0.0177,0,0,0.0*
1,1,0.0089,0.0082,-0.0044*
1,1,0.0089,-0.0082,-0.0044*
1,1,0.0089,-0.0082,0.0044*
1,1,0.0089,0.0082,0.0044*
%
%ADD73ROUNDEDRECTD73*%
G04:AMPARAMS|DCode=74|XSize=21.7mil|YSize=23.6mil|CornerRadius=5.4mil|HoleSize=0mil|Usage=FLASHONLY|Rotation=0.000|XOffset=0mil|YOffset=0mil|HoleType=Round|Shape=RoundedRectangle|*
%AMROUNDEDRECTD74*
21,1,0.0217,0.0128,0,0,0.0*
21,1,0.0108,0.0236,0,0,0.0*
1,1,0.0108,0.0054,-0.0064*
1,1,0.0108,-0.0054,-0.0064*
1,1,0.0108,-0.0054,0.0064*
1,1,0.0108,0.0054,0.0064*
%
%ADD74ROUNDEDRECTD74*%
G04:AMPARAMS|DCode=75|XSize=21.7mil|YSize=23.6mil|CornerRadius=5.4mil|HoleSize=0mil|Usage=FLASHONLY|Rotation=90.000|XOffset=0mil|YOffset=0mil|HoleType=Round|Shape=RoundedRectangle|*
%AMROUNDEDRECTD75*
21,1,0.0217,0.0128,0,0,90.0*
21,1,0.0108,0.0236,0,0,90.0*
1,1,0.0108,0.0064,0.0054*
1,1,0.0108,0.0064,-0.0054*
1,1,0.0108,-0.0064,-0.0054*
1,1,0.0108,-0.0064,0.0054*
%
%ADD75ROUNDEDRECTD75*%
G04:AMPARAMS|DCode=76|XSize=51.2mil|YSize=27.6mil|CornerRadius=6.9mil|HoleSize=0mil|Usage=FLASHONLY|Rotation=0.000|XOffset=0mil|YOffset=0mil|HoleType=Round|Shape=RoundedRectangle|*
%AMROUNDEDRECTD76*
21,1,0.0512,0.0138,0,0,0.0*
21,1,0.0374,0.0276,0,0,0.0*
1,1,0.0138,0.0187,-0.0069*
1,1,0.0138,-0.0187,-0.0069*
1,1,0.0138,-0.0187,0.0069*
1,1,0.0138,0.0187,0.0069*
%
%ADD76ROUNDEDRECTD76*%
G04:AMPARAMS|DCode=77|XSize=11.8mil|YSize=27.6mil|CornerRadius=3mil|HoleSize=0mil|Usage=FLASHONLY|Rotation=180.000|XOffset=0mil|YOffset=0mil|HoleType=Round|Shape=RoundedRectangle|*
%AMROUNDEDRECTD77*
21,1,0.0118,0.0217,0,0,180.0*
21,1,0.0059,0.0276,0,0,180.0*
1,1,0.0059,-0.0030,0.0108*
1,1,0.0059,0.0030,0.0108*
1,1,0.0059,0.0030,-0.0108*
1,1,0.0059,-0.0030,-0.0108*
%
%ADD77ROUNDEDRECTD77*%
%ADD78R,0.0630X0.0394*%
G04:AMPARAMS|DCode=79|XSize=29.5mil|YSize=57.1mil|CornerRadius=7.4mil|HoleSize=0mil|Usage=FLASHONLY|Rotation=225.000|XOffset=0mil|YOffset=0mil|HoleType=Round|Shape=RoundedRectangle|*
%AMROUNDEDRECTD79*
21,1,0.0295,0.0423,0,0,225.0*
21,1,0.0148,0.0571,0,0,225.0*
1,1,0.0148,-0.0202,0.0097*
1,1,0.0148,-0.0097,0.0202*
1,1,0.0148,0.0202,-0.0097*
1,1,0.0148,0.0097,-0.0202*
%
%ADD79ROUNDEDRECTD79*%
G04:AMPARAMS|DCode=80|XSize=11.8mil|YSize=29.5mil|CornerRadius=3mil|HoleSize=0mil|Usage=FLASHONLY|Rotation=0.000|XOffset=0mil|YOffset=0mil|HoleType=Round|Shape=RoundedRectangle|*
%AMROUNDEDRECTD80*
21,1,0.0118,0.0236,0,0,0.0*
21,1,0.0059,0.0295,0,0,0.0*
1,1,0.0059,0.0030,-0.0118*
1,1,0.0059,-0.0030,-0.0118*
1,1,0.0059,-0.0030,0.0118*
1,1,0.0059,0.0030,0.0118*
%
%ADD80ROUNDEDRECTD80*%
%ADD81R,0.0571X0.0689*%
G04:AMPARAMS|DCode=82|XSize=35.4mil|YSize=31.5mil|CornerRadius=7.9mil|HoleSize=0mil|Usage=FLASHONLY|Rotation=0.000|XOffset=0mil|YOffset=0mil|HoleType=Round|Shape=RoundedRectangle|*
%AMROUNDEDRECTD82*
21,1,0.0354,0.0157,0,0,0.0*
21,1,0.0197,0.0315,0,0,0.0*
1,1,0.0157,0.0098,-0.0079*
1,1,0.0157,-0.0098,-0.0079*
1,1,0.0157,-0.0098,0.0079*
1,1,0.0157,0.0098,0.0079*
%
%ADD82ROUNDEDRECTD82*%
G04:AMPARAMS|DCode=83|XSize=25.2mil|YSize=17.7mil|CornerRadius=4.4mil|HoleSize=0mil|Usage=FLASHONLY|Rotation=90.000|XOffset=0mil|YOffset=0mil|HoleType=Round|Shape=RoundedRectangle|*
%AMROUNDEDRECTD83*
21,1,0.0252,0.0089,0,0,90.0*
21,1,0.0163,0.0177,0,0,90.0*
1,1,0.0089,0.0044,0.0082*
1,1,0.0089,0.0044,-0.0082*
1,1,0.0089,-0.0044,-0.0082*
1,1,0.0089,-0.0044,0.0082*
%
%ADD83ROUNDEDRECTD83*%
G04:AMPARAMS|DCode=84|XSize=66.9mil|YSize=43.3mil|CornerRadius=10.8mil|HoleSize=0mil|Usage=FLASHONLY|Rotation=270.000|XOffset=0mil|YOffset=0mil|HoleType=Round|Shape=RoundedRectangle|*
%AMROUNDEDRECTD84*
21,1,0.0669,0.0217,0,0,270.0*
21,1,0.0453,0.0433,0,0,270.0*
1,1,0.0217,-0.0108,-0.0226*
1,1,0.0217,-0.0108,0.0226*
1,1,0.0217,0.0108,0.0226*
1,1,0.0217,0.0108,-0.0226*
%
%ADD84ROUNDEDRECTD84*%
G04:AMPARAMS|DCode=85|XSize=78.7mil|YSize=55.1mil|CornerRadius=13.8mil|HoleSize=0mil|Usage=FLASHONLY|Rotation=90.000|XOffset=0mil|YOffset=0mil|HoleType=Round|Shape=RoundedRectangle|*
%AMROUNDEDRECTD85*
21,1,0.0787,0.0276,0,0,90.0*
21,1,0.0512,0.0551,0,0,90.0*
1,1,0.0276,0.0138,0.0256*
1,1,0.0276,0.0138,-0.0256*
1,1,0.0276,-0.0138,-0.0256*
1,1,0.0276,-0.0138,0.0256*
%
%ADD85ROUNDEDRECTD85*%
G04:AMPARAMS|DCode=86|XSize=25.2mil|YSize=17.7mil|CornerRadius=4.4mil|HoleSize=0mil|Usage=FLASHONLY|Rotation=225.000|XOffset=0mil|YOffset=0mil|HoleType=Round|Shape=RoundedRectangle|*
%AMROUNDEDRECTD86*
21,1,0.0252,0.0089,0,0,225.0*
21,1,0.0163,0.0177,0,0,225.0*
1,1,0.0089,-0.0089,-0.0026*
1,1,0.0089,0.0026,0.0089*
1,1,0.0089,0.0089,0.0026*
1,1,0.0089,-0.0026,-0.0089*
%
%ADD86ROUNDEDRECTD86*%
G04:AMPARAMS|DCode=87|XSize=15.7mil|YSize=74.8mil|CornerRadius=3.9mil|HoleSize=0mil|Usage=FLASHONLY|Rotation=225.000|XOffset=0mil|YOffset=0mil|HoleType=Round|Shape=RoundedRectangle|*
%AMROUNDEDRECTD87*
21,1,0.0157,0.0669,0,0,225.0*
21,1,0.0079,0.0748,0,0,225.0*
1,1,0.0079,-0.0264,0.0209*
1,1,0.0079,-0.0209,0.0264*
1,1,0.0079,0.0264,-0.0209*
1,1,0.0079,0.0209,-0.0264*
%
%ADD87ROUNDEDRECTD87*%
G04:AMPARAMS|DCode=88|XSize=39.4mil|YSize=21.7mil|CornerRadius=5.4mil|HoleSize=0mil|Usage=FLASHONLY|Rotation=270.000|XOffset=0mil|YOffset=0mil|HoleType=Round|Shape=RoundedRectangle|*
%AMROUNDEDRECTD88*
21,1,0.0394,0.0108,0,0,270.0*
21,1,0.0285,0.0217,0,0,270.0*
1,1,0.0108,-0.0054,-0.0143*
1,1,0.0108,-0.0054,0.0143*
1,1,0.0108,0.0054,0.0143*
1,1,0.0108,0.0054,-0.0143*
%
%ADD88ROUNDEDRECTD88*%
G04:AMPARAMS|DCode=89|XSize=35.4mil|YSize=35.4mil|CornerRadius=8.9mil|HoleSize=0mil|Usage=FLASHONLY|Rotation=0.000|XOffset=0mil|YOffset=0mil|HoleType=Round|Shape=RoundedRectangle|*
%AMROUNDEDRECTD89*
21,1,0.0354,0.0177,0,0,0.0*
21,1,0.0177,0.0354,0,0,0.0*
1,1,0.0177,0.0089,-0.0089*
1,1,0.0177,-0.0089,-0.0089*
1,1,0.0177,-0.0089,0.0089*
1,1,0.0177,0.0089,0.0089*
%
%ADD89ROUNDEDRECTD89*%
G04:AMPARAMS|DCode=90|XSize=35.4mil|YSize=43.3mil|CornerRadius=8.9mil|HoleSize=0mil|Usage=FLASHONLY|Rotation=0.000|XOffset=0mil|YOffset=0mil|HoleType=Round|Shape=RoundedRectangle|*
%AMROUNDEDRECTD90*
21,1,0.0354,0.0256,0,0,0.0*
21,1,0.0177,0.0433,0,0,0.0*
1,1,0.0177,0.0089,-0.0128*
1,1,0.0177,-0.0089,-0.0128*
1,1,0.0177,-0.0089,0.0128*
1,1,0.0177,0.0089,0.0128*
%
%ADD90ROUNDEDRECTD90*%
G04:AMPARAMS|DCode=91|XSize=25.2mil|YSize=17.7mil|CornerRadius=4.4mil|HoleSize=0mil|Usage=FLASHONLY|Rotation=135.000|XOffset=0mil|YOffset=0mil|HoleType=Round|Shape=RoundedRectangle|*
%AMROUNDEDRECTD91*
21,1,0.0252,0.0089,0,0,135.0*
21,1,0.0163,0.0177,0,0,135.0*
1,1,0.0089,-0.0026,0.0089*
1,1,0.0089,0.0089,-0.0026*
1,1,0.0089,0.0026,-0.0089*
1,1,0.0089,-0.0089,0.0026*
%
%ADD91ROUNDEDRECTD91*%
%ADD92R,0.0748X0.0748*%
%ADD93R,0.0551X0.0630*%
G04:AMPARAMS|DCode=94|XSize=55.1mil|YSize=15.7mil|CornerRadius=3.9mil|HoleSize=0mil|Usage=FLASHONLY|Rotation=0.000|XOffset=0mil|YOffset=0mil|HoleType=Round|Shape=RoundedRectangle|*
%AMROUNDEDRECTD94*
21,1,0.0551,0.0079,0,0,0.0*
21,1,0.0472,0.0157,0,0,0.0*
1,1,0.0079,0.0236,-0.0039*
1,1,0.0079,-0.0236,-0.0039*
1,1,0.0079,-0.0236,0.0039*
1,1,0.0079,0.0236,0.0039*
%
%ADD94ROUNDEDRECTD94*%
G04:AMPARAMS|DCode=95|XSize=65mil|YSize=35.4mil|CornerRadius=8.9mil|HoleSize=0mil|Usage=FLASHONLY|Rotation=90.000|XOffset=0mil|YOffset=0mil|HoleType=Round|Shape=RoundedRectangle|*
%AMROUNDEDRECTD95*
21,1,0.0650,0.0177,0,0,90.0*
21,1,0.0472,0.0354,0,0,90.0*
1,1,0.0177,0.0089,0.0236*
1,1,0.0177,0.0089,-0.0236*
1,1,0.0177,-0.0089,-0.0236*
1,1,0.0177,-0.0089,0.0236*
%
%ADD95ROUNDEDRECTD95*%
%ADD96C,0.0118*%
%ADD97R,0.0488X0.1669*%
%ADD98R,0.0488X0.1673*%
G04:AMPARAMS|DCode=99|XSize=31.5mil|YSize=31.5mil|CornerRadius=7.9mil|HoleSize=0mil|Usage=FLASHONLY|Rotation=0.000|XOffset=0mil|YOffset=0mil|HoleType=Round|Shape=RoundedRectangle|*
%AMROUNDEDRECTD99*
21,1,0.0315,0.0157,0,0,0.0*
21,1,0.0157,0.0315,0,0,0.0*
1,1,0.0157,0.0079,-0.0079*
1,1,0.0157,-0.0079,-0.0079*
1,1,0.0157,-0.0079,0.0079*
1,1,0.0157,0.0079,0.0079*
%
%ADD99ROUNDEDRECTD99*%
%ADD100C,0.0236*%
%ADD101C,0.0315*%
G04:AMPARAMS|DCode=102|XSize=31.5mil|YSize=31.5mil|CornerRadius=7.9mil|HoleSize=0mil|Usage=FLASHONLY|Rotation=90.000|XOffset=0mil|YOffset=0mil|HoleType=Round|Shape=RoundedRectangle|*
%AMROUNDEDRECTD102*
21,1,0.0315,0.0157,0,0,90.0*
21,1,0.0157,0.0315,0,0,90.0*
1,1,0.0157,0.0079,0.0079*
1,1,0.0157,0.0079,-0.0079*
1,1,0.0157,-0.0079,-0.0079*
1,1,0.0157,-0.0079,0.0079*
%
%ADD102ROUNDEDRECTD102*%
G04:AMPARAMS|DCode=103|XSize=63mil|YSize=63mil|CornerRadius=15.7mil|HoleSize=0mil|Usage=FLASHONLY|Rotation=0.000|XOffset=0mil|YOffset=0mil|HoleType=Round|Shape=RoundedRectangle|*
%AMROUNDEDRECTD103*
21,1,0.0630,0.0315,0,0,0.0*
21,1,0.0315,0.0630,0,0,0.0*
1,1,0.0315,0.0157,-0.0157*
1,1,0.0315,-0.0157,-0.0157*
1,1,0.0315,-0.0157,0.0157*
1,1,0.0315,0.0157,0.0157*
%
%ADD103ROUNDEDRECTD103*%
%ADD104C,0.0157*%
%ADD105C,0.0276*%
G36*
X13324Y-860D02*
X13348D01*
X13401Y-850D01*
X13402Y-849D01*
X13452Y-875D01*
Y-1355D01*
X13371Y-1371D01*
X13299Y-1419D01*
X13251Y-1490D01*
X13235Y-1575D01*
X13251Y-1659D01*
X13291Y-1719D01*
X13299Y-1731D01*
X13285Y-1781D01*
X13264Y-1797D01*
X13216Y-1859D01*
X13187Y-1931D01*
X13177Y-2008D01*
X13187Y-2085D01*
X13216Y-2157D01*
X13264Y-2218D01*
X13326Y-2266D01*
X13397Y-2296D01*
X13474Y-2306D01*
X13551Y-2296D01*
X13606Y-2273D01*
X13656Y-2299D01*
Y-3213D01*
X13606Y-3239D01*
X13551Y-3216D01*
X13474Y-3206D01*
X13397Y-3216D01*
X13326Y-3246D01*
X13264Y-3293D01*
X13216Y-3355D01*
X13187Y-3427D01*
X13177Y-3504D01*
X13187Y-3581D01*
X13216Y-3653D01*
X13264Y-3715D01*
X13326Y-3762D01*
X13397Y-3792D01*
X13474Y-3802D01*
X13551Y-3792D01*
X13607Y-3769D01*
X13658Y-3787D01*
X13665Y-3793D01*
X13679Y-3815D01*
X13706Y-3832D01*
X13736Y-3838D01*
X14224D01*
X14232Y-3845D01*
Y-4317D01*
X13140Y-4326D01*
Y-5378D01*
X13095Y-5392D01*
X12570D01*
X12555Y-5342D01*
X12591Y-5317D01*
X12637Y-5249D01*
X12653Y-5167D01*
Y-4991D01*
X12333D01*
X12012D01*
Y-5167D01*
X12028Y-5249D01*
X12074Y-5317D01*
X12111Y-5342D01*
X12095Y-5392D01*
X11801D01*
X11762Y-4380D01*
X11585Y-3591D01*
X11584Y-3590D01*
X11597Y-3571D01*
X11607Y-3519D01*
Y-3400D01*
X11661Y-3334D01*
X11757Y-3155D01*
X11816Y-2960D01*
X11836Y-2758D01*
X11834D01*
Y-2347D01*
X11874Y-2318D01*
X11906Y-2333D01*
X11917Y-2340D01*
X11927Y-2389D01*
X11956Y-2433D01*
X12000Y-2463D01*
X12052Y-2473D01*
X12160D01*
X12212Y-2463D01*
X12256Y-2433D01*
X12286Y-2389D01*
X12296Y-2338D01*
Y-2052D01*
X12286Y-2000D01*
X12256Y-1956D01*
X12212Y-1927D01*
X12160Y-1917D01*
X12052D01*
X12000Y-1927D01*
X11959Y-1955D01*
X11909Y-1943D01*
X11888Y-1911D01*
X11911Y-1864D01*
X11934D01*
X11947Y-1862D01*
X12003Y-1854D01*
X12066Y-1828D01*
X12096Y-1805D01*
X12111D01*
X12155Y-1796D01*
X12193Y-1771D01*
X12218Y-1734D01*
X12227Y-1690D01*
Y-1670D01*
X12237Y-1616D01*
X12227Y-1562D01*
Y-1542D01*
X12218Y-1498D01*
X12193Y-1461D01*
X12155Y-1436D01*
X12111Y-1427D01*
X12042D01*
X11998Y-1436D01*
X11961Y-1461D01*
X11936Y-1498D01*
X11931Y-1523D01*
X11911Y-1543D01*
X11639D01*
X11637Y-1544D01*
X11585Y-1533D01*
X11574Y-1525D01*
X11568Y-1498D01*
X11543Y-1461D01*
X11506Y-1436D01*
X11462Y-1427D01*
X11393D01*
X11349Y-1436D01*
X11322Y-1454D01*
X10886D01*
X10856Y-1434D01*
X10812Y-1425D01*
X10743D01*
X10699Y-1434D01*
X10661Y-1459D01*
X10647Y-1480D01*
X10523D01*
X10465Y-1423D01*
X10437Y-1404D01*
X10454Y-1379D01*
X10459Y-1352D01*
X10515Y-1330D01*
X10533Y-1342D01*
X10570Y-1350D01*
Y-1142D01*
X10670D01*
Y-1350D01*
X10707Y-1342D01*
X10751Y-1312D01*
X10760Y-1299D01*
X10818Y-1297D01*
X10821Y-1298D01*
X10856Y-1322D01*
X10901Y-1331D01*
X10969D01*
X11014Y-1322D01*
X11051Y-1297D01*
X11061Y-1282D01*
X11071Y-1280D01*
X11118Y-1284D01*
X11138Y-1314D01*
X11183Y-1344D01*
X11220Y-1351D01*
Y-1144D01*
X11320D01*
Y-1351D01*
X11357Y-1344D01*
X11401Y-1314D01*
X11410Y-1301D01*
X11468Y-1299D01*
X11471Y-1300D01*
X11506Y-1324D01*
X11550Y-1333D01*
X11619D01*
X11663Y-1324D01*
X11701Y-1299D01*
X11711Y-1283D01*
X11719Y-1281D01*
X11768Y-1285D01*
X11788Y-1314D01*
X11832Y-1344D01*
X11869Y-1351D01*
Y-1144D01*
X11969D01*
Y-1351D01*
X12006Y-1344D01*
X12051Y-1314D01*
X12060Y-1301D01*
X12118Y-1299D01*
X12120Y-1300D01*
X12156Y-1324D01*
X12200Y-1333D01*
X12269D01*
X12313Y-1324D01*
X12350Y-1299D01*
X12375Y-1262D01*
X12384Y-1217D01*
Y-1070D01*
X12375Y-1026D01*
X12350Y-988D01*
X12334Y-977D01*
X12333Y-953D01*
X12338Y-927D01*
X12385Y-918D01*
X12428Y-888D01*
X12453Y-852D01*
X12468Y-842D01*
X12484Y-849D01*
X12490Y-865D01*
X12495Y-907D01*
X12454Y-969D01*
X12437Y-1053D01*
Y-1565D01*
X12454Y-1649D01*
X12501Y-1721D01*
X12573Y-1769D01*
X12657Y-1786D01*
X12933D01*
X13018Y-1769D01*
X13089Y-1721D01*
X13137Y-1649D01*
X13154Y-1565D01*
Y-1053D01*
X13137Y-969D01*
X13089Y-897D01*
X13082Y-892D01*
X13077Y-830D01*
X13088Y-820D01*
X13104Y-820D01*
X13148Y-850D01*
X13201Y-860D01*
X13224D01*
Y-689D01*
X13324D01*
Y-860D01*
D02*
G37*
G36*
X8357Y-1186D02*
X8371D01*
X8431Y-1174D01*
X8461Y-1154D01*
X8477Y-1156D01*
X8514Y-1175D01*
X8522Y-1215D01*
X8552Y-1261D01*
X8598Y-1291D01*
X8652Y-1302D01*
X8676D01*
X8690Y-1343D01*
X8692Y-1352D01*
X8668Y-1388D01*
X8638Y-1399D01*
X8624Y-1401D01*
X8608Y-1401D01*
X8580Y-1383D01*
X8538Y-1374D01*
X7883D01*
X7841Y-1383D01*
X7812Y-1342D01*
X7780Y-1294D01*
X7758Y-1279D01*
X7800Y-1218D01*
X7806Y-1186D01*
X7856Y-1160D01*
X7933Y-1175D01*
X7989Y-1164D01*
X8036D01*
X8088Y-1154D01*
X8125Y-1129D01*
X8132Y-1140D01*
X8183Y-1174D01*
X8243Y-1186D01*
X8257D01*
Y-974D01*
X8357D01*
Y-1186D01*
D02*
G37*
G36*
X9336Y-2089D02*
X9368D01*
X9424Y-2078D01*
X9472Y-2046D01*
X9477Y-2038D01*
X9525Y-2020D01*
X9569Y-2049D01*
X9621Y-2060D01*
X9729D01*
X9781Y-2049D01*
X9824Y-2021D01*
X10089D01*
X10089Y-2021D01*
X10182D01*
X10187Y-2022D01*
X10994D01*
X10998Y-2021D01*
X11031Y-2035D01*
X11033Y-2038D01*
X11228Y-2232D01*
Y-2338D01*
X11238Y-2389D01*
X11267Y-2433D01*
X11311Y-2463D01*
X11363Y-2473D01*
X11471D01*
X11474Y-2473D01*
X11513Y-2504D01*
Y-2758D01*
X11514Y-2763D01*
X11500Y-2898D01*
X11460Y-3032D01*
X11424Y-3098D01*
X11363D01*
X11311Y-3108D01*
X11267Y-3137D01*
X11238Y-3181D01*
X11234Y-3203D01*
X11179Y-3220D01*
X10994Y-3051D01*
X10994Y-2165D01*
X10975Y-2147D01*
X10931Y-2117D01*
X10882Y-2097D01*
X10850Y-2090D01*
X10830Y-2087D01*
X10804Y-2087D01*
X10804Y-2087D01*
X10804Y-2087D01*
X10804Y-2087D01*
X10344Y-2087D01*
X10286Y-2078D01*
X10167Y-2073D01*
X10048Y-2080D01*
X9931Y-2098D01*
X9816Y-2128D01*
X9705Y-2169D01*
X9598Y-2220D01*
X9589Y-2225D01*
X9573Y-2214D01*
X9508Y-2201D01*
X9331D01*
X9265Y-2214D01*
X9210Y-2251D01*
X9173Y-2307D01*
X9160Y-2372D01*
Y-2681D01*
X8898Y-2943D01*
X8874Y-2979D01*
X8866Y-3022D01*
Y-3137D01*
X8861Y-3138D01*
X8817Y-3167D01*
X8802D01*
X8758Y-3138D01*
X8706Y-3127D01*
X8578D01*
X8526Y-3138D01*
X8482Y-3167D01*
X8480Y-3170D01*
X8430D01*
X8389Y-3133D01*
Y-2989D01*
X8389Y-2989D01*
Y-2759D01*
X8383Y-2726D01*
X8406Y-2688D01*
X8413Y-2679D01*
X8442Y-2681D01*
X8447Y-2692D01*
X8452Y-2717D01*
X8481Y-2760D01*
X8523Y-2788D01*
X8573Y-2798D01*
X8829D01*
X8879Y-2788D01*
X8921Y-2760D01*
X8949Y-2717D01*
X8959Y-2667D01*
Y-2569D01*
X8949Y-2519D01*
X8921Y-2477D01*
X8879Y-2448D01*
X8829Y-2438D01*
X8812D01*
Y-2083D01*
X8835Y-2060D01*
X8912D01*
X8964Y-2049D01*
X9008Y-2020D01*
X9019Y-2004D01*
X9036Y-2002D01*
X9076Y-2009D01*
X9101Y-2046D01*
X9148Y-2078D01*
X9205Y-2089D01*
X9236D01*
Y-1898D01*
X9336D01*
Y-2089D01*
D02*
G37*
G36*
X119Y-1122D02*
Y-1122D01*
X390D01*
X422Y-1161D01*
X419Y-1176D01*
Y-1180D01*
X640D01*
Y-1280D01*
X419D01*
Y-1284D01*
X431Y-1345D01*
X465Y-1396D01*
X445Y-1442D01*
X422Y-1476D01*
X411Y-1532D01*
Y-1564D01*
X602D01*
Y-1614D01*
X652D01*
Y-1842D01*
X703Y-1832D01*
X751Y-1800D01*
X783Y-1752D01*
X794Y-1696D01*
X842D01*
X852Y-1744D01*
X879Y-1785D01*
X920Y-1812D01*
X921Y-1812D01*
X938Y-1896D01*
X986Y-1967D01*
X1057Y-2015D01*
X1142Y-2032D01*
X1154Y-2029D01*
X1193Y-2056D01*
X1161Y-2095D01*
X1130D01*
Y-2460D01*
X1881D01*
Y-2119D01*
X1993D01*
X2043Y-2109D01*
X2058Y-2098D01*
X2101Y-2072D01*
X2153Y-2107D01*
X2215Y-2119D01*
X2372D01*
X2391Y-2116D01*
X2429Y-2147D01*
Y-2288D01*
X2398Y-2309D01*
X2335Y-2372D01*
X2308Y-2413D01*
X2298Y-2461D01*
X2308Y-2509D01*
X2335Y-2550D01*
X2450Y-2665D01*
X2491Y-2692D01*
X2536Y-2701D01*
X2549Y-2714D01*
X2545Y-2736D01*
X2562Y-2821D01*
X2610Y-2892D01*
X2642Y-2914D01*
X2652Y-2963D01*
X2622Y-3008D01*
X2604Y-3100D01*
X2622Y-3193D01*
X2641Y-3221D01*
X2617Y-3265D01*
X2506D01*
X2474Y-3227D01*
X2476Y-3219D01*
Y-3190D01*
X2215D01*
Y-3140D01*
X2165D01*
Y-2879D01*
X2136D01*
X2066Y-2893D01*
X2031Y-2916D01*
X1997Y-2866D01*
X1925Y-2818D01*
X1881Y-2809D01*
Y-2560D01*
X1556D01*
Y-2925D01*
X1589D01*
X1629Y-2975D01*
X1620Y-3022D01*
X1627Y-3060D01*
X1593Y-3098D01*
X1348D01*
X1302Y-3107D01*
X1263Y-3133D01*
X1237Y-3172D01*
X1228Y-3219D01*
Y-3297D01*
X1237Y-3343D01*
X1239Y-3346D01*
X1261Y-3386D01*
X1239Y-3426D01*
X1237Y-3428D01*
X1228Y-3474D01*
Y-3553D01*
X1237Y-3599D01*
X1239Y-3601D01*
X1261Y-3642D01*
X1239Y-3682D01*
X1237Y-3684D01*
X1228Y-3730D01*
Y-3809D01*
X1237Y-3855D01*
X1239Y-3857D01*
X1261Y-3898D01*
X1239Y-3938D01*
X1237Y-3940D01*
X1228Y-3986D01*
Y-4065D01*
X1237Y-4111D01*
X1255Y-4137D01*
X1248Y-4142D01*
X1217Y-4188D01*
X1208Y-4232D01*
X1585D01*
Y-4281D01*
X1635D01*
Y-4463D01*
X1821D01*
X1875Y-4452D01*
X1906Y-4432D01*
X1953Y-4445D01*
X1960Y-4451D01*
X1966Y-4481D01*
X2001Y-4534D01*
X2054Y-4569D01*
X2116Y-4581D01*
X2243D01*
Y-4360D01*
X2343D01*
Y-4581D01*
X2470D01*
X2533Y-4569D01*
X2562Y-4549D01*
X2600Y-4605D01*
X2672Y-4653D01*
X2756Y-4670D01*
X2841Y-4653D01*
X2912Y-4605D01*
X2943Y-4558D01*
X2960Y-4569D01*
X3022Y-4581D01*
X3054D01*
X3076Y-4631D01*
X3059Y-4658D01*
X3049Y-4710D01*
Y-4838D01*
X3059Y-4889D01*
X3088Y-4933D01*
X3073Y-4969D01*
X3065Y-4978D01*
X3006D01*
X3005Y-4967D01*
X2977Y-4900D01*
X2933Y-4843D01*
X2875Y-4799D01*
X2808Y-4771D01*
X2736Y-4761D01*
X2664Y-4771D01*
X2597Y-4799D01*
X2540Y-4843D01*
X2495Y-4900D01*
X2468Y-4967D01*
X2458Y-5039D01*
X2468Y-5111D01*
X2495Y-5178D01*
X2540Y-5236D01*
X2597Y-5280D01*
X2664Y-5308D01*
X2736Y-5317D01*
X2808Y-5308D01*
X2875Y-5280D01*
X2929Y-5239D01*
X3069D01*
X3088Y-5268D01*
X3132Y-5297D01*
X3184Y-5308D01*
X3292D01*
X3344Y-5297D01*
X3388Y-5268D01*
X3395Y-5258D01*
X3455D01*
X3462Y-5268D01*
X3506Y-5297D01*
X3558Y-5308D01*
X3666D01*
X3718Y-5297D01*
X3762Y-5268D01*
X3792Y-5224D01*
X3798Y-5190D01*
X3874D01*
X3918Y-5246D01*
X3975Y-5290D01*
X4042Y-5318D01*
X4114Y-5327D01*
X4186Y-5318D01*
X4253Y-5290D01*
X4311Y-5246D01*
X4355Y-5188D01*
X4377Y-5136D01*
X4427Y-5146D01*
Y-5170D01*
X4438Y-5227D01*
X4470Y-5274D01*
X4518Y-5306D01*
X4574Y-5317D01*
X4606D01*
Y-5126D01*
X4656D01*
Y-5076D01*
X4885D01*
X4885Y-5073D01*
X4923Y-5040D01*
X4941Y-5044D01*
X5026Y-5027D01*
X5097Y-4979D01*
X5132Y-4976D01*
X5406Y-5249D01*
X5456Y-5283D01*
X5516Y-5295D01*
X5575Y-5283D01*
X5626Y-5249D01*
X5730Y-5145D01*
X5764Y-5095D01*
X5776Y-5035D01*
X5764Y-4976D01*
X5730Y-4925D01*
X5517Y-4712D01*
X5515Y-4701D01*
X5525Y-4651D01*
X5574Y-4619D01*
X5617Y-4554D01*
X5623Y-4526D01*
X5678Y-4503D01*
X5712Y-4526D01*
X5789Y-4541D01*
X5866Y-4526D01*
X5931Y-4482D01*
X5940Y-4468D01*
X5996Y-4464D01*
X6094Y-4562D01*
X6144Y-4596D01*
X6148Y-4596D01*
X6182Y-4654D01*
X6180Y-4664D01*
X6189Y-4710D01*
X6215Y-4749D01*
X6688Y-5222D01*
X6727Y-5248D01*
X6773Y-5257D01*
X6819Y-5248D01*
X6858Y-5222D01*
X6914Y-5166D01*
X6940Y-5127D01*
X6949Y-5081D01*
X6940Y-5035D01*
X6914Y-4996D01*
X6616Y-4698D01*
Y-4577D01*
X6662Y-4558D01*
X6735Y-4631D01*
X6863Y-4503D01*
X6991Y-4375D01*
X6918Y-4302D01*
X6938Y-4256D01*
X7058D01*
X7356Y-4554D01*
X7395Y-4580D01*
X7441Y-4589D01*
X7487Y-4580D01*
X7527Y-4554D01*
X7534Y-4547D01*
X7584Y-4567D01*
Y-4651D01*
X7596Y-4711D01*
X7630Y-4762D01*
X7681Y-4796D01*
X7741Y-4808D01*
X7745D01*
Y-4587D01*
X7795D01*
Y-4537D01*
X8015D01*
X8019Y-4522D01*
X8054Y-4521D01*
X8202D01*
X8335Y-4654D01*
X8334Y-4655D01*
X8324Y-4705D01*
Y-4961D01*
X8334Y-5011D01*
X8362Y-5053D01*
X8405Y-5081D01*
X8455Y-5091D01*
X8553D01*
X8603Y-5081D01*
X8645Y-5053D01*
X8674Y-5011D01*
X8684Y-4961D01*
Y-4705D01*
X8674Y-4655D01*
X8645Y-4612D01*
X8603Y-4584D01*
X8572Y-4578D01*
X8385Y-4391D01*
X8389Y-4344D01*
X8418Y-4302D01*
X8428Y-4252D01*
Y-3996D01*
X8418Y-3946D01*
X8401Y-3922D01*
X8405Y-3866D01*
X8409Y-3857D01*
X8418Y-3851D01*
X8420Y-3848D01*
X8480D01*
X8482Y-3851D01*
X8526Y-3880D01*
X8568Y-3889D01*
X8585Y-3913D01*
X8594Y-3940D01*
X8590Y-3946D01*
X8580Y-3996D01*
Y-4252D01*
X8590Y-4302D01*
X8618Y-4344D01*
X8661Y-4372D01*
X8711Y-4382D01*
X8809D01*
X8821Y-4380D01*
X8871Y-4420D01*
X8858Y-5392D01*
X8189D01*
Y-5389D01*
X8166Y-5392D01*
X8117D01*
X8107Y-5394D01*
X7725D01*
X7710Y-5344D01*
X7737Y-5326D01*
X7777Y-5267D01*
X7790Y-5197D01*
Y-5168D01*
X7269D01*
Y-5197D01*
X7282Y-5267D01*
X7322Y-5326D01*
X7349Y-5344D01*
X7334Y-5394D01*
X5830D01*
X5820Y-5392D01*
X5781D01*
X5758Y-5389D01*
Y-5392D01*
X1881D01*
Y-5080D01*
X1130D01*
Y-5392D01*
X954D01*
X930Y-5342D01*
X950Y-5294D01*
X959Y-5226D01*
Y-5119D01*
X541D01*
Y-5019D01*
X959D01*
Y-4911D01*
X950Y-4844D01*
X924Y-4782D01*
X912Y-4766D01*
X937Y-4716D01*
X1015D01*
Y-4292D01*
X541D01*
Y-4192D01*
X1015D01*
Y-3771D01*
Y-3347D01*
X541D01*
Y-3247D01*
X1015D01*
Y-2823D01*
X937D01*
X912Y-2773D01*
X924Y-2758D01*
X950Y-2695D01*
X959Y-2628D01*
Y-2520D01*
X541D01*
Y-2470D01*
X491D01*
Y-2053D01*
X384D01*
X317Y-2062D01*
X254Y-2088D01*
X200Y-2129D01*
X159Y-2183D01*
X157Y-2188D01*
X107Y-2178D01*
X113Y-1122D01*
X119Y-1122D01*
D02*
G37*
G36*
X3822Y-3659D02*
X3872Y-3668D01*
X3881Y-3677D01*
X3891Y-3727D01*
X3919Y-3769D01*
X3961Y-3798D01*
X4000Y-3805D01*
X3998Y-3816D01*
X4008Y-3866D01*
X4005Y-3872D01*
X3989Y-3891D01*
X3970Y-3905D01*
X3942Y-3900D01*
X3898Y-3909D01*
X3860Y-3934D01*
X3812Y-3982D01*
X3787Y-4020D01*
X3778Y-4064D01*
X3735Y-4104D01*
X3719Y-4101D01*
X3667Y-4111D01*
X3636Y-4132D01*
X3783Y-4279D01*
X3712Y-4350D01*
X3565Y-4203D01*
X3563Y-4205D01*
X3503D01*
X3494Y-4192D01*
X3475Y-4145D01*
X3506Y-4099D01*
X3516Y-4045D01*
Y-3927D01*
X3506Y-3873D01*
X3475Y-3828D01*
X3470Y-3824D01*
Y-3774D01*
X3475Y-3771D01*
X3506Y-3725D01*
X3508Y-3715D01*
X3526Y-3673D01*
X3563Y-3679D01*
X3604Y-3687D01*
X3680Y-3672D01*
X3727Y-3641D01*
X3780Y-3630D01*
X3822Y-3659D01*
D02*
G37*
G36*
X4673Y-4200D02*
X4503Y-4370D01*
X4510Y-4375D01*
X4568Y-4386D01*
X4579Y-4384D01*
X4587Y-4423D01*
X4615Y-4465D01*
X4618Y-4523D01*
X4595Y-4547D01*
X4574D01*
X4526Y-4556D01*
X4485Y-4584D01*
X4458Y-4624D01*
X4448Y-4672D01*
Y-4761D01*
X4458Y-4809D01*
X4485Y-4850D01*
X4526Y-4877D01*
X4574Y-4886D01*
Y-4935D01*
X4518Y-4946D01*
X4470Y-4978D01*
X4439Y-5023D01*
X4435Y-5024D01*
X4387Y-5012D01*
X4383Y-4977D01*
X4355Y-4910D01*
X4311Y-4853D01*
X4303Y-4847D01*
Y-4694D01*
X4351Y-4647D01*
X4376Y-4609D01*
X4385Y-4565D01*
X4376Y-4521D01*
X4351Y-4483D01*
X4309Y-4441D01*
X4309Y-4371D01*
X4382Y-4299D01*
X4424Y-4308D01*
X4602Y-4129D01*
X4673Y-4200D01*
D02*
G37*
%LPC*%
G36*
X12988Y-2008D02*
X12500D01*
X12469Y-2014D01*
X12443Y-2032D01*
X12426Y-2058D01*
X12420Y-2089D01*
Y-3758D01*
X12426Y-3789D01*
X12443Y-3815D01*
X12469Y-3832D01*
X12500Y-3838D01*
X12988D01*
X13019Y-3832D01*
X13045Y-3815D01*
X13062Y-3789D01*
X13068Y-3758D01*
Y-2089D01*
X13062Y-2058D01*
X13045Y-2032D01*
X13019Y-2014D01*
X12988Y-2008D01*
D02*
G37*
G36*
X12160Y-3098D02*
X12052D01*
X12000Y-3108D01*
X11956Y-3137D01*
X11927Y-3181D01*
X11917Y-3233D01*
Y-3519D01*
X11927Y-3571D01*
X11956Y-3614D01*
X11996Y-3641D01*
Y-3932D01*
X11994D01*
X12001Y-3990D01*
X11968Y-4039D01*
X11955Y-4104D01*
Y-4281D01*
X11968Y-4347D01*
X12005Y-4402D01*
X12061Y-4439D01*
X12126Y-4452D01*
X12303D01*
X12368Y-4439D01*
X12424Y-4402D01*
X12461Y-4347D01*
X12474Y-4281D01*
Y-4104D01*
X12461Y-4039D01*
X12424Y-3984D01*
X12368Y-3947D01*
X12303Y-3934D01*
X12218D01*
X12218Y-3932D01*
X12217D01*
Y-3641D01*
X12256Y-3614D01*
X12286Y-3571D01*
X12296Y-3519D01*
Y-3233D01*
X12286Y-3181D01*
X12256Y-3137D01*
X12212Y-3108D01*
X12160Y-3098D01*
D02*
G37*
G36*
X12441Y-4502D02*
X12383D01*
Y-4891D01*
X12653D01*
Y-4715D01*
X12637Y-4633D01*
X12591Y-4564D01*
X12522Y-4518D01*
X12441Y-4502D01*
D02*
G37*
G36*
X12283D02*
X12224D01*
X12143Y-4518D01*
X12074Y-4564D01*
X12028Y-4633D01*
X12012Y-4715D01*
Y-4891D01*
X12283D01*
Y-4502D01*
D02*
G37*
G36*
X552Y-1664D02*
X411D01*
Y-1696D01*
X422Y-1752D01*
X454Y-1800D01*
X502Y-1832D01*
X552Y-1842D01*
Y-1664D01*
D02*
G37*
G36*
X699Y-2053D02*
X591D01*
Y-2420D01*
X959D01*
Y-2313D01*
X950Y-2246D01*
X924Y-2183D01*
X882Y-2129D01*
X829Y-2088D01*
X766Y-2062D01*
X699Y-2053D01*
D02*
G37*
G36*
X1456Y-2560D02*
X1130D01*
Y-2925D01*
X1456D01*
Y-2560D01*
D02*
G37*
G36*
X2293Y-2879D02*
X2265D01*
Y-3090D01*
X2476D01*
Y-3061D01*
X2462Y-2991D01*
X2422Y-2932D01*
X2363Y-2893D01*
X2293Y-2879D01*
D02*
G37*
G36*
X1535Y-4331D02*
X1208D01*
X1217Y-4375D01*
X1248Y-4421D01*
X1294Y-4452D01*
X1348Y-4463D01*
X1535D01*
Y-4331D01*
D02*
G37*
G36*
X8007Y-4637D02*
X7845D01*
Y-4808D01*
X7849D01*
X7910Y-4796D01*
X7961Y-4762D01*
X7995Y-4711D01*
X8007Y-4651D01*
Y-4637D01*
D02*
G37*
G36*
X7062Y-4446D02*
X6969Y-4538D01*
X7269Y-4839D01*
X7294Y-4802D01*
X7305Y-4747D01*
X7294Y-4693D01*
X7263Y-4647D01*
X7062Y-4446D01*
D02*
G37*
G36*
X6899Y-4609D02*
X6806Y-4702D01*
X7007Y-4903D01*
X7053Y-4934D01*
X7107Y-4945D01*
X7162Y-4934D01*
X7199Y-4909D01*
X6899Y-4609D01*
D02*
G37*
G36*
X1881Y-4615D02*
X1556D01*
Y-4980D01*
X1881D01*
Y-4615D01*
D02*
G37*
G36*
X1456D02*
X1130D01*
Y-4980D01*
X1456D01*
Y-4615D01*
D02*
G37*
G36*
X7608Y-4857D02*
X7580D01*
Y-5068D01*
X7790D01*
Y-5039D01*
X7777Y-4970D01*
X7737Y-4911D01*
X7678Y-4871D01*
X7608Y-4857D01*
D02*
G37*
G36*
X7480D02*
X7451D01*
X7381Y-4871D01*
X7322Y-4911D01*
X7282Y-4970D01*
X7269Y-5039D01*
Y-5068D01*
X7480D01*
Y-4857D01*
D02*
G37*
G36*
X4883Y-5176D02*
X4706D01*
Y-5317D01*
X4737D01*
X4794Y-5306D01*
X4841Y-5274D01*
X4873Y-5227D01*
X4883Y-5176D01*
D02*
G37*
%LPD*%
D10*
X10521Y-2678D02*
G03*
X10228Y-3385I707J-707D01*
G01*
X10104Y-4089D02*
G03*
X10228Y-3789I-300J300D01*
G01*
X9810Y-4262D02*
G03*
X9693Y-4272I0J-706D01*
G01*
D02*
G03*
X9311Y-4469I117J-696D01*
G01*
X9384Y-4922D02*
G03*
X9311Y-5094I177J-177D01*
G01*
X9311Y-5094D02*
G03*
X9311Y-5098I250J-5D01*
G01*
X9878Y-4558D02*
G03*
X9656Y-4650I0J-315D01*
G01*
X10020Y-4558D02*
G03*
X10573Y-4329I0J782D01*
G01*
X2758Y-1071D02*
X2795D01*
X2627Y-1201D02*
X2758Y-1071D01*
X2627Y-1339D02*
Y-1201D01*
X2572Y-2096D02*
Y-1394D01*
X2627Y-1339D01*
X6490Y-1009D02*
Y-955D01*
X6456Y-1043D02*
X6490Y-1009D01*
X6571Y-874D02*
X6585D01*
X6490Y-955D02*
X6571Y-874D01*
X4164Y-1028D02*
X4198Y-994D01*
X5568Y-512D02*
X5619D01*
X4198Y-994D02*
Y-774D01*
X4460Y-512D01*
X5506D01*
X5671Y-465D02*
X5679Y-472D01*
X5667Y-465D02*
X5671D01*
X2802Y-2198D02*
X2815Y-2185D01*
X3285D02*
X3385Y-2285D01*
X2815Y-2185D02*
X3285D01*
X3642Y-4104D02*
X3650D01*
X3883Y-3871D01*
X12870Y-1323D02*
Y-694D01*
X12585Y-620D02*
X12838D01*
X12891Y-673D01*
X13126Y-196D02*
X13408D01*
X12891Y-263D02*
X13058D01*
X13126Y-196D01*
X13937Y-1309D02*
Y-721D01*
X13747Y-531D02*
X13937Y-721D01*
X13743Y-531D02*
X13747D01*
X13408Y-196D02*
X13743Y-531D01*
X12870Y-694D02*
X12891Y-673D01*
X8307Y-1055D02*
Y-955D01*
Y-1055D02*
X8588Y-1336D01*
X5619Y-512D02*
X5667Y-465D01*
X6137D02*
X6516D01*
X5422Y-874D02*
X5667D01*
X6076Y-465D02*
X6137D01*
X5667Y-874D02*
X6076Y-465D01*
X6516D02*
X6516Y-465D01*
X5927Y-1033D02*
X5935D01*
X5907Y-1014D02*
X5927Y-1033D01*
X5264Y-1032D02*
X5422Y-874D01*
X5125Y-893D02*
X5506Y-512D01*
X5907Y-1014D02*
X6047Y-874D01*
X3883Y-3871D02*
X4002D01*
X4006Y-3876D01*
X4090D01*
X11270Y-869D02*
X11411Y-728D01*
X8839Y-620D02*
X9026D01*
X8483Y-264D02*
X8839Y-620D01*
X3651Y-264D02*
X8483D01*
X8810Y-1526D02*
X8900D01*
X8620Y-1336D02*
X8810Y-1526D01*
X8588Y-1336D02*
X8620D01*
X2826Y-4733D02*
X3199Y-4360D01*
X2294Y-4733D02*
X2826D01*
X2254Y-4774D02*
X2294Y-4733D01*
X3066Y-3986D02*
X3199D01*
X2756Y-4296D02*
X3066Y-3986D01*
X2756Y-4439D02*
Y-4296D01*
X1841Y-3012D02*
X1841Y-3012D01*
X1841Y-3041D02*
Y-3012D01*
X1624Y-3258D02*
X1841Y-3041D01*
X3238Y-5108D02*
X3248D01*
X2815D02*
X3238D01*
X1447Y-1988D02*
X1993D01*
X2050Y-1932D01*
X1545Y-2549D02*
X1638D01*
X2190Y-3140D02*
Y-3101D01*
X1742Y-1811D02*
X1929D01*
X1742D02*
Y-1496D01*
X10543Y-799D02*
Y-728D01*
X2572Y-2537D02*
X3134D01*
X2560Y-2540D02*
Y-2108D01*
X2572Y-2096D01*
X2756Y-2736D02*
X2766D01*
X2560Y-2540D02*
X2756Y-2736D01*
X2520Y-906D02*
X2776Y-650D01*
X2382Y-1043D02*
X2520Y-906D01*
X2382Y-1071D02*
Y-1043D01*
X3134Y-2537D02*
X3246Y-2424D01*
X3171Y-464D02*
X3219Y-511D01*
X2650Y-464D02*
X3171D01*
X3219Y-511D02*
Y-394D01*
X2913Y-787D02*
X3337D01*
X2776Y-650D02*
X2913Y-787D01*
X2452Y-661D02*
X2650Y-464D01*
X2190Y-3140D02*
X2215D01*
X2136D02*
X2190D01*
X2143Y-1926D02*
Y-869D01*
X1012Y-1614D02*
X1120Y-1722D01*
X1545Y-1663D02*
X1545D01*
X1348Y-1722D02*
Y-1496D01*
X1120Y-1722D02*
X1348D01*
X7938Y-3853D02*
X8268Y-4183D01*
X7972Y-3701D02*
Y-3317D01*
X7938Y-3853D02*
Y-3701D01*
X7717D02*
X7923D01*
X9351Y-611D02*
Y-600D01*
Y-611D02*
X9478Y-738D01*
X9026Y-620D02*
X9241Y-836D01*
X6633Y-3518D02*
X6863Y-3747D01*
X6633Y-3518D02*
Y-3511D01*
X6481Y-3359D02*
X6633Y-3511D01*
X6407Y-3359D02*
X6481D01*
X6824Y-3747D02*
X6863D01*
X6680Y-3891D02*
X6824Y-3747D01*
X6238Y-3190D02*
X6407Y-3359D01*
X9478Y-738D02*
X9675D01*
X9588Y-1073D02*
X9675D01*
Y-1468D02*
X9683Y-1476D01*
X9675Y-1468D02*
Y-1073D01*
X9683Y-1476D02*
X9685D01*
X12795Y-1398D02*
X12870Y-1323D01*
X4777Y-4579D02*
Y-4304D01*
Y-4579D02*
X4925Y-4728D01*
X1929Y-1496D02*
X1939D01*
X1545Y-1663D02*
Y-1496D01*
X1929Y-1811D02*
X2050Y-1932D01*
X7972Y-3317D02*
X7972Y-3317D01*
X7923Y-3701D02*
X7938D01*
X4633Y-4723D02*
X4777Y-4579D01*
X9901Y-931D02*
X10066Y-766D01*
X9901Y-1387D02*
X10029Y-1515D01*
X9901Y-1387D02*
Y-931D01*
X1742Y-827D02*
Y-354D01*
X4090Y-3876D02*
X4695Y-3272D01*
X5627Y-2857D02*
X6099Y-3329D01*
X5627Y-2857D02*
Y-2596D01*
X6099Y-3329D02*
X6370Y-3601D01*
X4420Y-4382D02*
X4951Y-3851D01*
X4420Y-4891D02*
X4656Y-5126D01*
X4420Y-4891D02*
Y-4382D01*
X10372Y-1515D02*
X10469Y-1611D01*
X10029Y-1515D02*
X10372D01*
X10620Y-1142D02*
Y-876D01*
X10543Y-799D02*
X10620Y-876D01*
X3219Y-394D02*
X3348Y-264D01*
X3651D01*
X3730Y-344D01*
Y-511D02*
Y-344D01*
X3474Y-924D02*
Y-511D01*
X2795Y-1100D02*
X3060Y-1365D01*
X3191D01*
X3219Y-1338D01*
X2137Y-1932D02*
X2143Y-1926D01*
X4954Y-1343D02*
X5264Y-1032D01*
X4954Y-1922D02*
Y-1343D01*
X2382Y-661D02*
X2452D01*
X3337Y-787D02*
X3474Y-924D01*
X9241Y-836D02*
X9351D01*
X9588Y-1073D01*
X3385Y-2285D02*
X3385D01*
X3669Y-2569D01*
X11270Y-4941D02*
Y-4193D01*
Y-4941D02*
X11270Y-4941D01*
X6863Y-3747D02*
X7671D01*
X6047Y-874D02*
X6093D01*
X8900Y-1526D02*
X9272Y-1898D01*
X10774Y-1611D02*
X10778Y-1614D01*
X10469Y-1611D02*
X10774D01*
X7972Y-3317D02*
Y-2992D01*
X8091Y-2874D01*
X10640Y-5069D02*
X10640Y-5069D01*
X9931Y-5069D02*
X10640D01*
X10521Y-2678D02*
X10591Y-2608D01*
X10228Y-3789D02*
Y-3385D01*
X10573Y-4329D02*
X10591Y-4311D01*
X10640Y-4262D01*
X10591Y-4311D02*
Y-3632D01*
X9810Y-4262D02*
X9931D01*
X10104Y-4089D01*
X9384Y-4922D02*
X9442Y-4864D01*
X9311Y-5094D02*
X9311Y-5094D01*
X9311Y-5098D02*
Y-5094D01*
X9442Y-4864D02*
X9656Y-4650D01*
X9878Y-4558D02*
X10020D01*
X3711Y-4360D02*
X3747Y-4324D01*
X3199Y-4360D02*
X3711D01*
X2242Y-1932D02*
X2293Y-1880D01*
X2050Y-1932D02*
X2137D01*
X2242D01*
X1929Y-1811D02*
Y-1496D01*
X2795Y-1100D02*
Y-1071D01*
X2143Y-869D02*
X2366Y-646D01*
X1488Y-1721D02*
X1545Y-1663D01*
X1348Y-1722D02*
X1350Y-1721D01*
X1488D01*
D57*
X10571Y-1364D02*
G03*
X10248Y-1230I-323J-323D01*
G01*
X11427Y-1616D02*
G03*
X11639Y-1704I212J212D01*
G01*
X11934D02*
G03*
X12008Y-1673I0J104D01*
G01*
X12077Y-1616D02*
G03*
X12057Y-1624I0J-29D01*
G01*
X11417Y-3376D02*
G03*
X11673Y-2758I-618J618D01*
G01*
Y-1787D02*
G03*
X11639Y-1704I-118J0D01*
G01*
X12106Y-2195D02*
G03*
X12011Y-2156I-95J-95D01*
G01*
X11804Y-2070D02*
G03*
X12106Y-2195I302J302D01*
G01*
X11927Y-2156D02*
G03*
X12106Y-2195I179J388D01*
G01*
X11927Y-2156D02*
G03*
X12106Y-2195I179J388D01*
G01*
X11147Y-1924D02*
G03*
X10994Y-1861I-153J-153D01*
G01*
X10571Y-1364D02*
X10804D01*
X10807Y-1367D01*
X10187Y-1230D02*
X10248D01*
X9656Y-1860D02*
X10108D01*
X10187Y-1781D01*
Y-1861D02*
Y-1781D01*
X10778Y-1614D02*
X11406D01*
X1624Y-4291D02*
X1988D01*
X2224D02*
X2293Y-4360D01*
X1988Y-4291D02*
X2224D01*
X1988D02*
X2293Y-3986D01*
X11639Y-1704D02*
X11934D01*
X12008Y-1673D02*
X12057Y-1624D01*
X11927Y-2156D02*
X12011D01*
X11673Y-2758D02*
Y-1787D01*
X11673Y-1939D02*
X11804Y-2070D01*
X11147Y-1924D02*
X11417Y-2195D01*
Y-2195D02*
Y-2195D01*
X10187Y-1861D02*
X10994D01*
D58*
X10837Y-5059D02*
G03*
X11266Y-4881I0J607D01*
G01*
D59*
X9311Y-5094D02*
D03*
D60*
X12106Y-3932D02*
G03*
X12215Y-4193I370J0D01*
G01*
X12214Y-4193D02*
G03*
X12215Y-4193I262J261D01*
G01*
X3027Y-1836D02*
X3197Y-2006D01*
X3384D01*
X7569Y-874D02*
X7626Y-817D01*
X7638D01*
X7933Y-974D02*
X7972D01*
X7972Y-974D01*
X7615Y-1436D02*
X7638D01*
X7479Y-1299D02*
X7615Y-1436D01*
X7246Y-1299D02*
X7479D01*
X7774Y-1764D02*
X7814Y-1724D01*
X8010D01*
X8022Y-1713D01*
X7316Y-957D02*
X7466Y-1107D01*
X7316Y-957D02*
Y-796D01*
X7466Y-1107D02*
X7580D01*
X7079Y-465D02*
X7106D01*
X7163Y-643D02*
Y-522D01*
X7290Y-1513D02*
X7421D01*
X8655Y-1644D02*
X8871Y-1860D01*
X8655Y-1644D02*
Y-1602D01*
X7371Y-1632D02*
X7502Y-1764D01*
X7580Y-1107D02*
X7614Y-1141D01*
X7552Y-1644D02*
X7724D01*
X7502Y-1764D02*
X7774D01*
X7106Y-465D02*
X7163Y-522D01*
X7724Y-1644D02*
X7883Y-1485D01*
X7421Y-1513D02*
X7552Y-1644D01*
X7883Y-1485D02*
X8538D01*
X7163Y-643D02*
X7316Y-796D01*
X8538Y-1485D02*
X8655Y-1602D01*
X7241Y-1632D02*
X7371D01*
X7092Y-1992D02*
X7201D01*
X6197Y-1291D02*
X7068D01*
X6919Y-1650D02*
X7141Y-1872D01*
X7068Y-1291D02*
X7290Y-1513D01*
X6038Y-1650D02*
X6919D01*
X7019Y-1411D02*
X7241Y-1632D01*
X7191Y-1752D02*
X7300D01*
X6098Y-1530D02*
X6969D01*
X7042Y-2112D02*
X7151D01*
X6505Y-2018D02*
X6949D01*
X6220Y-1770D02*
X6870D01*
X7077Y-1130D02*
X7246Y-1299D01*
X6949Y-2018D02*
X7042Y-2112D01*
X6870Y-1770D02*
X7092Y-1992D01*
X7141Y-1872D02*
X7250D01*
X6969Y-1530D02*
X7191Y-1752D01*
X6148Y-1411D02*
X7019D01*
X7429Y-3026D02*
Y-2220D01*
X7309Y-2936D02*
Y-2270D01*
X7500Y-465D02*
X7569D01*
X7418Y-546D02*
X7500Y-465D01*
X3937Y-717D02*
X4035Y-619D01*
X4638Y-1032D02*
Y-1022D01*
X4480Y-813D02*
X4514Y-847D01*
Y-898D02*
X4638Y-1022D01*
X4011Y-1502D02*
X4081Y-1571D01*
X4514Y-898D02*
Y-847D01*
X4011Y-1502D02*
Y-1255D01*
X4081Y-1589D02*
Y-1571D01*
X3937Y-1181D02*
X4011Y-1255D01*
X3937Y-1181D02*
Y-717D01*
X4035Y-619D02*
Y-571D01*
X3505Y-1930D02*
X3586D01*
X3327Y-1752D02*
X3505Y-1930D01*
X3586D02*
X3663Y-2007D01*
X3384Y-2006D02*
X3524Y-2146D01*
X3652Y-1718D02*
X3652D01*
X3802Y-1868D01*
X3730Y-1417D02*
Y-1338D01*
X3759Y-1446D02*
X3791D01*
X3826Y-1481D01*
Y-1531D02*
X3874Y-1580D01*
Y-1659D02*
Y-1580D01*
Y-1659D02*
X3942Y-1726D01*
X3730Y-1417D02*
X3759Y-1446D01*
X3826Y-1531D02*
Y-1481D01*
X8180Y-2018D02*
X8474D01*
X8157Y-2040D02*
X8180Y-2018D01*
X7419Y-2040D02*
X8157D01*
X8701Y-2618D02*
Y-2037D01*
X8871Y-1860D02*
X8878D01*
X8701Y-2037D02*
X8878Y-1860D01*
X7300Y-1752D02*
X7468Y-1921D01*
X8108D02*
X8131Y-1898D01*
X7250Y-1872D02*
X7419Y-2040D01*
X7549Y-2195D02*
X7584Y-2160D01*
X8164D02*
X8351Y-2347D01*
X7549Y-3298D02*
Y-2195D01*
X7468Y-1921D02*
X8108D01*
X8131Y-1898D02*
X8249D01*
X7584Y-2160D02*
X8164D01*
X8249Y-1898D02*
X8452Y-1695D01*
Y-1693D01*
X6918Y-2560D02*
X6952Y-2594D01*
X6656Y-2424D02*
X6666Y-2435D01*
Y-2439D02*
Y-2435D01*
X6928Y-2217D02*
X7032Y-2320D01*
X7281Y-3565D02*
X7549Y-3298D01*
X7151Y-2112D02*
X7309Y-2270D01*
X7097Y-2846D02*
X7101Y-2849D01*
X7032Y-2320D02*
X7065D01*
X6904Y-3077D02*
X7168D01*
X7201Y-1992D02*
X7429Y-2220D01*
X6787Y-2560D02*
X6918D01*
X7168Y-3077D02*
X7309Y-2936D01*
X7098Y-3357D02*
X7429Y-3026D01*
X6729Y-2846D02*
X7097D01*
X6666Y-2439D02*
X6787Y-2560D01*
X6517Y-2285D02*
X6585Y-2217D01*
X6783Y-2216D02*
X6784Y-2217D01*
X6585D02*
X6667D01*
X6784D02*
X6928D01*
X6667D02*
X6668Y-2216D01*
X6783D01*
X6656Y-2772D02*
X6729Y-2846D01*
X6905Y-3565D02*
X7281D01*
X6484Y-3145D02*
X6905Y-3565D01*
X7025Y-3357D02*
X7098D01*
X7024Y-3357D02*
X7025Y-3357D01*
X5338Y-4695D02*
X5398Y-4635D01*
X5338Y-4857D02*
X5418Y-4938D01*
X5398Y-4511D02*
X5581Y-4328D01*
Y-4203D01*
X5338Y-4857D02*
Y-4695D01*
X5398Y-4635D02*
Y-4511D01*
X5542Y-3896D02*
X5701Y-4055D01*
Y-4205D02*
X5768Y-4272D01*
X5542Y-3896D02*
Y-3886D01*
X5701Y-4205D02*
Y-4055D01*
X5768Y-4341D02*
Y-4272D01*
X5403Y-4025D02*
X5581Y-4203D01*
X5768Y-4341D02*
X6015D01*
X6106Y-4250D01*
X3365Y-3316D02*
X3421Y-3260D01*
X3130Y-3316D02*
X3365D01*
X3604Y-3487D02*
X3634D01*
X3792Y-3329D02*
X3802D01*
X3634Y-3487D02*
X3792Y-3329D01*
X3594Y-3260D02*
X3663Y-3190D01*
X3421Y-3260D02*
X3594D01*
X12280Y-392D02*
X12532D01*
X12279Y-394D02*
X12280Y-392D01*
X12532D02*
X12579Y-345D01*
Y-246D01*
X13475Y-1595D02*
X13504D01*
X13524Y-1614D01*
X13563Y-1575D01*
Y-662D01*
X13274Y-374D02*
X13563Y-662D01*
X11742Y-394D02*
X12279D01*
X11411Y-394D02*
X11845Y-394D01*
X10977Y-394D02*
X11411Y-394D01*
X5960Y-1728D02*
X6038Y-1650D01*
X6117Y-1381D02*
X6148Y-1411D01*
X5751Y-1381D02*
X6117D01*
X5682Y-1450D02*
X5751Y-1381D01*
X7972Y-492D02*
X7972Y-492D01*
Y-955D02*
Y-492D01*
X5890Y-1520D02*
X6087D01*
X5821Y-1589D02*
X5890Y-1520D01*
X6167Y-1261D02*
X6197Y-1291D01*
X5828Y-1261D02*
X6167D01*
X6087Y-1520D02*
X6098Y-1530D01*
X5809Y-1241D02*
X5828Y-1261D01*
X7077Y-1130D02*
Y-874D01*
X5612Y-1241D02*
X5809D01*
X5542Y-1311D02*
X5612Y-1241D01*
X8408Y-492D02*
X8694Y-778D01*
X8307Y-492D02*
X8408D01*
X2421Y-3612D02*
X2756Y-3947D01*
X2293Y-3612D02*
X2421D01*
X2864Y-3376D02*
X3091Y-3603D01*
X3189D01*
X2736D02*
X3091D01*
X3189D02*
X3199Y-3612D01*
X2071Y-3387D02*
X2363D01*
X1935Y-3524D02*
X2071Y-3387D01*
X8740Y-4144D02*
X8780Y-4183D01*
X8642Y-3701D02*
X8760Y-3819D01*
Y-4124D02*
Y-3819D01*
X10502Y-353D02*
X10543Y-394D01*
X8967Y-353D02*
X10502D01*
X11819Y-780D02*
Y-728D01*
X11565Y-1033D02*
X11819Y-780D01*
X10935Y-1142D02*
Y-770D01*
X10977Y-728D01*
X2374Y-3376D02*
X2864D01*
X2363Y-3387D02*
X2374Y-3376D01*
X3100Y-3612D02*
X3199D01*
X1939Y-354D02*
X2343D01*
X2977Y-3041D02*
X3246Y-2772D01*
X2825Y-3041D02*
X2977D01*
X6378Y-2146D02*
X6505Y-2018D01*
X7677Y-4134D02*
Y-4055D01*
X8278Y-3327D02*
Y-2989D01*
X8279Y-2989D01*
X8694Y-778D02*
X8918D01*
X4069Y-4327D02*
X4197D01*
X3622Y-4774D02*
X4069Y-4327D01*
X3248Y-4774D02*
X3622D01*
X6471Y-3145D02*
X6484D01*
X7677Y-4134D02*
X7795Y-4252D01*
X7861D01*
X8019Y-4410D01*
X8248D01*
X8504Y-4666D01*
Y-4833D02*
Y-4666D01*
X6505Y-4873D02*
Y-4190D01*
Y-4873D02*
X6564D01*
X6145Y-3831D02*
X6505Y-4190D01*
X5766Y-3831D02*
X6145D01*
X5682Y-3747D02*
X5766Y-3831D01*
X5821Y-3608D02*
X5924Y-3711D01*
X7173Y-4145D02*
X7233Y-4204D01*
X6629Y-4145D02*
X7173D01*
X6195Y-3711D02*
X6629Y-4145D01*
X5924Y-3711D02*
X6195D01*
X6417Y-3091D02*
X6471Y-3145D01*
X8918Y-778D02*
X9272Y-1132D01*
Y-1449D02*
Y-1132D01*
X8278Y-3327D02*
X8632D01*
X4005Y-3425D02*
X4134Y-3555D01*
X3985Y-3425D02*
X4005D01*
X3942Y-3468D02*
X3985Y-3425D01*
X4081Y-3608D02*
X4134Y-3555D01*
X6880Y-3101D02*
X6904Y-3077D01*
X6851Y-3101D02*
X6880D01*
X1171Y-364D02*
X1181Y-354D01*
X1348D01*
X12215Y-1144D02*
Y-822D01*
X12293Y-743D01*
X11565Y-1144D02*
Y-1033D01*
X12279Y-394D02*
X12279Y-394D01*
X8632Y-3327D02*
X8642Y-3317D01*
X8976D02*
Y-3022D01*
X9390Y-2608D01*
X8976Y-3701D02*
X9193D01*
X9390Y-3504D01*
X8307Y-3701D02*
X8642D01*
X8307Y-3701D02*
X8307Y-3701D01*
X3683Y-5079D02*
X4085D01*
X4193Y-4971D02*
Y-4547D01*
X4085Y-5079D02*
X4114Y-5049D01*
X4193Y-4971D01*
X4197Y-4327D02*
X4498Y-4025D01*
X3970Y-4102D02*
X4144D01*
X4359Y-3886D01*
X8967Y-354D02*
Y-353D01*
X1171Y-1033D02*
Y-364D01*
X974Y-1230D02*
X1171Y-1033D01*
X2805Y-3022D02*
X2825Y-3041D01*
X10591Y-3632D02*
Y-3504D01*
X6099Y-1868D02*
X6123D01*
X6220Y-1770D01*
X7992Y-2473D02*
Y-2362D01*
Y-2473D02*
X8186Y-2666D01*
X8186D01*
X8279Y-2759D01*
Y-2989D02*
Y-2759D01*
X8351Y-2463D02*
Y-2347D01*
X1624Y-3780D02*
X1969D01*
X2136Y-3612D01*
X2293D01*
X1624Y-3524D02*
X1935D01*
X12106Y-3932D02*
Y-3376D01*
X12163Y-4141D02*
X12214Y-4193D01*
X12215Y-4193D01*
D61*
X512Y-571D02*
D03*
X13720Y-4843D02*
D03*
X2736Y-5039D02*
D03*
X4114Y-5049D02*
D03*
D62*
X4777Y-4304D02*
D03*
X4638Y-4164D02*
D03*
X4498Y-4025D02*
D03*
X4359Y-3886D02*
D03*
X4220Y-3747D02*
D03*
X4081Y-3608D02*
D03*
X3942Y-3468D02*
D03*
X3802Y-3329D02*
D03*
X3663Y-3190D02*
D03*
X3524Y-3051D02*
D03*
X3385Y-2912D02*
D03*
X3246Y-2772D02*
D03*
X5125Y-893D02*
D03*
X5264Y-1032D02*
D03*
X5403Y-1172D02*
D03*
X5542Y-1311D02*
D03*
X5682Y-1450D02*
D03*
X5821Y-1589D02*
D03*
X5960Y-1728D02*
D03*
X6099Y-1868D02*
D03*
X6238Y-2007D02*
D03*
X6378Y-2146D02*
D03*
X6517Y-2285D02*
D03*
X6656Y-2424D02*
D03*
D63*
X3246D02*
D03*
X3385Y-2285D02*
D03*
X3524Y-2146D02*
D03*
X3663Y-2007D02*
D03*
X3802Y-1868D02*
D03*
X3942Y-1728D02*
D03*
X4081Y-1589D02*
D03*
X4220Y-1450D02*
D03*
X4359Y-1311D02*
D03*
X4498Y-1172D02*
D03*
X4638Y-1032D02*
D03*
X4777Y-893D02*
D03*
X6656Y-2772D02*
D03*
X6517Y-2912D02*
D03*
X6378Y-3051D02*
D03*
X6238Y-3190D02*
D03*
X6099Y-3329D02*
D03*
X5960Y-3468D02*
D03*
X5821Y-3608D02*
D03*
X5682Y-3747D02*
D03*
X5542Y-3886D02*
D03*
X5403Y-4025D02*
D03*
X5264Y-4164D02*
D03*
X5125Y-4304D02*
D03*
D64*
X5627Y-2596D02*
D03*
X4277Y-2598D02*
D03*
D65*
X4951Y-3272D02*
D03*
X4954Y-1922D02*
D03*
D66*
X10935Y-1142D02*
D03*
X10620D02*
D03*
X10778Y-1614D02*
D03*
X12234Y-1144D02*
D03*
X11919D02*
D03*
X12077Y-1616D02*
D03*
X11427D02*
D03*
X11270Y-1144D02*
D03*
X11585D02*
D03*
D67*
X13747Y-531D02*
D03*
X13274Y-689D02*
D03*
Y-374D02*
D03*
D68*
X3970Y-4092D02*
D03*
X3747Y-4314D02*
D03*
X4193Y-4537D02*
D03*
D69*
X8504Y-4833D02*
D03*
X8248Y-4124D02*
D03*
X8760D02*
D03*
D70*
X8701Y-2618D02*
D03*
X7992Y-2874D02*
D03*
Y-2362D02*
D03*
D71*
X8711Y-1083D02*
D03*
X9222D02*
D03*
X8967Y-354D02*
D03*
D72*
X2293Y-3612D02*
D03*
Y-3986D02*
D03*
Y-4360D02*
D03*
X3199D02*
D03*
Y-3986D02*
D03*
Y-3612D02*
D03*
D73*
X6608Y-465D02*
D03*
Y-874D02*
D03*
X7079Y-465D02*
D03*
Y-874D02*
D03*
X9286Y-1488D02*
D03*
Y-1898D02*
D03*
X4656Y-4717D02*
D03*
Y-5126D02*
D03*
X7549Y-874D02*
D03*
Y-465D02*
D03*
X12891Y-263D02*
D03*
Y-673D02*
D03*
X10129Y-356D02*
D03*
Y-766D02*
D03*
X5667Y-465D02*
D03*
Y-874D02*
D03*
X2382Y-661D02*
D03*
Y-1071D02*
D03*
X2795D02*
D03*
Y-661D02*
D03*
X6137Y-465D02*
D03*
Y-874D02*
D03*
D74*
X7795Y-4252D02*
D03*
X7795Y-4587D02*
D03*
X9675Y-738D02*
D03*
Y-1073D02*
D03*
X9675Y-1526D02*
D03*
Y-1860D02*
D03*
X12279Y-728D02*
D03*
Y-394D02*
D03*
X11845Y-728D02*
D03*
Y-394D02*
D03*
X11411Y-728D02*
D03*
Y-394D02*
D03*
X10977Y-728D02*
D03*
Y-394D02*
D03*
X10543Y-728D02*
D03*
X10543Y-394D02*
D03*
X3238Y-4774D02*
D03*
Y-5108D02*
D03*
X8858Y-1860D02*
D03*
Y-1526D02*
D03*
X3612Y-4774D02*
D03*
Y-5108D02*
D03*
D75*
X8307Y-974D02*
D03*
X7972D02*
D03*
X7972Y-492D02*
D03*
X8307D02*
D03*
X7923Y-3701D02*
D03*
X8258D02*
D03*
X8976Y-3701D02*
D03*
X8642D02*
D03*
X8976Y-3317D02*
D03*
X8642D02*
D03*
X7923Y-3317D02*
D03*
X8258D02*
D03*
X640Y-1230D02*
D03*
X974D02*
D03*
D76*
X10640Y-5069D02*
D03*
Y-4262D02*
D03*
X9931Y-4262D02*
D03*
Y-5069D02*
D03*
D77*
X3219Y-1338D02*
D03*
X3474D02*
D03*
X3730D02*
D03*
X3219Y-511D02*
D03*
X3474D02*
D03*
X3730D02*
D03*
D78*
X3474Y-924D02*
D03*
D79*
X6106Y-4250D02*
D03*
X5418Y-4938D02*
D03*
D80*
X1348Y-354D02*
D03*
X1545D02*
D03*
X1742D02*
D03*
X1939D02*
D03*
Y-1496D02*
D03*
X1742D02*
D03*
X1545D02*
D03*
X1348D02*
D03*
D81*
X1644Y-925D02*
D03*
D82*
X10187Y-1781D02*
D03*
Y-1230D02*
D03*
D83*
X1012Y-1614D02*
D03*
X602D02*
D03*
D84*
X11270Y-4941D02*
D03*
X12333D02*
D03*
D85*
X12795Y-1309D02*
D03*
X13937D02*
D03*
D86*
X6391Y-3601D02*
D03*
X6680Y-3891D02*
D03*
D87*
X7233Y-4204D02*
D03*
X6899Y-4538D02*
D03*
X6564Y-4873D02*
D03*
D88*
X12106Y-3376D02*
D03*
X11417D02*
D03*
Y-2195D02*
D03*
X12106D02*
D03*
D89*
X12215Y-4193D02*
D03*
D90*
X11270D02*
D03*
D91*
X2802Y-2198D02*
D03*
X2513Y-2487D02*
D03*
D92*
X541Y-4242D02*
D03*
Y-3297D02*
D03*
D93*
X1506Y-5030D02*
D03*
Y-2510D02*
D03*
D94*
X1585Y-3770D02*
D03*
Y-4026D02*
D03*
Y-3514D02*
D03*
Y-3258D02*
D03*
Y-4281D02*
D03*
D95*
X9419Y-3504D02*
D03*
X10561D02*
D03*
Y-2608D02*
D03*
X9419D02*
D03*
D96*
X11184Y-1371D02*
X11830D01*
X11182Y-1369D02*
X11270Y-1282D01*
Y-1144D01*
Y-869D01*
X11830Y-1371D02*
X11919Y-1282D01*
Y-1144D01*
X11182Y-1369D02*
X11184Y-1371D01*
X10809Y-1369D02*
X11182D01*
X10807Y-1367D02*
X10809Y-1369D01*
D97*
X12744Y-2923D02*
D03*
D98*
X13980Y-2921D02*
D03*
D99*
X9311Y-5098D02*
D03*
X7530Y-5118D02*
D03*
X2215Y-3140D02*
D03*
D100*
X3027Y-1836D02*
D03*
X7638Y-817D02*
D03*
X7933Y-974D02*
D03*
X7638Y-1436D02*
D03*
X7614Y-1141D02*
D03*
X7418Y-546D02*
D03*
X4480Y-813D02*
D03*
X4035Y-571D02*
D03*
X3327Y-1752D02*
D03*
X3652Y-1718D02*
D03*
X8474Y-2018D02*
D03*
X8022Y-1713D02*
D03*
X8452Y-1693D02*
D03*
X7065Y-2320D02*
D03*
X7101Y-2849D02*
D03*
X6952Y-2594D02*
D03*
X7024Y-3357D02*
D03*
X5432Y-4477D02*
D03*
X5789Y-4341D02*
D03*
X3130Y-3316D02*
D03*
X3604Y-3487D02*
D03*
X12579Y-246D02*
D03*
X7677Y-4055D02*
D03*
X6851Y-3101D02*
D03*
X2343Y-374D02*
D03*
X8351Y-2463D02*
D03*
D101*
X2844Y-3100D02*
D03*
D102*
X9311Y-4469D02*
D03*
X2293Y-1880D02*
D03*
D103*
X541Y-5069D02*
D03*
Y-2470D02*
D03*
D104*
X6657Y-5591D02*
D03*
X7313D02*
D03*
X6985D02*
D03*
X6329D02*
D03*
X7618Y118D02*
D03*
X7608Y-5591D02*
D03*
X-128Y-679D02*
D03*
Y-1007D02*
D03*
Y-1335D02*
D03*
Y-1663D02*
D03*
X14744Y-2402D02*
D03*
Y-2730D02*
D03*
Y-3058D02*
D03*
Y-3386D02*
D03*
X6319Y118D02*
D03*
X6647D02*
D03*
X6975D02*
D03*
X7303D02*
D03*
D105*
X2593Y-1373D02*
D03*
X6456Y-1043D02*
D03*
X8216Y-1254D02*
D03*
X4164Y-1028D02*
D03*
X3642Y-4104D02*
D03*
X13287Y-1250D02*
D03*
X12585Y-620D02*
D03*
X13455Y-1575D02*
D03*
X5976Y-1033D02*
D03*
X11782Y-1427D02*
D03*
X2254Y-4774D02*
D03*
X1841Y-3022D02*
D03*
X1142Y-1811D02*
D03*
X1447Y-1988D02*
D03*
X610Y-1988D02*
D03*
X11772Y-3612D02*
D03*
X10571Y-1364D02*
D03*
X5108Y-2136D02*
D03*
X2766Y-2736D02*
D03*
X2736Y-3603D02*
D03*
X3701Y-2579D02*
D03*
X2756Y-4449D02*
D03*
X8691Y-5217D02*
D03*
X2087Y-5030D02*
D03*
X7668Y-3731D02*
D03*
X6201Y-5226D02*
D03*
X8730Y-4528D02*
D03*
X4941Y-4823D02*
D03*
X8130Y-4823D02*
D03*
X9016Y-2293D02*
D03*
X13376Y-2598D02*
D03*
X11142Y-2923D02*
D03*
X13839Y-4124D02*
D03*
X11900Y-4518D02*
D03*
X12874Y-4970D02*
D03*
X3474Y-924D02*
D03*
X1644Y-925D02*
D03*
X9351Y-581D02*
D03*
X5679Y-2037D02*
D03*
X4970Y-1417D02*
D03*
X4911Y-3780D02*
D03*
X8642Y-2972D02*
D03*
X2756Y-3947D02*
D03*
X6988Y-4390D02*
D03*
X1004Y-5049D02*
D03*
M02*
