G04*
G04 #@! TF.GenerationSoftware,Altium Limited,Altium Designer,21.8.1 (53)*
G04*
G04 Layer_Color=65535*
%FSLAX24Y24*%
%MOIN*%
G70*
G04*
G04 #@! TF.SameCoordinates,95809A84-84CF-4DA7-BFB4-83C52BA3911F*
G04*
G04*
G04 #@! TF.FilePolarity,Positive*
G04*
G01*
G75*
%ADD10C,0.0098*%
%ADD11C,0.0039*%
%ADD12C,0.0236*%
%ADD13C,0.0079*%
G36*
X7478Y-1383D02*
X7487Y-1384D01*
X7498Y-1386D01*
X7510Y-1389D01*
X7522Y-1394D01*
X7535Y-1400D01*
X7537Y-1400D01*
X7541Y-1402D01*
X7547Y-1407D01*
X7554Y-1412D01*
X7563Y-1419D01*
X7573Y-1427D01*
X7581Y-1437D01*
X7589Y-1448D01*
X7590Y-1449D01*
X7592Y-1453D01*
X7596Y-1459D01*
X7599Y-1467D01*
X7603Y-1478D01*
X7607Y-1489D01*
X7609Y-1502D01*
X7610Y-1516D01*
Y-1521D01*
X7609Y-1526D01*
X7608Y-1533D01*
X7607Y-1541D01*
X7605Y-1550D01*
X7602Y-1559D01*
X7598Y-1569D01*
X7597Y-1570D01*
X7596Y-1573D01*
X7593Y-1578D01*
X7589Y-1584D01*
X7584Y-1591D01*
X7578Y-1599D01*
X7572Y-1607D01*
X7564Y-1615D01*
X7563Y-1615D01*
X7559Y-1618D01*
X7555Y-1621D01*
X7548Y-1626D01*
X7540Y-1631D01*
X7530Y-1636D01*
X7520Y-1642D01*
X7508Y-1646D01*
X7508D01*
X7507Y-1647D01*
X7503Y-1647D01*
X7496Y-1650D01*
X7488Y-1652D01*
X7477Y-1654D01*
X7465Y-1655D01*
X7453Y-1657D01*
X7439Y-1658D01*
X7438D01*
X7438D01*
X7435D01*
X7433D01*
X7425Y-1657D01*
X7415Y-1656D01*
X7403Y-1655D01*
X7390Y-1653D01*
X7375Y-1651D01*
X7360Y-1647D01*
X7360D01*
X7358Y-1647D01*
X7356Y-1646D01*
X7353Y-1645D01*
X7345Y-1642D01*
X7335Y-1639D01*
X7323Y-1634D01*
X7309Y-1627D01*
X7295Y-1619D01*
X7281Y-1610D01*
X7280D01*
X7279Y-1609D01*
X7277Y-1607D01*
X7274Y-1605D01*
X7267Y-1599D01*
X7257Y-1591D01*
X7246Y-1581D01*
X7234Y-1569D01*
X7222Y-1554D01*
X7209Y-1538D01*
X7209Y-1537D01*
X7208Y-1536D01*
X7207Y-1534D01*
X7204Y-1530D01*
X7201Y-1526D01*
X7198Y-1520D01*
X7194Y-1514D01*
X7190Y-1507D01*
X7186Y-1499D01*
X7182Y-1491D01*
X7173Y-1472D01*
X7164Y-1450D01*
X7156Y-1427D01*
X7168Y-1421D01*
Y-1422D01*
X7169Y-1424D01*
X7170Y-1427D01*
X7172Y-1430D01*
X7174Y-1435D01*
X7176Y-1440D01*
X7182Y-1453D01*
X7190Y-1467D01*
X7199Y-1483D01*
X7209Y-1498D01*
X7220Y-1513D01*
Y-1513D01*
X7222Y-1514D01*
X7225Y-1518D01*
X7232Y-1525D01*
X7241Y-1534D01*
X7250Y-1542D01*
X7262Y-1552D01*
X7274Y-1561D01*
X7287Y-1570D01*
X7288D01*
X7289Y-1571D01*
X7293Y-1574D01*
X7301Y-1577D01*
X7309Y-1582D01*
X7320Y-1587D01*
X7332Y-1591D01*
X7345Y-1596D01*
X7358Y-1600D01*
X7359D01*
X7360D01*
X7364Y-1602D01*
X7371Y-1603D01*
X7380Y-1604D01*
X7390Y-1606D01*
X7402Y-1607D01*
X7414Y-1608D01*
X7426Y-1609D01*
X7427D01*
X7428D01*
X7431D01*
X7435D01*
X7440Y-1608D01*
X7445D01*
X7458Y-1607D01*
X7472Y-1605D01*
X7488Y-1602D01*
X7503Y-1598D01*
X7519Y-1593D01*
X7519D01*
X7520Y-1592D01*
X7522Y-1591D01*
X7525Y-1590D01*
X7532Y-1586D01*
X7540Y-1581D01*
X7550Y-1575D01*
X7559Y-1568D01*
X7568Y-1560D01*
X7576Y-1551D01*
X7577Y-1550D01*
X7579Y-1547D01*
X7582Y-1542D01*
X7585Y-1535D01*
X7589Y-1528D01*
X7591Y-1520D01*
X7594Y-1511D01*
X7594Y-1502D01*
Y-1499D01*
X7594Y-1495D01*
X7593Y-1490D01*
X7591Y-1484D01*
X7590Y-1478D01*
X7587Y-1470D01*
X7583Y-1464D01*
X7583Y-1463D01*
X7581Y-1461D01*
X7578Y-1457D01*
X7575Y-1454D01*
X7570Y-1448D01*
X7564Y-1444D01*
X7557Y-1440D01*
X7549Y-1435D01*
X7548Y-1435D01*
X7545Y-1434D01*
X7540Y-1432D01*
X7534Y-1429D01*
X7527Y-1428D01*
X7517Y-1426D01*
X7507Y-1425D01*
X7496Y-1424D01*
X7495D01*
X7494D01*
X7490D01*
X7484Y-1425D01*
X7476Y-1426D01*
X7466Y-1427D01*
X7455Y-1430D01*
X7444Y-1433D01*
X7433Y-1437D01*
X7432Y-1438D01*
X7428Y-1440D01*
X7423Y-1443D01*
X7416Y-1447D01*
X7408Y-1452D01*
X7400Y-1458D01*
X7393Y-1464D01*
X7386Y-1472D01*
X7385Y-1473D01*
X7383Y-1476D01*
X7380Y-1480D01*
X7376Y-1486D01*
X7373Y-1493D01*
X7371Y-1500D01*
X7368Y-1509D01*
X7368Y-1518D01*
Y-1519D01*
X7368Y-1522D01*
X7369Y-1528D01*
X7371Y-1535D01*
X7374Y-1544D01*
X7379Y-1554D01*
X7386Y-1566D01*
X7395Y-1579D01*
X7379Y-1578D01*
Y-1577D01*
X7379Y-1577D01*
X7376Y-1572D01*
X7371Y-1566D01*
X7366Y-1558D01*
X7356Y-1542D01*
X7352Y-1534D01*
X7349Y-1528D01*
Y-1527D01*
X7347Y-1525D01*
X7347Y-1522D01*
X7345Y-1518D01*
X7344Y-1513D01*
X7343Y-1506D01*
X7341Y-1499D01*
Y-1486D01*
X7342Y-1481D01*
X7344Y-1474D01*
X7346Y-1466D01*
X7349Y-1457D01*
X7353Y-1448D01*
X7359Y-1438D01*
X7360Y-1437D01*
X7362Y-1434D01*
X7366Y-1429D01*
X7371Y-1424D01*
X7378Y-1417D01*
X7386Y-1411D01*
X7395Y-1403D01*
X7406Y-1397D01*
X7407Y-1397D01*
X7411Y-1395D01*
X7416Y-1392D01*
X7424Y-1389D01*
X7433Y-1387D01*
X7443Y-1384D01*
X7454Y-1383D01*
X7465Y-1382D01*
X7466D01*
X7467D01*
X7471D01*
X7478Y-1383D01*
D02*
G37*
G36*
X7605Y-1706D02*
X7604Y-1709D01*
X7603Y-1715D01*
X7602Y-1723D01*
X7602Y-1731D01*
X7601Y-1741D01*
X7600Y-1752D01*
Y-1776D01*
X7601Y-1784D01*
Y-1794D01*
X7602Y-1806D01*
X7603Y-1819D01*
X7605Y-1833D01*
X7594D01*
Y-1832D01*
X7593Y-1828D01*
X7591Y-1823D01*
X7590Y-1817D01*
X7587Y-1811D01*
X7584Y-1804D01*
X7580Y-1798D01*
X7575Y-1795D01*
X7575D01*
X7573Y-1794D01*
X7570Y-1793D01*
X7565Y-1793D01*
X7559Y-1791D01*
X7551Y-1790D01*
X7540Y-1789D01*
X7528Y-1788D01*
X7527D01*
X7527D01*
X7522Y-1787D01*
X7516D01*
X7508Y-1787D01*
X7498D01*
X7489Y-1786D01*
X7480D01*
X7472D01*
X7470D01*
X7467D01*
X7462D01*
X7454D01*
X7447Y-1787D01*
X7438Y-1787D01*
X7430Y-1788D01*
X7423Y-1789D01*
X7422D01*
X7419Y-1790D01*
X7416Y-1790D01*
X7411Y-1791D01*
X7400Y-1795D01*
X7395Y-1799D01*
X7390Y-1803D01*
X7389Y-1803D01*
X7387Y-1805D01*
X7385Y-1808D01*
X7382Y-1811D01*
X7380Y-1817D01*
X7378Y-1823D01*
X7376Y-1830D01*
X7376Y-1839D01*
Y-1844D01*
X7376Y-1847D01*
X7377Y-1852D01*
X7378Y-1857D01*
X7379Y-1864D01*
X7381Y-1872D01*
Y-1873D01*
X7382Y-1876D01*
X7383Y-1881D01*
X7385Y-1887D01*
X7387Y-1894D01*
X7391Y-1903D01*
X7395Y-1913D01*
X7400Y-1924D01*
X7491Y-1926D01*
X7492D01*
X7493D01*
X7496D01*
X7500D01*
X7505D01*
X7510D01*
X7522D01*
X7535Y-1925D01*
X7548D01*
X7559D01*
X7564Y-1924D01*
X7567D01*
X7569D01*
X7572Y-1924D01*
X7576Y-1923D01*
X7580Y-1922D01*
X7581Y-1921D01*
X7582Y-1919D01*
X7584Y-1916D01*
X7587Y-1910D01*
Y-1909D01*
X7588Y-1908D01*
Y-1905D01*
X7589Y-1903D01*
X7589Y-1898D01*
X7591Y-1893D01*
X7591Y-1887D01*
X7592Y-1879D01*
X7604Y-1880D01*
Y-1881D01*
X7603Y-1886D01*
Y-1892D01*
X7602Y-1902D01*
Y-1904D01*
X7602Y-1908D01*
Y-1911D01*
X7601Y-1916D01*
X7600Y-1923D01*
Y-1930D01*
X7599Y-1938D01*
Y-2013D01*
X7589D01*
Y-2012D01*
X7589Y-2010D01*
X7588Y-2006D01*
X7587Y-2002D01*
X7585Y-1994D01*
X7584Y-1990D01*
X7583Y-1986D01*
Y-1986D01*
X7582Y-1985D01*
X7581Y-1982D01*
X7578Y-1978D01*
X7574Y-1975D01*
X7573Y-1975D01*
X7570Y-1974D01*
X7566Y-1973D01*
X7561Y-1971D01*
X7560D01*
X7557Y-1970D01*
X7554D01*
X7548Y-1970D01*
X7542Y-1969D01*
X7534Y-1968D01*
X7525Y-1967D01*
X7516D01*
X7514D01*
X7511D01*
X7505Y-1967D01*
X7498D01*
X7490D01*
X7481Y-1966D01*
X7460D01*
X7459D01*
X7459D01*
X7457D01*
X7454D01*
X7447D01*
X7439D01*
X7430Y-1967D01*
X7421Y-1967D01*
X7414Y-1968D01*
X7407Y-1969D01*
X7406D01*
X7405Y-1970D01*
X7403Y-1970D01*
X7400Y-1971D01*
X7394Y-1975D01*
X7391Y-1977D01*
X7390Y-1980D01*
Y-1981D01*
X7389Y-1981D01*
X7388Y-1983D01*
X7387Y-1986D01*
X7386Y-1991D01*
X7384Y-1996D01*
X7384Y-2002D01*
X7382Y-2010D01*
X7382D01*
X7380D01*
X7376Y-2011D01*
Y-2010D01*
X7376Y-2008D01*
X7375Y-2005D01*
X7373Y-2001D01*
X7371Y-1995D01*
X7369Y-1989D01*
X7366Y-1981D01*
X7363Y-1973D01*
X7362Y-1972D01*
X7361Y-1969D01*
X7359Y-1965D01*
X7357Y-1960D01*
X7355Y-1956D01*
X7352Y-1951D01*
X7351Y-1949D01*
X7350Y-1947D01*
Y-1946D01*
X7349Y-1945D01*
X7347Y-1940D01*
X7344Y-1935D01*
X7343Y-1933D01*
Y-1931D01*
X7344Y-1929D01*
X7347Y-1927D01*
X7349Y-1926D01*
X7353Y-1925D01*
X7354D01*
X7355D01*
X7357Y-1924D01*
X7361D01*
X7365D01*
X7371Y-1924D01*
X7378D01*
X7386D01*
Y-1923D01*
X7385Y-1922D01*
X7382Y-1917D01*
X7379Y-1911D01*
X7374Y-1902D01*
X7369Y-1892D01*
X7364Y-1882D01*
X7360Y-1872D01*
X7356Y-1862D01*
X7355Y-1861D01*
X7355Y-1858D01*
X7353Y-1854D01*
X7351Y-1848D01*
X7349Y-1841D01*
X7348Y-1833D01*
X7347Y-1825D01*
X7347Y-1816D01*
Y-1811D01*
X7347Y-1805D01*
X7348Y-1798D01*
X7350Y-1790D01*
X7352Y-1782D01*
X7356Y-1774D01*
X7361Y-1768D01*
X7362Y-1767D01*
X7364Y-1766D01*
X7367Y-1763D01*
X7371Y-1760D01*
X7376Y-1756D01*
X7382Y-1753D01*
X7390Y-1751D01*
X7397Y-1749D01*
X7398D01*
X7400Y-1748D01*
X7405Y-1747D01*
X7411Y-1747D01*
X7419D01*
X7428Y-1746D01*
X7439Y-1745D01*
X7451D01*
X7532D01*
X7532D01*
X7534D01*
X7536D01*
X7539D01*
X7547D01*
X7556Y-1744D01*
X7566D01*
X7574Y-1743D01*
X7578D01*
X7581Y-1742D01*
X7583Y-1741D01*
X7584Y-1741D01*
X7585Y-1740D01*
X7586Y-1738D01*
X7587Y-1736D01*
X7588Y-1733D01*
X7589Y-1729D01*
X7591Y-1724D01*
Y-1723D01*
X7591Y-1722D01*
Y-1719D01*
X7592Y-1716D01*
X7594Y-1710D01*
Y-1707D01*
X7594Y-1706D01*
X7605Y-1705D01*
Y-1706D01*
D02*
G37*
G36*
X7486Y-2052D02*
X7494Y-2053D01*
X7505Y-2056D01*
X7516Y-2059D01*
X7528Y-2063D01*
X7540Y-2069D01*
X7541Y-2070D01*
X7545Y-2072D01*
X7551Y-2075D01*
X7558Y-2081D01*
X7566Y-2088D01*
X7574Y-2096D01*
X7583Y-2105D01*
X7590Y-2116D01*
X7591Y-2118D01*
X7593Y-2121D01*
X7596Y-2128D01*
X7599Y-2137D01*
X7602Y-2147D01*
X7605Y-2159D01*
X7607Y-2172D01*
X7608Y-2187D01*
Y-2192D01*
X7607Y-2199D01*
X7607Y-2206D01*
X7605Y-2215D01*
X7602Y-2226D01*
X7599Y-2238D01*
X7595Y-2250D01*
X7594Y-2251D01*
X7593Y-2255D01*
X7589Y-2261D01*
X7585Y-2269D01*
X7579Y-2277D01*
X7572Y-2286D01*
X7563Y-2295D01*
X7553Y-2304D01*
X7551Y-2304D01*
X7548Y-2307D01*
X7541Y-2310D01*
X7532Y-2314D01*
X7521Y-2318D01*
X7508Y-2322D01*
X7494Y-2325D01*
X7477Y-2325D01*
X7476D01*
X7472D01*
X7466Y-2325D01*
X7459Y-2324D01*
X7451Y-2322D01*
X7441Y-2321D01*
X7433Y-2318D01*
X7423Y-2314D01*
X7422Y-2314D01*
X7419Y-2312D01*
X7414Y-2310D01*
X7408Y-2306D01*
X7402Y-2302D01*
X7395Y-2297D01*
X7387Y-2291D01*
X7381Y-2285D01*
X7380Y-2284D01*
X7378Y-2281D01*
X7375Y-2277D01*
X7371Y-2271D01*
X7366Y-2265D01*
X7362Y-2257D01*
X7357Y-2249D01*
X7354Y-2239D01*
X7353Y-2238D01*
X7352Y-2235D01*
X7351Y-2229D01*
X7349Y-2223D01*
X7347Y-2214D01*
X7345Y-2204D01*
X7344Y-2194D01*
X7344Y-2183D01*
Y-2179D01*
X7344Y-2174D01*
X7345Y-2166D01*
X7346Y-2159D01*
X7348Y-2150D01*
X7350Y-2141D01*
X7354Y-2132D01*
X7355Y-2131D01*
X7356Y-2128D01*
X7358Y-2123D01*
X7361Y-2118D01*
X7365Y-2112D01*
X7370Y-2105D01*
X7375Y-2097D01*
X7382Y-2091D01*
X7382Y-2090D01*
X7384Y-2088D01*
X7388Y-2084D01*
X7393Y-2080D01*
X7399Y-2075D01*
X7406Y-2071D01*
X7414Y-2067D01*
X7422Y-2062D01*
X7423Y-2061D01*
X7427Y-2061D01*
X7431Y-2059D01*
X7438Y-2056D01*
X7445Y-2055D01*
X7454Y-2053D01*
X7463Y-2052D01*
X7473Y-2051D01*
X7474D01*
X7475D01*
X7479D01*
X7486Y-2052D01*
D02*
G37*
G36*
X7376Y-2354D02*
X7379Y-2355D01*
X7383Y-2356D01*
X7387Y-2357D01*
X7390Y-2360D01*
X7394Y-2364D01*
Y-2365D01*
X7395Y-2366D01*
X7397Y-2368D01*
X7398Y-2371D01*
X7401Y-2379D01*
X7403Y-2390D01*
X7403D01*
X7401D01*
X7397Y-2391D01*
X7391Y-2392D01*
X7386Y-2396D01*
X7385Y-2397D01*
X7382Y-2400D01*
X7380Y-2405D01*
X7379Y-2411D01*
Y-2413D01*
X7380Y-2415D01*
Y-2418D01*
X7383Y-2426D01*
X7384Y-2430D01*
X7387Y-2435D01*
Y-2436D01*
X7389Y-2438D01*
X7390Y-2441D01*
X7392Y-2444D01*
X7396Y-2450D01*
X7400Y-2457D01*
X7402Y-2458D01*
X7405Y-2461D01*
X7409Y-2465D01*
X7414Y-2467D01*
X7414D01*
X7416Y-2468D01*
X7418D01*
X7422D01*
X7425Y-2468D01*
X7431D01*
X7438D01*
X7438D01*
X7440D01*
X7443D01*
X7446D01*
X7456Y-2469D01*
X7467D01*
X7478Y-2470D01*
X7487D01*
X7492Y-2470D01*
X7494D01*
X7497D01*
X7498D01*
X7499D01*
X7501D01*
X7505D01*
X7509D01*
X7514D01*
X7520Y-2470D01*
X7533D01*
X7548Y-2469D01*
X7561Y-2468D01*
X7567Y-2467D01*
X7573Y-2466D01*
X7577Y-2465D01*
X7581Y-2464D01*
X7581Y-2463D01*
X7583Y-2462D01*
X7586Y-2460D01*
X7587Y-2457D01*
Y-2454D01*
X7588Y-2450D01*
Y-2444D01*
X7587Y-2435D01*
X7586Y-2395D01*
X7600D01*
Y-2406D01*
X7601Y-2411D01*
Y-2428D01*
X7602Y-2437D01*
Y-2444D01*
X7605Y-2553D01*
X7594D01*
Y-2552D01*
X7594Y-2550D01*
X7593Y-2547D01*
X7592Y-2543D01*
X7591Y-2535D01*
X7589Y-2532D01*
X7589Y-2530D01*
X7588Y-2528D01*
X7585Y-2526D01*
X7581Y-2522D01*
X7577Y-2520D01*
X7573Y-2519D01*
X7572D01*
X7570Y-2518D01*
X7567Y-2517D01*
X7563Y-2516D01*
X7557Y-2515D01*
X7551Y-2513D01*
X7543Y-2513D01*
X7535Y-2512D01*
X7533D01*
X7529Y-2511D01*
X7524D01*
X7516Y-2511D01*
X7505D01*
X7491Y-2510D01*
X7476D01*
X7457D01*
X7457D01*
X7456D01*
X7454D01*
X7451D01*
X7443D01*
X7435Y-2511D01*
X7426Y-2511D01*
X7417Y-2512D01*
X7409Y-2513D01*
X7403Y-2515D01*
X7403D01*
X7401Y-2516D01*
X7399Y-2517D01*
X7396Y-2519D01*
X7394Y-2522D01*
X7392Y-2526D01*
X7390Y-2531D01*
X7390Y-2537D01*
Y-2543D01*
X7390Y-2551D01*
X7392Y-2558D01*
X7382Y-2557D01*
X7330Y-2468D01*
X7330D01*
X7333D01*
X7338Y-2468D01*
X7345D01*
X7354D01*
X7363Y-2467D01*
X7375D01*
X7388D01*
X7368Y-2431D01*
X7367Y-2430D01*
X7366Y-2430D01*
X7364Y-2426D01*
Y-2425D01*
X7363Y-2424D01*
X7362Y-2421D01*
X7360Y-2418D01*
X7359Y-2417D01*
X7357Y-2414D01*
X7355Y-2409D01*
X7350Y-2401D01*
Y-2400D01*
X7349Y-2399D01*
X7346Y-2395D01*
X7342Y-2389D01*
X7338Y-2383D01*
X7339Y-2380D01*
Y-2379D01*
X7341Y-2379D01*
X7343Y-2375D01*
Y-2374D01*
X7344Y-2374D01*
X7346Y-2369D01*
X7349Y-2364D01*
X7354Y-2359D01*
X7355Y-2358D01*
X7358Y-2356D01*
X7363Y-2354D01*
X7371Y-2353D01*
X7372D01*
X7373D01*
X7376Y-2354D01*
D02*
G37*
G36*
X7370Y-2583D02*
X7373Y-2583D01*
X7376Y-2586D01*
X7379Y-2588D01*
X7384Y-2591D01*
X7385Y-2592D01*
X7387Y-2593D01*
X7391Y-2597D01*
X7396Y-2602D01*
X7398Y-2605D01*
X7398Y-2607D01*
Y-2608D01*
X7398Y-2610D01*
X7396Y-2614D01*
X7395Y-2615D01*
X7394Y-2618D01*
X7391Y-2624D01*
X7387Y-2631D01*
Y-2632D01*
X7386Y-2632D01*
X7384Y-2637D01*
X7382Y-2644D01*
X7379Y-2653D01*
X7376Y-2662D01*
X7373Y-2672D01*
X7372Y-2683D01*
X7371Y-2692D01*
Y-2698D01*
X7373Y-2704D01*
X7374Y-2711D01*
X7377Y-2720D01*
X7381Y-2729D01*
X7387Y-2737D01*
X7394Y-2744D01*
X7395Y-2745D01*
X7398Y-2747D01*
X7403Y-2749D01*
X7411Y-2752D01*
X7420Y-2756D01*
X7432Y-2758D01*
X7446Y-2760D01*
X7462Y-2761D01*
X7462D01*
X7463D01*
X7465D01*
X7468D01*
X7476Y-2760D01*
X7486Y-2758D01*
X7497Y-2756D01*
X7508Y-2753D01*
X7520Y-2749D01*
X7531Y-2743D01*
X7532Y-2742D01*
X7535Y-2740D01*
X7540Y-2736D01*
X7547Y-2731D01*
X7554Y-2725D01*
X7560Y-2718D01*
X7567Y-2709D01*
X7573Y-2700D01*
X7573Y-2699D01*
X7575Y-2696D01*
X7576Y-2691D01*
X7578Y-2685D01*
X7581Y-2678D01*
X7583Y-2669D01*
X7584Y-2661D01*
X7585Y-2653D01*
Y-2647D01*
X7584Y-2643D01*
X7583Y-2632D01*
X7579Y-2621D01*
Y-2620D01*
X7578Y-2618D01*
X7577Y-2615D01*
X7575Y-2610D01*
X7573Y-2606D01*
X7570Y-2600D01*
X7562Y-2588D01*
X7573Y-2583D01*
X7573Y-2583D01*
X7574Y-2585D01*
X7576Y-2587D01*
X7578Y-2591D01*
X7581Y-2595D01*
X7584Y-2600D01*
X7591Y-2612D01*
X7598Y-2626D01*
X7604Y-2642D01*
X7608Y-2659D01*
X7609Y-2667D01*
X7610Y-2676D01*
Y-2681D01*
X7609Y-2686D01*
X7608Y-2694D01*
X7607Y-2702D01*
X7605Y-2712D01*
X7602Y-2723D01*
X7599Y-2734D01*
X7598Y-2735D01*
X7597Y-2739D01*
X7594Y-2744D01*
X7591Y-2750D01*
X7586Y-2758D01*
X7581Y-2765D01*
X7575Y-2773D01*
X7569Y-2780D01*
X7568Y-2780D01*
X7567Y-2781D01*
X7564Y-2783D01*
X7560Y-2785D01*
X7555Y-2788D01*
X7549Y-2790D01*
X7542Y-2793D01*
X7534Y-2796D01*
X7533D01*
X7530Y-2796D01*
X7526Y-2797D01*
X7520Y-2799D01*
X7513Y-2799D01*
X7506Y-2801D01*
X7490Y-2801D01*
X7489D01*
X7488D01*
X7486D01*
X7483Y-2801D01*
X7475Y-2800D01*
X7465Y-2799D01*
X7453Y-2796D01*
X7440Y-2792D01*
X7426Y-2786D01*
X7413Y-2779D01*
X7412D01*
X7411Y-2778D01*
X7407Y-2774D01*
X7400Y-2770D01*
X7393Y-2764D01*
X7384Y-2756D01*
X7375Y-2746D01*
X7366Y-2735D01*
X7358Y-2723D01*
Y-2723D01*
X7357Y-2722D01*
X7355Y-2718D01*
X7352Y-2711D01*
X7348Y-2703D01*
X7345Y-2694D01*
X7341Y-2683D01*
X7339Y-2672D01*
X7338Y-2661D01*
Y-2658D01*
X7339Y-2653D01*
X7340Y-2648D01*
X7341Y-2641D01*
X7343Y-2633D01*
X7345Y-2624D01*
X7349Y-2613D01*
Y-2612D01*
X7349Y-2611D01*
X7350Y-2608D01*
X7352Y-2602D01*
X7355Y-2597D01*
X7357Y-2591D01*
X7360Y-2586D01*
X7363Y-2583D01*
X7365Y-2581D01*
X7367D01*
X7368D01*
X7370Y-2583D01*
D02*
G37*
G36*
X7606Y-2976D02*
X7596Y-2976D01*
Y-2974D01*
X7595Y-2971D01*
X7594Y-2966D01*
X7594Y-2960D01*
X7592Y-2955D01*
X7591Y-2949D01*
X7589Y-2945D01*
X7586Y-2943D01*
X7585D01*
X7583Y-2942D01*
X7581D01*
X7578Y-2941D01*
X7574Y-2941D01*
X7569D01*
X7562Y-2940D01*
X7561D01*
X7558D01*
X7554Y-2939D01*
X7547D01*
X7540Y-2938D01*
X7532D01*
X7521Y-2938D01*
X7511D01*
X7510D01*
X7506D01*
X7502Y-2937D01*
X7496D01*
X7490D01*
X7484Y-2936D01*
X7480D01*
X7478D01*
X7477D01*
X7476D01*
X7473D01*
X7470D01*
X7462D01*
X7451D01*
X7441Y-2937D01*
X7431D01*
X7422Y-2938D01*
X7419D01*
X7416Y-2938D01*
X7415D01*
X7414D01*
X7411Y-2939D01*
X7408Y-2940D01*
X7402Y-2941D01*
X7399Y-2943D01*
X7397Y-2944D01*
X7396Y-2945D01*
X7395Y-2947D01*
X7395Y-2949D01*
Y-2952D01*
X7394Y-2956D01*
X7393Y-2961D01*
Y-2962D01*
X7392Y-2963D01*
X7392Y-2968D01*
X7390Y-2974D01*
X7390Y-2976D01*
X7389Y-2976D01*
X7388D01*
X7386Y-2976D01*
X7383Y-2974D01*
X7382Y-2971D01*
Y-2970D01*
X7381Y-2968D01*
X7380Y-2967D01*
X7379Y-2964D01*
X7376Y-2956D01*
X7371Y-2946D01*
X7365Y-2933D01*
X7357Y-2920D01*
X7348Y-2906D01*
X7337Y-2891D01*
Y-2890D01*
X7338Y-2887D01*
X7338Y-2885D01*
X7339D01*
X7341Y-2885D01*
X7344Y-2886D01*
X7349Y-2887D01*
X7355Y-2887D01*
X7362Y-2888D01*
X7370Y-2890D01*
X7379Y-2890D01*
X7381D01*
X7384D01*
X7390Y-2891D01*
X7397Y-2892D01*
X7405Y-2893D01*
X7414D01*
X7425Y-2893D01*
X7436Y-2894D01*
X7438D01*
X7441D01*
X7446Y-2895D01*
X7454D01*
X7462D01*
X7470Y-2895D01*
X7488D01*
X7489D01*
X7491D01*
X7495D01*
X7500D01*
X7507D01*
X7516D01*
X7525Y-2895D01*
X7537D01*
X7538D01*
X7542D01*
X7547Y-2894D01*
X7554Y-2893D01*
X7568Y-2893D01*
X7574Y-2891D01*
X7579Y-2890D01*
X7580Y-2890D01*
X7583Y-2888D01*
X7585Y-2886D01*
X7587Y-2884D01*
Y-2883D01*
X7588Y-2880D01*
X7589Y-2875D01*
X7590Y-2868D01*
Y-2860D01*
X7591Y-2852D01*
X7591Y-2844D01*
X7602Y-2839D01*
X7606Y-2976D01*
D02*
G37*
G36*
X7206Y-2874D02*
X7212Y-2877D01*
X7218Y-2881D01*
X7220Y-2882D01*
X7222Y-2886D01*
X7224Y-2892D01*
X7225Y-2900D01*
Y-2901D01*
X7225Y-2906D01*
X7223Y-2912D01*
X7218Y-2918D01*
X7217D01*
X7217Y-2920D01*
X7213Y-2922D01*
X7207Y-2924D01*
X7199Y-2925D01*
X7199D01*
X7197D01*
X7193Y-2925D01*
X7186Y-2922D01*
X7180Y-2918D01*
X7180Y-2917D01*
X7179Y-2917D01*
X7176Y-2913D01*
X7174Y-2907D01*
X7172Y-2903D01*
Y-2898D01*
X7173Y-2893D01*
X7176Y-2887D01*
X7177Y-2885D01*
X7180Y-2882D01*
Y-2881D01*
X7182Y-2880D01*
X7185Y-2877D01*
X7192Y-2875D01*
X7196Y-2874D01*
X7199D01*
X7200D01*
X7201D01*
X7206Y-2874D01*
D02*
G37*
G36*
X7601Y-3070D02*
X7602Y-3115D01*
Y-3128D01*
X7602Y-3137D01*
Y-3147D01*
X7603Y-3158D01*
X7604Y-3169D01*
X7605Y-3180D01*
X7592D01*
Y-3178D01*
X7591Y-3175D01*
X7590Y-3170D01*
X7588Y-3164D01*
X7583Y-3151D01*
X7581Y-3145D01*
X7578Y-3140D01*
X7577Y-3139D01*
X7576Y-3138D01*
X7574Y-3135D01*
X7571Y-3133D01*
X7567Y-3130D01*
X7562Y-3127D01*
X7556Y-3124D01*
X7550Y-3122D01*
X7549D01*
X7546Y-3121D01*
X7541Y-3120D01*
X7535Y-3119D01*
X7526Y-3118D01*
X7516Y-3117D01*
X7503Y-3116D01*
X7489D01*
X7487D01*
X7484D01*
X7480D01*
X7474D01*
X7468D01*
X7460D01*
X7454D01*
X7447D01*
X7355Y-3119D01*
X7355D01*
X7352D01*
X7349D01*
X7345Y-3120D01*
X7340D01*
X7334D01*
X7327Y-3121D01*
X7320Y-3121D01*
X7303Y-3122D01*
X7285Y-3124D01*
X7265Y-3126D01*
X7246Y-3128D01*
X7247Y-3129D01*
X7250Y-3130D01*
X7255Y-3132D01*
X7261Y-3136D01*
X7269Y-3140D01*
X7279Y-3146D01*
X7292Y-3153D01*
X7306Y-3160D01*
X7306D01*
X7307Y-3161D01*
X7309Y-3162D01*
X7312Y-3164D01*
X7320Y-3167D01*
X7330Y-3173D01*
X7341Y-3179D01*
X7353Y-3186D01*
X7379Y-3199D01*
X7381Y-3200D01*
X7385Y-3202D01*
X7392Y-3206D01*
X7400Y-3210D01*
X7410Y-3216D01*
X7421Y-3221D01*
X7445Y-3234D01*
X7446Y-3234D01*
X7450Y-3237D01*
X7457Y-3240D01*
X7464Y-3243D01*
X7473Y-3248D01*
X7481Y-3252D01*
X7491Y-3256D01*
X7500Y-3261D01*
X7500D01*
X7502Y-3261D01*
X7504Y-3263D01*
X7507Y-3264D01*
X7516Y-3268D01*
X7525Y-3272D01*
X7536Y-3277D01*
X7547Y-3282D01*
X7556Y-3286D01*
X7564Y-3290D01*
X7564D01*
X7567Y-3291D01*
X7570Y-3292D01*
X7575Y-3294D01*
X7580Y-3296D01*
X7586Y-3299D01*
X7593Y-3301D01*
X7601Y-3304D01*
X7602Y-3314D01*
X7601Y-3315D01*
X7598Y-3315D01*
X7592Y-3318D01*
X7585Y-3320D01*
X7577Y-3323D01*
X7567Y-3326D01*
X7556Y-3330D01*
X7544Y-3334D01*
X7543D01*
X7543Y-3335D01*
X7538Y-3337D01*
X7532Y-3339D01*
X7523Y-3343D01*
X7512Y-3347D01*
X7499Y-3353D01*
X7485Y-3360D01*
X7470Y-3368D01*
X7469Y-3369D01*
X7466Y-3370D01*
X7461Y-3372D01*
X7454Y-3376D01*
X7446Y-3380D01*
X7435Y-3386D01*
X7424Y-3392D01*
X7410Y-3399D01*
X7395Y-3407D01*
X7378Y-3416D01*
X7360Y-3426D01*
X7339Y-3436D01*
X7318Y-3448D01*
X7295Y-3460D01*
X7270Y-3473D01*
X7244Y-3486D01*
X7245D01*
X7247D01*
X7250Y-3487D01*
X7255D01*
X7260Y-3487D01*
X7267Y-3488D01*
X7274Y-3489D01*
X7283Y-3490D01*
X7293Y-3490D01*
X7303Y-3491D01*
X7314Y-3493D01*
X7326Y-3493D01*
X7352Y-3495D01*
X7380Y-3498D01*
X7381D01*
X7384D01*
X7388Y-3498D01*
X7393D01*
X7400Y-3499D01*
X7409D01*
X7419Y-3500D01*
X7430D01*
X7441Y-3501D01*
X7454Y-3501D01*
X7468D01*
X7481Y-3502D01*
X7511Y-3503D01*
X7543D01*
X7545D01*
X7548D01*
X7552Y-3502D01*
X7558Y-3501D01*
X7564Y-3500D01*
X7570Y-3498D01*
X7576Y-3495D01*
X7581Y-3492D01*
X7581Y-3491D01*
X7582Y-3490D01*
X7584Y-3486D01*
X7586Y-3481D01*
X7589Y-3474D01*
X7591Y-3466D01*
X7593Y-3454D01*
X7594Y-3440D01*
X7606Y-3441D01*
Y-3442D01*
X7605Y-3444D01*
Y-3450D01*
X7605Y-3455D01*
Y-3463D01*
X7604Y-3471D01*
Y-3539D01*
X7605Y-3544D01*
Y-3575D01*
X7605Y-3583D01*
Y-3589D01*
X7606Y-3594D01*
Y-3598D01*
X7597Y-3598D01*
Y-3596D01*
X7595Y-3592D01*
X7594Y-3587D01*
X7592Y-3579D01*
X7587Y-3564D01*
X7583Y-3557D01*
X7580Y-3552D01*
X7579Y-3551D01*
X7578Y-3549D01*
X7575Y-3547D01*
X7571Y-3544D01*
X7567Y-3541D01*
X7562Y-3538D01*
X7555Y-3536D01*
X7548Y-3534D01*
X7547D01*
X7543Y-3533D01*
X7538Y-3533D01*
X7531Y-3531D01*
X7521Y-3530D01*
X7508Y-3528D01*
X7500Y-3528D01*
X7492Y-3527D01*
X7483Y-3526D01*
X7473Y-3525D01*
X7295Y-3516D01*
X7294D01*
X7291Y-3515D01*
X7287D01*
X7282Y-3514D01*
X7271Y-3514D01*
X7266D01*
X7262D01*
X7261D01*
X7260D01*
X7256D01*
X7250Y-3514D01*
X7242Y-3515D01*
X7234Y-3516D01*
X7225Y-3517D01*
X7217Y-3520D01*
X7210Y-3523D01*
X7209Y-3524D01*
X7207Y-3525D01*
X7204Y-3527D01*
X7200Y-3530D01*
X7196Y-3533D01*
X7192Y-3538D01*
X7189Y-3543D01*
X7186Y-3549D01*
Y-3549D01*
X7185Y-3552D01*
X7184Y-3555D01*
X7182Y-3560D01*
X7181Y-3567D01*
X7180Y-3575D01*
X7178Y-3584D01*
X7177Y-3594D01*
X7164Y-3593D01*
Y-3585D01*
X7164Y-3581D01*
Y-3576D01*
X7165Y-3573D01*
Y-3556D01*
X7166Y-3552D01*
Y-3548D01*
X7166Y-3538D01*
X7167Y-3526D01*
Y-3517D01*
X7168Y-3511D01*
Y-3493D01*
X7167Y-3490D01*
Y-3481D01*
X7166Y-3478D01*
Y-3466D01*
X7168Y-3465D01*
X7172Y-3463D01*
X7177Y-3461D01*
X7185Y-3458D01*
X7193Y-3455D01*
X7201Y-3452D01*
X7210Y-3449D01*
X7218Y-3445D01*
X7219Y-3444D01*
X7222Y-3444D01*
X7228Y-3441D01*
X7235Y-3437D01*
X7245Y-3433D01*
X7258Y-3426D01*
X7273Y-3419D01*
X7282Y-3415D01*
X7291Y-3409D01*
X7292D01*
X7293Y-3408D01*
X7296Y-3407D01*
X7300Y-3405D01*
X7304Y-3402D01*
X7310Y-3399D01*
X7323Y-3393D01*
X7338Y-3385D01*
X7355Y-3376D01*
X7372Y-3367D01*
X7390Y-3358D01*
X7391D01*
X7392Y-3356D01*
X7395Y-3355D01*
X7398Y-3353D01*
X7403Y-3350D01*
X7408Y-3347D01*
X7415Y-3344D01*
X7422Y-3340D01*
X7430Y-3336D01*
X7439Y-3331D01*
X7449Y-3326D01*
X7459Y-3320D01*
X7482Y-3308D01*
X7508Y-3294D01*
X7506Y-3294D01*
X7503Y-3291D01*
X7500Y-3290D01*
X7496Y-3288D01*
X7492Y-3285D01*
X7486Y-3282D01*
X7481Y-3279D01*
X7474Y-3275D01*
X7466Y-3271D01*
X7458Y-3267D01*
X7449Y-3261D01*
X7438Y-3256D01*
X7427Y-3250D01*
X7415Y-3244D01*
X7414Y-3243D01*
X7412Y-3242D01*
X7410Y-3241D01*
X7407Y-3240D01*
X7403Y-3238D01*
X7399Y-3235D01*
X7394Y-3233D01*
X7387Y-3229D01*
X7380Y-3226D01*
X7372Y-3221D01*
X7363Y-3216D01*
X7352Y-3210D01*
X7339Y-3204D01*
X7325Y-3197D01*
X7325Y-3196D01*
X7322Y-3195D01*
X7318Y-3193D01*
X7313Y-3190D01*
X7306Y-3186D01*
X7299Y-3183D01*
X7283Y-3174D01*
X7265Y-3164D01*
X7247Y-3155D01*
X7231Y-3146D01*
X7223Y-3143D01*
X7217Y-3139D01*
X7216D01*
X7215Y-3138D01*
X7212Y-3136D01*
X7206Y-3133D01*
X7199Y-3129D01*
X7190Y-3125D01*
X7182Y-3121D01*
X7173Y-3117D01*
X7166Y-3113D01*
Y-3097D01*
X7166Y-3088D01*
Y-3027D01*
X7166Y-3021D01*
Y-3014D01*
X7178Y-3015D01*
Y-3016D01*
X7179Y-3019D01*
X7180Y-3024D01*
X7180Y-3030D01*
X7182Y-3042D01*
X7184Y-3047D01*
X7185Y-3052D01*
Y-3053D01*
X7186Y-3054D01*
X7188Y-3058D01*
X7193Y-3064D01*
X7199Y-3069D01*
X7200D01*
X7201Y-3070D01*
X7204Y-3071D01*
X7207Y-3072D01*
X7211Y-3073D01*
X7216Y-3075D01*
X7222Y-3076D01*
X7228Y-3076D01*
X7229D01*
X7232D01*
X7236Y-3077D01*
X7244D01*
X7252D01*
X7263D01*
X7277D01*
X7294D01*
X7389Y-3076D01*
X7390D01*
X7394Y-3075D01*
X7399D01*
X7405D01*
X7406D01*
X7410D01*
X7416D01*
X7425D01*
X7425D01*
X7427D01*
X7429D01*
X7433Y-3074D01*
X7437D01*
X7442D01*
X7449Y-3073D01*
X7455D01*
X7456D01*
X7458D01*
X7462D01*
X7468Y-3073D01*
X7474D01*
X7482Y-3072D01*
X7491D01*
X7501Y-3071D01*
X7503D01*
X7506D01*
X7512Y-3070D01*
X7519D01*
X7527Y-3070D01*
X7535Y-3069D01*
X7543Y-3068D01*
X7549Y-3068D01*
X7550D01*
X7552Y-3067D01*
X7555D01*
X7559Y-3065D01*
X7567Y-3063D01*
X7575Y-3059D01*
X7576Y-3057D01*
X7579Y-3054D01*
X7583Y-3049D01*
X7586Y-3042D01*
Y-3041D01*
X7587Y-3040D01*
Y-3038D01*
X7588Y-3034D01*
X7589Y-3030D01*
Y-3025D01*
X7589Y-3018D01*
Y-3011D01*
X7602D01*
X7601Y-3070D01*
D02*
G37*
G36*
X2144Y-2078D02*
X1987D01*
X1987Y-2078D01*
X1988Y-2080D01*
X1990Y-2081D01*
X1992Y-2084D01*
X1995Y-2088D01*
X1998Y-2092D01*
X2001Y-2096D01*
X2004Y-2102D01*
Y-2102D01*
X2004Y-2102D01*
X2005Y-2104D01*
X2007Y-2107D01*
X2009Y-2110D01*
X2011Y-2114D01*
X2013Y-2119D01*
X2015Y-2123D01*
X2016Y-2127D01*
X1993D01*
Y-2127D01*
X1992Y-2127D01*
X1992Y-2125D01*
X1991Y-2124D01*
X1990Y-2122D01*
X1989Y-2120D01*
X1986Y-2115D01*
X1983Y-2109D01*
X1979Y-2104D01*
X1974Y-2097D01*
X1969Y-2091D01*
X1969Y-2091D01*
X1968Y-2091D01*
X1968Y-2090D01*
X1967Y-2089D01*
X1964Y-2086D01*
X1960Y-2083D01*
X1956Y-2079D01*
X1952Y-2075D01*
X1947Y-2072D01*
X1942Y-2069D01*
Y-2053D01*
X2144D01*
Y-2078D01*
D02*
G37*
G36*
Y-2211D02*
X2116D01*
Y-2182D01*
X2144D01*
Y-2211D01*
D02*
G37*
G36*
Y-2313D02*
X1987D01*
X1987Y-2313D01*
X1988Y-2315D01*
X1990Y-2316D01*
X1992Y-2319D01*
X1995Y-2322D01*
X1998Y-2326D01*
X2001Y-2331D01*
X2004Y-2336D01*
Y-2337D01*
X2004Y-2337D01*
X2005Y-2339D01*
X2007Y-2342D01*
X2009Y-2345D01*
X2011Y-2349D01*
X2013Y-2354D01*
X2015Y-2358D01*
X2016Y-2362D01*
X1993D01*
Y-2362D01*
X1992Y-2361D01*
X1992Y-2360D01*
X1991Y-2359D01*
X1990Y-2357D01*
X1989Y-2355D01*
X1986Y-2350D01*
X1983Y-2344D01*
X1979Y-2338D01*
X1974Y-2332D01*
X1969Y-2326D01*
X1969Y-2326D01*
X1968Y-2326D01*
X1968Y-2325D01*
X1967Y-2324D01*
X1964Y-2321D01*
X1960Y-2317D01*
X1956Y-2314D01*
X1952Y-2310D01*
X1947Y-2307D01*
X1942Y-2304D01*
Y-2288D01*
X2144D01*
Y-2313D01*
D02*
G37*
G36*
Y-2530D02*
Y-2556D01*
X1991Y-2598D01*
X1991D01*
X1990Y-2598D01*
X1989Y-2599D01*
X1988Y-2599D01*
X1984Y-2600D01*
X1981Y-2601D01*
X1977Y-2602D01*
X1973Y-2603D01*
X1970Y-2604D01*
X1968Y-2604D01*
X1967Y-2604D01*
X1968D01*
X1968Y-2605D01*
X1970Y-2605D01*
X1972Y-2606D01*
X1975Y-2606D01*
X1979Y-2607D01*
X1983Y-2608D01*
X1987Y-2609D01*
X1991Y-2611D01*
X2144Y-2653D01*
Y-2681D01*
X1943Y-2734D01*
Y-2706D01*
X2075Y-2676D01*
X2075D01*
X2076Y-2676D01*
X2077Y-2675D01*
X2078Y-2675D01*
X2080Y-2675D01*
X2083Y-2674D01*
X2085Y-2674D01*
X2088Y-2673D01*
X2094Y-2672D01*
X2101Y-2670D01*
X2109Y-2669D01*
X2116Y-2667D01*
X2116D01*
X2115Y-2667D01*
X2113Y-2666D01*
X2111Y-2666D01*
X2109Y-2666D01*
X2106Y-2665D01*
X2099Y-2663D01*
X2093Y-2661D01*
X2090Y-2661D01*
X2087Y-2660D01*
X2084Y-2659D01*
X2082Y-2659D01*
X2080Y-2658D01*
X2079Y-2658D01*
X1943Y-2620D01*
Y-2588D01*
X2045Y-2559D01*
X2045D01*
X2047Y-2558D01*
X2049Y-2558D01*
X2051Y-2557D01*
X2055Y-2556D01*
X2059Y-2555D01*
X2063Y-2554D01*
X2068Y-2553D01*
X2074Y-2551D01*
X2079Y-2550D01*
X2091Y-2548D01*
X2103Y-2545D01*
X2116Y-2543D01*
X2116D01*
X2115Y-2543D01*
X2114D01*
X2113Y-2542D01*
X2111Y-2542D01*
X2109Y-2541D01*
X2106Y-2541D01*
X2103Y-2540D01*
X2097Y-2539D01*
X2090Y-2537D01*
X2081Y-2535D01*
X2072Y-2533D01*
X1943Y-2501D01*
Y-2474D01*
X2144Y-2530D01*
D02*
G37*
G36*
Y-2786D02*
X2049D01*
Y-2890D01*
X2144D01*
Y-2917D01*
X1943D01*
Y-2890D01*
X2025D01*
Y-2786D01*
X1943D01*
Y-2760D01*
X2144D01*
Y-2786D01*
D02*
G37*
%LPC*%
G36*
X7488Y-2097D02*
X7487D01*
X7486D01*
X7483D01*
X7476Y-2098D01*
X7468Y-2099D01*
X7459Y-2101D01*
X7449Y-2103D01*
X7438Y-2107D01*
X7427Y-2111D01*
X7426Y-2112D01*
X7422Y-2113D01*
X7417Y-2116D01*
X7410Y-2121D01*
X7403Y-2126D01*
X7395Y-2132D01*
X7387Y-2140D01*
X7379Y-2148D01*
X7379Y-2149D01*
X7376Y-2153D01*
X7373Y-2157D01*
X7370Y-2164D01*
X7366Y-2172D01*
X7363Y-2180D01*
X7361Y-2190D01*
X7360Y-2201D01*
Y-2204D01*
X7361Y-2209D01*
X7362Y-2215D01*
X7363Y-2221D01*
X7366Y-2228D01*
X7369Y-2235D01*
X7373Y-2242D01*
X7374Y-2243D01*
X7376Y-2245D01*
X7379Y-2249D01*
X7382Y-2253D01*
X7387Y-2257D01*
X7393Y-2262D01*
X7400Y-2266D01*
X7408Y-2271D01*
X7409Y-2271D01*
X7412Y-2272D01*
X7417Y-2274D01*
X7423Y-2276D01*
X7430Y-2278D01*
X7439Y-2279D01*
X7449Y-2280D01*
X7459Y-2281D01*
X7460D01*
X7464D01*
X7470Y-2280D01*
X7478Y-2279D01*
X7488Y-2278D01*
X7498Y-2276D01*
X7510Y-2273D01*
X7521Y-2269D01*
X7523Y-2268D01*
X7527Y-2266D01*
X7532Y-2263D01*
X7540Y-2260D01*
X7548Y-2255D01*
X7556Y-2249D01*
X7565Y-2242D01*
X7573Y-2234D01*
X7574Y-2233D01*
X7576Y-2230D01*
X7580Y-2225D01*
X7583Y-2219D01*
X7586Y-2211D01*
X7590Y-2203D01*
X7592Y-2193D01*
X7593Y-2183D01*
Y-2180D01*
X7592Y-2174D01*
X7591Y-2169D01*
X7590Y-2163D01*
X7587Y-2156D01*
X7584Y-2148D01*
X7580Y-2140D01*
X7579Y-2140D01*
X7578Y-2137D01*
X7575Y-2134D01*
X7570Y-2129D01*
X7565Y-2124D01*
X7559Y-2118D01*
X7551Y-2113D01*
X7543Y-2109D01*
X7541Y-2108D01*
X7538Y-2107D01*
X7533Y-2105D01*
X7527Y-2103D01*
X7519Y-2101D01*
X7509Y-2099D01*
X7499Y-2098D01*
X7488Y-2097D01*
D02*
G37*
%LPD*%
D10*
X5058Y-4817D02*
G03*
X5058Y-4817I-49J0D01*
G01*
X9124Y-4124D02*
G03*
X9124Y-4124I-49J0D01*
G01*
X8041Y-2047D02*
G03*
X8041Y-2047I-49J0D01*
G01*
X8425Y-1083D02*
G03*
X8425Y-1083I-49J0D01*
G01*
X2343Y-3278D02*
G03*
X2343Y-3278I-49J0D01*
G01*
D11*
X3081Y-1495D02*
G03*
X3081Y-1495I-20J0D01*
G01*
X1230Y-1766D02*
G03*
X1230Y-1766I-20J0D01*
G01*
D12*
X11453Y-2789D02*
G03*
X11453Y-2789I-4J0D01*
G01*
D13*
X6893Y-2480D02*
X7011Y-2598D01*
X6893Y-2717D02*
X7011Y-2598D01*
X4951Y-538D02*
X5069Y-657D01*
X4832D02*
X4951Y-538D01*
X2891Y-2598D02*
X3009Y-2480D01*
X2891Y-2598D02*
X3009Y-2717D01*
X4832Y-4540D02*
X4951Y-4658D01*
X5069Y-4540D01*
X11014Y-1535D02*
Y-1417D01*
X11004Y-1535D02*
X11014D01*
X10541D02*
Y-1417D01*
Y-1535D02*
X10551D01*
X13668Y-767D02*
Y-757D01*
X13550Y-767D02*
X13668D01*
Y-305D02*
Y-295D01*
X13550D02*
X13668D01*
X12313Y-1537D02*
Y-1419D01*
X12303Y-1537D02*
X12313D01*
X11841D02*
Y-1419D01*
Y-1537D02*
X11851D01*
X11191D02*
X11201D01*
X11191D02*
Y-1419D01*
X11654Y-1537D02*
X11663D01*
Y-1419D01*
X4220Y-4231D02*
X4304Y-4314D01*
X4297Y-4321D02*
X4304Y-4314D01*
X3886Y-4565D02*
X3970Y-4648D01*
X3977Y-4642D01*
X8071Y-4754D02*
X8248D01*
X8071D02*
Y-4478D01*
X8760Y-4754D02*
X8937D01*
Y-4478D01*
X8622Y-3051D02*
Y-2874D01*
X8346Y-3051D02*
X8622D01*
Y-2362D02*
Y-2185D01*
X8346D02*
X8622D01*
X8533Y-846D02*
Y-453D01*
X8691D01*
X9400Y-846D02*
Y-453D01*
X9242D02*
X9400D01*
X2549Y-3376D02*
X2943D01*
X2549Y-4596D02*
X2943D01*
X2549D02*
Y-3376D01*
X2943Y-4596D02*
Y-3376D01*
X6695Y-689D02*
Y-650D01*
X6521Y-689D02*
Y-650D01*
X7165Y-689D02*
Y-650D01*
X6992Y-689D02*
Y-650D01*
X9373Y-1713D02*
Y-1673D01*
X9200Y-1713D02*
Y-1673D01*
X4742Y-4941D02*
Y-4902D01*
X4569Y-4941D02*
Y-4902D01*
X7463Y-689D02*
Y-650D01*
X7636Y-689D02*
Y-650D01*
X12977Y-488D02*
Y-448D01*
X12804Y-488D02*
Y-448D01*
X10215Y-581D02*
Y-541D01*
X10042Y-581D02*
Y-541D01*
X3061Y-1338D02*
Y-1239D01*
Y-609D02*
Y-511D01*
X3888Y-1338D02*
Y-1239D01*
Y-609D02*
Y-511D01*
X5753Y-689D02*
Y-650D01*
X5580Y-689D02*
Y-650D01*
X787Y-1701D02*
X827D01*
X787Y-1528D02*
X827D01*
X2468Y-886D02*
Y-846D01*
X2295Y-886D02*
Y-846D01*
X11644Y-4646D02*
X11959D01*
X11644Y-5236D02*
X11959D01*
X6583Y-3671D02*
X6611Y-3699D01*
X6460Y-3793D02*
X6488Y-3821D01*
X2709Y-886D02*
Y-846D01*
X2882Y-886D02*
Y-846D01*
X6224Y-689D02*
Y-650D01*
X6051Y-689D02*
Y-650D01*
X2705Y-2418D02*
X2733Y-2390D01*
X2582Y-2295D02*
X2610Y-2267D01*
X9754Y-3219D02*
X10226D01*
X9754Y-3789D02*
X10226D01*
X9754Y-2894D02*
X10226D01*
X9754Y-2323D02*
X10226D01*
M02*
