M48
;Layer_Color=9474304
;FILE_FORMAT=2:5
INCH,LZ
;TYPE=PLATED
T1F00S00C0.01181
T2F00S00C0.01575
T3F00S00C0.01968
T4F00S00C0.04331
;TYPE=NON_PLATED
T5F00S00C0.04331
%
T01
X0020866Y-0050295
X0022539Y-0047736
X002756Y-004449
X0027559Y-0039469
X0027363Y-0036025
X0031299Y-003316
X0036037Y-0034867
X0036417Y-0041043
X0049114Y-0037795
X0049412Y-0048231
X0054318Y-0044771
X0057887Y-0043406
X0069882Y-0043898
X0076772Y-0040551
X0076677Y-0037305
X007024Y-0033573
X0068507Y-0031005
X0086417Y-0029724
X0087303Y-0045276
X008691Y-0052165
X0081299Y-0048228
X0062008Y-0052264
X0118996Y-0045177
X0117717Y-0036122
X0111417Y-0029232
X012874Y-0049705
X0138386Y-004124
X0018406Y-0030218
X0010039Y-0050492
X0011418Y-0018111
X0014469Y-0019883
X0006102Y-0019882
X0016437Y-0009252
X0023425Y-000374
X0025934Y-0013729
X0030266Y-0018356
X0033268Y-001752
X0036525Y-0017177
X0037008Y-0025787
X0027659Y-0027363
X0034744Y-0009244
X0041644Y-0010283
X0044801Y-0008135
X0040354Y-0005709
X0049705Y-0014173
X0051083Y-0021358
X0056791Y-0020374
X005976Y-001033
X0064558Y-0010433
X0076141Y-0011407
X0076382Y-0014359
X0076378Y-0008169
X0079331Y-0009744
X0082157Y-0012537
X0080216Y-0017126
X0084519Y-001693
X0084744Y-0020177
X0083513Y-0024633
X0090158Y-0022933
X007065Y-0023198
X0069517Y-0025935
X0071009Y-0028495
X0074183Y-0005463
X0093508Y-0005807
X0105709Y-001364
X0117816Y-0014272
X0125846Y-0006197
X0125787Y-0002461
X0132874Y-00125
X0134554Y-0015749
X013376Y-0025984
T02
X0022146Y-0031398
X0028445Y-0031004
X0063287Y-0055905
X0066568
X0069848
X0073129
X0076083Y-0055905
X0075295Y-0051181
X009311Y-0050984
Y-0044685
X0147441Y-0033859
Y-0030578
X-000128Y-0016634
Y-0013353
Y-0010072
Y-0006791
X0022933Y-0018799
X006319Y0001181
X006647
X0069751
X0073032
X0076181Y0001181
X0147441Y-0024016
Y-0027297
T03
X0027362Y-0050394
X0041142Y-0050492
T04
X0005413Y-0050689
Y-0024705
T05
X0134744Y-0035039
Y-0020079
M30
