M48
;Layer_Color=9474304
;FILE_FORMAT=2:5
INCH,LZ
;TYPE=PLATED
T1F00S00C0.00787
T2F00S00C0.01181
T3F00S00C0.01575
T4F00S00C0.01968
T5F00S00C0.04331
;TYPE=NON_PLATED
T6F00S00C0.04528
%
T01
X0031496Y-0032871
X0036025Y-0035238
X0055385Y-0045414
X0057677Y-0043406
X0076772Y-0040551
X007024Y-0033573
X0068507Y-0031005
X0070437Y-0028455
X0068704Y-0025887
X0069863Y-0023238
X0074315Y-0012993
X0073183Y-0010492
X0073666Y-0007884
X0072937Y-0005315
X0078744Y-001191
X0082087Y-0016634
X0084847Y-0016635
X0084842Y-0019291
X0083513Y-0024633
X0044587Y-0008071
X0040256Y-0004724
X0035925Y-0016437
X003376Y-0017913
X0023425Y-000374
X0125695Y-0007284
X014046Y-0005103
T02
X0020079Y-0051279
X0023131Y-0047049
X002756Y-0044392
X0027756Y-0038681
X0027167Y-0035632
X0017813Y-0030415
X0036417Y-0041043
X0049114Y-0037795
X0049412Y-0048231
X0062008Y-0052264
X0068012Y-0044193
X0076677Y-0037305
X0081299Y-0048228
X0087303Y-0045276
X008691Y-0052165
X0086417Y-0029724
X0118012Y-0044587
X012874Y-0049705
X0138386Y-004124
X0011319Y-0051083
X001568Y-0019678
X0006102Y-0019882
X0016437Y-0009252
X0025984Y-001378
X0034744Y-0009244
X0041734Y-0009154
X0049705Y-0014173
X0051083Y-0021358
X0056791Y-0020374
X0058031Y-0010097
X0064472Y-001063
X0081791Y-0012402
X0093508Y-0005807
X0105709Y-001364
X0117717Y-0016732
X0118504Y-0028642
X013376Y-0025984
X013435Y-0010728
X0131896Y-0007579
X0135433Y-0002657
X0090158Y-0022933
X0037008Y-0025787
X0027659Y-0027363
T03
X0022146Y-0031398
X0028445Y-0031004
X0075295Y-0051181
X009311Y-0050984
Y-0044685
X0030512Y-0018307
X0022933Y-0018799
T04
X0027362Y-0050394
X0041142Y-0050492
T05
X0005807Y-0050689
Y-0024705
T06
X0134744Y-0035039
Y-0020079
M30
