G04 Layer_Physical_Order=2*
G04 Layer_Color=16711680*
%FSLAX25Y25*%
%MOIN*%
G70*
G01*
G75*
%ADD12C,0.00598*%
%ADD13C,0.00984*%
G04:AMPARAMS|DCode=52|XSize=31.5mil|YSize=31.5mil|CornerRadius=7.87mil|HoleSize=0mil|Usage=FLASHONLY|Rotation=0.000|XOffset=0mil|YOffset=0mil|HoleType=Round|Shape=RoundedRectangle|*
%AMROUNDEDRECTD52*
21,1,0.03150,0.01575,0,0,0.0*
21,1,0.01575,0.03150,0,0,0.0*
1,1,0.01575,0.00787,-0.00787*
1,1,0.01575,-0.00787,-0.00787*
1,1,0.01575,-0.00787,0.00787*
1,1,0.01575,0.00787,0.00787*
%
%ADD52ROUNDEDRECTD52*%
%ADD53C,0.03150*%
G04:AMPARAMS|DCode=54|XSize=31.5mil|YSize=31.5mil|CornerRadius=7.87mil|HoleSize=0mil|Usage=FLASHONLY|Rotation=90.000|XOffset=0mil|YOffset=0mil|HoleType=Round|Shape=RoundedRectangle|*
%AMROUNDEDRECTD54*
21,1,0.03150,0.01575,0,0,90.0*
21,1,0.01575,0.03150,0,0,90.0*
1,1,0.01575,0.00787,0.00787*
1,1,0.01575,0.00787,-0.00787*
1,1,0.01575,-0.00787,-0.00787*
1,1,0.01575,-0.00787,0.00787*
%
%ADD54ROUNDEDRECTD54*%
%ADD55C,0.03937*%
G04:AMPARAMS|DCode=56|XSize=62.99mil|YSize=62.99mil|CornerRadius=15.75mil|HoleSize=0mil|Usage=FLASHONLY|Rotation=0.000|XOffset=0mil|YOffset=0mil|HoleType=Round|Shape=RoundedRectangle|*
%AMROUNDEDRECTD56*
21,1,0.06299,0.03150,0,0,0.0*
21,1,0.03150,0.06299,0,0,0.0*
1,1,0.03150,0.01575,-0.01575*
1,1,0.03150,-0.01575,-0.01575*
1,1,0.03150,-0.01575,0.01575*
1,1,0.03150,0.01575,0.01575*
%
%ADD56ROUNDEDRECTD56*%
%ADD57C,0.02756*%
%ADD58C,0.02441*%
%ADD59C,0.01969*%
G04:AMPARAMS|DCode=60|XSize=25.2mil|YSize=17.72mil|CornerRadius=0mil|HoleSize=0mil|Usage=FLASHONLY|Rotation=225.000|XOffset=0mil|YOffset=0mil|HoleType=Round|Shape=Rectangle|*
%AMROTATEDRECTD60*
4,1,4,0.00265,0.01517,0.01517,0.00265,-0.00265,-0.01517,-0.01517,-0.00265,0.00265,0.01517,0.0*
%
%ADD60ROTATEDRECTD60*%

G04:AMPARAMS|DCode=61|XSize=82.68mil|YSize=13.78mil|CornerRadius=3.45mil|HoleSize=0mil|Usage=FLASHONLY|Rotation=180.000|XOffset=0mil|YOffset=0mil|HoleType=Round|Shape=RoundedRectangle|*
%AMROUNDEDRECTD61*
21,1,0.08268,0.00689,0,0,180.0*
21,1,0.07579,0.01378,0,0,180.0*
1,1,0.00689,-0.03789,0.00345*
1,1,0.00689,0.03789,0.00345*
1,1,0.00689,0.03789,-0.00345*
1,1,0.00689,-0.03789,-0.00345*
%
%ADD61ROUNDEDRECTD61*%
%ADD62R,0.06299X0.03937*%
%ADD63R,0.02165X0.02362*%
G04:AMPARAMS|DCode=64|XSize=37.4mil|YSize=37.4mil|CornerRadius=9.35mil|HoleSize=0mil|Usage=FLASHONLY|Rotation=0.000|XOffset=0mil|YOffset=0mil|HoleType=Round|Shape=RoundedRectangle|*
%AMROUNDEDRECTD64*
21,1,0.03740,0.01870,0,0,0.0*
21,1,0.01870,0.03740,0,0,0.0*
1,1,0.01870,0.00935,-0.00935*
1,1,0.01870,-0.00935,-0.00935*
1,1,0.01870,-0.00935,0.00935*
1,1,0.01870,0.00935,0.00935*
%
%ADD64ROUNDEDRECTD64*%
G36*
X65807Y-22490D02*
X65808Y-22533D01*
X65727Y-22943D01*
Y-23632D01*
X65814Y-24073D01*
X66065Y-24448D01*
Y-24686D01*
X65814Y-25060D01*
X65727Y-25502D01*
Y-26191D01*
X65814Y-26632D01*
X65897Y-26756D01*
X66024Y-27126D01*
X65897Y-27496D01*
X65814Y-27619D01*
X65727Y-28061D01*
Y-28750D01*
X65814Y-29192D01*
X66065Y-29566D01*
Y-29804D01*
X65814Y-30178D01*
X65727Y-30620D01*
Y-31309D01*
X65814Y-31751D01*
X65897Y-31874D01*
X66024Y-32244D01*
X65897Y-32614D01*
X65814Y-32737D01*
X65727Y-33179D01*
Y-33318D01*
X65227Y-33525D01*
X64197Y-32495D01*
X63976Y-32087D01*
X63976D01*
X63976Y-32087D01*
Y-28953D01*
X64189D01*
Y-27272D01*
X62106D01*
Y-26772D01*
X61606D01*
Y-24590D01*
X60440D01*
X59980Y-24479D01*
X59980Y-24479D01*
X59943Y-24294D01*
X59943Y-24294D01*
X59870Y-23767D01*
X61603Y-22033D01*
X65526D01*
X65807Y-22490D01*
D02*
G37*
G36*
X141803Y-6403D02*
X142224Y-6551D01*
Y-43214D01*
X133249Y-43281D01*
X133040Y-42783D01*
X139938Y-35885D01*
X140179Y-35526D01*
X140263Y-35102D01*
Y-7071D01*
X140460Y-6910D01*
X141151Y-6772D01*
X141724Y-6389D01*
X141803Y-6403D01*
D02*
G37*
G36*
X55762Y-11452D02*
X55797Y-11569D01*
X53399Y-13967D01*
X53116Y-14390D01*
X53017Y-14889D01*
Y-21397D01*
X53116Y-21896D01*
X53399Y-22320D01*
X54568Y-23489D01*
X54456Y-23760D01*
X53900Y-23794D01*
X53807Y-23654D01*
X53167Y-23226D01*
X52412Y-23076D01*
X51976D01*
Y-25984D01*
X51476D01*
Y-26484D01*
X48568D01*
Y-26919D01*
X48719Y-27674D01*
X49107Y-28256D01*
X49300Y-28729D01*
X48919Y-29298D01*
X48785Y-29970D01*
Y-31841D01*
X48919Y-32513D01*
X49300Y-33082D01*
X49869Y-33463D01*
X50541Y-33597D01*
X52412D01*
X53083Y-33463D01*
X53116Y-33441D01*
X53229Y-33554D01*
X53298Y-33600D01*
X54488Y-34790D01*
X54911Y-35073D01*
X55410Y-35172D01*
X58623D01*
X65574Y-42123D01*
X65997Y-42406D01*
X66189Y-42444D01*
X66439Y-42611D01*
X66881Y-42699D01*
X70779D01*
X70970Y-43161D01*
X68576Y-45555D01*
X58636D01*
X58391Y-45092D01*
X58397Y-45055D01*
X58955Y-44683D01*
X59346Y-44097D01*
X59483Y-43406D01*
X59346Y-42714D01*
X58955Y-42128D01*
X58368Y-41737D01*
X58169Y-41697D01*
X58005Y-41155D01*
X58901Y-40258D01*
X56535Y-37892D01*
X53813Y-40613D01*
X53718Y-40611D01*
X53591Y-40440D01*
X53518Y-40151D01*
X54355Y-39314D01*
X53022Y-37981D01*
X51688Y-36647D01*
X50539Y-37796D01*
X50490Y-37747D01*
X49246Y-38991D01*
X50579Y-40325D01*
X51913Y-41658D01*
X52711Y-40860D01*
X52717Y-40856D01*
X52761Y-40860D01*
X52866Y-41012D01*
X52948Y-41380D01*
X50490Y-43838D01*
X50884Y-44232D01*
X50638Y-44693D01*
X50435Y-44653D01*
X48777D01*
X39239Y-35115D01*
X38880Y-34875D01*
X38456Y-34791D01*
X37743D01*
X37694Y-34547D01*
X37303Y-33961D01*
X36717Y-33569D01*
X36025Y-33432D01*
X35377Y-33560D01*
X35254Y-33545D01*
X34877Y-33344D01*
Y-32011D01*
X34778Y-31512D01*
X34495Y-31089D01*
X29847Y-26441D01*
X29485Y-26199D01*
X29220Y-25802D01*
X28575Y-25372D01*
X28407Y-24834D01*
X31351Y-21889D01*
X31536D01*
X31960Y-21805D01*
X32320Y-21565D01*
X33769Y-20115D01*
X34009Y-19756D01*
X34027Y-19667D01*
X34451Y-19582D01*
X35037Y-19191D01*
X35429Y-18605D01*
X35517Y-18162D01*
X35925Y-18243D01*
X36617Y-18106D01*
X37203Y-17714D01*
X37594Y-17128D01*
X37732Y-16437D01*
X37594Y-15746D01*
X37223Y-15190D01*
X37259Y-15026D01*
X37400Y-14690D01*
X41437D01*
X41936Y-14591D01*
X42360Y-14308D01*
X45216Y-11452D01*
X54540D01*
X55039Y-11353D01*
X55183Y-11256D01*
X55762Y-11452D01*
D02*
G37*
G36*
X142224Y-3655D02*
X141803Y-3803D01*
X141724Y-3818D01*
X141151Y-3434D01*
X140460Y-3297D01*
X139768Y-3434D01*
X139182Y-3826D01*
X138791Y-4412D01*
X138653Y-5103D01*
X138693Y-5303D01*
X138372Y-5624D01*
X138131Y-5984D01*
X138047Y-6408D01*
Y-16142D01*
X137585Y-16333D01*
X131636Y-10384D01*
X131620Y-10242D01*
X131896Y-9787D01*
X132741Y-9619D01*
X133457Y-9140D01*
X133936Y-8424D01*
X134104Y-7579D01*
X133936Y-6734D01*
X133457Y-6018D01*
X132741Y-5539D01*
X131896Y-5371D01*
X131051Y-5539D01*
X130335Y-6018D01*
X129857Y-6734D01*
X129688Y-7579D01*
X129747Y-7876D01*
X129332Y-8292D01*
X127708D01*
X127400Y-7792D01*
X127501Y-7284D01*
X127364Y-6593D01*
X126972Y-6007D01*
X126386Y-5615D01*
X125695Y-5477D01*
X125495Y-5517D01*
X122725Y-2747D01*
X122365Y-2507D01*
X121941Y-2422D01*
X92126D01*
X91702Y-2507D01*
X91446Y-2678D01*
X74530D01*
X74500Y-2648D01*
X74141Y-2408D01*
X73717Y-2324D01*
X72157D01*
X71732Y-2408D01*
X71373Y-2648D01*
X71344Y-2678D01*
X65292D01*
X64868Y-2762D01*
X64509Y-3002D01*
X62384Y-5127D01*
X56431D01*
X56007Y-5212D01*
X55648Y-5452D01*
X54137Y-6963D01*
X45977D01*
X45864Y-6794D01*
X45278Y-6402D01*
X44587Y-6265D01*
X43895Y-6402D01*
X43309Y-6794D01*
X42936Y-7353D01*
X42579Y-7114D01*
X41734Y-6946D01*
X40889Y-7114D01*
X40173Y-7593D01*
X39695Y-8309D01*
X39527Y-9154D01*
X39695Y-9999D01*
X39733Y-10056D01*
X39497Y-10497D01*
X27667D01*
X27168Y-10596D01*
X26744Y-10879D01*
X26041Y-11583D01*
X25984Y-11572D01*
X25139Y-11740D01*
X24423Y-12218D01*
X23945Y-12935D01*
X23776Y-13780D01*
X23945Y-14624D01*
X24423Y-15341D01*
X25045Y-15756D01*
X25204Y-16303D01*
X24721Y-16786D01*
X24335Y-16528D01*
X23720Y-16406D01*
X22146D01*
X21531Y-16528D01*
X21010Y-16876D01*
X20662Y-17397D01*
X20540Y-18012D01*
Y-19587D01*
X20662Y-20201D01*
X21010Y-20722D01*
X21531Y-21070D01*
X22146Y-21192D01*
X23720D01*
X24335Y-21070D01*
X24856Y-20722D01*
X25204Y-20201D01*
X25272Y-19858D01*
X25476Y-19722D01*
X26468Y-18730D01*
X26930Y-18921D01*
Y-21482D01*
X24734Y-23678D01*
X24494Y-24037D01*
X24491Y-24049D01*
X23400Y-25141D01*
X23160Y-25500D01*
X23075Y-25924D01*
Y-28671D01*
X22933Y-28788D01*
X22646D01*
Y-31398D01*
Y-34007D01*
X22933D01*
X23630Y-33869D01*
X24181Y-33501D01*
X25377Y-34696D01*
X25275Y-34848D01*
X25120Y-35632D01*
X25275Y-36415D01*
X25719Y-37079D01*
X26198Y-37399D01*
X25864Y-37898D01*
X25709Y-38681D01*
X25864Y-39465D01*
X26308Y-40129D01*
X26972Y-40573D01*
X27756Y-40728D01*
X28539Y-40573D01*
X29204Y-40129D01*
X29647Y-39465D01*
X29803Y-38681D01*
X29731Y-38320D01*
X30267Y-37785D01*
X30507Y-37426D01*
X30591Y-37002D01*
Y-36876D01*
X31091Y-36725D01*
X31191Y-36875D01*
X33806Y-39489D01*
X34165Y-39729D01*
X34589Y-39814D01*
X36869D01*
X46027Y-48972D01*
Y-49174D01*
X46111Y-49598D01*
X46351Y-49957D01*
X47685Y-51291D01*
X48045Y-51531D01*
X48469Y-51616D01*
X50355D01*
X50779Y-51531D01*
X51139Y-51291D01*
X51857Y-50573D01*
X52378D01*
X52669Y-50863D01*
X53028Y-51104D01*
X53452Y-51188D01*
X57318D01*
X57742Y-51104D01*
X58101Y-50863D01*
X58411Y-50554D01*
X70460D01*
X70884Y-50469D01*
X71244Y-50229D01*
X74408Y-47065D01*
X76604D01*
X77027Y-46981D01*
X77387Y-46741D01*
X81259Y-42869D01*
X81499Y-42509D01*
X81583Y-42085D01*
Y-39017D01*
X81499Y-38593D01*
X81259Y-38234D01*
X80062Y-37037D01*
Y-36362D01*
X79978Y-35938D01*
X79738Y-35578D01*
X78667Y-34508D01*
Y-16394D01*
X79228Y-15833D01*
X79468Y-15474D01*
X79553Y-15050D01*
Y-13500D01*
X80021Y-13187D01*
X80413Y-12601D01*
X80550Y-11910D01*
X80413Y-11219D01*
X80021Y-10633D01*
X79435Y-10241D01*
X78744Y-10104D01*
X78053Y-10241D01*
X77467Y-10633D01*
X77075Y-11219D01*
X76938Y-11910D01*
X77075Y-12601D01*
X77337Y-12993D01*
Y-14591D01*
X76776Y-15152D01*
X76535Y-15511D01*
X76451Y-15935D01*
Y-19248D01*
X75962Y-19523D01*
X75962Y-19523D01*
X75704Y-19070D01*
X75726Y-19038D01*
X75799Y-18669D01*
X70670D01*
X65541D01*
X65591Y-18924D01*
X65316Y-19424D01*
X61063D01*
X60564Y-19523D01*
X60141Y-19806D01*
X58407Y-21540D01*
X56309D01*
X55626Y-20857D01*
Y-15429D01*
X59005Y-12050D01*
X59592Y-11658D01*
X60070Y-10942D01*
X60091Y-10840D01*
X60122Y-10793D01*
X60221Y-10294D01*
X60210Y-10239D01*
X60238Y-10097D01*
X60106Y-9431D01*
X60412Y-8931D01*
X60928D01*
X62324Y-10328D01*
X62264Y-10630D01*
X62432Y-11475D01*
X62910Y-12192D01*
X63167Y-12363D01*
Y-13546D01*
X63266Y-14045D01*
X63549Y-14468D01*
X65588Y-16507D01*
X65614Y-16535D01*
X65691Y-17186D01*
X65614Y-17300D01*
X65541Y-17669D01*
X70670D01*
X75799D01*
X75726Y-17300D01*
X75429Y-16855D01*
X75283Y-16759D01*
X75525Y-16396D01*
X75613Y-15955D01*
Y-15266D01*
X75525Y-14824D01*
X75290Y-14472D01*
X75592Y-14270D01*
X75984Y-13684D01*
X76121Y-12993D01*
X75984Y-12302D01*
X75592Y-11716D01*
X75344Y-11550D01*
X75525Y-11278D01*
X75613Y-10837D01*
Y-10148D01*
X75525Y-9706D01*
X75443Y-9583D01*
X75316Y-9213D01*
X75443Y-8842D01*
X75525Y-8719D01*
X75613Y-8277D01*
Y-7588D01*
X75525Y-7147D01*
X75275Y-6773D01*
Y-6534D01*
X75525Y-6160D01*
X75613Y-5719D01*
Y-5029D01*
X75725Y-4894D01*
X90973D01*
X91383Y-5394D01*
X91301Y-5807D01*
X91444Y-6527D01*
X91163Y-7027D01*
X89279D01*
X88855Y-7111D01*
X88495Y-7351D01*
X82865Y-12982D01*
X82625Y-13341D01*
X82540Y-13765D01*
Y-14220D01*
X81894Y-14866D01*
X81395Y-14965D01*
X80809Y-15357D01*
X80418Y-15943D01*
X80280Y-16634D01*
X80418Y-17325D01*
X80809Y-17911D01*
X81395Y-18303D01*
X82087Y-18440D01*
X82770Y-18304D01*
X82897Y-18392D01*
X83056Y-18511D01*
X83165Y-18646D01*
X83036Y-19291D01*
X83174Y-19983D01*
X83565Y-20569D01*
X84151Y-20960D01*
X84842Y-21098D01*
X85534Y-20960D01*
X86120Y-20569D01*
X86511Y-19983D01*
X86649Y-19291D01*
X86611Y-19101D01*
X87514Y-18198D01*
X87754Y-17839D01*
X87838Y-17415D01*
Y-14532D01*
X90730Y-11639D01*
X95394D01*
X95818Y-11555D01*
X96178Y-11315D01*
X97625Y-9868D01*
X118340D01*
X123130Y-14657D01*
Y-18504D01*
X130040D01*
X130118Y-19004D01*
X128256Y-20866D01*
X123130D01*
Y-26378D01*
X131004D01*
Y-21294D01*
X131386Y-20967D01*
X131864Y-21099D01*
X132079Y-21618D01*
X132568Y-22255D01*
X133205Y-22744D01*
X133948Y-23052D01*
X134744Y-23156D01*
X135541Y-23052D01*
X136283Y-22744D01*
X136400Y-22654D01*
X136849Y-22875D01*
Y-26895D01*
X131678Y-32065D01*
X131512Y-31996D01*
X127567D01*
Y-34465D01*
X128626D01*
X128817Y-34927D01*
X127129Y-36614D01*
X123130D01*
Y-39876D01*
X122668Y-40067D01*
X121483Y-38882D01*
X121124Y-38642D01*
X120700Y-38557D01*
X100656D01*
X86709Y-24610D01*
X86701Y-24605D01*
X85946Y-23850D01*
X85586Y-23610D01*
X85162Y-23526D01*
X84904D01*
X84791Y-23356D01*
X84205Y-22965D01*
X83513Y-22827D01*
X82822Y-22965D01*
X82236Y-23356D01*
X81845Y-23942D01*
X81707Y-24633D01*
X81845Y-25325D01*
X82236Y-25911D01*
X82822Y-26302D01*
X83513Y-26440D01*
X84205Y-26302D01*
X84791Y-25911D01*
X85175Y-26210D01*
X99413Y-40449D01*
X99773Y-40689D01*
X100197Y-40773D01*
X120241D01*
X122682Y-43214D01*
X123041Y-43454D01*
X123465Y-43539D01*
X131398D01*
Y-53838D01*
X97146D01*
Y-42982D01*
X97029Y-42398D01*
X96801Y-41848D01*
X96470Y-41352D01*
X96260Y-41142D01*
X89704D01*
X89379Y-41206D01*
X89073Y-41333D01*
X88798Y-41517D01*
X88681Y-41634D01*
Y-53316D01*
X88686Y-53338D01*
X88389Y-53785D01*
X88301Y-53838D01*
X77401D01*
X77249Y-53338D01*
X77371Y-53257D01*
X77766Y-52666D01*
X77905Y-51968D01*
Y-51681D01*
X72685D01*
Y-51968D01*
X72824Y-52666D01*
X73219Y-53257D01*
X73341Y-53338D01*
X73189Y-53838D01*
X10008D01*
X9724Y-53338D01*
X9890Y-52936D01*
X9979Y-52264D01*
Y-51189D01*
X1635D01*
Y-52264D01*
X1724Y-52936D01*
X1891Y-53338D01*
X1606Y-53838D01*
X708D01*
Y-33061D01*
X835Y-11564D01*
X1193Y-11220D01*
X1338Y-11220D01*
X10335D01*
Y-1484D01*
X10335Y-984D01*
X10835Y-984D01*
X142224D01*
Y-3655D01*
D02*
G37*
%LPC*%
G36*
X62606Y-24590D02*
Y-26272D01*
X64189D01*
Y-24590D01*
X62606D01*
D02*
G37*
G36*
X50226Y-41386D02*
X48981Y-42630D01*
X49961Y-43610D01*
X51205Y-42366D01*
X50226Y-41386D01*
D02*
G37*
G36*
X48539Y-39699D02*
X47294Y-40943D01*
X48274Y-41923D01*
X49518Y-40679D01*
X48539Y-39699D01*
D02*
G37*
G36*
X53640Y-34696D02*
X52395Y-35940D01*
X53375Y-36920D01*
X54620Y-35676D01*
X53640Y-34696D01*
D02*
G37*
G36*
X55327Y-36383D02*
X54082Y-37627D01*
X55062Y-38607D01*
X56307Y-37363D01*
X55327Y-36383D01*
D02*
G37*
G36*
X50976Y-23076D02*
X50541D01*
X49786Y-23226D01*
X49146Y-23654D01*
X48719Y-24294D01*
X48568Y-25049D01*
Y-25484D01*
X50976D01*
Y-23076D01*
D02*
G37*
G36*
X74795Y-48571D02*
X74508D01*
X73810Y-48710D01*
X73219Y-49105D01*
X72824Y-49696D01*
X72685Y-50394D01*
Y-50681D01*
X74795D01*
Y-48571D01*
D02*
G37*
G36*
X41142Y-47712D02*
X40422Y-47807D01*
X39752Y-48085D01*
X39176Y-48527D01*
X38734Y-49102D01*
X38457Y-49773D01*
X38362Y-50492D01*
X38457Y-51212D01*
X38734Y-51882D01*
X39176Y-52458D01*
X39752Y-52899D01*
X40422Y-53177D01*
X41142Y-53272D01*
X41861Y-53177D01*
X42531Y-52899D01*
X43107Y-52458D01*
X43549Y-51882D01*
X43827Y-51212D01*
X43921Y-50492D01*
X43827Y-49773D01*
X43549Y-49102D01*
X43107Y-48527D01*
X42531Y-48085D01*
X41861Y-47807D01*
X41142Y-47712D01*
D02*
G37*
G36*
X76083Y-48571D02*
X75795D01*
Y-50681D01*
X77905D01*
Y-50394D01*
X77766Y-49696D01*
X77371Y-49105D01*
X76780Y-48710D01*
X76083Y-48571D01*
D02*
G37*
G36*
X7382Y-46517D02*
X6307D01*
Y-50189D01*
X9979D01*
Y-49114D01*
X9890Y-48442D01*
X9631Y-47816D01*
X9218Y-47278D01*
X8680Y-46865D01*
X8054Y-46606D01*
X7382Y-46517D01*
D02*
G37*
G36*
X5307D02*
X4232D01*
X3560Y-46606D01*
X2934Y-46865D01*
X2396Y-47278D01*
X1983Y-47816D01*
X1724Y-48442D01*
X1635Y-49114D01*
Y-50189D01*
X5307D01*
Y-46517D01*
D02*
G37*
G36*
X126567Y-31996D02*
X122917D01*
Y-34465D01*
X126567D01*
Y-31996D01*
D02*
G37*
G36*
X9979Y-25205D02*
X6307D01*
Y-28877D01*
X7382D01*
X8054Y-28788D01*
X8680Y-28529D01*
X9218Y-28116D01*
X9631Y-27578D01*
X9890Y-26952D01*
X9979Y-26280D01*
Y-25205D01*
D02*
G37*
G36*
X7382Y-20533D02*
X6307D01*
Y-24205D01*
X9979D01*
Y-23130D01*
X9890Y-22458D01*
X9631Y-21831D01*
X9218Y-21294D01*
X8680Y-20881D01*
X8054Y-20621D01*
X7382Y-20533D01*
D02*
G37*
G36*
X5307D02*
X4232D01*
X3560Y-20621D01*
X2934Y-20881D01*
X2396Y-21294D01*
X1983Y-21831D01*
X1724Y-22458D01*
X1635Y-23130D01*
Y-24205D01*
X5307D01*
Y-20533D01*
D02*
G37*
G36*
X23425Y-1934D02*
X22734Y-2071D01*
X22148Y-2463D01*
X21756Y-3049D01*
X21619Y-3740D01*
X21756Y-4431D01*
X22148Y-5017D01*
X22734Y-5409D01*
X23425Y-5547D01*
X23625Y-5507D01*
X23626Y-5508D01*
X23986Y-5748D01*
X24409Y-5832D01*
X38865D01*
X38979Y-6002D01*
X39565Y-6393D01*
X40256Y-6531D01*
X40947Y-6393D01*
X41533Y-6002D01*
X41925Y-5416D01*
X42062Y-4724D01*
X41925Y-4033D01*
X41533Y-3447D01*
X40947Y-3056D01*
X40256Y-2918D01*
X39565Y-3056D01*
X38979Y-3447D01*
X38865Y-3616D01*
X25207D01*
X25094Y-3049D01*
X24702Y-2463D01*
X24116Y-2071D01*
X23425Y-1934D01*
D02*
G37*
G36*
X15680Y-17471D02*
X14836Y-17639D01*
X14119Y-18117D01*
X13641Y-18833D01*
X13473Y-19678D01*
X13622Y-20432D01*
X13549Y-20800D01*
Y-35204D01*
X13648Y-35704D01*
X13931Y-36127D01*
X24325Y-46521D01*
Y-49911D01*
X24424Y-50410D01*
X24624Y-50709D01*
X24677Y-51113D01*
X24955Y-51784D01*
X25397Y-52359D01*
X25972Y-52801D01*
X26643Y-53079D01*
X27362Y-53173D01*
X28082Y-53079D01*
X28752Y-52801D01*
X29328Y-52359D01*
X29769Y-51784D01*
X30047Y-51113D01*
X30142Y-50394D01*
X30047Y-49674D01*
X29769Y-49004D01*
X29328Y-48428D01*
X28752Y-47987D01*
X28082Y-47709D01*
X27362Y-47614D01*
X26986Y-47275D01*
X26990Y-46887D01*
X27385Y-46565D01*
X27560Y-46600D01*
X28405Y-46432D01*
X29122Y-45953D01*
X29600Y-45237D01*
X29768Y-44392D01*
X29600Y-43547D01*
X29122Y-42831D01*
X28405Y-42352D01*
X27560Y-42184D01*
X26715Y-42352D01*
X26339Y-42604D01*
X18431Y-34696D01*
Y-32500D01*
X18658Y-32455D01*
X19041Y-32199D01*
X19095Y-32197D01*
X19586Y-32436D01*
X19675Y-32882D01*
X20070Y-33474D01*
X20661Y-33869D01*
X21358Y-34007D01*
X21646D01*
Y-31398D01*
Y-28788D01*
X21358D01*
X20661Y-28927D01*
X20070Y-29322D01*
X19578Y-29158D01*
X19375Y-28854D01*
X18658Y-28375D01*
X17813Y-28207D01*
X16969Y-28375D01*
X16658Y-28583D01*
X16158Y-28315D01*
Y-21791D01*
X16525Y-21718D01*
X17242Y-21239D01*
X17720Y-20523D01*
X17888Y-19678D01*
X17720Y-18833D01*
X17242Y-18117D01*
X16525Y-17639D01*
X15680Y-17471D01*
D02*
G37*
G36*
X126567Y-28528D02*
X122917D01*
Y-30996D01*
X126567D01*
Y-28528D01*
D02*
G37*
G36*
X5307Y-25205D02*
X1635D01*
Y-26280D01*
X1724Y-26952D01*
X1983Y-27578D01*
X2396Y-28116D01*
X2934Y-28529D01*
X3560Y-28788D01*
X4232Y-28877D01*
X5307D01*
Y-25205D01*
D02*
G37*
G36*
X131217Y-28528D02*
X127567D01*
Y-30996D01*
X131217D01*
Y-28528D01*
D02*
G37*
%LPD*%
D12*
X32986Y-18688D02*
X33760Y-17913D01*
X32986Y-19332D02*
Y-18688D01*
X31536Y-20781D02*
X32986Y-19332D01*
X30892Y-20781D02*
X31536D01*
X26716Y-24958D02*
X30892Y-20781D01*
X28038Y-21941D02*
Y-17282D01*
X25517Y-24461D02*
X28038Y-21941D01*
X25517Y-24590D02*
Y-24461D01*
X24183Y-25924D02*
X25517Y-24590D01*
X26716Y-25086D02*
Y-24958D01*
X25382Y-26420D02*
X26716Y-25086D01*
X25382Y-28405D02*
Y-26420D01*
X25971Y-32029D02*
Y-28995D01*
X25382Y-28405D02*
X25971Y-28995D01*
X27167Y-35632D02*
Y-34919D01*
X24183Y-28902D02*
Y-25924D01*
Y-28902D02*
X24772Y-29491D01*
Y-32525D02*
Y-29491D01*
Y-32525D02*
X27167Y-34919D01*
X25971Y-32029D02*
X27420Y-33478D01*
X28109D02*
X29483Y-34852D01*
X27420Y-33478D02*
X28109D01*
X29483Y-37002D02*
Y-34852D01*
X31220Y-32871D02*
X31496D01*
X31104Y-32987D02*
X31220Y-32871D01*
X28242Y-38243D02*
X29483Y-37002D01*
X31104Y-32987D02*
X31975Y-33858D01*
Y-36091D02*
Y-33858D01*
Y-36091D02*
X34589Y-38706D01*
X35321Y-15833D02*
X35925Y-16437D01*
X28038Y-17282D02*
X29487Y-15833D01*
X35321D01*
X90272Y-10531D02*
X95394D01*
X86730Y-14073D02*
X90272Y-10531D01*
X86730Y-17415D02*
Y-14073D01*
X89775Y-9333D02*
X94898D01*
X84847Y-14262D02*
X89775Y-9333D01*
X89279Y-8135D02*
X94402D01*
X83648Y-13765D02*
X89279Y-8135D01*
X94402D02*
X96173Y-6363D01*
X94898Y-9333D02*
X96670Y-7561D01*
X95394Y-10531D02*
X97166Y-8760D01*
X121941Y-3530D02*
X125695Y-7284D01*
X92126Y-3530D02*
X121941D01*
X119792Y-6363D02*
X124417Y-10988D01*
X119296Y-7561D02*
X123920Y-12186D01*
X96173Y-6363D02*
X119792D01*
X96670Y-7561D02*
X119296D01*
X118799Y-8760D02*
X125787Y-15748D01*
X97166Y-8760D02*
X118799D01*
X74071Y-3786D02*
X91870D01*
X92126Y-3530D01*
X65292Y-3786D02*
X71803D01*
X62842Y-6235D02*
X65292Y-3786D01*
X73717Y-3432D02*
X74071Y-3786D01*
X72157Y-3432D02*
X73717D01*
X71803Y-3786D02*
X72157Y-3432D01*
X24409Y-4724D02*
X40256D01*
X23425Y-3740D02*
X24409Y-4724D01*
X48469Y-50508D02*
X50355D01*
X36095Y-35898D02*
X38456D01*
X48318Y-45761D01*
X47135Y-49174D02*
X48469Y-50508D01*
X47135Y-49174D02*
Y-48513D01*
X37328Y-38706D02*
X47135Y-48513D01*
X48318Y-45761D02*
X50435D01*
X34589Y-38706D02*
X37328D01*
X36025Y-35829D02*
X36095Y-35898D01*
X36025Y-35829D02*
X36219Y-35635D01*
X67165Y-13091D02*
X73822D01*
X76772Y-41265D02*
Y-40551D01*
X75054Y-42982D02*
X76772Y-41265D01*
X139155Y-6408D02*
X140460Y-5103D01*
X85923Y-25394D02*
X85925D01*
X100197Y-39665D01*
X51321Y-46646D02*
X53954D01*
X50435Y-45761D02*
X51321Y-46646D01*
X55385Y-45414D02*
X55669D01*
X56467Y-42196D02*
X57677Y-43406D01*
X56467Y-42196D02*
Y-40326D01*
X54378Y-43377D02*
X56042Y-45041D01*
X55669Y-45414D02*
X56042Y-45041D01*
X53318Y-43377D02*
X54378D01*
X120700Y-39665D02*
X123465Y-42431D01*
X100197Y-39665D02*
X120700D01*
X68704Y-25889D02*
Y-25887D01*
X66217Y-36083D02*
X66536D01*
X70474Y-33268D02*
X70730Y-33524D01*
X70240Y-33502D02*
X70474Y-33268D01*
X68704Y-5568D02*
Y-5414D01*
X70240Y-33573D02*
Y-33502D01*
X68466Y-30964D02*
X68507Y-31005D01*
X67705Y-7984D02*
X67706Y-7983D01*
X67655Y-7933D02*
X67704Y-7983D01*
X67705Y-7984D01*
X67704Y-7983D02*
X67706D01*
X67706D01*
X67176D02*
X67704D01*
X131826Y-42431D02*
X139155Y-35102D01*
Y-6408D01*
X123465Y-42431D02*
X131826D01*
X72716Y-42982D02*
X75054D01*
X69035Y-46663D02*
X72716Y-42982D01*
X44587Y-8071D02*
X54596D01*
X56431Y-6235D01*
X62842D01*
X62008Y-31873D02*
Y-30118D01*
Y-31873D02*
X66217Y-36083D01*
X56816Y-46646D02*
X56832Y-46663D01*
X69035D01*
X56165Y-47297D02*
X56816Y-46646D01*
X54605Y-47297D02*
X56165D01*
X53954Y-46646D02*
X54605Y-47297D01*
X73949Y-45957D02*
X76604D01*
X70460Y-49446D02*
X73949Y-45957D01*
X57952Y-49446D02*
X70460D01*
X53452Y-50080D02*
X57318D01*
X52801Y-49429D02*
X53452Y-50080D01*
X51434Y-49429D02*
X52801D01*
X50355Y-50508D02*
X51434Y-49429D01*
X57318Y-50080D02*
X57952Y-49446D01*
X76604Y-45957D02*
X80476Y-42085D01*
Y-39017D01*
X78954Y-37495D02*
X80476Y-39017D01*
X78954Y-37495D02*
Y-36362D01*
X127067Y-23622D02*
X131282Y-19407D01*
X127067Y-38243D02*
X137957Y-27354D01*
X125787Y-15748D02*
X127067D01*
Y-39370D02*
Y-38243D01*
X85162Y-24633D02*
X85923Y-25394D01*
X70276Y-28294D02*
X70437Y-28455D01*
X83465Y-24585D02*
X83513Y-24633D01*
X85162D01*
X85627Y-18518D02*
X86730Y-17415D01*
X85616Y-18518D02*
X85627D01*
X77559Y-34967D02*
X78954Y-36362D01*
X77559Y-34967D02*
Y-15935D01*
X78445Y-15050D01*
X124417Y-10988D02*
X130673D01*
X137957Y-18272D01*
Y-27354D02*
Y-18272D01*
X123920Y-12186D02*
X130176D01*
X131282Y-13292D01*
Y-19407D02*
Y-13292D01*
X78445Y-15050D02*
Y-12303D01*
X78744Y-11709D02*
X78839Y-11614D01*
X78744Y-11910D02*
Y-11709D01*
X78445Y-12303D02*
X78744Y-12004D01*
Y-11910D01*
X83648Y-14679D02*
Y-13765D01*
X84847Y-16635D02*
Y-14262D01*
X84842Y-19291D02*
X85616Y-18518D01*
X81693Y-16634D02*
X83648Y-14679D01*
D13*
X61063Y-20728D02*
X66536D01*
X58947Y-22844D02*
X61063Y-20728D01*
X55768Y-22844D02*
X58947D01*
X33572Y-35721D02*
Y-32011D01*
Y-35721D02*
X35165Y-37314D01*
X28925Y-27363D02*
X33572Y-32011D01*
X27659Y-27363D02*
X28925D01*
X25689Y-13780D02*
X27667Y-11802D01*
X120368Y-4972D02*
X124993Y-9596D01*
X93508Y-5807D02*
X94344Y-4972D01*
X120368D01*
X41734Y-10848D02*
Y-9154D01*
X41437Y-13386D02*
X44676Y-10147D01*
X40781Y-11802D02*
X41734Y-10848D01*
X29967Y-13386D02*
X41437D01*
X24553Y-18799D02*
X29967Y-13386D01*
X22933Y-18799D02*
X24553D01*
X27667Y-11802D02*
X40781D01*
X35165Y-37314D02*
X37904D01*
X48820Y-48231D02*
X49412D01*
X37904Y-37314D02*
X48820Y-48231D01*
X66536Y-15610D02*
X66536D01*
X76027Y-44566D02*
X79084Y-41509D01*
X73372Y-44566D02*
X76027D01*
X79084Y-41509D02*
Y-39593D01*
X76796Y-37305D02*
X79084Y-39593D01*
X76677Y-37305D02*
X76796D01*
X71909Y-38642D02*
X71949Y-38681D01*
X129872Y-9596D02*
X131889Y-7579D01*
X131896D01*
X124993Y-9596D02*
X129872D01*
X26304Y-49237D02*
X26304D01*
X25629Y-49911D02*
X26304Y-49237D01*
X50226Y-40678D02*
X50562D01*
X62992Y-17697D02*
X63465Y-18169D01*
X66536D01*
X64472Y-13546D02*
X66536Y-15610D01*
X64472Y-13546D02*
Y-10630D01*
X44676Y-10147D02*
X54540D01*
X75896Y-36524D02*
X76677Y-37305D01*
X54321Y-21397D02*
X55768Y-22844D01*
X54321Y-21397D02*
Y-14889D01*
X54540Y-10147D02*
X55561Y-9126D01*
Y-9074D01*
X57008Y-7627D02*
X61468D01*
X55561Y-9074D02*
X57008Y-7627D01*
X61468D02*
X64472Y-10630D01*
X57185Y-30906D02*
X58800D01*
X66536Y-38642D01*
X59163Y-33868D02*
X66496Y-41201D01*
X55410Y-33868D02*
X59163D01*
X54174Y-32631D02*
X55410Y-33868D01*
X54151Y-32631D02*
X54174D01*
X52425Y-30906D02*
X54151Y-32631D01*
X51673Y-30906D02*
X52425D01*
X66496Y-41201D02*
X66536D01*
X51673Y-25984D02*
X57185D01*
X61221D01*
X62008Y-26772D01*
X57376Y-48054D02*
X69884D01*
X54028Y-48689D02*
X56741D01*
X53378Y-48038D02*
X54028Y-48689D01*
X49605Y-48038D02*
X53378D01*
X49412Y-48231D02*
X49605Y-48038D01*
X69884Y-48054D02*
X73372Y-44566D01*
X56741Y-48689D02*
X57376Y-48054D01*
X75463Y-20728D02*
X75896Y-21161D01*
X66536Y-20728D02*
X75463D01*
X75896Y-36524D02*
Y-21161D01*
X54321Y-14889D02*
X58917Y-10294D01*
X22933Y-18799D02*
Y-17815D01*
X26282Y-44392D02*
X27560D01*
X25629Y-49911D02*
Y-45980D01*
X17126Y-35236D02*
X26282Y-44392D01*
X15680Y-19974D02*
Y-19678D01*
X14854Y-20800D02*
X15680Y-19974D01*
X14854Y-35204D02*
X25629Y-45980D01*
X17126Y-35236D02*
Y-30908D01*
X14854Y-35204D02*
Y-20800D01*
X17126Y-30908D02*
X17619Y-30415D01*
X17813D01*
D52*
X93110Y-50984D02*
D03*
X75295Y-51181D02*
D03*
X22146Y-31398D02*
D03*
D53*
X30512Y-18307D02*
D03*
X28445Y-31004D02*
D03*
D54*
X93110Y-44685D02*
D03*
X22933Y-18799D02*
D03*
D55*
X27362Y-50394D02*
D03*
X41142Y-50492D02*
D03*
X137205Y-48425D02*
D03*
X5118Y-5709D02*
D03*
D56*
X5807Y-50689D02*
D03*
Y-24705D02*
D03*
D57*
X51083Y-21358D02*
D03*
X27659Y-27363D02*
D03*
X37008Y-25787D02*
D03*
X41734Y-9154D02*
D03*
X25984Y-13780D02*
D03*
X36417Y-41043D02*
D03*
X23131Y-47049D02*
D03*
X27560Y-44392D02*
D03*
X86910Y-52165D02*
D03*
X11319Y-51083D02*
D03*
X20079Y-51279D02*
D03*
X76677Y-37305D02*
D03*
X62008Y-52264D02*
D03*
X87303Y-45276D02*
D03*
X49412Y-48231D02*
D03*
X81299Y-48228D02*
D03*
X90158Y-22933D02*
D03*
X133760Y-25984D02*
D03*
X135433Y-2657D02*
D03*
X105709Y-13640D02*
D03*
X118504Y-28642D02*
D03*
X138386Y-41240D02*
D03*
X118012Y-44587D02*
D03*
X128740Y-49705D02*
D03*
X117717Y-16732D02*
D03*
X6102Y-19882D02*
D03*
X131896Y-7579D02*
D03*
X34744Y-9244D02*
D03*
X16437Y-9252D02*
D03*
X93508Y-5807D02*
D03*
X64472Y-10630D02*
D03*
X56791Y-20374D02*
D03*
X58031Y-10097D02*
D03*
X49705Y-14173D02*
D03*
X49114Y-37795D02*
D03*
X68012Y-44193D02*
D03*
X86417Y-29724D02*
D03*
X134350Y-10728D02*
D03*
X81791Y-12402D02*
D03*
X15680Y-19678D02*
D03*
X17813Y-30415D02*
D03*
D58*
X27167Y-35632D02*
D03*
X27756Y-38681D02*
D03*
D59*
X31496Y-32871D02*
D03*
X40256Y-4724D02*
D03*
X36025Y-35238D02*
D03*
X33760Y-17913D02*
D03*
X35925Y-16437D02*
D03*
X73666Y-7884D02*
D03*
X72937Y-5315D02*
D03*
X76772Y-40551D02*
D03*
X125695Y-7284D02*
D03*
X55385Y-45414D02*
D03*
X57677Y-43406D02*
D03*
X69863Y-23238D02*
D03*
X68704Y-25887D02*
D03*
X140460Y-5103D02*
D03*
X70240Y-33573D02*
D03*
X68507Y-31005D02*
D03*
X23425Y-3740D02*
D03*
X44587Y-8071D02*
D03*
X74315Y-12993D02*
D03*
X73183Y-10492D02*
D03*
X70437Y-28455D02*
D03*
X83513Y-24633D02*
D03*
X84847Y-16635D02*
D03*
X78744Y-11910D02*
D03*
X84842Y-19291D02*
D03*
X82087Y-16634D02*
D03*
D60*
X50226Y-40678D02*
D03*
X53121Y-43574D02*
D03*
X56270Y-40523D02*
D03*
X53375Y-37627D02*
D03*
D61*
X70670Y-5374D02*
D03*
Y-41201D02*
D03*
Y-7933D02*
D03*
Y-38642D02*
D03*
Y-10492D02*
D03*
Y-36083D02*
D03*
Y-13051D02*
D03*
Y-33524D02*
D03*
Y-15610D02*
D03*
Y-30964D02*
D03*
Y-18169D02*
D03*
Y-28405D02*
D03*
Y-20728D02*
D03*
Y-25846D02*
D03*
Y-23287D02*
D03*
D62*
X127067Y-39370D02*
D03*
Y-31496D02*
D03*
Y-15748D02*
D03*
Y-23622D02*
D03*
D63*
X62106Y-30118D02*
D03*
Y-26772D02*
D03*
D64*
X51476Y-25984D02*
D03*
Y-30906D02*
D03*
X57185D02*
D03*
Y-25984D02*
D03*
M02*
