G04 Layer_Color=65535*
%FSLAX25Y25*%
%MOIN*%
G70*
G01*
G75*
%ADD13C,0.00984*%
%ADD65C,0.00394*%
%ADD66C,0.02362*%
%ADD67C,0.00787*%
G36*
X71960Y-14893D02*
X71979D01*
X72021Y-14897D01*
X72069Y-14902D01*
X72119Y-14910D01*
X72169Y-14921D01*
X72215Y-14936D01*
X72217D01*
X72219Y-14939D01*
X72226Y-14941D01*
X72234Y-14945D01*
X72254Y-14954D01*
X72280Y-14967D01*
X72309Y-14982D01*
X72337Y-15002D01*
X72363Y-15024D01*
X72387Y-15048D01*
X72389Y-15050D01*
X72396Y-15059D01*
X72407Y-15074D01*
X72418Y-15093D01*
X72431Y-15117D01*
X72444Y-15146D01*
X72457Y-15179D01*
X72465Y-15215D01*
Y-15218D01*
X72468Y-15229D01*
X72470Y-15244D01*
X72472Y-15268D01*
X72474Y-15298D01*
X72476Y-15338D01*
Y-15362D01*
X72479Y-15386D01*
Y-15412D01*
Y-15442D01*
Y-15771D01*
Y-15776D01*
Y-15787D01*
Y-15804D01*
Y-15826D01*
Y-15854D01*
Y-15885D01*
X72481Y-15920D01*
Y-15955D01*
X72483Y-16029D01*
Y-16066D01*
X72485Y-16101D01*
X72487Y-16133D01*
X72490Y-16162D01*
X72492Y-16188D01*
X72494Y-16207D01*
Y-16212D01*
X72496Y-16223D01*
X72500Y-16240D01*
X72507Y-16264D01*
X72516Y-16290D01*
X72527Y-16319D01*
X72540Y-16351D01*
X72555Y-16382D01*
X72298D01*
X72295Y-16377D01*
X72291Y-16369D01*
X72285Y-16351D01*
X72278Y-16330D01*
X72269Y-16303D01*
X72261Y-16273D01*
X72254Y-16238D01*
X72250Y-16199D01*
X72247Y-16201D01*
X72243Y-16203D01*
X72237Y-16210D01*
X72226Y-16218D01*
X72213Y-16227D01*
X72200Y-16240D01*
X72165Y-16264D01*
X72123Y-16293D01*
X72080Y-16321D01*
X72032Y-16345D01*
X71984Y-16367D01*
X71982D01*
X71977Y-16369D01*
X71971Y-16371D01*
X71962Y-16373D01*
X71951Y-16377D01*
X71936Y-16382D01*
X71903Y-16391D01*
X71862Y-16399D01*
X71816Y-16408D01*
X71766Y-16412D01*
X71711Y-16414D01*
X71687D01*
X71672Y-16412D01*
X71652Y-16410D01*
X71628Y-16408D01*
X71602Y-16406D01*
X71576Y-16399D01*
X71515Y-16386D01*
X71454Y-16367D01*
X71426Y-16353D01*
X71395Y-16336D01*
X71369Y-16319D01*
X71343Y-16299D01*
X71341Y-16297D01*
X71336Y-16293D01*
X71332Y-16286D01*
X71323Y-16277D01*
X71312Y-16266D01*
X71301Y-16251D01*
X71290Y-16236D01*
X71280Y-16216D01*
X71256Y-16175D01*
X71234Y-16122D01*
X71225Y-16094D01*
X71221Y-16064D01*
X71216Y-16031D01*
X71214Y-15998D01*
Y-15996D01*
Y-15994D01*
Y-15981D01*
X71216Y-15959D01*
X71221Y-15933D01*
X71225Y-15902D01*
X71234Y-15869D01*
X71247Y-15837D01*
X71262Y-15802D01*
X71264Y-15798D01*
X71271Y-15787D01*
X71282Y-15771D01*
X71297Y-15750D01*
X71315Y-15728D01*
X71336Y-15704D01*
X71360Y-15682D01*
X71389Y-15660D01*
X71393Y-15658D01*
X71404Y-15652D01*
X71419Y-15641D01*
X71441Y-15630D01*
X71467Y-15617D01*
X71498Y-15604D01*
X71532Y-15590D01*
X71567Y-15580D01*
X71572D01*
X71580Y-15575D01*
X71598Y-15573D01*
X71622Y-15566D01*
X71652Y-15562D01*
X71692Y-15556D01*
X71735Y-15549D01*
X71788Y-15542D01*
X71792D01*
X71801Y-15540D01*
X71816Y-15538D01*
X71836Y-15536D01*
X71862Y-15532D01*
X71890Y-15527D01*
X71921Y-15523D01*
X71955Y-15519D01*
X72027Y-15506D01*
X72099Y-15490D01*
X72134Y-15482D01*
X72169Y-15473D01*
X72200Y-15464D01*
X72228Y-15455D01*
Y-15453D01*
Y-15447D01*
Y-15438D01*
X72230Y-15429D01*
Y-15407D01*
Y-15399D01*
Y-15392D01*
Y-15390D01*
Y-15386D01*
Y-15377D01*
Y-15368D01*
X72226Y-15342D01*
X72221Y-15309D01*
X72213Y-15274D01*
X72200Y-15239D01*
X72182Y-15207D01*
X72158Y-15181D01*
X72154Y-15176D01*
X72149Y-15172D01*
X72141Y-15168D01*
X72130Y-15161D01*
X72119Y-15155D01*
X72088Y-15137D01*
X72049Y-15122D01*
X72001Y-15109D01*
X71944Y-15100D01*
X71879Y-15096D01*
X71851D01*
X71836Y-15098D01*
X71820D01*
X71781Y-15102D01*
X71740Y-15111D01*
X71698Y-15122D01*
X71657Y-15137D01*
X71622Y-15157D01*
X71618Y-15159D01*
X71609Y-15168D01*
X71593Y-15185D01*
X71576Y-15207D01*
X71557Y-15235D01*
X71535Y-15274D01*
X71517Y-15318D01*
X71509Y-15344D01*
X71500Y-15372D01*
X71258Y-15340D01*
Y-15338D01*
X71260Y-15333D01*
X71262Y-15325D01*
X71264Y-15314D01*
X71269Y-15301D01*
X71273Y-15285D01*
X71284Y-15250D01*
X71299Y-15211D01*
X71317Y-15170D01*
X71338Y-15128D01*
X71365Y-15091D01*
Y-15089D01*
X71369Y-15087D01*
X71380Y-15076D01*
X71397Y-15059D01*
X71421Y-15037D01*
X71452Y-15013D01*
X71489Y-14989D01*
X71532Y-14965D01*
X71583Y-14943D01*
X71585D01*
X71589Y-14941D01*
X71598Y-14939D01*
X71609Y-14934D01*
X71622Y-14930D01*
X71637Y-14926D01*
X71657Y-14921D01*
X71679Y-14917D01*
X71700Y-14912D01*
X71727Y-14908D01*
X71783Y-14899D01*
X71846Y-14893D01*
X71914Y-14891D01*
X71944D01*
X71960Y-14893D01*
D02*
G37*
G36*
X69499Y-15126D02*
X69030D01*
Y-16382D01*
X68783D01*
Y-15126D01*
X68315D01*
Y-14923D01*
X69499D01*
Y-15126D01*
D02*
G37*
G36*
X76897Y-19554D02*
X76616D01*
Y-19273D01*
X76897D01*
Y-19554D01*
D02*
G37*
G36*
X73435D02*
X73176D01*
X72755Y-18021D01*
Y-18019D01*
X72753Y-18013D01*
X72750Y-18004D01*
X72746Y-17991D01*
X72742Y-17976D01*
X72737Y-17958D01*
X72726Y-17919D01*
X72716Y-17880D01*
X72705Y-17840D01*
X72700Y-17823D01*
X72696Y-17808D01*
X72692Y-17795D01*
X72689Y-17786D01*
Y-17788D01*
X72687Y-17793D01*
Y-17799D01*
X72683Y-17810D01*
X72681Y-17821D01*
X72679Y-17836D01*
X72670Y-17867D01*
X72661Y-17904D01*
X72650Y-17945D01*
X72639Y-17984D01*
X72628Y-18021D01*
X72205Y-19554D01*
X71929D01*
X71399Y-17542D01*
X71674D01*
X71977Y-18863D01*
Y-18865D01*
X71979Y-18872D01*
X71981Y-18882D01*
X71985Y-18898D01*
X71990Y-18917D01*
X71994Y-18939D01*
X72000Y-18963D01*
X72007Y-18992D01*
X72014Y-19022D01*
X72020Y-19055D01*
X72033Y-19122D01*
X72048Y-19196D01*
X72062Y-19273D01*
Y-19268D01*
X72066Y-19260D01*
X72068Y-19242D01*
X72075Y-19223D01*
X72079Y-19196D01*
X72085Y-19168D01*
X72094Y-19138D01*
X72101Y-19107D01*
X72118Y-19042D01*
X72125Y-19011D01*
X72133Y-18981D01*
X72140Y-18954D01*
X72144Y-18933D01*
X72149Y-18915D01*
X72153Y-18902D01*
X72537Y-17542D01*
X72857D01*
X73143Y-18562D01*
X73145Y-18566D01*
X73147Y-18579D01*
X73154Y-18599D01*
X73160Y-18627D01*
X73169Y-18660D01*
X73180Y-18699D01*
X73191Y-18743D01*
X73204Y-18793D01*
X73217Y-18845D01*
X73230Y-18902D01*
X73243Y-18961D01*
X73256Y-19022D01*
X73280Y-19146D01*
X73302Y-19273D01*
Y-19271D01*
X73304Y-19264D01*
X73306Y-19253D01*
X73308Y-19240D01*
X73313Y-19220D01*
X73317Y-19199D01*
X73324Y-19175D01*
X73330Y-19146D01*
X73337Y-19116D01*
X73343Y-19083D01*
X73352Y-19046D01*
X73361Y-19009D01*
X73380Y-18926D01*
X73402Y-18837D01*
X73718Y-17542D01*
X73987D01*
X73435Y-19554D01*
D02*
G37*
G36*
X67225Y-15495D02*
X67567D01*
X67587Y-15497D01*
X67613Y-15499D01*
X67643Y-15501D01*
X67676Y-15506D01*
X67711Y-15510D01*
X67787Y-15523D01*
X67866Y-15545D01*
X67905Y-15558D01*
X67942Y-15575D01*
X67977Y-15593D01*
X68010Y-15615D01*
X68012Y-15617D01*
X68016Y-15619D01*
X68025Y-15628D01*
X68036Y-15636D01*
X68049Y-15647D01*
X68062Y-15662D01*
X68077Y-15680D01*
X68092Y-15699D01*
X68108Y-15721D01*
X68123Y-15745D01*
X68136Y-15774D01*
X68149Y-15802D01*
X68160Y-15833D01*
X68169Y-15867D01*
X68173Y-15902D01*
X68175Y-15942D01*
Y-15944D01*
Y-15950D01*
Y-15959D01*
X68173Y-15972D01*
X68171Y-15987D01*
X68169Y-16007D01*
X68164Y-16026D01*
X68158Y-16048D01*
X68140Y-16098D01*
X68129Y-16125D01*
X68116Y-16151D01*
X68101Y-16177D01*
X68082Y-16203D01*
X68060Y-16229D01*
X68036Y-16253D01*
X68034Y-16255D01*
X68029Y-16260D01*
X68020Y-16264D01*
X68010Y-16273D01*
X67994Y-16284D01*
X67977Y-16295D01*
X67955Y-16306D01*
X67929Y-16316D01*
X67901Y-16330D01*
X67868Y-16340D01*
X67831Y-16351D01*
X67792Y-16362D01*
X67748Y-16371D01*
X67702Y-16375D01*
X67650Y-16380D01*
X67595Y-16382D01*
X66979D01*
Y-14923D01*
X67225D01*
Y-15495D01*
D02*
G37*
G36*
X75665Y-17537D02*
X75685Y-17540D01*
X75709Y-17542D01*
X75735Y-17546D01*
X75763Y-17553D01*
X75826Y-17568D01*
X75857Y-17579D01*
X75892Y-17592D01*
X75924Y-17607D01*
X75955Y-17627D01*
X75985Y-17646D01*
X76016Y-17670D01*
X76018Y-17673D01*
X76023Y-17677D01*
X76031Y-17684D01*
X76040Y-17694D01*
X76053Y-17707D01*
X76066Y-17725D01*
X76082Y-17744D01*
X76097Y-17766D01*
X76112Y-17790D01*
X76127Y-17819D01*
X76143Y-17849D01*
X76158Y-17882D01*
X76171Y-17917D01*
X76182Y-17954D01*
X76193Y-17993D01*
X76199Y-18037D01*
X75953Y-18056D01*
Y-18054D01*
X75951Y-18050D01*
X75949Y-18043D01*
X75946Y-18032D01*
X75940Y-18006D01*
X75929Y-17976D01*
X75916Y-17941D01*
X75898Y-17906D01*
X75881Y-17873D01*
X75859Y-17845D01*
X75857Y-17843D01*
X75855Y-17840D01*
X75848Y-17834D01*
X75842Y-17827D01*
X75820Y-17810D01*
X75789Y-17790D01*
X75754Y-17771D01*
X75711Y-17755D01*
X75663Y-17742D01*
X75637Y-17740D01*
X75611Y-17738D01*
X75591D01*
X75567Y-17742D01*
X75539Y-17747D01*
X75506Y-17755D01*
X75471Y-17766D01*
X75436Y-17784D01*
X75401Y-17806D01*
X75399D01*
X75397Y-17810D01*
X75390Y-17814D01*
X75382Y-17821D01*
X75362Y-17840D01*
X75336Y-17869D01*
X75305Y-17904D01*
X75275Y-17947D01*
X75247Y-17997D01*
X75218Y-18054D01*
Y-18056D01*
X75216Y-18061D01*
X75212Y-18071D01*
X75207Y-18085D01*
X75203Y-18100D01*
X75196Y-18122D01*
X75190Y-18146D01*
X75183Y-18172D01*
X75177Y-18202D01*
X75172Y-18237D01*
X75166Y-18276D01*
X75159Y-18318D01*
X75155Y-18361D01*
X75153Y-18409D01*
X75151Y-18462D01*
X75148Y-18514D01*
X75148Y-18514D01*
Y-18516D01*
X75148Y-18514D01*
X75153Y-18510D01*
X75157Y-18503D01*
X75164Y-18494D01*
X75183Y-18470D01*
X75207Y-18440D01*
X75240Y-18407D01*
X75277Y-18374D01*
X75318Y-18344D01*
X75364Y-18316D01*
X75366D01*
X75371Y-18314D01*
X75377Y-18309D01*
X75386Y-18305D01*
X75399Y-18300D01*
X75412Y-18294D01*
X75447Y-18281D01*
X75489Y-18270D01*
X75534Y-18259D01*
X75584Y-18250D01*
X75637Y-18248D01*
X75648D01*
X75661Y-18250D01*
X75678D01*
X75700Y-18255D01*
X75724Y-18257D01*
X75752Y-18263D01*
X75783Y-18270D01*
X75813Y-18281D01*
X75848Y-18292D01*
X75883Y-18307D01*
X75918Y-18324D01*
X75955Y-18346D01*
X75990Y-18370D01*
X76025Y-18398D01*
X76057Y-18431D01*
X76060Y-18433D01*
X76064Y-18440D01*
X76073Y-18449D01*
X76086Y-18464D01*
X76099Y-18481D01*
X76112Y-18503D01*
X76129Y-18529D01*
X76145Y-18558D01*
X76160Y-18590D01*
X76177Y-18625D01*
X76191Y-18665D01*
X76206Y-18706D01*
X76217Y-18749D01*
X76225Y-18798D01*
X76230Y-18848D01*
X76232Y-18900D01*
Y-18902D01*
Y-18909D01*
Y-18917D01*
X76230Y-18933D01*
Y-18948D01*
X76227Y-18968D01*
X76225Y-18992D01*
X76221Y-19015D01*
X76212Y-19070D01*
X76197Y-19129D01*
X76177Y-19190D01*
X76149Y-19253D01*
Y-19255D01*
X76145Y-19260D01*
X76140Y-19268D01*
X76134Y-19279D01*
X76125Y-19292D01*
X76116Y-19308D01*
X76090Y-19345D01*
X76060Y-19384D01*
X76020Y-19425D01*
X75975Y-19467D01*
X75924Y-19502D01*
X75922D01*
X75918Y-19506D01*
X75909Y-19510D01*
X75898Y-19515D01*
X75885Y-19521D01*
X75870Y-19528D01*
X75850Y-19536D01*
X75831Y-19543D01*
X75783Y-19560D01*
X75726Y-19573D01*
X75665Y-19582D01*
X75600Y-19587D01*
X75587D01*
X75569Y-19584D01*
X75547Y-19582D01*
X75521Y-19580D01*
X75491Y-19573D01*
X75458Y-19567D01*
X75421Y-19558D01*
X75382Y-19545D01*
X75340Y-19532D01*
X75299Y-19512D01*
X75257Y-19491D01*
X75214Y-19465D01*
X75175Y-19434D01*
X75133Y-19399D01*
X75096Y-19360D01*
X75094Y-19358D01*
X75087Y-19349D01*
X75079Y-19336D01*
X75066Y-19316D01*
X75050Y-19292D01*
X75035Y-19262D01*
X75018Y-19225D01*
X75000Y-19181D01*
X74981Y-19133D01*
X74963Y-19079D01*
X74948Y-19018D01*
X74933Y-18950D01*
X74919Y-18876D01*
X74911Y-18795D01*
X74904Y-18708D01*
X74902Y-18614D01*
Y-18612D01*
Y-18608D01*
Y-18599D01*
Y-18588D01*
Y-18575D01*
X74904Y-18558D01*
Y-18540D01*
X74906Y-18518D01*
X74909Y-18470D01*
X74913Y-18416D01*
X74919Y-18355D01*
X74928Y-18290D01*
X74941Y-18220D01*
X74954Y-18150D01*
X74972Y-18080D01*
X74994Y-18011D01*
X75018Y-17943D01*
X75046Y-17877D01*
X75081Y-17819D01*
X75118Y-17766D01*
X75120Y-17764D01*
X75127Y-17755D01*
X75138Y-17744D01*
X75153Y-17729D01*
X75170Y-17712D01*
X75194Y-17692D01*
X75220Y-17673D01*
X75251Y-17651D01*
X75286Y-17629D01*
X75325Y-17609D01*
X75366Y-17590D01*
X75412Y-17572D01*
X75460Y-17557D01*
X75512Y-17546D01*
X75567Y-17537D01*
X75626Y-17535D01*
X75650D01*
X75665Y-17537D01*
D02*
G37*
G36*
X71137Y-19554D02*
X70871D01*
Y-18606D01*
X69827D01*
Y-19554D01*
X69561D01*
Y-17542D01*
X69827D01*
Y-18368D01*
X70871D01*
Y-17542D01*
X71137D01*
Y-19554D01*
D02*
G37*
G36*
X66610Y-16382D02*
X66364D01*
Y-15126D01*
X65710D01*
Y-15854D01*
Y-15856D01*
Y-15865D01*
Y-15878D01*
Y-15896D01*
Y-15915D01*
Y-15939D01*
X65707Y-15966D01*
Y-15992D01*
X65705Y-16048D01*
X65703Y-16103D01*
X65701Y-16129D01*
X65699Y-16153D01*
X65694Y-16173D01*
X65692Y-16190D01*
Y-16194D01*
X65688Y-16203D01*
X65684Y-16218D01*
X65675Y-16238D01*
X65662Y-16260D01*
X65646Y-16284D01*
X65627Y-16308D01*
X65601Y-16332D01*
X65596Y-16334D01*
X65588Y-16340D01*
X65570Y-16351D01*
X65548Y-16360D01*
X65518Y-16371D01*
X65481Y-16382D01*
X65439Y-16388D01*
X65389Y-16391D01*
X65357D01*
X65333Y-16388D01*
X65302D01*
X65269Y-16386D01*
X65232Y-16384D01*
X65191Y-16380D01*
Y-16175D01*
X65324D01*
X65339Y-16173D01*
X65376Y-16168D01*
X65394Y-16164D01*
X65407Y-16160D01*
X65409D01*
X65411Y-16157D01*
X65424Y-16146D01*
X65439Y-16131D01*
X65450Y-16109D01*
Y-16107D01*
X65452Y-16101D01*
X65455Y-16087D01*
Y-16079D01*
X65457Y-16068D01*
X65459Y-16055D01*
Y-16040D01*
X65461Y-16022D01*
Y-16000D01*
Y-15976D01*
X65463Y-15950D01*
Y-15920D01*
Y-15887D01*
Y-14923D01*
X66610D01*
Y-16382D01*
D02*
G37*
G36*
X81118Y-14893D02*
X81140D01*
X81166Y-14897D01*
X81194Y-14902D01*
X81227Y-14908D01*
X81264Y-14915D01*
X81301Y-14926D01*
X81343Y-14939D01*
X81382Y-14956D01*
X81423Y-14974D01*
X81465Y-14998D01*
X81504Y-15024D01*
X81543Y-15054D01*
X81580Y-15089D01*
X81582Y-15091D01*
X81589Y-15098D01*
X81598Y-15109D01*
X81611Y-15126D01*
X81624Y-15146D01*
X81641Y-15170D01*
X81659Y-15198D01*
X81676Y-15231D01*
X81694Y-15268D01*
X81711Y-15309D01*
X81728Y-15353D01*
X81741Y-15401D01*
X81754Y-15453D01*
X81763Y-15510D01*
X81770Y-15571D01*
X81772Y-15634D01*
Y-15636D01*
Y-15647D01*
Y-15660D01*
X81770Y-15680D01*
Y-15704D01*
X81768Y-15732D01*
X81765Y-15763D01*
X81761Y-15795D01*
X81752Y-15865D01*
X81737Y-15939D01*
X81715Y-16011D01*
X81702Y-16044D01*
X81687Y-16077D01*
Y-16079D01*
X81683Y-16083D01*
X81678Y-16092D01*
X81672Y-16103D01*
X81663Y-16116D01*
X81652Y-16133D01*
X81624Y-16168D01*
X81589Y-16210D01*
X81547Y-16251D01*
X81497Y-16290D01*
X81441Y-16327D01*
X81438D01*
X81434Y-16332D01*
X81425Y-16336D01*
X81412Y-16340D01*
X81397Y-16347D01*
X81379Y-16356D01*
X81360Y-16362D01*
X81336Y-16371D01*
X81312Y-16380D01*
X81284Y-16386D01*
X81225Y-16401D01*
X81159Y-16410D01*
X81090Y-16414D01*
X81077D01*
X81061Y-16412D01*
X81040D01*
X81013Y-16408D01*
X80983Y-16404D01*
X80950Y-16397D01*
X80913Y-16391D01*
X80874Y-16380D01*
X80835Y-16367D01*
X80793Y-16351D01*
X80752Y-16332D01*
X80710Y-16310D01*
X80671Y-16284D01*
X80632Y-16253D01*
X80595Y-16218D01*
X80593Y-16216D01*
X80586Y-16210D01*
X80577Y-16199D01*
X80566Y-16181D01*
X80551Y-16162D01*
X80536Y-16138D01*
X80518Y-16107D01*
X80501Y-16074D01*
X80484Y-16035D01*
X80466Y-15994D01*
X80451Y-15948D01*
X80436Y-15898D01*
X80425Y-15843D01*
X80416Y-15785D01*
X80409Y-15721D01*
X80407Y-15654D01*
Y-15652D01*
Y-15649D01*
Y-15636D01*
X80409Y-15615D01*
X80412Y-15588D01*
X80414Y-15553D01*
X80418Y-15514D01*
X80427Y-15473D01*
X80436Y-15427D01*
X80446Y-15379D01*
X80462Y-15329D01*
X80481Y-15279D01*
X80501Y-15229D01*
X80527Y-15181D01*
X80558Y-15135D01*
X80593Y-15093D01*
X80632Y-15054D01*
X80634Y-15052D01*
X80641Y-15048D01*
X80651Y-15039D01*
X80664Y-15028D01*
X80684Y-15017D01*
X80706Y-15002D01*
X80730Y-14987D01*
X80760Y-14971D01*
X80791Y-14956D01*
X80826Y-14943D01*
X80863Y-14928D01*
X80904Y-14917D01*
X80948Y-14906D01*
X80992Y-14897D01*
X81040Y-14893D01*
X81090Y-14891D01*
X81103D01*
X81118Y-14893D01*
D02*
G37*
G36*
X78718Y-15128D02*
X78648Y-15126D01*
X78633D01*
X78615Y-15128D01*
X78596Y-15131D01*
X78574Y-15133D01*
X78554Y-15139D01*
X78537Y-15146D01*
X78524Y-15157D01*
X78522Y-15159D01*
X78517Y-15163D01*
X78511Y-15174D01*
X78502Y-15189D01*
X78489Y-15213D01*
X78482Y-15229D01*
X78474Y-15244D01*
X78465Y-15263D01*
X78456Y-15285D01*
X78445Y-15309D01*
X78434Y-15335D01*
Y-15338D01*
X78432Y-15342D01*
X78428Y-15349D01*
X78426Y-15359D01*
X78415Y-15383D01*
X78399Y-15414D01*
X78384Y-15447D01*
X78367Y-15479D01*
X78347Y-15510D01*
X78330Y-15534D01*
X78328Y-15536D01*
X78321Y-15542D01*
X78310Y-15553D01*
X78295Y-15566D01*
X78275Y-15582D01*
X78251Y-15599D01*
X78221Y-15617D01*
X78188Y-15634D01*
X78190D01*
X78195Y-15636D01*
X78203Y-15641D01*
X78216Y-15645D01*
X78229Y-15652D01*
X78247Y-15660D01*
X78267Y-15673D01*
X78286Y-15686D01*
X78310Y-15704D01*
X78334Y-15726D01*
X78360Y-15750D01*
X78386Y-15778D01*
X78415Y-15809D01*
X78443Y-15846D01*
X78471Y-15885D01*
X78500Y-15931D01*
X78772Y-16382D01*
X78500D01*
X78234Y-15933D01*
Y-15931D01*
X78229Y-15926D01*
X78225Y-15920D01*
X78221Y-15911D01*
X78206Y-15887D01*
X78186Y-15859D01*
X78164Y-15828D01*
X78140Y-15798D01*
X78116Y-15771D01*
X78103Y-15761D01*
X78092Y-15752D01*
X78090Y-15750D01*
X78081Y-15745D01*
X78068Y-15739D01*
X78053Y-15730D01*
X78031Y-15721D01*
X78007Y-15715D01*
X77981Y-15710D01*
X77950Y-15708D01*
Y-16382D01*
X77704D01*
Y-14923D01*
X77950D01*
Y-15553D01*
X77970D01*
X77990Y-15551D01*
X78016Y-15547D01*
X78042Y-15542D01*
X78068Y-15536D01*
X78094Y-15525D01*
X78114Y-15510D01*
X78116Y-15508D01*
X78123Y-15499D01*
X78127Y-15492D01*
X78133Y-15484D01*
X78140Y-15473D01*
X78149Y-15460D01*
X78160Y-15444D01*
X78168Y-15425D01*
X78181Y-15403D01*
X78192Y-15379D01*
X78208Y-15351D01*
X78221Y-15320D01*
X78236Y-15285D01*
X78253Y-15246D01*
Y-15244D01*
X78258Y-15237D01*
X78260Y-15229D01*
X78267Y-15218D01*
X78273Y-15205D01*
X78280Y-15187D01*
X78297Y-15152D01*
X78315Y-15113D01*
X78336Y-15076D01*
X78356Y-15043D01*
X78365Y-15028D01*
X78373Y-15017D01*
X78376Y-15015D01*
X78382Y-15008D01*
X78391Y-15000D01*
X78404Y-14987D01*
X78419Y-14976D01*
X78436Y-14963D01*
X78456Y-14952D01*
X78478Y-14943D01*
X78480D01*
X78489Y-14941D01*
X78504Y-14936D01*
X78524Y-14932D01*
X78550Y-14930D01*
X78583Y-14926D01*
X78622Y-14923D01*
X78718D01*
Y-15128D01*
D02*
G37*
G36*
X64393Y-15937D02*
X64391Y-15939D01*
X64386Y-15950D01*
X64380Y-15966D01*
X64369Y-15985D01*
X64358Y-16007D01*
X64345Y-16035D01*
X64328Y-16064D01*
X64312Y-16094D01*
X64275Y-16160D01*
X64236Y-16223D01*
X64216Y-16251D01*
X64199Y-16277D01*
X64179Y-16301D01*
X64162Y-16321D01*
X64158Y-16325D01*
X64144Y-16334D01*
X64125Y-16349D01*
X64096Y-16364D01*
X64060Y-16382D01*
X64016Y-16397D01*
X63964Y-16406D01*
X63902Y-16410D01*
X63885D01*
X63863Y-16408D01*
X63833Y-16404D01*
X63796Y-16399D01*
X63754Y-16391D01*
X63704Y-16380D01*
X63652Y-16364D01*
Y-16138D01*
X63654D01*
X63656Y-16140D01*
X63663Y-16142D01*
X63671Y-16146D01*
X63691Y-16157D01*
X63719Y-16166D01*
X63754Y-16177D01*
X63791Y-16188D01*
X63833Y-16194D01*
X63876Y-16196D01*
X63894D01*
X63911Y-16192D01*
X63935Y-16188D01*
X63961Y-16181D01*
X63990Y-16170D01*
X64018Y-16155D01*
X64044Y-16136D01*
X64049Y-16133D01*
X64057Y-16122D01*
X64064Y-16114D01*
X64073Y-16103D01*
X64081Y-16092D01*
X64090Y-16077D01*
X64103Y-16059D01*
X64114Y-16037D01*
X64127Y-16016D01*
X64140Y-15987D01*
X64155Y-15959D01*
X64171Y-15926D01*
X64186Y-15889D01*
X64201Y-15850D01*
X63386Y-14370D01*
X63654D01*
X64310Y-15606D01*
X64886Y-14370D01*
X65149D01*
X64393Y-15937D01*
D02*
G37*
G36*
X83241Y-16382D02*
X82995D01*
Y-15734D01*
X82310D01*
Y-16382D01*
X82064D01*
Y-14923D01*
X82310D01*
Y-15532D01*
X82995D01*
Y-14923D01*
X83241D01*
Y-16382D01*
D02*
G37*
G36*
X79612Y-14893D02*
X79629D01*
X79649Y-14895D01*
X79668Y-14899D01*
X79692Y-14904D01*
X79745Y-14915D01*
X79799Y-14932D01*
X79856Y-14956D01*
X79884Y-14971D01*
X79910Y-14989D01*
X79912D01*
X79917Y-14993D01*
X79923Y-15000D01*
X79934Y-15006D01*
X79960Y-15028D01*
X79991Y-15059D01*
X80026Y-15098D01*
X80063Y-15144D01*
X80095Y-15198D01*
X80126Y-15259D01*
Y-15261D01*
X80128Y-15268D01*
X80133Y-15277D01*
X80137Y-15290D01*
X80143Y-15305D01*
X80150Y-15325D01*
X80157Y-15349D01*
X80163Y-15372D01*
X80170Y-15401D01*
X80176Y-15429D01*
X80189Y-15495D01*
X80198Y-15566D01*
X80200Y-15643D01*
Y-15645D01*
Y-15654D01*
Y-15665D01*
X80198Y-15680D01*
Y-15699D01*
X80196Y-15723D01*
X80194Y-15750D01*
X80189Y-15778D01*
X80181Y-15839D01*
X80165Y-15907D01*
X80146Y-15976D01*
X80120Y-16046D01*
Y-16048D01*
X80115Y-16055D01*
X80111Y-16064D01*
X80104Y-16074D01*
X80095Y-16090D01*
X80087Y-16107D01*
X80061Y-16146D01*
X80028Y-16192D01*
X79987Y-16238D01*
X79941Y-16282D01*
X79886Y-16321D01*
X79884D01*
X79880Y-16325D01*
X79871Y-16330D01*
X79860Y-16336D01*
X79845Y-16343D01*
X79830Y-16351D01*
X79810Y-16358D01*
X79788Y-16367D01*
X79740Y-16384D01*
X79686Y-16399D01*
X79627Y-16410D01*
X79596Y-16412D01*
X79564Y-16414D01*
X79542D01*
X79520Y-16412D01*
X79489Y-16408D01*
X79455Y-16401D01*
X79418Y-16393D01*
X79378Y-16382D01*
X79341Y-16364D01*
X79337Y-16362D01*
X79326Y-16356D01*
X79306Y-16343D01*
X79285Y-16327D01*
X79258Y-16310D01*
X79232Y-16286D01*
X79206Y-16260D01*
X79182Y-16231D01*
Y-16940D01*
X78936D01*
Y-14923D01*
X79160D01*
Y-15113D01*
X79165Y-15111D01*
X79173Y-15098D01*
X79191Y-15076D01*
X79213Y-15052D01*
X79239Y-15026D01*
X79269Y-14998D01*
X79302Y-14971D01*
X79339Y-14947D01*
X79341D01*
X79343Y-14945D01*
X79356Y-14939D01*
X79378Y-14930D01*
X79407Y-14919D01*
X79441Y-14908D01*
X79483Y-14899D01*
X79531Y-14893D01*
X79581Y-14891D01*
X79598D01*
X79612Y-14893D01*
D02*
G37*
G36*
X70410D02*
X70427D01*
X70447Y-14895D01*
X70467Y-14899D01*
X70490Y-14904D01*
X70543Y-14915D01*
X70597Y-14932D01*
X70654Y-14956D01*
X70682Y-14971D01*
X70709Y-14989D01*
X70711D01*
X70715Y-14993D01*
X70722Y-15000D01*
X70732Y-15006D01*
X70759Y-15028D01*
X70789Y-15059D01*
X70824Y-15098D01*
X70861Y-15144D01*
X70894Y-15198D01*
X70924Y-15259D01*
Y-15261D01*
X70926Y-15268D01*
X70931Y-15277D01*
X70935Y-15290D01*
X70942Y-15305D01*
X70948Y-15325D01*
X70955Y-15349D01*
X70961Y-15372D01*
X70968Y-15401D01*
X70974Y-15429D01*
X70987Y-15495D01*
X70996Y-15566D01*
X70998Y-15643D01*
Y-15645D01*
Y-15654D01*
Y-15665D01*
X70996Y-15680D01*
Y-15699D01*
X70994Y-15723D01*
X70992Y-15750D01*
X70987Y-15778D01*
X70979Y-15839D01*
X70964Y-15907D01*
X70944Y-15976D01*
X70918Y-16046D01*
Y-16048D01*
X70913Y-16055D01*
X70909Y-16064D01*
X70903Y-16074D01*
X70894Y-16090D01*
X70885Y-16107D01*
X70859Y-16146D01*
X70826Y-16192D01*
X70785Y-16238D01*
X70739Y-16282D01*
X70684Y-16321D01*
X70682D01*
X70678Y-16325D01*
X70669Y-16330D01*
X70658Y-16336D01*
X70643Y-16343D01*
X70628Y-16351D01*
X70608Y-16358D01*
X70586Y-16367D01*
X70538Y-16384D01*
X70484Y-16399D01*
X70425Y-16410D01*
X70394Y-16412D01*
X70362Y-16414D01*
X70340D01*
X70318Y-16412D01*
X70288Y-16408D01*
X70253Y-16401D01*
X70216Y-16393D01*
X70177Y-16382D01*
X70139Y-16364D01*
X70135Y-16362D01*
X70124Y-16356D01*
X70105Y-16343D01*
X70083Y-16327D01*
X70057Y-16310D01*
X70030Y-16286D01*
X70004Y-16260D01*
X69980Y-16231D01*
Y-16940D01*
X69734D01*
Y-14923D01*
X69959D01*
Y-15113D01*
X69963Y-15111D01*
X69972Y-15098D01*
X69989Y-15076D01*
X70011Y-15052D01*
X70037Y-15026D01*
X70068Y-14998D01*
X70100Y-14971D01*
X70137Y-14947D01*
X70139D01*
X70142Y-14945D01*
X70155Y-14939D01*
X70177Y-14930D01*
X70205Y-14919D01*
X70240Y-14908D01*
X70281Y-14899D01*
X70329Y-14893D01*
X70379Y-14891D01*
X70397D01*
X70410Y-14893D01*
D02*
G37*
G36*
X73523Y-15778D02*
X72762D01*
Y-15529D01*
X73523D01*
Y-15778D01*
D02*
G37*
G36*
X77954Y-17537D02*
X77969Y-17540D01*
X78009Y-17544D01*
X78052Y-17550D01*
X78100Y-17564D01*
X78148Y-17579D01*
X78196Y-17601D01*
X78198D01*
X78203Y-17603D01*
X78209Y-17607D01*
X78218Y-17614D01*
X78240Y-17627D01*
X78268Y-17649D01*
X78301Y-17675D01*
X78333Y-17707D01*
X78368Y-17747D01*
X78399Y-17790D01*
Y-17793D01*
X78403Y-17797D01*
X78405Y-17803D01*
X78412Y-17812D01*
X78418Y-17823D01*
X78427Y-17838D01*
X78434Y-17856D01*
X78445Y-17873D01*
X78464Y-17917D01*
X78484Y-17967D01*
X78506Y-18026D01*
X78523Y-18089D01*
Y-18091D01*
X78525Y-18098D01*
X78527Y-18106D01*
X78530Y-18122D01*
X78534Y-18139D01*
X78538Y-18161D01*
X78543Y-18185D01*
X78547Y-18213D01*
X78549Y-18246D01*
X78554Y-18281D01*
X78558Y-18320D01*
X78562Y-18361D01*
X78565Y-18407D01*
X78567Y-18455D01*
X78569Y-18507D01*
Y-18562D01*
Y-18566D01*
Y-18577D01*
Y-18597D01*
Y-18621D01*
X78567Y-18651D01*
X78565Y-18684D01*
X78562Y-18723D01*
X78560Y-18765D01*
X78556Y-18811D01*
X78551Y-18856D01*
X78538Y-18952D01*
X78519Y-19046D01*
X78508Y-19092D01*
X78495Y-19133D01*
Y-19135D01*
X78490Y-19142D01*
X78488Y-19155D01*
X78482Y-19168D01*
X78473Y-19188D01*
X78464Y-19207D01*
X78453Y-19231D01*
X78440Y-19257D01*
X78410Y-19312D01*
X78373Y-19366D01*
X78329Y-19421D01*
X78303Y-19445D01*
X78277Y-19469D01*
X78275Y-19471D01*
X78270Y-19473D01*
X78262Y-19480D01*
X78251Y-19486D01*
X78237Y-19495D01*
X78220Y-19506D01*
X78200Y-19517D01*
X78176Y-19528D01*
X78153Y-19539D01*
X78124Y-19549D01*
X78096Y-19558D01*
X78063Y-19569D01*
X78028Y-19576D01*
X77991Y-19582D01*
X77954Y-19584D01*
X77913Y-19587D01*
X77900D01*
X77884Y-19584D01*
X77865Y-19582D01*
X77841Y-19580D01*
X77812Y-19576D01*
X77782Y-19569D01*
X77747Y-19560D01*
X77712Y-19549D01*
X77675Y-19536D01*
X77636Y-19519D01*
X77599Y-19499D01*
X77562Y-19475D01*
X77525Y-19447D01*
X77490Y-19417D01*
X77457Y-19379D01*
X77455Y-19377D01*
X77448Y-19369D01*
X77440Y-19353D01*
X77426Y-19331D01*
X77411Y-19303D01*
X77394Y-19271D01*
X77376Y-19229D01*
X77359Y-19183D01*
X77339Y-19129D01*
X77322Y-19070D01*
X77304Y-19002D01*
X77289Y-18928D01*
X77276Y-18848D01*
X77267Y-18760D01*
X77261Y-18665D01*
X77259Y-18562D01*
Y-18558D01*
Y-18547D01*
Y-18527D01*
X77261Y-18503D01*
Y-18473D01*
X77263Y-18438D01*
X77265Y-18398D01*
X77267Y-18357D01*
X77272Y-18311D01*
X77276Y-18266D01*
X77289Y-18170D01*
X77307Y-18076D01*
X77318Y-18030D01*
X77331Y-17989D01*
Y-17987D01*
X77335Y-17980D01*
X77339Y-17967D01*
X77344Y-17952D01*
X77352Y-17934D01*
X77361Y-17912D01*
X77372Y-17891D01*
X77385Y-17864D01*
X77416Y-17810D01*
X77455Y-17755D01*
X77499Y-17701D01*
X77522Y-17677D01*
X77549Y-17653D01*
X77551Y-17651D01*
X77555Y-17649D01*
X77564Y-17642D01*
X77575Y-17636D01*
X77588Y-17625D01*
X77605Y-17616D01*
X77625Y-17605D01*
X77649Y-17594D01*
X77673Y-17583D01*
X77701Y-17572D01*
X77732Y-17561D01*
X77762Y-17553D01*
X77797Y-17546D01*
X77834Y-17540D01*
X77873Y-17537D01*
X77913Y-17535D01*
X77939D01*
X77954Y-17537D01*
D02*
G37*
G36*
X75740Y-16382D02*
X75483D01*
Y-14697D01*
X74894Y-16382D01*
X74654D01*
X74074Y-14668D01*
Y-16382D01*
X73817D01*
Y-14370D01*
X74216D01*
X74694Y-15795D01*
Y-15798D01*
X74696Y-15804D01*
X74700Y-15815D01*
X74704Y-15828D01*
X74709Y-15843D01*
X74715Y-15863D01*
X74731Y-15907D01*
X74746Y-15955D01*
X74761Y-16005D01*
X74776Y-16050D01*
X74783Y-16072D01*
X74789Y-16092D01*
Y-16090D01*
X74792Y-16087D01*
X74794Y-16081D01*
X74796Y-16072D01*
X74800Y-16059D01*
X74805Y-16046D01*
X74809Y-16029D01*
X74816Y-16011D01*
X74822Y-15989D01*
X74831Y-15966D01*
X74840Y-15939D01*
X74848Y-15909D01*
X74859Y-15878D01*
X74870Y-15843D01*
X74883Y-15809D01*
X74896Y-15769D01*
X75380Y-14370D01*
X75740D01*
Y-16382D01*
D02*
G37*
G36*
X77333D02*
X77087D01*
Y-15277D01*
X76400Y-16382D01*
X76137D01*
Y-14923D01*
X76383D01*
Y-16037D01*
X77070Y-14923D01*
X77333D01*
Y-16382D01*
D02*
G37*
%LPC*%
G36*
X72230Y-15649D02*
X72228D01*
X72224Y-15652D01*
X72215Y-15654D01*
X72204Y-15658D01*
X72191Y-15665D01*
X72173Y-15669D01*
X72152Y-15676D01*
X72130Y-15682D01*
X72101Y-15689D01*
X72071Y-15697D01*
X72038Y-15704D01*
X72001Y-15713D01*
X71962Y-15721D01*
X71921Y-15728D01*
X71875Y-15737D01*
X71825Y-15743D01*
X71818D01*
X71809Y-15745D01*
X71801Y-15747D01*
X71772Y-15752D01*
X71740Y-15758D01*
X71705Y-15765D01*
X71670Y-15774D01*
X71637Y-15782D01*
X71609Y-15793D01*
X71607Y-15795D01*
X71598Y-15798D01*
X71587Y-15804D01*
X71574Y-15813D01*
X71557Y-15826D01*
X71541Y-15839D01*
X71526Y-15854D01*
X71511Y-15874D01*
X71509Y-15876D01*
X71506Y-15883D01*
X71500Y-15893D01*
X71495Y-15909D01*
X71489Y-15926D01*
X71482Y-15946D01*
X71480Y-15968D01*
X71478Y-15992D01*
Y-15996D01*
X71480Y-16007D01*
X71482Y-16026D01*
X71487Y-16048D01*
X71495Y-16074D01*
X71509Y-16103D01*
X71528Y-16129D01*
X71552Y-16155D01*
X71557Y-16157D01*
X71565Y-16166D01*
X71583Y-16175D01*
X71607Y-16188D01*
X71637Y-16199D01*
X71676Y-16210D01*
X71720Y-16218D01*
X71770Y-16220D01*
X71794D01*
X71807Y-16218D01*
X71822Y-16216D01*
X71855Y-16212D01*
X71897Y-16205D01*
X71938Y-16194D01*
X71982Y-16179D01*
X72025Y-16160D01*
X72027D01*
X72030Y-16157D01*
X72043Y-16149D01*
X72062Y-16133D01*
X72088Y-16114D01*
X72114Y-16090D01*
X72141Y-16059D01*
X72167Y-16026D01*
X72189Y-15987D01*
X72191Y-15983D01*
X72195Y-15972D01*
X72202Y-15952D01*
X72208Y-15926D01*
X72215Y-15891D01*
X72221Y-15848D01*
X72226Y-15798D01*
X72228Y-15741D01*
X72230Y-15649D01*
D02*
G37*
G36*
X67563Y-15697D02*
X67225D01*
Y-16179D01*
X67523D01*
X67541Y-16177D01*
X67565D01*
X67589Y-16175D01*
X67615Y-16173D01*
X67669Y-16166D01*
X67726Y-16155D01*
X67776Y-16142D01*
X67800Y-16133D01*
X67820Y-16122D01*
X67822D01*
X67824Y-16120D01*
X67835Y-16112D01*
X67853Y-16096D01*
X67872Y-16077D01*
X67890Y-16053D01*
X67907Y-16022D01*
X67918Y-15985D01*
X67922Y-15963D01*
Y-15942D01*
Y-15939D01*
Y-15937D01*
X67920Y-15926D01*
X67918Y-15909D01*
X67914Y-15885D01*
X67903Y-15859D01*
X67890Y-15830D01*
X67872Y-15802D01*
X67846Y-15774D01*
X67842Y-15769D01*
X67837Y-15767D01*
X67831Y-15761D01*
X67822Y-15756D01*
X67809Y-15750D01*
X67794Y-15743D01*
X67776Y-15734D01*
X67757Y-15728D01*
X67733Y-15721D01*
X67707Y-15715D01*
X67676Y-15708D01*
X67641Y-15704D01*
X67604Y-15699D01*
X67563Y-15697D01*
D02*
G37*
G36*
X75587Y-18466D02*
X75571D01*
X75558Y-18468D01*
X75545Y-18470D01*
X75528Y-18473D01*
X75489Y-18481D01*
X75443Y-18497D01*
X75395Y-18518D01*
X75371Y-18531D01*
X75347Y-18547D01*
X75323Y-18566D01*
X75301Y-18588D01*
X75299Y-18590D01*
X75297Y-18595D01*
X75290Y-18601D01*
X75284Y-18610D01*
X75275Y-18621D01*
X75264Y-18636D01*
X75253Y-18654D01*
X75244Y-18673D01*
X75233Y-18693D01*
X75222Y-18717D01*
X75203Y-18771D01*
X75190Y-18832D01*
X75188Y-18867D01*
X75186Y-18902D01*
Y-18904D01*
Y-18909D01*
Y-18915D01*
Y-18924D01*
X75188Y-18935D01*
Y-18948D01*
X75192Y-18981D01*
X75199Y-19018D01*
X75207Y-19059D01*
X75220Y-19103D01*
X75238Y-19146D01*
Y-19148D01*
X75240Y-19151D01*
X75244Y-19157D01*
X75249Y-19166D01*
X75260Y-19185D01*
X75277Y-19212D01*
X75299Y-19240D01*
X75325Y-19268D01*
X75353Y-19297D01*
X75388Y-19323D01*
X75390D01*
X75393Y-19325D01*
X75406Y-19331D01*
X75425Y-19342D01*
X75451Y-19353D01*
X75482Y-19364D01*
X75517Y-19375D01*
X75556Y-19382D01*
X75595Y-19384D01*
X75611D01*
X75621Y-19382D01*
X75637Y-19379D01*
X75652Y-19377D01*
X75689Y-19369D01*
X75731Y-19353D01*
X75754Y-19342D01*
X75776Y-19331D01*
X75800Y-19316D01*
X75822Y-19301D01*
X75844Y-19281D01*
X75866Y-19260D01*
X75868Y-19257D01*
X75870Y-19253D01*
X75876Y-19247D01*
X75883Y-19236D01*
X75892Y-19223D01*
X75901Y-19207D01*
X75911Y-19190D01*
X75922Y-19168D01*
X75933Y-19146D01*
X75944Y-19120D01*
X75953Y-19092D01*
X75962Y-19061D01*
X75968Y-19028D01*
X75975Y-18992D01*
X75977Y-18954D01*
X75979Y-18915D01*
Y-18913D01*
Y-18906D01*
Y-18896D01*
X75977Y-18880D01*
X75975Y-18863D01*
X75972Y-18843D01*
X75970Y-18821D01*
X75966Y-18798D01*
X75953Y-18745D01*
X75933Y-18691D01*
X75920Y-18662D01*
X75905Y-18636D01*
X75887Y-18612D01*
X75868Y-18588D01*
X75866Y-18586D01*
X75863Y-18584D01*
X75857Y-18577D01*
X75848Y-18568D01*
X75837Y-18560D01*
X75824Y-18549D01*
X75792Y-18527D01*
X75750Y-18505D01*
X75702Y-18486D01*
X75648Y-18470D01*
X75617Y-18468D01*
X75587Y-18466D01*
D02*
G37*
G36*
X81090Y-15096D02*
X81072D01*
X81059Y-15098D01*
X81044Y-15100D01*
X81024Y-15102D01*
X80983Y-15113D01*
X80933Y-15131D01*
X80909Y-15141D01*
X80883Y-15155D01*
X80856Y-15170D01*
X80830Y-15189D01*
X80806Y-15211D01*
X80782Y-15235D01*
X80780Y-15237D01*
X80778Y-15242D01*
X80771Y-15250D01*
X80763Y-15261D01*
X80754Y-15277D01*
X80743Y-15294D01*
X80732Y-15316D01*
X80721Y-15340D01*
X80710Y-15368D01*
X80699Y-15399D01*
X80689Y-15434D01*
X80680Y-15471D01*
X80671Y-15512D01*
X80664Y-15556D01*
X80662Y-15604D01*
X80660Y-15654D01*
Y-15656D01*
Y-15667D01*
Y-15680D01*
X80662Y-15699D01*
X80664Y-15723D01*
X80667Y-15750D01*
X80671Y-15780D01*
X80675Y-15811D01*
X80691Y-15880D01*
X80712Y-15950D01*
X80726Y-15983D01*
X80743Y-16016D01*
X80760Y-16046D01*
X80782Y-16074D01*
X80784Y-16077D01*
X80789Y-16081D01*
X80795Y-16087D01*
X80804Y-16096D01*
X80817Y-16107D01*
X80830Y-16118D01*
X80848Y-16131D01*
X80867Y-16142D01*
X80911Y-16168D01*
X80963Y-16190D01*
X80992Y-16199D01*
X81024Y-16205D01*
X81055Y-16210D01*
X81090Y-16212D01*
X81107D01*
X81120Y-16210D01*
X81135Y-16207D01*
X81155Y-16205D01*
X81196Y-16194D01*
X81244Y-16177D01*
X81271Y-16166D01*
X81297Y-16153D01*
X81321Y-16138D01*
X81347Y-16118D01*
X81371Y-16096D01*
X81395Y-16072D01*
X81397Y-16070D01*
X81399Y-16066D01*
X81406Y-16057D01*
X81414Y-16046D01*
X81423Y-16031D01*
X81434Y-16013D01*
X81445Y-15992D01*
X81458Y-15966D01*
X81469Y-15939D01*
X81480Y-15907D01*
X81491Y-15872D01*
X81499Y-15833D01*
X81508Y-15791D01*
X81515Y-15745D01*
X81517Y-15697D01*
X81519Y-15645D01*
Y-15643D01*
Y-15634D01*
Y-15619D01*
X81517Y-15601D01*
X81515Y-15577D01*
X81512Y-15551D01*
X81508Y-15523D01*
X81504Y-15492D01*
X81489Y-15427D01*
X81480Y-15392D01*
X81467Y-15357D01*
X81451Y-15325D01*
X81436Y-15292D01*
X81417Y-15263D01*
X81395Y-15235D01*
X81393Y-15233D01*
X81388Y-15229D01*
X81382Y-15222D01*
X81373Y-15213D01*
X81360Y-15202D01*
X81347Y-15192D01*
X81329Y-15179D01*
X81312Y-15165D01*
X81266Y-15139D01*
X81214Y-15117D01*
X81186Y-15109D01*
X81155Y-15102D01*
X81122Y-15098D01*
X81090Y-15096D01*
D02*
G37*
G36*
X79557Y-15085D02*
X79542D01*
X79531Y-15087D01*
X79518Y-15089D01*
X79500Y-15093D01*
X79463Y-15102D01*
X79420Y-15122D01*
X79398Y-15133D01*
X79374Y-15148D01*
X79350Y-15163D01*
X79326Y-15185D01*
X79302Y-15207D01*
X79278Y-15233D01*
X79276Y-15235D01*
X79274Y-15239D01*
X79267Y-15248D01*
X79258Y-15261D01*
X79250Y-15277D01*
X79241Y-15294D01*
X79230Y-15316D01*
X79219Y-15342D01*
X79206Y-15370D01*
X79195Y-15403D01*
X79186Y-15438D01*
X79178Y-15477D01*
X79169Y-15519D01*
X79163Y-15562D01*
X79160Y-15610D01*
X79158Y-15662D01*
Y-15665D01*
Y-15676D01*
Y-15689D01*
X79160Y-15708D01*
X79163Y-15732D01*
X79165Y-15758D01*
X79167Y-15789D01*
X79173Y-15819D01*
X79186Y-15887D01*
X79206Y-15957D01*
X79219Y-15989D01*
X79234Y-16022D01*
X79252Y-16053D01*
X79272Y-16079D01*
X79274Y-16081D01*
X79276Y-16085D01*
X79282Y-16092D01*
X79291Y-16098D01*
X79302Y-16109D01*
X79315Y-16120D01*
X79348Y-16144D01*
X79389Y-16170D01*
X79435Y-16190D01*
X79461Y-16199D01*
X79487Y-16205D01*
X79516Y-16210D01*
X79546Y-16212D01*
X79561D01*
X79575Y-16210D01*
X79588Y-16207D01*
X79605Y-16205D01*
X79644Y-16194D01*
X79688Y-16179D01*
X79712Y-16166D01*
X79736Y-16153D01*
X79760Y-16138D01*
X79784Y-16120D01*
X79808Y-16098D01*
X79830Y-16074D01*
X79832Y-16072D01*
X79834Y-16068D01*
X79840Y-16059D01*
X79847Y-16048D01*
X79858Y-16033D01*
X79867Y-16016D01*
X79878Y-15994D01*
X79888Y-15968D01*
X79899Y-15939D01*
X79910Y-15909D01*
X79921Y-15872D01*
X79930Y-15833D01*
X79936Y-15791D01*
X79943Y-15745D01*
X79945Y-15695D01*
X79947Y-15643D01*
Y-15641D01*
Y-15630D01*
Y-15617D01*
X79945Y-15597D01*
X79943Y-15573D01*
X79941Y-15547D01*
X79939Y-15519D01*
X79932Y-15486D01*
X79919Y-15418D01*
X79899Y-15349D01*
X79886Y-15314D01*
X79871Y-15283D01*
X79851Y-15253D01*
X79832Y-15224D01*
X79830Y-15222D01*
X79827Y-15218D01*
X79821Y-15211D01*
X79812Y-15202D01*
X79801Y-15192D01*
X79786Y-15181D01*
X79753Y-15155D01*
X79714Y-15128D01*
X79668Y-15107D01*
X79642Y-15098D01*
X79614Y-15091D01*
X79585Y-15087D01*
X79557Y-15085D01*
D02*
G37*
G36*
X70355D02*
X70340D01*
X70329Y-15087D01*
X70316Y-15089D01*
X70299Y-15093D01*
X70262Y-15102D01*
X70218Y-15122D01*
X70196Y-15133D01*
X70172Y-15148D01*
X70148Y-15163D01*
X70124Y-15185D01*
X70100Y-15207D01*
X70076Y-15233D01*
X70074Y-15235D01*
X70072Y-15239D01*
X70065Y-15248D01*
X70057Y-15261D01*
X70048Y-15277D01*
X70039Y-15294D01*
X70028Y-15316D01*
X70017Y-15342D01*
X70004Y-15370D01*
X69993Y-15403D01*
X69985Y-15438D01*
X69976Y-15477D01*
X69967Y-15519D01*
X69961Y-15562D01*
X69959Y-15610D01*
X69956Y-15662D01*
Y-15665D01*
Y-15676D01*
Y-15689D01*
X69959Y-15708D01*
X69961Y-15732D01*
X69963Y-15758D01*
X69965Y-15789D01*
X69972Y-15819D01*
X69985Y-15887D01*
X70004Y-15957D01*
X70017Y-15989D01*
X70033Y-16022D01*
X70050Y-16053D01*
X70070Y-16079D01*
X70072Y-16081D01*
X70074Y-16085D01*
X70081Y-16092D01*
X70089Y-16098D01*
X70100Y-16109D01*
X70113Y-16120D01*
X70146Y-16144D01*
X70187Y-16170D01*
X70233Y-16190D01*
X70259Y-16199D01*
X70285Y-16205D01*
X70314Y-16210D01*
X70344Y-16212D01*
X70360D01*
X70373Y-16210D01*
X70386Y-16207D01*
X70403Y-16205D01*
X70442Y-16194D01*
X70486Y-16179D01*
X70510Y-16166D01*
X70534Y-16153D01*
X70558Y-16138D01*
X70582Y-16120D01*
X70606Y-16098D01*
X70628Y-16074D01*
X70630Y-16072D01*
X70632Y-16068D01*
X70639Y-16059D01*
X70645Y-16048D01*
X70656Y-16033D01*
X70665Y-16016D01*
X70676Y-15994D01*
X70687Y-15968D01*
X70698Y-15939D01*
X70709Y-15909D01*
X70719Y-15872D01*
X70728Y-15833D01*
X70735Y-15791D01*
X70741Y-15745D01*
X70743Y-15695D01*
X70745Y-15643D01*
Y-15641D01*
Y-15630D01*
Y-15617D01*
X70743Y-15597D01*
X70741Y-15573D01*
X70739Y-15547D01*
X70737Y-15519D01*
X70730Y-15486D01*
X70717Y-15418D01*
X70698Y-15349D01*
X70684Y-15314D01*
X70669Y-15283D01*
X70650Y-15253D01*
X70630Y-15224D01*
X70628Y-15222D01*
X70626Y-15218D01*
X70619Y-15211D01*
X70610Y-15202D01*
X70600Y-15192D01*
X70584Y-15181D01*
X70552Y-15155D01*
X70512Y-15128D01*
X70467Y-15107D01*
X70440Y-15098D01*
X70412Y-15091D01*
X70384Y-15087D01*
X70355Y-15085D01*
D02*
G37*
G36*
X77911Y-17740D02*
X77895D01*
X77882Y-17742D01*
X77869Y-17744D01*
X77852Y-17747D01*
X77812Y-17758D01*
X77769Y-17775D01*
X77747Y-17786D01*
X77723Y-17801D01*
X77701Y-17817D01*
X77679Y-17836D01*
X77658Y-17858D01*
X77638Y-17884D01*
X77636Y-17886D01*
X77634Y-17893D01*
X77627Y-17904D01*
X77618Y-17921D01*
X77610Y-17943D01*
X77599Y-17969D01*
X77586Y-18000D01*
X77575Y-18039D01*
X77564Y-18082D01*
X77551Y-18130D01*
X77540Y-18187D01*
X77531Y-18248D01*
X77522Y-18316D01*
X77518Y-18392D01*
X77514Y-18473D01*
X77512Y-18562D01*
Y-18564D01*
Y-18568D01*
Y-18575D01*
Y-18584D01*
Y-18595D01*
Y-18610D01*
X77514Y-18643D01*
X77516Y-18682D01*
X77518Y-18728D01*
X77520Y-18778D01*
X77527Y-18830D01*
X77540Y-18941D01*
X77549Y-18996D01*
X77560Y-19050D01*
X77573Y-19101D01*
X77590Y-19146D01*
X77608Y-19188D01*
X77627Y-19223D01*
X77629Y-19225D01*
X77631Y-19229D01*
X77638Y-19238D01*
X77649Y-19249D01*
X77660Y-19260D01*
X77673Y-19273D01*
X77706Y-19303D01*
X77747Y-19334D01*
X77797Y-19358D01*
X77823Y-19369D01*
X77852Y-19377D01*
X77882Y-19382D01*
X77913Y-19384D01*
X77919D01*
X77930Y-19382D01*
X77941D01*
X77956Y-19379D01*
X77974Y-19375D01*
X78013Y-19364D01*
X78035Y-19355D01*
X78057Y-19345D01*
X78080Y-19331D01*
X78105Y-19314D01*
X78128Y-19297D01*
X78153Y-19275D01*
X78176Y-19249D01*
X78198Y-19220D01*
X78200Y-19218D01*
X78203Y-19212D01*
X78209Y-19203D01*
X78216Y-19188D01*
X78227Y-19168D01*
X78235Y-19142D01*
X78246Y-19111D01*
X78257Y-19076D01*
X78268Y-19035D01*
X78279Y-18987D01*
X78290Y-18935D01*
X78298Y-18874D01*
X78305Y-18806D01*
X78312Y-18732D01*
X78314Y-18651D01*
X78316Y-18562D01*
Y-18560D01*
Y-18555D01*
Y-18549D01*
Y-18540D01*
Y-18529D01*
Y-18516D01*
X78314Y-18481D01*
X78312Y-18442D01*
X78309Y-18396D01*
X78307Y-18346D01*
X78301Y-18294D01*
X78288Y-18183D01*
X78277Y-18128D01*
X78266Y-18076D01*
X78253Y-18026D01*
X78237Y-17978D01*
X78220Y-17939D01*
X78198Y-17904D01*
X78196Y-17901D01*
X78194Y-17897D01*
X78187Y-17888D01*
X78179Y-17877D01*
X78166Y-17867D01*
X78153Y-17851D01*
X78137Y-17836D01*
X78120Y-17821D01*
X78078Y-17793D01*
X78028Y-17766D01*
X78002Y-17755D01*
X77972Y-17747D01*
X77943Y-17742D01*
X77911Y-17740D01*
D02*
G37*
%LPD*%
D13*
X23425Y-32776D02*
G03*
X23425Y-32776I-492J0D01*
G01*
X80413Y-20472D02*
G03*
X80413Y-20472I-492J0D01*
G01*
X91240Y-41240D02*
G03*
X91240Y-41240I-492J0D01*
G01*
X84252Y-10827D02*
G03*
X84252Y-10827I-492J0D01*
G01*
X50585Y-48172D02*
G03*
X50585Y-48172I-492J0D01*
G01*
D65*
X30807Y-14953D02*
G03*
X30807Y-14953I-197J0D01*
G01*
X12303Y-17658D02*
G03*
X12303Y-17658I-197J0D01*
G01*
D66*
X112165Y-27303D02*
G03*
X112165Y-27303I-39J0D01*
G01*
D67*
X25492Y-33760D02*
X29429D01*
X25492Y-45965D02*
X29429D01*
X25492D02*
Y-33760D01*
X29429Y-45965D02*
Y-33760D01*
X66024Y-6890D02*
Y-6496D01*
X64291Y-6890D02*
Y-6496D01*
X70256Y-6890D02*
Y-6496D01*
X68524Y-6890D02*
Y-6496D01*
X93583Y-17126D02*
Y-16732D01*
X91850Y-17126D02*
Y-16732D01*
X83465Y-21850D02*
X86221D01*
Y-23622D02*
Y-21850D01*
X83465Y-30512D02*
X86221D01*
Y-28740D01*
X89370Y-47539D02*
Y-44783D01*
X87598Y-47539D02*
X89370D01*
X80709D02*
Y-44783D01*
Y-47539D02*
X82480D01*
X47421Y-49409D02*
Y-49016D01*
X45689Y-49409D02*
Y-49016D01*
X74823Y-6890D02*
Y-6496D01*
X76555Y-6890D02*
Y-6496D01*
X129774Y-4877D02*
Y-4484D01*
X128041Y-4877D02*
Y-4484D01*
X101526Y-5808D02*
Y-5414D01*
X99793Y-5808D02*
Y-5414D01*
X30610Y-13378D02*
Y-12394D01*
Y-6095D02*
Y-5110D01*
X38878Y-13378D02*
Y-12394D01*
Y-6095D02*
Y-5110D01*
X85335Y-8465D02*
Y-4528D01*
X86909D01*
X93996Y-8465D02*
Y-4528D01*
X92421D02*
X93996D01*
X54921Y-4252D02*
X55315D01*
X54921Y-5984D02*
X55315D01*
X7874Y-17008D02*
X8268D01*
X7874Y-15276D02*
X8268D01*
X111713Y-15373D02*
X111811D01*
X111713D02*
Y-14192D01*
X116339Y-15373D02*
X116437D01*
Y-14192D01*
X39699Y-46583D02*
X39769Y-46514D01*
X38864Y-45748D02*
X39699Y-46583D01*
X42970Y-43312D02*
X43040Y-43242D01*
X42205Y-42407D02*
X43040Y-43242D01*
X24685Y-8858D02*
Y-8465D01*
X22953Y-8858D02*
Y-8465D01*
X133669Y-6901D02*
X134850D01*
X133669D02*
Y-6803D01*
Y-2176D02*
X134850D01*
X133669Y-2275D02*
Y-2176D01*
X105413Y-15354D02*
X105512D01*
X105413D02*
Y-14173D01*
X110039Y-15354D02*
X110138D01*
Y-14173D01*
X118210Y-15373D02*
X118308D01*
X118210D02*
Y-14192D01*
X122836Y-15373D02*
X122934D01*
Y-14192D01*
X49508Y-46585D02*
X50691Y-45402D01*
X48325D02*
X49508Y-46585D01*
X28907Y-25984D02*
X30090Y-27167D01*
X28907Y-25984D02*
X30090Y-24801D01*
X48325Y-6567D02*
X49508Y-5384D01*
X50691Y-6567D01*
X68925Y-27167D02*
X70109Y-25984D01*
X68925Y-24801D02*
X70109Y-25984D01*
X96555Y-31988D02*
X103248D01*
X96555Y-38091D02*
X103248D01*
X116437Y-46457D02*
X119587D01*
X116437Y-52362D02*
X119587D01*
X96555Y-29134D02*
X103248D01*
X96555Y-23031D02*
X103248D01*
X65828Y-36708D02*
X66106Y-36987D01*
X64603Y-37933D02*
X64881Y-38212D01*
X27087Y-8858D02*
Y-8465D01*
X28819Y-8858D02*
Y-8465D01*
X61791Y-6890D02*
Y-6496D01*
X60059Y-6890D02*
Y-6496D01*
X27048Y-24177D02*
X27326Y-23898D01*
X25823Y-22952D02*
X26101Y-22673D01*
M02*
