G04 Layer_Physical_Order=1*
G04 Layer_Color=255*
%FSLAX25Y25*%
%MOIN*%
G70*
G01*
G75*
%ADD10C,0.01969*%
%ADD11C,0.01575*%
%ADD12C,0.00598*%
%ADD13C,0.00984*%
%ADD14C,0.01575*%
G04:AMPARAMS|DCode=15|XSize=23.62mil|YSize=47.24mil|CornerRadius=5.91mil|HoleSize=0mil|Usage=FLASHONLY|Rotation=90.000|XOffset=0mil|YOffset=0mil|HoleType=Round|Shape=RoundedRectangle|*
%AMROUNDEDRECTD15*
21,1,0.02362,0.03543,0,0,90.0*
21,1,0.01181,0.04724,0,0,90.0*
1,1,0.01181,0.01772,0.00591*
1,1,0.01181,0.01772,-0.00591*
1,1,0.01181,-0.01772,-0.00591*
1,1,0.01181,-0.01772,0.00591*
%
%ADD15ROUNDEDRECTD15*%
%ADD16R,0.02520X0.01772*%
G04:AMPARAMS|DCode=17|XSize=21.65mil|YSize=23.62mil|CornerRadius=5.41mil|HoleSize=0mil|Usage=FLASHONLY|Rotation=0.000|XOffset=0mil|YOffset=0mil|HoleType=Round|Shape=RoundedRectangle|*
%AMROUNDEDRECTD17*
21,1,0.02165,0.01280,0,0,0.0*
21,1,0.01083,0.02362,0,0,0.0*
1,1,0.01083,0.00541,-0.00640*
1,1,0.01083,-0.00541,-0.00640*
1,1,0.01083,-0.00541,0.00640*
1,1,0.01083,0.00541,0.00640*
%
%ADD17ROUNDEDRECTD17*%
G04:AMPARAMS|DCode=18|XSize=25.2mil|YSize=17.72mil|CornerRadius=4.43mil|HoleSize=0mil|Usage=FLASHONLY|Rotation=0.000|XOffset=0mil|YOffset=0mil|HoleType=Round|Shape=RoundedRectangle|*
%AMROUNDEDRECTD18*
21,1,0.02520,0.00886,0,0,0.0*
21,1,0.01634,0.01772,0,0,0.0*
1,1,0.00886,0.00817,-0.00443*
1,1,0.00886,-0.00817,-0.00443*
1,1,0.00886,-0.00817,0.00443*
1,1,0.00886,0.00817,0.00443*
%
%ADD18ROUNDEDRECTD18*%
G04:AMPARAMS|DCode=19|XSize=21.65mil|YSize=23.62mil|CornerRadius=5.41mil|HoleSize=0mil|Usage=FLASHONLY|Rotation=90.000|XOffset=0mil|YOffset=0mil|HoleType=Round|Shape=RoundedRectangle|*
%AMROUNDEDRECTD19*
21,1,0.02165,0.01280,0,0,90.0*
21,1,0.01083,0.02362,0,0,90.0*
1,1,0.01083,0.00640,0.00541*
1,1,0.01083,0.00640,-0.00541*
1,1,0.01083,-0.00640,-0.00541*
1,1,0.01083,-0.00640,0.00541*
%
%ADD19ROUNDEDRECTD19*%
G04:AMPARAMS|DCode=20|XSize=19.69mil|YSize=35.43mil|CornerRadius=4.92mil|HoleSize=0mil|Usage=FLASHONLY|Rotation=90.000|XOffset=0mil|YOffset=0mil|HoleType=Round|Shape=RoundedRectangle|*
%AMROUNDEDRECTD20*
21,1,0.01969,0.02559,0,0,90.0*
21,1,0.00984,0.03543,0,0,90.0*
1,1,0.00984,0.01280,0.00492*
1,1,0.00984,0.01280,-0.00492*
1,1,0.00984,-0.01280,-0.00492*
1,1,0.00984,-0.01280,0.00492*
%
%ADD20ROUNDEDRECTD20*%
G04:AMPARAMS|DCode=21|XSize=19.69mil|YSize=35.43mil|CornerRadius=4.92mil|HoleSize=0mil|Usage=FLASHONLY|Rotation=0.000|XOffset=0mil|YOffset=0mil|HoleType=Round|Shape=RoundedRectangle|*
%AMROUNDEDRECTD21*
21,1,0.01969,0.02559,0,0,0.0*
21,1,0.00984,0.03543,0,0,0.0*
1,1,0.00984,0.00492,-0.01280*
1,1,0.00984,-0.00492,-0.01280*
1,1,0.00984,-0.00492,0.01280*
1,1,0.00984,0.00492,0.01280*
%
%ADD21ROUNDEDRECTD21*%
G04:AMPARAMS|DCode=22|XSize=51.18mil|YSize=27.56mil|CornerRadius=6.89mil|HoleSize=0mil|Usage=FLASHONLY|Rotation=0.000|XOffset=0mil|YOffset=0mil|HoleType=Round|Shape=RoundedRectangle|*
%AMROUNDEDRECTD22*
21,1,0.05118,0.01378,0,0,0.0*
21,1,0.03740,0.02756,0,0,0.0*
1,1,0.01378,0.01870,-0.00689*
1,1,0.01378,-0.01870,-0.00689*
1,1,0.01378,-0.01870,0.00689*
1,1,0.01378,0.01870,0.00689*
%
%ADD22ROUNDEDRECTD22*%
G04:AMPARAMS|DCode=23|XSize=11.81mil|YSize=27.56mil|CornerRadius=2.95mil|HoleSize=0mil|Usage=FLASHONLY|Rotation=180.000|XOffset=0mil|YOffset=0mil|HoleType=Round|Shape=RoundedRectangle|*
%AMROUNDEDRECTD23*
21,1,0.01181,0.02165,0,0,180.0*
21,1,0.00591,0.02756,0,0,180.0*
1,1,0.00591,-0.00295,0.01083*
1,1,0.00591,0.00295,0.01083*
1,1,0.00591,0.00295,-0.01083*
1,1,0.00591,-0.00295,-0.01083*
%
%ADD23ROUNDEDRECTD23*%
%ADD24R,0.06299X0.03937*%
G04:AMPARAMS|DCode=25|XSize=29.53mil|YSize=57.09mil|CornerRadius=7.38mil|HoleSize=0mil|Usage=FLASHONLY|Rotation=225.000|XOffset=0mil|YOffset=0mil|HoleType=Round|Shape=RoundedRectangle|*
%AMROUNDEDRECTD25*
21,1,0.02953,0.04232,0,0,225.0*
21,1,0.01476,0.05709,0,0,225.0*
1,1,0.01476,-0.02018,0.00974*
1,1,0.01476,-0.00974,0.02018*
1,1,0.01476,0.02018,-0.00974*
1,1,0.01476,0.00974,-0.02018*
%
%ADD25ROUNDEDRECTD25*%
G04:AMPARAMS|DCode=26|XSize=11.81mil|YSize=29.53mil|CornerRadius=2.95mil|HoleSize=0mil|Usage=FLASHONLY|Rotation=0.000|XOffset=0mil|YOffset=0mil|HoleType=Round|Shape=RoundedRectangle|*
%AMROUNDEDRECTD26*
21,1,0.01181,0.02362,0,0,0.0*
21,1,0.00591,0.02953,0,0,0.0*
1,1,0.00591,0.00295,-0.01181*
1,1,0.00591,-0.00295,-0.01181*
1,1,0.00591,-0.00295,0.01181*
1,1,0.00591,0.00295,0.01181*
%
%ADD26ROUNDEDRECTD26*%
%ADD27R,0.05709X0.06890*%
G04:AMPARAMS|DCode=28|XSize=23.62mil|YSize=27.56mil|CornerRadius=5.91mil|HoleSize=0mil|Usage=FLASHONLY|Rotation=180.000|XOffset=0mil|YOffset=0mil|HoleType=Round|Shape=RoundedRectangle|*
%AMROUNDEDRECTD28*
21,1,0.02362,0.01575,0,0,180.0*
21,1,0.01181,0.02756,0,0,180.0*
1,1,0.01181,-0.00591,0.00787*
1,1,0.01181,0.00591,0.00787*
1,1,0.01181,0.00591,-0.00787*
1,1,0.01181,-0.00591,-0.00787*
%
%ADD28ROUNDEDRECTD28*%
G04:AMPARAMS|DCode=29|XSize=35.43mil|YSize=31.5mil|CornerRadius=7.87mil|HoleSize=0mil|Usage=FLASHONLY|Rotation=0.000|XOffset=0mil|YOffset=0mil|HoleType=Round|Shape=RoundedRectangle|*
%AMROUNDEDRECTD29*
21,1,0.03543,0.01575,0,0,0.0*
21,1,0.01969,0.03150,0,0,0.0*
1,1,0.01575,0.00984,-0.00787*
1,1,0.01575,-0.00984,-0.00787*
1,1,0.01575,-0.00984,0.00787*
1,1,0.01575,0.00984,0.00787*
%
%ADD29ROUNDEDRECTD29*%
G04:AMPARAMS|DCode=30|XSize=25.2mil|YSize=17.72mil|CornerRadius=4.43mil|HoleSize=0mil|Usage=FLASHONLY|Rotation=90.000|XOffset=0mil|YOffset=0mil|HoleType=Round|Shape=RoundedRectangle|*
%AMROUNDEDRECTD30*
21,1,0.02520,0.00886,0,0,90.0*
21,1,0.01634,0.01772,0,0,90.0*
1,1,0.00886,0.00443,0.00817*
1,1,0.00886,0.00443,-0.00817*
1,1,0.00886,-0.00443,-0.00817*
1,1,0.00886,-0.00443,0.00817*
%
%ADD30ROUNDEDRECTD30*%
G04:AMPARAMS|DCode=31|XSize=13.78mil|YSize=21.65mil|CornerRadius=3.45mil|HoleSize=0mil|Usage=FLASHONLY|Rotation=0.000|XOffset=0mil|YOffset=0mil|HoleType=Round|Shape=RoundedRectangle|*
%AMROUNDEDRECTD31*
21,1,0.01378,0.01476,0,0,0.0*
21,1,0.00689,0.02165,0,0,0.0*
1,1,0.00689,0.00345,-0.00738*
1,1,0.00689,-0.00345,-0.00738*
1,1,0.00689,-0.00345,0.00738*
1,1,0.00689,0.00345,0.00738*
%
%ADD31ROUNDEDRECTD31*%
G04:AMPARAMS|DCode=32|XSize=13.78mil|YSize=21.65mil|CornerRadius=3.45mil|HoleSize=0mil|Usage=FLASHONLY|Rotation=45.000|XOffset=0mil|YOffset=0mil|HoleType=Round|Shape=RoundedRectangle|*
%AMROUNDEDRECTD32*
21,1,0.01378,0.01476,0,0,45.0*
21,1,0.00689,0.02165,0,0,45.0*
1,1,0.00689,0.00766,-0.00278*
1,1,0.00689,0.00278,-0.00766*
1,1,0.00689,-0.00766,0.00278*
1,1,0.00689,-0.00278,0.00766*
%
%ADD32ROUNDEDRECTD32*%
G04:AMPARAMS|DCode=33|XSize=13.78mil|YSize=21.65mil|CornerRadius=3.45mil|HoleSize=0mil|Usage=FLASHONLY|Rotation=270.000|XOffset=0mil|YOffset=0mil|HoleType=Round|Shape=RoundedRectangle|*
%AMROUNDEDRECTD33*
21,1,0.01378,0.01476,0,0,270.0*
21,1,0.00689,0.02165,0,0,270.0*
1,1,0.00689,-0.00738,-0.00345*
1,1,0.00689,-0.00738,0.00345*
1,1,0.00689,0.00738,0.00345*
1,1,0.00689,0.00738,-0.00345*
%
%ADD33ROUNDEDRECTD33*%
%ADD34P,0.15033X4X270.0*%
%ADD35P,0.15033X4X360.0*%
G04:AMPARAMS|DCode=36|XSize=9.84mil|YSize=29.53mil|CornerRadius=0mil|HoleSize=0mil|Usage=FLASHONLY|Rotation=225.000|XOffset=0mil|YOffset=0mil|HoleType=Round|Shape=Round|*
%AMOVALD36*
21,1,0.01969,0.00984,0.00000,0.00000,315.0*
1,1,0.00984,-0.00696,0.00696*
1,1,0.00984,0.00696,-0.00696*
%
%ADD36OVALD36*%

G04:AMPARAMS|DCode=37|XSize=9.84mil|YSize=29.53mil|CornerRadius=0mil|HoleSize=0mil|Usage=FLASHONLY|Rotation=135.000|XOffset=0mil|YOffset=0mil|HoleType=Round|Shape=Round|*
%AMOVALD37*
21,1,0.01969,0.00984,0.00000,0.00000,225.0*
1,1,0.00984,0.00696,0.00696*
1,1,0.00984,-0.00696,-0.00696*
%
%ADD37OVALD37*%

G04:AMPARAMS|DCode=38|XSize=68.9mil|YSize=31.5mil|CornerRadius=7.87mil|HoleSize=0mil|Usage=FLASHONLY|Rotation=90.000|XOffset=0mil|YOffset=0mil|HoleType=Round|Shape=RoundedRectangle|*
%AMROUNDEDRECTD38*
21,1,0.06890,0.01575,0,0,90.0*
21,1,0.05315,0.03150,0,0,90.0*
1,1,0.01575,0.00787,0.02658*
1,1,0.01575,0.00787,-0.02658*
1,1,0.01575,-0.00787,-0.02658*
1,1,0.01575,-0.00787,0.02658*
%
%ADD38ROUNDEDRECTD38*%
G04:AMPARAMS|DCode=39|XSize=66.93mil|YSize=43.31mil|CornerRadius=10.83mil|HoleSize=0mil|Usage=FLASHONLY|Rotation=270.000|XOffset=0mil|YOffset=0mil|HoleType=Round|Shape=RoundedRectangle|*
%AMROUNDEDRECTD39*
21,1,0.06693,0.02165,0,0,270.0*
21,1,0.04528,0.04331,0,0,270.0*
1,1,0.02165,-0.01083,-0.02264*
1,1,0.02165,-0.01083,0.02264*
1,1,0.02165,0.01083,0.02264*
1,1,0.02165,0.01083,-0.02264*
%
%ADD39ROUNDEDRECTD39*%
G04:AMPARAMS|DCode=40|XSize=78.74mil|YSize=55.12mil|CornerRadius=13.78mil|HoleSize=0mil|Usage=FLASHONLY|Rotation=90.000|XOffset=0mil|YOffset=0mil|HoleType=Round|Shape=RoundedRectangle|*
%AMROUNDEDRECTD40*
21,1,0.07874,0.02756,0,0,90.0*
21,1,0.05118,0.05512,0,0,90.0*
1,1,0.02756,0.01378,0.02559*
1,1,0.02756,0.01378,-0.02559*
1,1,0.02756,-0.01378,-0.02559*
1,1,0.02756,-0.01378,0.02559*
%
%ADD40ROUNDEDRECTD40*%
G04:AMPARAMS|DCode=41|XSize=25.2mil|YSize=17.72mil|CornerRadius=4.43mil|HoleSize=0mil|Usage=FLASHONLY|Rotation=225.000|XOffset=0mil|YOffset=0mil|HoleType=Round|Shape=RoundedRectangle|*
%AMROUNDEDRECTD41*
21,1,0.02520,0.00886,0,0,225.0*
21,1,0.01634,0.01772,0,0,225.0*
1,1,0.00886,-0.00891,-0.00265*
1,1,0.00886,0.00265,0.00891*
1,1,0.00886,0.00891,0.00265*
1,1,0.00886,-0.00265,-0.00891*
%
%ADD41ROUNDEDRECTD41*%
G04:AMPARAMS|DCode=42|XSize=15.75mil|YSize=74.8mil|CornerRadius=3.94mil|HoleSize=0mil|Usage=FLASHONLY|Rotation=225.000|XOffset=0mil|YOffset=0mil|HoleType=Round|Shape=RoundedRectangle|*
%AMROUNDEDRECTD42*
21,1,0.01575,0.06693,0,0,225.0*
21,1,0.00787,0.07480,0,0,225.0*
1,1,0.00787,-0.02645,0.02088*
1,1,0.00787,-0.02088,0.02645*
1,1,0.00787,0.02645,-0.02088*
1,1,0.00787,0.02088,-0.02645*
%
%ADD42ROUNDEDRECTD42*%
G04:AMPARAMS|DCode=43|XSize=39.37mil|YSize=21.65mil|CornerRadius=5.41mil|HoleSize=0mil|Usage=FLASHONLY|Rotation=270.000|XOffset=0mil|YOffset=0mil|HoleType=Round|Shape=RoundedRectangle|*
%AMROUNDEDRECTD43*
21,1,0.03937,0.01083,0,0,270.0*
21,1,0.02854,0.02165,0,0,270.0*
1,1,0.01083,-0.00541,-0.01427*
1,1,0.01083,-0.00541,0.01427*
1,1,0.01083,0.00541,0.01427*
1,1,0.01083,0.00541,-0.01427*
%
%ADD43ROUNDEDRECTD43*%
G04:AMPARAMS|DCode=44|XSize=35.43mil|YSize=35.43mil|CornerRadius=8.86mil|HoleSize=0mil|Usage=FLASHONLY|Rotation=0.000|XOffset=0mil|YOffset=0mil|HoleType=Round|Shape=RoundedRectangle|*
%AMROUNDEDRECTD44*
21,1,0.03543,0.01772,0,0,0.0*
21,1,0.01772,0.03543,0,0,0.0*
1,1,0.01772,0.00886,-0.00886*
1,1,0.01772,-0.00886,-0.00886*
1,1,0.01772,-0.00886,0.00886*
1,1,0.01772,0.00886,0.00886*
%
%ADD44ROUNDEDRECTD44*%
G04:AMPARAMS|DCode=45|XSize=35.43mil|YSize=43.31mil|CornerRadius=8.86mil|HoleSize=0mil|Usage=FLASHONLY|Rotation=0.000|XOffset=0mil|YOffset=0mil|HoleType=Round|Shape=RoundedRectangle|*
%AMROUNDEDRECTD45*
21,1,0.03543,0.02559,0,0,0.0*
21,1,0.01772,0.04331,0,0,0.0*
1,1,0.01772,0.00886,-0.01280*
1,1,0.01772,-0.00886,-0.01280*
1,1,0.01772,-0.00886,0.01280*
1,1,0.01772,0.00886,0.01280*
%
%ADD45ROUNDEDRECTD45*%
G04:AMPARAMS|DCode=46|XSize=25.2mil|YSize=17.72mil|CornerRadius=4.43mil|HoleSize=0mil|Usage=FLASHONLY|Rotation=135.000|XOffset=0mil|YOffset=0mil|HoleType=Round|Shape=RoundedRectangle|*
%AMROUNDEDRECTD46*
21,1,0.02520,0.00886,0,0,135.0*
21,1,0.01634,0.01772,0,0,135.0*
1,1,0.00886,-0.00265,0.00891*
1,1,0.00886,0.00891,-0.00265*
1,1,0.00886,0.00265,-0.00891*
1,1,0.00886,-0.00891,0.00265*
%
%ADD46ROUNDEDRECTD46*%
%ADD47R,0.07480X0.07480*%
%ADD48R,0.05512X0.06299*%
%ADD49R,0.05512X0.01575*%
%ADD50R,0.04882X0.16693*%
%ADD51R,0.04882X0.16732*%
G04:AMPARAMS|DCode=52|XSize=31.5mil|YSize=31.5mil|CornerRadius=7.87mil|HoleSize=0mil|Usage=FLASHONLY|Rotation=0.000|XOffset=0mil|YOffset=0mil|HoleType=Round|Shape=RoundedRectangle|*
%AMROUNDEDRECTD52*
21,1,0.03150,0.01575,0,0,0.0*
21,1,0.01575,0.03150,0,0,0.0*
1,1,0.01575,0.00787,-0.00787*
1,1,0.01575,-0.00787,-0.00787*
1,1,0.01575,-0.00787,0.00787*
1,1,0.01575,0.00787,0.00787*
%
%ADD52ROUNDEDRECTD52*%
%ADD53C,0.03150*%
G04:AMPARAMS|DCode=54|XSize=31.5mil|YSize=31.5mil|CornerRadius=7.87mil|HoleSize=0mil|Usage=FLASHONLY|Rotation=90.000|XOffset=0mil|YOffset=0mil|HoleType=Round|Shape=RoundedRectangle|*
%AMROUNDEDRECTD54*
21,1,0.03150,0.01575,0,0,90.0*
21,1,0.01575,0.03150,0,0,90.0*
1,1,0.01575,0.00787,0.00787*
1,1,0.01575,0.00787,-0.00787*
1,1,0.01575,-0.00787,-0.00787*
1,1,0.01575,-0.00787,0.00787*
%
%ADD54ROUNDEDRECTD54*%
%ADD55C,0.03937*%
G04:AMPARAMS|DCode=56|XSize=62.99mil|YSize=62.99mil|CornerRadius=15.75mil|HoleSize=0mil|Usage=FLASHONLY|Rotation=0.000|XOffset=0mil|YOffset=0mil|HoleType=Round|Shape=RoundedRectangle|*
%AMROUNDEDRECTD56*
21,1,0.06299,0.03150,0,0,0.0*
21,1,0.03150,0.06299,0,0,0.0*
1,1,0.03150,0.01575,-0.01575*
1,1,0.03150,-0.01575,-0.01575*
1,1,0.03150,-0.01575,0.01575*
1,1,0.03150,0.01575,0.01575*
%
%ADD56ROUNDEDRECTD56*%
%ADD57C,0.02756*%
%ADD58C,0.02441*%
%ADD59C,0.01969*%
G36*
X21010Y-20722D02*
X21531Y-21070D01*
X22146Y-21192D01*
X23720D01*
X23905Y-21156D01*
X24292Y-21473D01*
Y-22884D01*
X23976Y-23095D01*
X23349Y-23721D01*
X23077Y-24128D01*
X22982Y-24608D01*
X23077Y-25088D01*
X23349Y-25495D01*
X24505Y-26651D01*
X24912Y-26923D01*
X25365Y-27013D01*
X25495Y-27143D01*
X25451Y-27363D01*
X25619Y-28208D01*
X26098Y-28925D01*
X26423Y-29142D01*
X26520Y-29632D01*
X26220Y-30082D01*
X26037Y-31004D01*
X26220Y-31926D01*
X26410Y-32211D01*
X26175Y-32652D01*
X25057D01*
X24739Y-32265D01*
X24756Y-32185D01*
Y-31898D01*
X22146D01*
Y-31398D01*
X21646D01*
Y-28788D01*
X21358D01*
X20661Y-28927D01*
X20070Y-29322D01*
X19578Y-29158D01*
X19375Y-28854D01*
X19209Y-28743D01*
Y-25598D01*
X15453D01*
Y-24598D01*
X19209D01*
Y-20983D01*
X20134D01*
X20633Y-20884D01*
X20906Y-20701D01*
X21010Y-20722D01*
D02*
G37*
G36*
X1193Y-11220D02*
Y-11220D01*
X3900D01*
X4217Y-11607D01*
X4186Y-11762D01*
Y-11803D01*
X6398D01*
Y-12803D01*
X4186D01*
Y-12844D01*
X4306Y-13446D01*
X4647Y-13956D01*
X4447Y-14424D01*
X4222Y-14762D01*
X4109Y-15325D01*
Y-15642D01*
X6024D01*
Y-16142D01*
X6524D01*
Y-18418D01*
X7029Y-18318D01*
X7507Y-17999D01*
X7826Y-17522D01*
X7938Y-16959D01*
X8421D01*
X8516Y-17439D01*
X8788Y-17846D01*
X9195Y-18118D01*
X9424Y-18163D01*
Y-20821D01*
X8924Y-21068D01*
X8680Y-20881D01*
X8054Y-20621D01*
X7382Y-20533D01*
X6307D01*
Y-24705D01*
X5807D01*
Y-25205D01*
X1635D01*
Y-26280D01*
X1724Y-26952D01*
X1978Y-27565D01*
X1975Y-27596D01*
X1748Y-28062D01*
X1400Y-28103D01*
X1035Y-27746D01*
X1133Y-11220D01*
X1193Y-11220D01*
D02*
G37*
G36*
X46729Y-41997D02*
X45028Y-43698D01*
X45098Y-43745D01*
X45680Y-43861D01*
X45789Y-43839D01*
X45867Y-44231D01*
X46150Y-44654D01*
X46177Y-45229D01*
X45951Y-45468D01*
X45738D01*
X45258Y-45564D01*
X44851Y-45835D01*
X44579Y-46242D01*
X44484Y-46722D01*
Y-47608D01*
X44579Y-48088D01*
X44851Y-48495D01*
X45258Y-48767D01*
X45738Y-48863D01*
Y-49346D01*
X45175Y-49458D01*
X44698Y-49777D01*
X44392Y-50235D01*
X44346Y-50242D01*
X43872Y-50118D01*
X43827Y-49773D01*
X43549Y-49102D01*
X43107Y-48527D01*
X43034Y-48471D01*
Y-47038D01*
X43508Y-46564D01*
X43758Y-46189D01*
X43846Y-45748D01*
X43758Y-45306D01*
X43508Y-44932D01*
X43017Y-44441D01*
X43043Y-43760D01*
X43816Y-42986D01*
X44237Y-43075D01*
X46022Y-41290D01*
X46729Y-41997D01*
D02*
G37*
G36*
X37798Y-36302D02*
X38221Y-36585D01*
X38720Y-36684D01*
X38808Y-36772D01*
X38907Y-37271D01*
X39190Y-37694D01*
X39613Y-37977D01*
X40005Y-38055D01*
X39983Y-38164D01*
X40099Y-38746D01*
X40109Y-38762D01*
X39988Y-38968D01*
X39779Y-39167D01*
X39421Y-39096D01*
X38979Y-39184D01*
X38605Y-39434D01*
X38118Y-39921D01*
X37867Y-40295D01*
X37780Y-40737D01*
X37349Y-41137D01*
X37194Y-41106D01*
X36669Y-41210D01*
X36356Y-41419D01*
X37826Y-42889D01*
X37119Y-43596D01*
X35624Y-42101D01*
X35065D01*
X34944Y-41920D01*
X34753Y-41446D01*
X35058Y-40990D01*
X35165Y-40453D01*
Y-39272D01*
X35058Y-38734D01*
X34753Y-38278D01*
X34699Y-38242D01*
Y-37742D01*
X34753Y-37706D01*
X35024Y-37301D01*
X35334Y-36907D01*
X36025Y-37044D01*
X36717Y-36907D01*
X37303Y-36515D01*
X37445Y-36302D01*
X37798D01*
D02*
G37*
G36*
X93217Y-20890D02*
X93533D01*
X94096Y-20778D01*
X94574Y-20460D01*
X94768Y-20169D01*
X94914Y-19984D01*
X95393Y-20031D01*
X95495Y-20100D01*
X96014Y-20203D01*
X97097D01*
X97615Y-20100D01*
X98054Y-19806D01*
X98312Y-19421D01*
X99538D01*
X99750Y-19738D01*
X100271Y-20086D01*
X100886Y-20208D01*
X101822D01*
X101870Y-20218D01*
X108413D01*
X108551Y-20405D01*
X108352Y-20777D01*
X108269Y-20866D01*
X108041Y-20866D01*
X108040Y-20866D01*
X108040Y-20866D01*
X107540Y-20866D01*
X98290Y-20866D01*
X97760Y-20866D01*
X96722Y-21073D01*
X95743Y-21478D01*
X95107Y-21903D01*
X94685Y-21820D01*
X93110D01*
X92496Y-21942D01*
X91975Y-22290D01*
X91627Y-22811D01*
X91505Y-23425D01*
Y-26909D01*
X88980Y-29433D01*
X88740Y-29792D01*
X88656Y-30217D01*
Y-31366D01*
X88606Y-31376D01*
X88166Y-31670D01*
X88015D01*
X87576Y-31376D01*
X87057Y-31273D01*
X85778D01*
X85259Y-31376D01*
X84820Y-31670D01*
X84799Y-31701D01*
X84302D01*
X83893Y-31328D01*
Y-29889D01*
X83893Y-29888D01*
Y-27592D01*
X83809Y-27168D01*
X84010Y-26656D01*
X84465Y-26883D01*
X84523Y-27172D01*
X84806Y-27596D01*
X85229Y-27878D01*
X85728Y-27978D01*
X88287D01*
X88787Y-27878D01*
X89210Y-27596D01*
X89493Y-27172D01*
X89592Y-26673D01*
Y-25689D01*
X89493Y-25190D01*
X89210Y-24767D01*
X88787Y-24484D01*
X88287Y-24384D01*
X88116D01*
Y-20833D01*
X88352Y-20597D01*
X89321D01*
X89839Y-20494D01*
X90279Y-20200D01*
X90783Y-20345D01*
X90859Y-20460D01*
X91337Y-20778D01*
X91900Y-20890D01*
X92216D01*
Y-18976D01*
X93217D01*
Y-20890D01*
D02*
G37*
G36*
X135926Y-9821D02*
X135784Y-10531D01*
Y-15650D01*
X135952Y-16494D01*
X136175Y-16828D01*
X135844Y-17232D01*
X135541Y-17106D01*
X134744Y-17001D01*
X133948Y-17106D01*
X133205Y-17414D01*
X132568Y-17903D01*
X132079Y-18540D01*
X131772Y-19282D01*
X131667Y-20079D01*
X131772Y-20875D01*
X132079Y-21618D01*
X132568Y-22255D01*
X133205Y-22744D01*
X133948Y-23052D01*
X134744Y-23156D01*
X135541Y-23052D01*
X136059Y-22837D01*
X136559Y-23121D01*
Y-31997D01*
X136059Y-32282D01*
X135541Y-32067D01*
X134744Y-31962D01*
X133948Y-32067D01*
X133205Y-32374D01*
X132568Y-32863D01*
X132079Y-33501D01*
X131772Y-34243D01*
X131667Y-35039D01*
X131772Y-35836D01*
X132079Y-36578D01*
X132568Y-37216D01*
X133205Y-37705D01*
X133948Y-38012D01*
X134744Y-38117D01*
X135541Y-38012D01*
X136091Y-37784D01*
X136500Y-37863D01*
X136704Y-38012D01*
X136795Y-38146D01*
X137055Y-38320D01*
X137362Y-38382D01*
X142244D01*
X142323Y-38446D01*
Y-43173D01*
X131398Y-43255D01*
Y-53780D01*
X130955Y-53918D01*
X125699D01*
X125548Y-53418D01*
X125911Y-53175D01*
X126371Y-52486D01*
X126533Y-51673D01*
Y-49910D01*
X123327D01*
X120121D01*
Y-51673D01*
X120282Y-52486D01*
X120743Y-53175D01*
X121106Y-53418D01*
X120954Y-53918D01*
X116683D01*
Y-44636D01*
X115847Y-35910D01*
X113707Y-33955D01*
Y-31742D01*
X113604Y-31224D01*
X113522Y-31101D01*
X113557Y-30748D01*
X114036Y-29170D01*
X114814Y-27715D01*
X115814Y-26495D01*
X115875Y-26454D01*
X118190Y-24140D01*
X119242D01*
X119761Y-24037D01*
X120200Y-23743D01*
X120494Y-23304D01*
X120597Y-22785D01*
Y-21579D01*
X120837Y-21286D01*
X121576Y-19903D01*
X122032Y-18402D01*
X122185Y-16841D01*
X122178D01*
Y-16160D01*
X122071Y-15622D01*
Y-15422D01*
X121983Y-14980D01*
X121732Y-14606D01*
X121358Y-14356D01*
X120916Y-14268D01*
X120228D01*
X119786Y-14356D01*
X119412Y-14606D01*
X119161Y-14980D01*
X119073Y-15422D01*
Y-15622D01*
X118966Y-16160D01*
Y-16841D01*
X118980Y-16907D01*
X118825Y-18084D01*
X118621Y-18576D01*
X118159D01*
X117641Y-18679D01*
X117324Y-18891D01*
X116450Y-18018D01*
X116441Y-18012D01*
X116030Y-17475D01*
X115838Y-17013D01*
X115729Y-16547D01*
X115681Y-16160D01*
X115573Y-15622D01*
Y-15422D01*
X115486Y-14980D01*
X115235Y-14606D01*
X114861Y-14356D01*
X114419Y-14268D01*
X113730D01*
X113289Y-14356D01*
X113019Y-14536D01*
X108859D01*
X108562Y-14337D01*
X108120Y-14250D01*
X107431D01*
X106989Y-14337D01*
X106615Y-14588D01*
X106470Y-14805D01*
X105226D01*
X104647Y-14225D01*
X104369Y-14040D01*
X104538Y-13788D01*
X104592Y-13515D01*
X105145Y-13297D01*
X105332Y-13422D01*
X105701Y-13495D01*
Y-11417D01*
X106701D01*
Y-13495D01*
X107070Y-13422D01*
X107515Y-13125D01*
X107603Y-12993D01*
X108184Y-12972D01*
X108210Y-12985D01*
X108564Y-13222D01*
X109006Y-13310D01*
X109695D01*
X110136Y-13222D01*
X110483Y-12990D01*
X110523Y-12972D01*
X111092Y-13002D01*
X111186Y-13144D01*
X111631Y-13441D01*
X112000Y-13514D01*
Y-11436D01*
X113000D01*
Y-13514D01*
X113369Y-13441D01*
X113814Y-13144D01*
X113902Y-13012D01*
X114484Y-12990D01*
X114509Y-13003D01*
X114864Y-13240D01*
X115305Y-13328D01*
X115994D01*
X116436Y-13240D01*
X116810Y-12990D01*
X116918Y-12829D01*
X116997Y-12807D01*
X117485Y-12847D01*
X117683Y-13144D01*
X118128Y-13441D01*
X118497Y-13514D01*
Y-11436D01*
X119497D01*
Y-13514D01*
X119866Y-13441D01*
X120311Y-13144D01*
X120399Y-13012D01*
X120981Y-12990D01*
X121006Y-13003D01*
X121361Y-13240D01*
X121802Y-13328D01*
X122491D01*
X122933Y-13240D01*
X123307Y-12990D01*
X123557Y-12616D01*
X123645Y-12174D01*
Y-10698D01*
X123557Y-10256D01*
X123307Y-9882D01*
X123255Y-9847D01*
Y-9279D01*
X123327D01*
X123845Y-9175D01*
X124153Y-8969D01*
X124417Y-9036D01*
X124603Y-9585D01*
X124535Y-9687D01*
X124367Y-10531D01*
Y-15650D01*
X124535Y-16494D01*
X125014Y-17211D01*
X125730Y-17689D01*
X126575Y-17857D01*
X129331D01*
X130176Y-17689D01*
X130892Y-17211D01*
X131370Y-16494D01*
X131538Y-15650D01*
Y-10531D01*
X131475Y-10213D01*
X131896Y-9787D01*
X132741Y-9619D01*
X133457Y-9140D01*
X133890Y-8493D01*
X134417Y-8313D01*
X135926Y-9821D01*
D02*
G37*
G36*
X83571Y-11660D02*
X83711D01*
X84312Y-11541D01*
X84611Y-11341D01*
X85111Y-11599D01*
Y-11614D01*
X85218Y-12152D01*
X85522Y-12608D01*
X85978Y-12912D01*
X86516Y-13019D01*
X86725D01*
X86983Y-13507D01*
X86833Y-13824D01*
X86663Y-13882D01*
X86367Y-13914D01*
X86308Y-13899D01*
X86051Y-13728D01*
X85627Y-13643D01*
X84550D01*
X84546Y-13643D01*
X80913D01*
X80489Y-13727D01*
X80129Y-13967D01*
X79148Y-14949D01*
X75476D01*
X75324Y-14449D01*
X75592Y-14270D01*
X75984Y-13684D01*
X76121Y-12993D01*
X75984Y-12302D01*
X75592Y-11716D01*
X75250Y-11487D01*
X74852Y-11183D01*
X74989Y-10492D01*
X75034Y-10437D01*
X76506D01*
X76955Y-10348D01*
X77127Y-10458D01*
X77388Y-10674D01*
X77385Y-10755D01*
X77075Y-11219D01*
X76938Y-11910D01*
X77075Y-12601D01*
X77467Y-13187D01*
X78053Y-13579D01*
X78744Y-13716D01*
X79435Y-13579D01*
X80021Y-13187D01*
X80413Y-12601D01*
X80550Y-11910D01*
X80454Y-11426D01*
X80883Y-11340D01*
X81250Y-11095D01*
X81320Y-11200D01*
X81830Y-11541D01*
X82431Y-11660D01*
X82571D01*
Y-9547D01*
X83571D01*
Y-11660D01*
D02*
G37*
G36*
X136147Y-1484D02*
X135899Y-1650D01*
X135602Y-2095D01*
X135528Y-2464D01*
X137606D01*
Y-3464D01*
X135528D01*
X135602Y-3833D01*
X135899Y-4278D01*
X136031Y-4366D01*
X136052Y-4947D01*
X136039Y-4973D01*
X135813Y-5311D01*
X135799Y-5328D01*
X135264Y-5469D01*
X134758Y-4964D01*
X134774Y-4883D01*
Y-4194D01*
X134686Y-3753D01*
X134436Y-3378D01*
X134062Y-3128D01*
X133620Y-3040D01*
X132834D01*
X131505Y-1711D01*
X131166Y-1484D01*
X131206Y-1098D01*
X131249Y-984D01*
X135995D01*
X136147Y-1484D01*
D02*
G37*
G36*
X12697Y-31766D02*
Y-36713D01*
Y-41028D01*
X12484D01*
Y-42315D01*
X16240D01*
Y-42815D01*
X16740D01*
Y-44602D01*
X19621D01*
X19663Y-44813D01*
X20015Y-45340D01*
X20541Y-45691D01*
X21161Y-45815D01*
X22433D01*
Y-43602D01*
X23433D01*
Y-45815D01*
X24705D01*
X25325Y-45691D01*
X25670Y-45461D01*
X25999Y-45953D01*
X26715Y-46432D01*
X27560Y-46600D01*
X28405Y-46432D01*
X29122Y-45953D01*
X29389Y-45553D01*
X29596Y-45691D01*
X30217Y-45815D01*
X30536D01*
X30765Y-46315D01*
X30589Y-46578D01*
X30486Y-47096D01*
Y-48376D01*
X30589Y-48894D01*
X30883Y-49334D01*
X30726Y-49689D01*
X30647Y-49778D01*
X30061D01*
X30047Y-49674D01*
X29769Y-49004D01*
X29328Y-48428D01*
X28752Y-47987D01*
X28082Y-47709D01*
X27362Y-47614D01*
X26643Y-47709D01*
X25972Y-47987D01*
X25397Y-48428D01*
X24955Y-49004D01*
X24677Y-49674D01*
X24582Y-50394D01*
X24677Y-51113D01*
X24955Y-51784D01*
X25397Y-52359D01*
X25972Y-52801D01*
X26643Y-53079D01*
X27362Y-53173D01*
X28082Y-53079D01*
X28752Y-52801D01*
X29291Y-52387D01*
X30687D01*
X30883Y-52680D01*
X31322Y-52974D01*
X31841Y-53077D01*
X32923D01*
X33442Y-52974D01*
X33881Y-52680D01*
X33951Y-52575D01*
X34553D01*
X34623Y-52680D01*
X35062Y-52974D01*
X35581Y-53077D01*
X36663D01*
X37182Y-52974D01*
X37621Y-52680D01*
X37915Y-52241D01*
X37984Y-51895D01*
X38745D01*
X39176Y-52458D01*
X39752Y-52899D01*
X40422Y-53177D01*
X41142Y-53272D01*
X41861Y-53177D01*
X42531Y-52899D01*
X43107Y-52458D01*
X43549Y-51882D01*
X43767Y-51356D01*
X44267Y-51455D01*
Y-51703D01*
X44379Y-52266D01*
X44698Y-52743D01*
X45175Y-53062D01*
X45738Y-53174D01*
X46055D01*
Y-51260D01*
X46555D01*
Y-50760D01*
X48849D01*
X48852Y-50727D01*
X49233Y-50403D01*
X49412Y-50438D01*
X50257Y-50270D01*
X50973Y-49792D01*
X51322Y-49758D01*
X54059Y-52494D01*
X54563Y-52831D01*
X55159Y-52950D01*
X55754Y-52831D01*
X56259Y-52494D01*
X57302Y-51450D01*
X57640Y-50946D01*
X57758Y-50350D01*
X57640Y-49755D01*
X57302Y-49250D01*
X56028Y-47976D01*
Y-47092D01*
X56076Y-47083D01*
X56662Y-46691D01*
X57054Y-46105D01*
X57191Y-45414D01*
X57440Y-45165D01*
X57677Y-45212D01*
X58368Y-45074D01*
X58955Y-44683D01*
X59090Y-44480D01*
X59734Y-44417D01*
X60935Y-45618D01*
X61440Y-45955D01*
X61475Y-45962D01*
X61815Y-46540D01*
X61796Y-46638D01*
X61887Y-47098D01*
X62148Y-47489D01*
X66881Y-52222D01*
X67272Y-52483D01*
X67733Y-52574D01*
X68193Y-52483D01*
X68584Y-52222D01*
X69141Y-51665D01*
X69402Y-51274D01*
X69494Y-50813D01*
X69402Y-50353D01*
X69141Y-49962D01*
X66155Y-46977D01*
Y-45775D01*
X66618Y-45583D01*
X67348Y-46314D01*
X68632Y-45031D01*
X69915Y-43748D01*
X69184Y-43017D01*
X69375Y-42555D01*
X70577D01*
X73562Y-45540D01*
X73953Y-45801D01*
X74414Y-45893D01*
X74875Y-45801D01*
X75265Y-45540D01*
X75340Y-45466D01*
X75840Y-45673D01*
Y-46506D01*
X75960Y-47107D01*
X76300Y-47617D01*
X76810Y-47958D01*
X77412Y-48077D01*
X77453D01*
Y-45866D01*
X77953D01*
Y-45366D01*
X80152D01*
X80190Y-45223D01*
X80540Y-45212D01*
X82021D01*
X83348Y-46539D01*
X83342Y-46548D01*
X83243Y-47047D01*
Y-49606D01*
X83342Y-50106D01*
X83625Y-50529D01*
X84048Y-50812D01*
X84547Y-50911D01*
X85532D01*
X86031Y-50812D01*
X86454Y-50529D01*
X86737Y-50106D01*
X86836Y-49606D01*
Y-47047D01*
X86737Y-46548D01*
X86454Y-46125D01*
X86031Y-45842D01*
X85724Y-45781D01*
X83849Y-43906D01*
X83895Y-43442D01*
X84178Y-43019D01*
X84277Y-42520D01*
Y-39961D01*
X84178Y-39461D01*
X84014Y-39217D01*
X84049Y-38661D01*
X84088Y-38566D01*
X84176Y-38507D01*
X84197Y-38476D01*
X84799D01*
X84820Y-38507D01*
X85259Y-38801D01*
X85309Y-38811D01*
Y-40453D01*
X85394Y-40877D01*
X85634Y-41236D01*
X85802Y-41404D01*
Y-42520D01*
X85901Y-43019D01*
X86184Y-43442D01*
X86607Y-43725D01*
X87106Y-43824D01*
X88091D01*
X88211Y-43800D01*
X88706Y-44203D01*
X88583Y-53918D01*
X77283D01*
X77131Y-53418D01*
X77371Y-53257D01*
X77766Y-52666D01*
X77905Y-51968D01*
Y-51681D01*
X72685D01*
Y-51968D01*
X72824Y-52666D01*
X73219Y-53257D01*
X73460Y-53418D01*
X73308Y-53918D01*
X19209D01*
Y-50795D01*
X11697D01*
Y-53918D01*
X9929D01*
X9691Y-53418D01*
X9890Y-52936D01*
X9979Y-52264D01*
Y-51189D01*
X5807D01*
Y-50189D01*
X9979D01*
Y-49114D01*
X9890Y-48442D01*
X9631Y-47816D01*
X9513Y-47661D01*
X9759Y-47161D01*
X10547D01*
Y-42921D01*
X5807D01*
Y-41921D01*
X10547D01*
Y-37713D01*
Y-33472D01*
X5807D01*
Y-32473D01*
X10547D01*
Y-30270D01*
X11009Y-30079D01*
X12697Y-31766D01*
D02*
G37*
%LPC*%
G36*
X22933Y-28788D02*
X22646D01*
Y-30898D01*
X24756D01*
Y-30610D01*
X24617Y-29913D01*
X24222Y-29322D01*
X23630Y-28927D01*
X22933Y-28788D01*
D02*
G37*
G36*
X5524Y-16642D02*
X4109D01*
Y-16959D01*
X4222Y-17522D01*
X4540Y-17999D01*
X5018Y-18318D01*
X5524Y-18418D01*
Y-16642D01*
D02*
G37*
G36*
X5307Y-20533D02*
X4232D01*
X3560Y-20621D01*
X2934Y-20881D01*
X2396Y-21294D01*
X1983Y-21831D01*
X1724Y-22458D01*
X1635Y-23130D01*
Y-24205D01*
X5307D01*
Y-20533D01*
D02*
G37*
G36*
X122827Y-45022D02*
X122244D01*
X121432Y-45184D01*
X120743Y-45644D01*
X120282Y-46333D01*
X120121Y-47146D01*
Y-48910D01*
X122827D01*
Y-45022D01*
D02*
G37*
G36*
X124409D02*
X123827D01*
Y-48910D01*
X126533D01*
Y-47146D01*
X126371Y-46333D01*
X125911Y-45644D01*
X125222Y-45184D01*
X124409Y-45022D01*
D02*
G37*
G36*
X129882Y-20083D02*
X125000D01*
X124693Y-20144D01*
X124432Y-20318D01*
X124258Y-20579D01*
X124197Y-20886D01*
Y-37579D01*
X124258Y-37886D01*
X124432Y-38146D01*
X124693Y-38320D01*
X125000Y-38382D01*
X129882D01*
X130189Y-38320D01*
X130450Y-38146D01*
X130624Y-37886D01*
X130685Y-37579D01*
Y-20886D01*
X130624Y-20579D01*
X130450Y-20318D01*
X130189Y-20144D01*
X129882Y-20083D01*
D02*
G37*
G36*
X119242Y-30387D02*
X118159D01*
X117641Y-30490D01*
X117201Y-30784D01*
X116908Y-31224D01*
X116805Y-31742D01*
Y-34596D01*
X116908Y-35115D01*
X117201Y-35554D01*
X117641Y-35848D01*
X117699Y-35860D01*
X117717Y-36082D01*
X118124Y-37779D01*
X118792Y-39391D01*
X118907Y-39578D01*
X119615Y-40734D01*
X119554Y-41043D01*
Y-42815D01*
X119684Y-43468D01*
X120054Y-44021D01*
X120607Y-44391D01*
X121260Y-44521D01*
X123032D01*
X123684Y-44391D01*
X124238Y-44021D01*
X124608Y-43468D01*
X124738Y-42815D01*
Y-41043D01*
X124608Y-40390D01*
X124238Y-39837D01*
X123684Y-39467D01*
X123032Y-39337D01*
X121334D01*
X121295Y-39290D01*
X120884Y-38521D01*
X120473Y-37750D01*
X119966Y-36080D01*
X119932Y-35734D01*
X120200Y-35554D01*
X120494Y-35115D01*
X120597Y-34596D01*
Y-31742D01*
X120494Y-31224D01*
X120200Y-30784D01*
X119761Y-30490D01*
X119242Y-30387D01*
D02*
G37*
G36*
X19209Y-46146D02*
X15953D01*
Y-49795D01*
X19209D01*
Y-46146D01*
D02*
G37*
G36*
X68985Y-46092D02*
X68056Y-47022D01*
X70068Y-49034D01*
X70529Y-49342D01*
X71073Y-49450D01*
X71617Y-49342D01*
X71988Y-49095D01*
X68985Y-46092D01*
D02*
G37*
G36*
X14953Y-46146D02*
X11697D01*
Y-49795D01*
X14953D01*
Y-46146D01*
D02*
G37*
G36*
X48832Y-51760D02*
X47055D01*
Y-53174D01*
X47372D01*
X47935Y-53062D01*
X48412Y-52743D01*
X48731Y-52266D01*
X48832Y-51760D01*
D02*
G37*
G36*
X74795Y-48571D02*
X74508D01*
X73810Y-48710D01*
X73219Y-49105D01*
X72824Y-49696D01*
X72685Y-50394D01*
Y-50681D01*
X74795D01*
Y-48571D01*
D02*
G37*
G36*
X76083D02*
X75795D01*
Y-50681D01*
X77905D01*
Y-50394D01*
X77766Y-49696D01*
X77371Y-49105D01*
X76780Y-48710D01*
X76083Y-48571D01*
D02*
G37*
G36*
X80066Y-46366D02*
X78453D01*
Y-48077D01*
X78494D01*
X79096Y-47958D01*
X79605Y-47617D01*
X79946Y-47107D01*
X80066Y-46506D01*
Y-46366D01*
D02*
G37*
G36*
X70622Y-44455D02*
X69692Y-45385D01*
X72695Y-48387D01*
X72943Y-48017D01*
X73051Y-47473D01*
X72943Y-46929D01*
X72635Y-46468D01*
X70622Y-44455D01*
D02*
G37*
G36*
X15740Y-43315D02*
X12484D01*
Y-44602D01*
X15740D01*
Y-43315D01*
D02*
G37*
%LPD*%
D10*
X108366Y-50591D02*
G03*
X112660Y-48812I0J6072D01*
G01*
D11*
X111811Y-21358D02*
D03*
D12*
X118701Y-34342D02*
G03*
X119882Y-39057I10000J0D01*
G01*
D02*
G03*
X121630Y-41413I8819J4715D01*
G01*
X32761Y-19797D02*
X33577D01*
X31271Y-18307D02*
X32761Y-19797D01*
X30512Y-18307D02*
X31271D01*
X23744Y-33760D02*
X28642D01*
X23632Y-33872D02*
X23744Y-33760D01*
X28642D02*
X31004Y-36122D01*
X26123Y-38583D02*
X27756D01*
X23662Y-36122D02*
X26123Y-38583D01*
X22933Y-36122D02*
X23662D01*
X31004D02*
X31988D01*
X31339Y-32871D02*
X31343Y-32876D01*
X31339Y-32871D02*
X31496D01*
X33577Y-19797D02*
X35241Y-21460D01*
X19390Y-3543D02*
X23425D01*
X39457Y-14541D02*
Y-5523D01*
X40256Y-4724D01*
X34477Y-17913D02*
X36632Y-20068D01*
X33760Y-17913D02*
X34477D01*
X35925Y-16577D02*
Y-16437D01*
X37303Y-15151D02*
Y-13378D01*
Y-15151D02*
X39416Y-17265D01*
X35925Y-16577D02*
X38024Y-18677D01*
X39416Y-17285D02*
Y-17265D01*
X29767Y-30413D02*
X32457Y-27724D01*
X28248Y-30413D02*
X29767D01*
X63775Y-21460D02*
X65052Y-20184D01*
X69777D01*
X67840Y-22165D02*
X69283D01*
X67831Y-22157D02*
X67840Y-22165D01*
X66679Y-22157D02*
X67831D01*
X66671Y-22165D02*
X66679Y-22157D01*
X65854Y-22165D02*
X66671D01*
X69283D02*
X70355Y-23238D01*
X65167Y-22852D02*
X65854Y-22165D01*
X69390Y-9363D02*
Y-8740D01*
X71782Y-9092D02*
Y-7038D01*
X69390Y-4646D02*
X71782Y-7038D01*
X74833Y-7884D02*
X75689Y-8740D01*
X73666Y-7884D02*
X74833D01*
X73606Y-4646D02*
X75689D01*
X72937Y-5315D02*
X73606Y-4646D01*
X72267Y-5315D02*
X72937D01*
X72169Y-5414D02*
X72267Y-5315D01*
X76772Y-41339D02*
Y-40551D01*
X82785Y-33268D02*
Y-29888D01*
X82785Y-29888D01*
X104351Y-3563D02*
X104725Y-3937D01*
X100660Y-3563D02*
X104351D01*
X108760Y-3938D02*
X117421D01*
X108760Y-3937D02*
X108760Y-3938D01*
X108760Y-3937D02*
X108996D01*
X108366D02*
X108760D01*
X117421Y-3937D02*
X122785D01*
X122785Y-3938D02*
X122930D01*
X125695Y-6703D01*
Y-7284D02*
Y-6703D01*
X86942Y-7785D02*
X89183D01*
X84964Y-5807D02*
X86942Y-7785D01*
X83071Y-5807D02*
X84964D01*
X40689Y-43267D02*
X41968D01*
X36220Y-47736D02*
X40689Y-43267D01*
X32480Y-47736D02*
X36220D01*
X55355Y-45414D02*
X55385D01*
X57677Y-43406D02*
X58583Y-42500D01*
X64714Y-31447D02*
X64843D01*
X76772Y-41339D02*
X77953Y-42520D01*
X78609D01*
X80193Y-44104D01*
X82480D01*
X85039Y-46663D01*
Y-48327D02*
Y-46663D01*
X54920Y-49376D02*
Y-41140D01*
X55118Y-45177D02*
X55355Y-45414D01*
X61061Y-42500D02*
Y-42448D01*
X58490Y-39878D02*
X61061Y-42448D01*
X58583Y-42500D02*
X61061D01*
X54032Y-40252D02*
X54920Y-41140D01*
X54184Y-49376D02*
X54920D01*
X56442Y-39878D02*
X58490D01*
X55424Y-38860D02*
X56442Y-39878D01*
X65048Y-48726D02*
Y-41901D01*
Y-48726D02*
X65645D01*
X61454Y-38308D02*
X65048Y-41901D01*
X57656Y-38308D02*
X61454D01*
X56816Y-37468D02*
X57656Y-38308D01*
X58207Y-36076D02*
X59241Y-37110D01*
X71729Y-41447D02*
X72326Y-42044D01*
X66288Y-41447D02*
X71729D01*
X61950Y-37110D02*
X66288Y-41447D01*
X59241Y-37110D02*
X61950D01*
X64173Y-30906D02*
X64714Y-31447D01*
X31343Y-32876D02*
X31348Y-32871D01*
X79724Y-9547D02*
X79724Y-9547D01*
X79724Y-9547D02*
Y-5807D01*
X89183Y-7785D02*
X92716Y-11319D01*
Y-14488D02*
Y-11319D01*
X68704Y-25981D02*
Y-25887D01*
X82785Y-33268D02*
X86319D01*
X40045Y-34252D02*
X41339Y-35546D01*
X39848Y-34252D02*
X40045D01*
X39416Y-34684D02*
X39848Y-34252D01*
X40808Y-36076D02*
X41339Y-35546D01*
X35827Y-35489D02*
X38024Y-33292D01*
X68798Y-31005D02*
X69036Y-30768D01*
X66559Y-24244D02*
X66764D01*
X66559D02*
X68398Y-26083D01*
X68602D01*
X68704Y-25981D01*
X66559Y-27724D02*
X67477Y-28642D01*
X70250D01*
X70245Y-33568D02*
X70983D01*
X70240Y-33573D02*
X70245Y-33568D01*
X68507Y-31005D02*
X68798D01*
X11713Y-3642D02*
X11812Y-3543D01*
X13484D01*
X108760Y-7283D02*
X109350Y-7874D01*
Y-11417D02*
Y-7874D01*
X122147Y-11436D02*
Y-8218D01*
X122933Y-7432D01*
X115650Y-11436D02*
Y-10335D01*
X118189Y-7795D02*
Y-7284D01*
X115650Y-10335D02*
X118189Y-7795D01*
X122785Y-3937D02*
X122785Y-3938D01*
X86319Y-33268D02*
X86417Y-33169D01*
X89764D02*
Y-30217D01*
X93898Y-26083D01*
X89764Y-37008D02*
X91929D01*
X93898Y-35039D01*
X69036Y-30768D02*
X71395D01*
X83071Y-37008D02*
X86417D01*
X83071Y-37008D02*
X83071Y-37008D01*
X36827Y-50787D02*
X40846D01*
X41926Y-49707D02*
Y-45469D01*
X40846Y-50787D02*
X41142Y-50492D01*
X41926Y-49707D01*
X41968Y-43267D02*
X44984Y-40252D01*
X39699Y-41015D02*
X41436D01*
X43592Y-38860D01*
X89665Y-3543D02*
Y-3530D01*
X100626D02*
X100660Y-3563D01*
X89665Y-3530D02*
X100626D01*
X11713Y-10334D02*
Y-3642D01*
X9744Y-12303D02*
X11713Y-10334D01*
X28051Y-30217D02*
X28248Y-30413D01*
X35661Y-32871D02*
X36632Y-31900D01*
X31348Y-32871D02*
X35661D01*
X44587Y-8535D02*
X46376Y-10325D01*
X39457Y-14541D02*
X40808Y-15893D01*
X137606Y-6114D02*
X139449D01*
X140460Y-5103D01*
X137213Y-6114D02*
X137409Y-5917D01*
X70983Y-33568D02*
X73703Y-30848D01*
X68853Y-35457D02*
X71627D01*
X64843Y-31447D02*
X68853Y-35457D01*
X71627D02*
X74902Y-32182D01*
X86417Y-40453D02*
X87795Y-41831D01*
X86417Y-40453D02*
Y-37008D01*
X105905Y-36319D02*
Y-35039D01*
X55424Y-13109D02*
X56119Y-12413D01*
X60991Y-18677D02*
X61229D01*
X62205Y-17701D02*
X68990D01*
X61229Y-18677D02*
X62205Y-17701D01*
X56119Y-12413D02*
X63034D01*
X56816Y-14501D02*
X57704Y-13612D01*
X62538D01*
X58207Y-15893D02*
X59290Y-14810D01*
X63034Y-12413D02*
X63528Y-12908D01*
X62538Y-13612D02*
X63032Y-14106D01*
X62041Y-14810D02*
X62536Y-15304D01*
X59290Y-14810D02*
X62041D01*
X69390Y-9363D02*
X73020Y-12993D01*
X74315D01*
X71782Y-9092D02*
X73183Y-10492D01*
Y-10492D02*
Y-10492D01*
X62536Y-15304D02*
X70247D01*
X70744Y-14106D02*
X73893Y-17255D01*
X71240Y-12908D02*
X74389Y-16057D01*
X63528Y-12908D02*
X71240D01*
X63032Y-14106D02*
X70744D01*
X60381Y-16503D02*
X69751D01*
X59600Y-17285D02*
X60381Y-16503D01*
X71395Y-30768D02*
X72505Y-29658D01*
X69777Y-20184D02*
X72505Y-22911D01*
X68990Y-17701D02*
X73703Y-22415D01*
X74902Y-22441D02*
X75797Y-21546D01*
X70250Y-28642D02*
X70437Y-28455D01*
X72505Y-29658D02*
Y-22911D01*
X73703Y-30848D02*
Y-22415D01*
X74902Y-32182D02*
Y-22441D01*
X79921Y-24728D02*
Y-23622D01*
Y-24728D02*
X81857Y-26664D01*
X81857D01*
X82785Y-27592D01*
Y-29888D02*
Y-27592D01*
X83513Y-24633D02*
Y-23475D01*
X75797Y-21546D02*
X81584D01*
X83513Y-23475D01*
X87008Y-26181D02*
Y-20374D01*
X88779Y-18602D01*
X85627Y-14751D02*
X86730Y-15855D01*
X74389Y-16057D02*
X79606D01*
X84547Y-14751D02*
X85627D01*
X86730Y-16553D02*
Y-15855D01*
Y-16553D02*
X88779Y-18602D01*
X78839Y-11614D02*
Y-10433D01*
X79724Y-9547D01*
X118701Y-34342D02*
Y-33169D01*
X121630Y-41413D02*
X122146Y-41929D01*
X84074Y-17408D02*
X84847Y-16635D01*
X82959Y-18517D02*
Y-18511D01*
X84062Y-17408D01*
X84074D01*
X84418Y-19716D02*
X84842Y-19291D01*
X69751Y-16503D02*
X72964Y-19716D01*
X70247Y-15304D02*
X73460Y-18517D01*
X72964Y-19716D02*
X84418D01*
X73460Y-18517D02*
X82959D01*
X73893Y-17255D02*
X81072D01*
X84546Y-14750D02*
X84547Y-14751D01*
X79606Y-16057D02*
X80913Y-14750D01*
X84546D01*
X81072Y-17255D02*
X81693Y-16634D01*
X27675Y-36122D02*
X31004D01*
X16240Y-37795D02*
X19685D01*
X21358Y-36122D01*
X22933D01*
X16240Y-35236D02*
X19350D01*
X20714Y-33872D01*
X23632D01*
D13*
X105208Y-26780D02*
G03*
X102279Y-33851I7071J-7071D01*
G01*
X101038Y-40891D02*
G03*
X102279Y-37894I-2998J2998D01*
G01*
X98100Y-42618D02*
G03*
X96926Y-42717I0J-7057D01*
G01*
D02*
G03*
X93110Y-44685I1175J-6958D01*
G01*
X93842Y-49217D02*
G03*
X93111Y-50936I1768J-1768D01*
G01*
D02*
G03*
X93111Y-50937I2499J-48D01*
G01*
D02*
G03*
X93110Y-50984I2499J-48D01*
G01*
X98785Y-45580D02*
G03*
X96555Y-46504I0J-3153D01*
G01*
X100197Y-45580D02*
G03*
X105726Y-43290I0J7819D01*
G01*
X28150Y-21850D02*
X32847D01*
X28022Y-21978D02*
X28150Y-21850D01*
X32847D02*
X33849Y-22852D01*
X25718Y-25365D02*
X31336D01*
X25596Y-25400D02*
Y-21077D01*
X25718Y-20956D01*
Y-14046D01*
X27560Y-27363D02*
X27659D01*
X25596Y-25400D02*
X27560Y-27363D01*
X25197Y-9055D02*
X27756Y-6496D01*
X23819Y-10433D02*
X25197Y-9055D01*
X23819Y-10709D02*
Y-10433D01*
X25689Y-13780D02*
X25837Y-13927D01*
X25689Y-13780D02*
Y-12972D01*
X25718Y-14046D02*
X25984Y-13780D01*
X31336Y-25365D02*
X32457Y-24244D01*
X36506Y-2640D02*
X84038D01*
X41734Y-9154D02*
X42510Y-8378D01*
Y-7211D01*
X31711Y-4636D02*
X32185Y-5110D01*
X26500Y-4636D02*
X31711D01*
X32185Y-5110D02*
Y-3937D01*
X29134Y-7874D02*
X33374D01*
X27756Y-6496D02*
X29134Y-7874D01*
X24522Y-6614D02*
X26500Y-4636D01*
X21899Y-31398D02*
X22146D01*
X21358D02*
X21899D01*
X21427Y-19262D02*
Y-8692D01*
X38826Y-38813D02*
X40855D01*
X42200Y-37468D01*
X28541Y-47049D02*
X31988Y-43602D01*
X23131Y-47049D02*
X28541D01*
X27560Y-44392D02*
Y-42942D01*
X10728Y-16752D02*
X11201Y-17224D01*
X10118Y-16142D02*
X10728Y-16752D01*
X15453Y-16634D02*
X15454D01*
X13484Y-17224D02*
Y-14961D01*
X11201Y-17224D02*
X13484D01*
X51248Y-8933D02*
X53071Y-7110D01*
Y-5118D01*
X44603D02*
X53071D01*
X42510Y-7211D02*
X44603Y-5118D01*
X65157Y-4646D02*
X65157Y-4646D01*
X60925Y-4646D02*
X65157D01*
X60453Y-5118D02*
X60925Y-4646D01*
X84038Y-2640D02*
X87598Y-6201D01*
X79379Y-38533D02*
X82677Y-41831D01*
X79724Y-37008D02*
Y-33169D01*
X79379Y-38533D02*
Y-37008D01*
X77171D02*
X79232D01*
X128548Y-7087D02*
X129041Y-7579D01*
X93508Y-6107D02*
Y-6004D01*
Y-6107D02*
X94784Y-7382D01*
X90256Y-6201D02*
X92412Y-8357D01*
X87598Y-6201D02*
X90256D01*
X28150Y-51083D02*
X32480D01*
X66333Y-35177D02*
X68626Y-37470D01*
X66333Y-35177D02*
Y-35112D01*
X64807Y-33586D02*
X66333Y-35112D01*
X64070Y-33586D02*
X64807D01*
X68239Y-37470D02*
X68626D01*
X66802Y-38908D02*
X68239Y-37470D01*
X62383Y-31900D02*
X64070Y-33586D01*
X94784Y-7382D02*
X96752D01*
X95884Y-10728D02*
X96752D01*
X128548Y-7087D02*
X128696Y-6940D01*
X96752Y-14683D02*
X96833Y-14764D01*
X96752Y-14683D02*
Y-10728D01*
X96833Y-14764D02*
X96850D01*
X128908Y-2633D02*
X130583D01*
X128696Y-13233D02*
Y-6940D01*
X127953Y-13976D02*
X128696Y-13233D01*
X47768Y-45791D02*
Y-43036D01*
Y-45791D02*
X49253Y-47277D01*
X17421Y-18110D02*
X19291D01*
X17421D02*
Y-14961D01*
X19291D02*
X19390D01*
X15453Y-16634D02*
Y-14961D01*
X19291Y-18110D02*
X20497Y-19316D01*
X79724Y-33169D02*
X79724Y-33169D01*
X79232Y-37008D02*
X79379D01*
X46330Y-47230D02*
X47768Y-45791D01*
X130583Y-2633D02*
X139370Y-11421D01*
Y-13091D02*
Y-11421D01*
X129041Y-7579D02*
X131896D01*
X99006Y-9311D02*
X100660Y-7658D01*
X99006Y-13869D02*
X100285Y-15148D01*
X99006Y-13869D02*
Y-9311D01*
X17421Y-8268D02*
Y-3543D01*
X42200Y-37468D02*
X46947Y-32721D01*
X49508D01*
X56273Y-28573D02*
X60991Y-33292D01*
X56273Y-28573D02*
Y-25956D01*
X60991Y-33292D02*
X63705Y-36005D01*
X46376Y-41644D02*
X49508Y-38512D01*
Y-32721D01*
X44203Y-48908D02*
X46555Y-51260D01*
X44203Y-43816D02*
X46376Y-41644D01*
X44203Y-48908D02*
Y-43816D01*
X103724Y-15148D02*
X104686Y-16110D01*
X100285Y-15148D02*
X103724D01*
X112500Y-11436D02*
Y-8376D01*
X113592Y-7284D01*
X106201Y-11417D02*
Y-8760D01*
X104725Y-7283D02*
X106201Y-8760D01*
X32185Y-3937D02*
X33482Y-2640D01*
X36506D01*
X37303Y-3437D01*
Y-5110D02*
Y-3437D01*
X34744Y-9244D02*
Y-5110D01*
X27953Y-11004D02*
X30601Y-13652D01*
X31911D01*
X32185Y-13378D01*
X21373Y-19316D02*
X21427Y-19262D01*
X49536Y-13429D02*
X52640Y-10325D01*
X49536Y-19219D02*
Y-13429D01*
X23819Y-6614D02*
X24522D01*
X33374Y-7874D02*
X34744Y-9244D01*
X92412Y-8357D02*
X93512D01*
X95884Y-10728D01*
X33849Y-22852D02*
X33849D01*
X36687Y-25690D01*
X135433Y-2657D02*
X135740Y-2964D01*
X137606D01*
X112697Y-49409D02*
Y-41929D01*
Y-49409D02*
X112697Y-49410D01*
X53839Y-9126D02*
X53846D01*
X54867Y-8106D01*
Y-7442D01*
X57191Y-5118D02*
X60453D01*
X52640Y-10325D02*
X53839Y-9126D01*
X54867Y-7442D02*
X57191Y-5118D01*
X68626Y-37470D02*
X76709D01*
X60470Y-8740D02*
X60925D01*
X58031Y-10097D02*
X59114D01*
X60470Y-8740D01*
X83071Y-10549D02*
Y-9547D01*
X88996Y-15256D02*
X92716Y-18976D01*
X88779Y-15256D02*
X88996D01*
X107743Y-16110D02*
X107775Y-16142D01*
X104686Y-16110D02*
X107743D01*
X79724Y-33169D02*
Y-29921D01*
X80905Y-28740D01*
X83071Y-10549D02*
X85882Y-13360D01*
X86203D01*
X88099Y-15256D01*
X88779D01*
X106398Y-50689D02*
X106398Y-50689D01*
X99311Y-50689D02*
X106398D01*
X105208Y-26780D02*
X105905Y-26083D01*
X102279Y-37894D02*
Y-33851D01*
X105726Y-43290D02*
X105905Y-43110D01*
X106398Y-42618D01*
X105905Y-43110D02*
Y-36319D01*
X98100Y-42618D02*
X99311D01*
X101038Y-40891D01*
X93842Y-49217D02*
X94421Y-48638D01*
X93110Y-50937D02*
X93111Y-50936D01*
X93110Y-50984D02*
Y-50937D01*
X94421Y-48638D02*
X96555Y-46504D01*
X98785Y-45580D02*
X100197D01*
X118701Y-21358D02*
X118701Y-21358D01*
X30641Y-39862D02*
X31988D01*
X27560Y-42942D02*
X30641Y-39862D01*
X37112Y-43602D02*
X37472Y-43242D01*
X31988Y-43602D02*
X37112D01*
X22417Y-19316D02*
X22933Y-18799D01*
X20497Y-19316D02*
X21373D01*
X22417D01*
X19291Y-18110D02*
Y-14961D01*
X27953Y-11004D02*
Y-10709D01*
X15680Y-19678D02*
X20134D01*
X20497Y-19316D01*
X21427Y-8692D02*
X23662Y-6458D01*
X25689Y-12972D02*
X27953Y-10709D01*
X14880Y-17208D02*
X15454Y-16634D01*
X13484Y-17224D02*
X13500Y-17208D01*
X14880D01*
X10728Y-27953D02*
Y-16752D01*
Y-27953D02*
X15453Y-32677D01*
X17715Y-30415D02*
X17813D01*
X21899Y-31398D02*
Y-31007D01*
X16384Y-25492D02*
X21899Y-31007D01*
X17717Y-30512D02*
X17813Y-30415D01*
X15453Y-32677D02*
X17715Y-30415D01*
X15453Y-25492D02*
X16384D01*
D14*
X114075Y-16160D02*
G03*
X114120Y-16778I4232J0D01*
G01*
X114120Y-16778D02*
G03*
X115314Y-19153I4187J617D01*
G01*
X114740Y-25319D02*
G03*
X111811Y-32390I7071J-7071D01*
G01*
X118701Y-21358D02*
G03*
X120572Y-16841I-4518J4517D01*
G01*
X116684Y-20523D02*
G03*
X118701Y-21358I2016J2016D01*
G01*
X105709Y-13640D02*
G03*
X102483Y-12303I-3226J-3226D01*
G01*
X96949Y-17815D02*
X101870D01*
X96555Y-18209D02*
X96949Y-17815D01*
X101870Y-18612D02*
Y-17815D01*
X108837Y-18612D02*
X108847Y-18602D01*
X109252D01*
X111811Y-21161D01*
X101870Y-18612D02*
X108837D01*
X111811Y-21358D02*
Y-21161D01*
X107775Y-16142D02*
X114056D01*
X114075Y-16160D01*
X111811Y-33169D02*
Y-32390D01*
X115314Y-19153D02*
X116684Y-20523D01*
X120572Y-16841D02*
Y-16160D01*
X114740Y-25319D02*
X118701Y-21358D01*
X101870Y-12303D02*
X102483D01*
X16240Y-42913D02*
X19882D01*
X22244D02*
X22933Y-43602D01*
X19882Y-42913D02*
X22244D01*
X19882D02*
X22933Y-39862D01*
D15*
Y-36122D02*
D03*
Y-39862D02*
D03*
Y-43602D02*
D03*
X31988D02*
D03*
Y-39862D02*
D03*
Y-36122D02*
D03*
D16*
X65157Y-4646D02*
D03*
Y-8740D02*
D03*
X60925Y-4646D02*
D03*
Y-8740D02*
D03*
D17*
X77953Y-42520D02*
D03*
X77953Y-45866D02*
D03*
X96752Y-7382D02*
D03*
Y-10728D02*
D03*
X96555Y-14862D02*
D03*
Y-18209D02*
D03*
X122785Y-7284D02*
D03*
Y-3938D02*
D03*
X118189Y-7284D02*
D03*
Y-3938D02*
D03*
X113592Y-7284D02*
D03*
Y-3937D02*
D03*
X108996Y-7284D02*
D03*
Y-3937D02*
D03*
X104725Y-7283D02*
D03*
X104725Y-3937D02*
D03*
X32382Y-47736D02*
D03*
Y-51083D02*
D03*
X88779Y-18602D02*
D03*
Y-15256D02*
D03*
X36122Y-47736D02*
D03*
Y-51083D02*
D03*
D18*
X69390Y-4646D02*
D03*
Y-8740D02*
D03*
X92716Y-14882D02*
D03*
Y-18976D02*
D03*
X46555Y-47165D02*
D03*
Y-51260D02*
D03*
X75689Y-8740D02*
D03*
Y-4646D02*
D03*
X128908Y-2633D02*
D03*
Y-6728D02*
D03*
X100660Y-3563D02*
D03*
Y-7658D02*
D03*
X23819Y-6614D02*
D03*
Y-10709D02*
D03*
X27953D02*
D03*
Y-6614D02*
D03*
D19*
X83071Y-9547D02*
D03*
X79724D02*
D03*
X79724Y-5807D02*
D03*
X83071D02*
D03*
X79232Y-37008D02*
D03*
X82579D02*
D03*
X89764Y-37008D02*
D03*
X86417D02*
D03*
X89764Y-33169D02*
D03*
X86417D02*
D03*
X79232Y-33169D02*
D03*
X82579D02*
D03*
X6398Y-12303D02*
D03*
X9744D02*
D03*
D20*
X79921Y-23622D02*
D03*
Y-28740D02*
D03*
X87008Y-26181D02*
D03*
D21*
X87598Y-41240D02*
D03*
X82480D02*
D03*
X85039Y-48327D02*
D03*
D22*
X106398Y-50689D02*
D03*
Y-42618D02*
D03*
X99311Y-42618D02*
D03*
Y-50689D02*
D03*
D23*
X32185Y-13378D02*
D03*
X34744D02*
D03*
X37303D02*
D03*
X32185Y-5110D02*
D03*
X34744D02*
D03*
X37303D02*
D03*
D24*
X34744Y-9244D02*
D03*
D25*
X61061Y-42500D02*
D03*
X54184Y-49376D02*
D03*
D26*
X13484Y-3543D02*
D03*
X15453D02*
D03*
X17421D02*
D03*
X19390D02*
D03*
Y-14961D02*
D03*
X17421D02*
D03*
X15453D02*
D03*
X13484D02*
D03*
D27*
X16437Y-9252D02*
D03*
D28*
X87106Y-10827D02*
D03*
X92224D02*
D03*
X89665Y-3543D02*
D03*
D29*
X101870Y-17815D02*
D03*
Y-12303D02*
D03*
D30*
X53071Y-5118D02*
D03*
X57165D02*
D03*
X10118Y-16142D02*
D03*
X6024D02*
D03*
D31*
X114075Y-16160D02*
D03*
X112500Y-11436D02*
D03*
X115650D02*
D03*
X107775Y-16142D02*
D03*
X106201Y-11417D02*
D03*
X109350D02*
D03*
X120572Y-16160D02*
D03*
X118997Y-11436D02*
D03*
X122147D02*
D03*
D32*
X41926Y-45469D02*
D03*
X37472Y-43242D02*
D03*
X39699Y-41015D02*
D03*
D33*
X137606Y-6114D02*
D03*
Y-2964D02*
D03*
X132882Y-4539D02*
D03*
D34*
X49536Y-19219D02*
D03*
X49508Y-32721D02*
D03*
D35*
X42771Y-25984D02*
D03*
X56273Y-25956D02*
D03*
D36*
X51248Y-43036D02*
D03*
X52640Y-41644D02*
D03*
X54032Y-40252D02*
D03*
X55424Y-38860D02*
D03*
X56816Y-37468D02*
D03*
X58207Y-36076D02*
D03*
X59600Y-34684D02*
D03*
X60991Y-33292D02*
D03*
X62383Y-31900D02*
D03*
X63775Y-30508D02*
D03*
X65167Y-29116D02*
D03*
X66559Y-27724D02*
D03*
X47768Y-8933D02*
D03*
X46376Y-10325D02*
D03*
X44984Y-11717D02*
D03*
X43592Y-13109D02*
D03*
X42200Y-14501D02*
D03*
X40808Y-15893D02*
D03*
X39416Y-17285D02*
D03*
X38024Y-18677D02*
D03*
X36632Y-20068D02*
D03*
X35241Y-21460D02*
D03*
X33849Y-22852D02*
D03*
X32457Y-24244D02*
D03*
D37*
X66559D02*
D03*
X65167Y-22852D02*
D03*
X63775Y-21460D02*
D03*
X62383Y-20068D02*
D03*
X60991Y-18677D02*
D03*
X59600Y-17285D02*
D03*
X58207Y-15893D02*
D03*
X56816Y-14501D02*
D03*
X55424Y-13109D02*
D03*
X54032Y-11717D02*
D03*
X52640Y-10325D02*
D03*
X51248Y-8933D02*
D03*
X32457Y-27724D02*
D03*
X33849Y-29116D02*
D03*
X35241Y-30508D02*
D03*
X36632Y-31900D02*
D03*
X38024Y-33292D02*
D03*
X39416Y-34684D02*
D03*
X40808Y-36076D02*
D03*
X42200Y-37468D02*
D03*
X43592Y-38860D02*
D03*
X44984Y-40252D02*
D03*
X46376Y-41644D02*
D03*
X47768Y-43036D02*
D03*
D38*
X93898Y-35039D02*
D03*
X105905D02*
D03*
Y-26083D02*
D03*
X93898D02*
D03*
D39*
X112697Y-49410D02*
D03*
X123327D02*
D03*
D40*
X127953Y-13091D02*
D03*
X139370D02*
D03*
D41*
X63907Y-36012D02*
D03*
X66802Y-38908D02*
D03*
D42*
X72326Y-42044D02*
D03*
X68985Y-45385D02*
D03*
X65645Y-48726D02*
D03*
D43*
X118701Y-33169D02*
D03*
X111811D02*
D03*
Y-21358D02*
D03*
X118701D02*
D03*
D44*
X122146Y-41929D02*
D03*
D45*
X112697D02*
D03*
D46*
X28022Y-21978D02*
D03*
X25127Y-24873D02*
D03*
D47*
X5807Y-42421D02*
D03*
Y-32972D02*
D03*
D48*
X15453Y-50295D02*
D03*
Y-25098D02*
D03*
D49*
X16240Y-37697D02*
D03*
Y-40256D02*
D03*
Y-35138D02*
D03*
Y-32579D02*
D03*
Y-42815D02*
D03*
D50*
X127441Y-29232D02*
D03*
D51*
X139803Y-29213D02*
D03*
D52*
X93110Y-50984D02*
D03*
X75295Y-51181D02*
D03*
X22146Y-31398D02*
D03*
D53*
X30512Y-18307D02*
D03*
X28445Y-31004D02*
D03*
D54*
X93110Y-44685D02*
D03*
X22933Y-18799D02*
D03*
D55*
X27362Y-50394D02*
D03*
X41142Y-50492D02*
D03*
X137205Y-48425D02*
D03*
X5118Y-5709D02*
D03*
D56*
X5807Y-50689D02*
D03*
Y-24705D02*
D03*
D57*
X51083Y-21358D02*
D03*
X27659Y-27363D02*
D03*
X37008Y-25787D02*
D03*
X41734Y-9154D02*
D03*
X25984Y-13780D02*
D03*
X36417Y-41043D02*
D03*
X23131Y-47049D02*
D03*
X27560Y-44392D02*
D03*
X86910Y-52165D02*
D03*
X11319Y-51083D02*
D03*
X20079Y-51279D02*
D03*
X76677Y-37305D02*
D03*
X62008Y-52264D02*
D03*
X87303Y-45276D02*
D03*
X49412Y-48231D02*
D03*
X81299Y-48228D02*
D03*
X90158Y-22933D02*
D03*
X133760Y-25984D02*
D03*
X135433Y-2657D02*
D03*
X105709Y-13640D02*
D03*
X118504Y-28642D02*
D03*
X138386Y-41240D02*
D03*
X118012Y-44587D02*
D03*
X128740Y-49705D02*
D03*
X117717Y-16732D02*
D03*
X6102Y-19882D02*
D03*
X131896Y-7579D02*
D03*
X34744Y-9244D02*
D03*
X16437Y-9252D02*
D03*
X93508Y-5807D02*
D03*
X64472Y-10630D02*
D03*
X56791Y-20374D02*
D03*
X58031Y-10097D02*
D03*
X49705Y-14173D02*
D03*
X49114Y-37795D02*
D03*
X68012Y-44193D02*
D03*
X86417Y-29724D02*
D03*
X134350Y-10728D02*
D03*
X81791Y-12402D02*
D03*
X15680Y-19678D02*
D03*
X17813Y-30415D02*
D03*
D58*
X27167Y-35632D02*
D03*
X27756Y-38681D02*
D03*
D59*
X31496Y-32871D02*
D03*
X40256Y-4724D02*
D03*
X36025Y-35238D02*
D03*
X33760Y-17913D02*
D03*
X35925Y-16437D02*
D03*
X73666Y-7884D02*
D03*
X72937Y-5315D02*
D03*
X76772Y-40551D02*
D03*
X125695Y-7284D02*
D03*
X55385Y-45414D02*
D03*
X57677Y-43406D02*
D03*
X69863Y-23238D02*
D03*
X68704Y-25887D02*
D03*
X140460Y-5103D02*
D03*
X70240Y-33573D02*
D03*
X68507Y-31005D02*
D03*
X23425Y-3740D02*
D03*
X44587Y-8071D02*
D03*
X74315Y-12993D02*
D03*
X73183Y-10492D02*
D03*
X70437Y-28455D02*
D03*
X83513Y-24633D02*
D03*
X84847Y-16635D02*
D03*
X78744Y-11910D02*
D03*
X84842Y-19291D02*
D03*
X82087Y-16634D02*
D03*
M02*
