G04 Layer_Color=16711935*
%FSLAX25Y25*%
%MOIN*%
G70*
G01*
G75*
G04:AMPARAMS|DCode=104|XSize=5.91mil|YSize=5.91mil|CornerRadius=0mil|HoleSize=0mil|Usage=FLASHONLY|Rotation=90.000|XOffset=0mil|YOffset=0mil|HoleType=Round|Shape=RoundedRectangle|*
%AMROUNDEDRECTD104*
21,1,0.00591,0.00591,0,0,90.0*
21,1,0.00591,0.00591,0,0,90.0*
1,1,0.00000,0.00295,0.00295*
1,1,0.00000,0.00295,-0.00295*
1,1,0.00000,-0.00295,-0.00295*
1,1,0.00000,-0.00295,0.00295*
%
%ADD104ROUNDEDRECTD104*%
G04:AMPARAMS|DCode=105|XSize=37.4mil|YSize=37.4mil|CornerRadius=10.83mil|HoleSize=0mil|Usage=FLASHONLY|Rotation=0.000|XOffset=0mil|YOffset=0mil|HoleType=Round|Shape=RoundedRectangle|*
%AMROUNDEDRECTD105*
21,1,0.03740,0.01575,0,0,0.0*
21,1,0.01575,0.03740,0,0,0.0*
1,1,0.02165,0.00787,-0.00787*
1,1,0.02165,-0.00787,-0.00787*
1,1,0.02165,-0.00787,0.00787*
1,1,0.02165,0.00787,0.00787*
%
%ADD105ROUNDEDRECTD105*%
%ADD106C,0.03740*%
G04:AMPARAMS|DCode=107|XSize=37.4mil|YSize=37.4mil|CornerRadius=10.83mil|HoleSize=0mil|Usage=FLASHONLY|Rotation=90.000|XOffset=0mil|YOffset=0mil|HoleType=Round|Shape=RoundedRectangle|*
%AMROUNDEDRECTD107*
21,1,0.03740,0.01575,0,0,90.0*
21,1,0.01575,0.03740,0,0,90.0*
1,1,0.02165,0.00787,0.00787*
1,1,0.02165,0.00787,-0.00787*
1,1,0.02165,-0.00787,-0.00787*
1,1,0.02165,-0.00787,0.00787*
%
%ADD107ROUNDEDRECTD107*%
%ADD108C,0.04528*%
%ADD109C,0.07874*%
G04:AMPARAMS|DCode=110|XSize=68.9mil|YSize=68.9mil|CornerRadius=18.7mil|HoleSize=0mil|Usage=FLASHONLY|Rotation=0.000|XOffset=0mil|YOffset=0mil|HoleType=Round|Shape=RoundedRectangle|*
%AMROUNDEDRECTD110*
21,1,0.06890,0.03150,0,0,0.0*
21,1,0.03150,0.06890,0,0,0.0*
1,1,0.03740,0.01575,-0.01575*
1,1,0.03740,-0.01575,-0.01575*
1,1,0.03740,-0.01575,0.01575*
1,1,0.03740,0.01575,0.01575*
%
%ADD110ROUNDEDRECTD110*%
G04:AMPARAMS|DCode=111|XSize=31.1mil|YSize=23.62mil|CornerRadius=0mil|HoleSize=0mil|Usage=FLASHONLY|Rotation=225.000|XOffset=0mil|YOffset=0mil|HoleType=Round|Shape=Rectangle|*
%AMROTATEDRECTD111*
4,1,4,0.00265,0.01935,0.01935,0.00265,-0.00265,-0.01935,-0.01935,-0.00265,0.00265,0.01935,0.0*
%
%ADD111ROTATEDRECTD111*%

G04:AMPARAMS|DCode=112|XSize=88.58mil|YSize=19.69mil|CornerRadius=6.4mil|HoleSize=0mil|Usage=FLASHONLY|Rotation=180.000|XOffset=0mil|YOffset=0mil|HoleType=Round|Shape=RoundedRectangle|*
%AMROUNDEDRECTD112*
21,1,0.08858,0.00689,0,0,180.0*
21,1,0.07579,0.01969,0,0,180.0*
1,1,0.01280,-0.03789,0.00345*
1,1,0.01280,0.03789,0.00345*
1,1,0.01280,0.03789,-0.00345*
1,1,0.01280,-0.03789,-0.00345*
%
%ADD112ROUNDEDRECTD112*%
%ADD113R,0.06890X0.04528*%
%ADD114R,0.02756X0.02953*%
G04:AMPARAMS|DCode=115|XSize=43.31mil|YSize=43.31mil|CornerRadius=12.3mil|HoleSize=0mil|Usage=FLASHONLY|Rotation=0.000|XOffset=0mil|YOffset=0mil|HoleType=Round|Shape=RoundedRectangle|*
%AMROUNDEDRECTD115*
21,1,0.04331,0.01870,0,0,0.0*
21,1,0.01870,0.04331,0,0,0.0*
1,1,0.02461,0.00935,-0.00935*
1,1,0.02461,-0.00935,-0.00935*
1,1,0.02461,-0.00935,0.00935*
1,1,0.02461,0.00935,0.00935*
%
%ADD115ROUNDEDRECTD115*%
D104*
X134744Y-35039D02*
D03*
Y-20079D02*
D03*
D105*
X93110Y-50984D02*
D03*
X75295Y-51181D02*
D03*
X22146Y-31398D02*
D03*
D106*
X30512Y-18307D02*
D03*
X28445Y-31004D02*
D03*
D107*
X93110Y-44685D02*
D03*
X22933Y-18799D02*
D03*
D108*
X27362Y-50394D02*
D03*
X41142Y-50492D02*
D03*
D109*
X137205Y-48425D02*
D03*
X5118Y-5709D02*
D03*
D110*
X5807Y-50689D02*
D03*
Y-24705D02*
D03*
D111*
X50226Y-40678D02*
D03*
X53121Y-43574D02*
D03*
X56270Y-40523D02*
D03*
X53375Y-37627D02*
D03*
D112*
X70670Y-5374D02*
D03*
Y-41201D02*
D03*
Y-7933D02*
D03*
Y-38642D02*
D03*
Y-10492D02*
D03*
Y-36083D02*
D03*
Y-13051D02*
D03*
Y-33524D02*
D03*
Y-15610D02*
D03*
Y-30964D02*
D03*
Y-18169D02*
D03*
Y-28405D02*
D03*
Y-20728D02*
D03*
Y-25846D02*
D03*
Y-23287D02*
D03*
D113*
X127067Y-39370D02*
D03*
Y-31496D02*
D03*
Y-15748D02*
D03*
Y-23622D02*
D03*
D114*
X62106Y-30118D02*
D03*
Y-26772D02*
D03*
D115*
X51476Y-25984D02*
D03*
Y-30906D02*
D03*
X57185D02*
D03*
Y-25984D02*
D03*
M02*
