G04 Layer_Color=32896*
%FSLAX25Y25*%
%MOIN*%
G70*
G01*
G75*
%ADD63C,0.00394*%
%ADD65C,0.00787*%
%ADD115C,0.00591*%
G36*
X676587Y403091D02*
X676620Y403043D01*
X676657Y402997D01*
X676694Y402958D01*
X676726Y402921D01*
X676742Y402908D01*
X676753Y402894D01*
X676763Y402883D01*
X676772Y402877D01*
X676777Y402873D01*
X676779Y402870D01*
X676838Y402820D01*
X676901Y402777D01*
X676962Y402735D01*
X677019Y402700D01*
X677043Y402687D01*
X677067Y402674D01*
X677088Y402661D01*
X677106Y402652D01*
X677121Y402646D01*
X677132Y402639D01*
X677139Y402637D01*
X677141Y402635D01*
Y402397D01*
X677097Y402415D01*
X677051Y402434D01*
X677008Y402456D01*
X676968Y402476D01*
X676934Y402495D01*
X676918Y402502D01*
X676905Y402511D01*
X676894Y402515D01*
X676888Y402520D01*
X676883Y402524D01*
X676881D01*
X676829Y402557D01*
X676783Y402587D01*
X676742Y402615D01*
X676709Y402641D01*
X676681Y402663D01*
X676661Y402679D01*
X676650Y402690D01*
X676646Y402694D01*
Y401122D01*
X676399D01*
Y403141D01*
X676559D01*
X676587Y403091D01*
D02*
G37*
G36*
X489660D02*
X489692Y403043D01*
X489729Y402997D01*
X489767Y402958D01*
X489799Y402921D01*
X489815Y402908D01*
X489825Y402894D01*
X489836Y402883D01*
X489845Y402877D01*
X489849Y402873D01*
X489852Y402870D01*
X489910Y402820D01*
X489974Y402777D01*
X490035Y402735D01*
X490091Y402700D01*
X490115Y402687D01*
X490139Y402674D01*
X490161Y402661D01*
X490178Y402652D01*
X490194Y402646D01*
X490205Y402639D01*
X490211Y402637D01*
X490213Y402635D01*
Y402397D01*
X490170Y402415D01*
X490124Y402434D01*
X490080Y402456D01*
X490041Y402476D01*
X490006Y402495D01*
X489991Y402502D01*
X489978Y402511D01*
X489967Y402515D01*
X489960Y402520D01*
X489956Y402524D01*
X489954D01*
X489902Y402557D01*
X489856Y402587D01*
X489815Y402615D01*
X489782Y402641D01*
X489753Y402663D01*
X489734Y402679D01*
X489723Y402690D01*
X489718Y402694D01*
Y401122D01*
X489472D01*
Y403141D01*
X489631D01*
X489660Y403091D01*
D02*
G37*
G36*
X302732D02*
X302765Y403043D01*
X302802Y402997D01*
X302839Y402958D01*
X302872Y402921D01*
X302887Y402908D01*
X302898Y402894D01*
X302909Y402883D01*
X302918Y402877D01*
X302922Y402873D01*
X302924Y402870D01*
X302983Y402820D01*
X303046Y402777D01*
X303107Y402735D01*
X303164Y402700D01*
X303188Y402687D01*
X303212Y402674D01*
X303234Y402661D01*
X303251Y402652D01*
X303267Y402646D01*
X303277Y402639D01*
X303284Y402637D01*
X303286Y402635D01*
Y402397D01*
X303242Y402415D01*
X303197Y402434D01*
X303153Y402456D01*
X303114Y402476D01*
X303079Y402495D01*
X303064Y402502D01*
X303051Y402511D01*
X303040Y402515D01*
X303033Y402520D01*
X303029Y402524D01*
X303027D01*
X302974Y402557D01*
X302929Y402587D01*
X302887Y402615D01*
X302854Y402641D01*
X302826Y402663D01*
X302806Y402679D01*
X302796Y402690D01*
X302791Y402694D01*
Y401122D01*
X302545D01*
Y403141D01*
X302704D01*
X302732Y403091D01*
D02*
G37*
G36*
X115805D02*
X115838Y403043D01*
X115875Y402997D01*
X115912Y402958D01*
X115945Y402921D01*
X115960Y402908D01*
X115971Y402894D01*
X115982Y402883D01*
X115990Y402877D01*
X115995Y402873D01*
X115997Y402870D01*
X116056Y402820D01*
X116119Y402777D01*
X116180Y402735D01*
X116237Y402700D01*
X116261Y402687D01*
X116285Y402674D01*
X116306Y402661D01*
X116324Y402652D01*
X116339Y402646D01*
X116350Y402639D01*
X116357Y402637D01*
X116359Y402635D01*
Y402397D01*
X116315Y402415D01*
X116270Y402434D01*
X116226Y402456D01*
X116187Y402476D01*
X116152Y402495D01*
X116137Y402502D01*
X116123Y402511D01*
X116112Y402515D01*
X116106Y402520D01*
X116102Y402524D01*
X116100D01*
X116047Y402557D01*
X116001Y402587D01*
X115960Y402615D01*
X115927Y402641D01*
X115899Y402663D01*
X115879Y402679D01*
X115868Y402690D01*
X115864Y402694D01*
Y401122D01*
X115618D01*
Y403141D01*
X115777D01*
X115805Y403091D01*
D02*
G37*
G36*
X677493Y366910D02*
X677525Y366862D01*
X677562Y366816D01*
X677599Y366776D01*
X677632Y366740D01*
X677647Y366726D01*
X677658Y366713D01*
X677669Y366702D01*
X677678Y366696D01*
X677682Y366691D01*
X677684Y366689D01*
X677743Y366639D01*
X677806Y366596D01*
X677867Y366554D01*
X677924Y366519D01*
X677948Y366506D01*
X677972Y366493D01*
X677994Y366480D01*
X678011Y366471D01*
X678027Y366465D01*
X678037Y366458D01*
X678044Y366456D01*
X678046Y366454D01*
Y366216D01*
X678003Y366234D01*
X677957Y366253D01*
X677913Y366275D01*
X677874Y366295D01*
X677839Y366314D01*
X677824Y366321D01*
X677811Y366330D01*
X677800Y366334D01*
X677793Y366338D01*
X677789Y366343D01*
X677787D01*
X677734Y366375D01*
X677689Y366406D01*
X677647Y366434D01*
X677614Y366460D01*
X677586Y366482D01*
X677567Y366497D01*
X677556Y366508D01*
X677551Y366513D01*
Y364941D01*
X677305D01*
Y366960D01*
X677464D01*
X677493Y366910D01*
D02*
G37*
G36*
X490565D02*
X490598Y366862D01*
X490635Y366816D01*
X490672Y366776D01*
X490705Y366740D01*
X490720Y366726D01*
X490731Y366713D01*
X490742Y366702D01*
X490751Y366696D01*
X490755Y366691D01*
X490757Y366689D01*
X490816Y366639D01*
X490879Y366596D01*
X490940Y366554D01*
X490997Y366519D01*
X491021Y366506D01*
X491045Y366493D01*
X491067Y366480D01*
X491084Y366471D01*
X491099Y366465D01*
X491110Y366458D01*
X491117Y366456D01*
X491119Y366454D01*
Y366216D01*
X491075Y366234D01*
X491030Y366253D01*
X490986Y366275D01*
X490947Y366295D01*
X490912Y366314D01*
X490897Y366321D01*
X490883Y366330D01*
X490873Y366334D01*
X490866Y366338D01*
X490862Y366343D01*
X490860D01*
X490807Y366375D01*
X490761Y366406D01*
X490720Y366434D01*
X490687Y366460D01*
X490659Y366482D01*
X490639Y366497D01*
X490628Y366508D01*
X490624Y366513D01*
Y364941D01*
X490378D01*
Y366960D01*
X490537D01*
X490565Y366910D01*
D02*
G37*
G36*
X303638D02*
X303671Y366862D01*
X303708Y366816D01*
X303745Y366776D01*
X303777Y366740D01*
X303793Y366726D01*
X303804Y366713D01*
X303815Y366702D01*
X303823Y366696D01*
X303828Y366691D01*
X303830Y366689D01*
X303889Y366639D01*
X303952Y366596D01*
X304013Y366554D01*
X304070Y366519D01*
X304094Y366506D01*
X304117Y366493D01*
X304139Y366480D01*
X304157Y366471D01*
X304172Y366465D01*
X304183Y366458D01*
X304189Y366456D01*
X304192Y366454D01*
Y366216D01*
X304148Y366234D01*
X304102Y366253D01*
X304059Y366275D01*
X304019Y366295D01*
X303984Y366314D01*
X303969Y366321D01*
X303956Y366330D01*
X303945Y366334D01*
X303939Y366338D01*
X303934Y366343D01*
X303932D01*
X303880Y366375D01*
X303834Y366406D01*
X303793Y366434D01*
X303760Y366460D01*
X303732Y366482D01*
X303712Y366497D01*
X303701Y366508D01*
X303697Y366513D01*
Y364941D01*
X303450D01*
Y366960D01*
X303610D01*
X303638Y366910D01*
D02*
G37*
G36*
X116711D02*
X116743Y366862D01*
X116780Y366816D01*
X116817Y366776D01*
X116850Y366740D01*
X116866Y366726D01*
X116876Y366713D01*
X116887Y366702D01*
X116896Y366696D01*
X116900Y366691D01*
X116902Y366689D01*
X116961Y366639D01*
X117025Y366596D01*
X117086Y366554D01*
X117142Y366519D01*
X117166Y366506D01*
X117190Y366493D01*
X117212Y366480D01*
X117229Y366471D01*
X117245Y366465D01*
X117256Y366458D01*
X117262Y366456D01*
X117264Y366454D01*
Y366216D01*
X117221Y366234D01*
X117175Y366253D01*
X117131Y366275D01*
X117092Y366295D01*
X117057Y366314D01*
X117042Y366321D01*
X117029Y366330D01*
X117018Y366334D01*
X117011Y366338D01*
X117007Y366343D01*
X117005D01*
X116953Y366375D01*
X116907Y366406D01*
X116866Y366434D01*
X116833Y366460D01*
X116804Y366482D01*
X116785Y366497D01*
X116774Y366508D01*
X116770Y366513D01*
Y364941D01*
X116523D01*
Y366960D01*
X116682D01*
X116711Y366910D01*
D02*
G37*
G36*
X676627Y365894D02*
X676396Y365861D01*
X676374Y365891D01*
X676350Y365920D01*
X676324Y365944D01*
X676302Y365966D01*
X676280Y365981D01*
X676263Y365994D01*
X676252Y366001D01*
X676248Y366003D01*
X676211Y366022D01*
X676173Y366035D01*
X676136Y366046D01*
X676102Y366053D01*
X676073Y366057D01*
X676049Y366059D01*
X676030D01*
X675995Y366057D01*
X675962Y366055D01*
X675929Y366048D01*
X675901Y366040D01*
X675847Y366020D01*
X675825Y366009D01*
X675803Y365998D01*
X675783Y365985D01*
X675768Y365974D01*
X675753Y365963D01*
X675742Y365955D01*
X675733Y365946D01*
X675725Y365939D01*
X675722Y365937D01*
X675720Y365935D01*
X675698Y365911D01*
X675681Y365885D01*
X675663Y365859D01*
X675650Y365833D01*
X675629Y365776D01*
X675616Y365724D01*
X675611Y365697D01*
X675607Y365676D01*
X675605Y365654D01*
X675602Y365636D01*
X675600Y365621D01*
Y365610D01*
Y365604D01*
Y365601D01*
X675602Y365560D01*
X675605Y365523D01*
X675611Y365486D01*
X675620Y365451D01*
X675629Y365421D01*
X675639Y365390D01*
X675650Y365364D01*
X675661Y365340D01*
X675674Y365318D01*
X675685Y365299D01*
X675696Y365283D01*
X675705Y365268D01*
X675714Y365257D01*
X675720Y365250D01*
X675722Y365246D01*
X675725Y365244D01*
X675748Y365220D01*
X675772Y365200D01*
X675796Y365183D01*
X675823Y365168D01*
X675849Y365155D01*
X675873Y365144D01*
X675921Y365128D01*
X675962Y365118D01*
X675980Y365115D01*
X675995Y365113D01*
X676008Y365111D01*
X676025D01*
X676054Y365113D01*
X676080Y365115D01*
X676128Y365126D01*
X676171Y365142D01*
X676208Y365159D01*
X676239Y365174D01*
X676261Y365190D01*
X676269Y365196D01*
X676276Y365200D01*
X676278Y365205D01*
X676280D01*
X676298Y365224D01*
X676315Y365244D01*
X676344Y365288D01*
X676368Y365336D01*
X676385Y365381D01*
X676396Y365423D01*
X676403Y365442D01*
X676405Y365458D01*
X676407Y365471D01*
X676409Y365479D01*
X676411Y365486D01*
Y365488D01*
X676671Y365469D01*
X676664Y365423D01*
X676655Y365377D01*
X676644Y365336D01*
X676629Y365296D01*
X676614Y365261D01*
X676599Y365227D01*
X676581Y365196D01*
X676564Y365170D01*
X676546Y365144D01*
X676531Y365122D01*
X676516Y365105D01*
X676501Y365089D01*
X676490Y365076D01*
X676481Y365067D01*
X676477Y365063D01*
X676474Y365061D01*
X676440Y365035D01*
X676405Y365011D01*
X676368Y364991D01*
X676331Y364974D01*
X676294Y364958D01*
X676256Y364945D01*
X676219Y364934D01*
X676185Y364928D01*
X676152Y364921D01*
X676121Y364917D01*
X676095Y364913D01*
X676071Y364910D01*
X676052Y364908D01*
X676025D01*
X675964Y364910D01*
X675908Y364919D01*
X675853Y364930D01*
X675803Y364948D01*
X675755Y364965D01*
X675711Y364985D01*
X675672Y365009D01*
X675637Y365030D01*
X675605Y365052D01*
X675576Y365076D01*
X675552Y365096D01*
X675533Y365115D01*
X675517Y365131D01*
X675506Y365142D01*
X675500Y365150D01*
X675498Y365152D01*
X675469Y365190D01*
X675445Y365229D01*
X675424Y365270D01*
X675406Y365309D01*
X675391Y365349D01*
X675378Y365388D01*
X675367Y365427D01*
X675358Y365462D01*
X675352Y365497D01*
X675347Y365527D01*
X675343Y365553D01*
X675341Y365578D01*
X675339Y365597D01*
Y365610D01*
Y365621D01*
Y365623D01*
X675341Y365676D01*
X675347Y365726D01*
X675356Y365774D01*
X675367Y365817D01*
X675380Y365861D01*
X675397Y365898D01*
X675413Y365935D01*
X675430Y365968D01*
X675448Y365996D01*
X675463Y366020D01*
X675478Y366044D01*
X675493Y366061D01*
X675504Y366075D01*
X675513Y366086D01*
X675520Y366092D01*
X675522Y366094D01*
X675557Y366127D01*
X675594Y366155D01*
X675631Y366179D01*
X675668Y366201D01*
X675705Y366218D01*
X675742Y366234D01*
X675777Y366245D01*
X675812Y366255D01*
X675842Y366262D01*
X675873Y366269D01*
X675899Y366271D01*
X675921Y366275D01*
X675938D01*
X675953Y366277D01*
X675964D01*
X676001Y366275D01*
X676038Y366273D01*
X676073Y366266D01*
X676108Y366258D01*
X676171Y366238D01*
X676202Y366225D01*
X676228Y366214D01*
X676254Y366203D01*
X676276Y366190D01*
X676296Y366179D01*
X676313Y366171D01*
X676326Y366162D01*
X676335Y366157D01*
X676341Y366153D01*
X676344Y366151D01*
X676237Y366691D01*
X675432D01*
Y366927D01*
X676433D01*
X676627Y365894D01*
D02*
G37*
G36*
X489700D02*
X489469Y365861D01*
X489447Y365891D01*
X489423Y365920D01*
X489397Y365944D01*
X489375Y365966D01*
X489353Y365981D01*
X489336Y365994D01*
X489325Y366001D01*
X489320Y366003D01*
X489283Y366022D01*
X489246Y366035D01*
X489209Y366046D01*
X489174Y366053D01*
X489146Y366057D01*
X489122Y366059D01*
X489102D01*
X489068Y366057D01*
X489035Y366055D01*
X489002Y366048D01*
X488974Y366040D01*
X488919Y366020D01*
X488898Y366009D01*
X488876Y365998D01*
X488856Y365985D01*
X488841Y365974D01*
X488826Y365963D01*
X488815Y365955D01*
X488806Y365946D01*
X488797Y365939D01*
X488795Y365937D01*
X488793Y365935D01*
X488771Y365911D01*
X488754Y365885D01*
X488736Y365859D01*
X488723Y365833D01*
X488701Y365776D01*
X488688Y365724D01*
X488684Y365697D01*
X488680Y365676D01*
X488677Y365654D01*
X488675Y365636D01*
X488673Y365621D01*
Y365610D01*
Y365604D01*
Y365601D01*
X488675Y365560D01*
X488677Y365523D01*
X488684Y365486D01*
X488693Y365451D01*
X488701Y365421D01*
X488712Y365390D01*
X488723Y365364D01*
X488734Y365340D01*
X488747Y365318D01*
X488758Y365299D01*
X488769Y365283D01*
X488778Y365268D01*
X488786Y365257D01*
X488793Y365250D01*
X488795Y365246D01*
X488797Y365244D01*
X488821Y365220D01*
X488845Y365200D01*
X488869Y365183D01*
X488895Y365168D01*
X488921Y365155D01*
X488945Y365144D01*
X488993Y365128D01*
X489035Y365118D01*
X489052Y365115D01*
X489068Y365113D01*
X489081Y365111D01*
X489098D01*
X489126Y365113D01*
X489152Y365115D01*
X489200Y365126D01*
X489244Y365142D01*
X489281Y365159D01*
X489312Y365174D01*
X489333Y365190D01*
X489342Y365196D01*
X489349Y365200D01*
X489351Y365205D01*
X489353D01*
X489371Y365224D01*
X489388Y365244D01*
X489416Y365288D01*
X489440Y365336D01*
X489458Y365381D01*
X489469Y365423D01*
X489475Y365442D01*
X489477Y365458D01*
X489480Y365471D01*
X489482Y365479D01*
X489484Y365486D01*
Y365488D01*
X489743Y365469D01*
X489737Y365423D01*
X489728Y365377D01*
X489717Y365336D01*
X489702Y365296D01*
X489687Y365261D01*
X489671Y365227D01*
X489654Y365196D01*
X489637Y365170D01*
X489619Y365144D01*
X489604Y365122D01*
X489589Y365105D01*
X489573Y365089D01*
X489562Y365076D01*
X489554Y365067D01*
X489549Y365063D01*
X489547Y365061D01*
X489512Y365035D01*
X489477Y365011D01*
X489440Y364991D01*
X489403Y364974D01*
X489366Y364958D01*
X489329Y364945D01*
X489292Y364934D01*
X489257Y364928D01*
X489224Y364921D01*
X489194Y364917D01*
X489168Y364913D01*
X489144Y364910D01*
X489124Y364908D01*
X489098D01*
X489037Y364910D01*
X488980Y364919D01*
X488926Y364930D01*
X488876Y364948D01*
X488828Y364965D01*
X488784Y364985D01*
X488745Y365009D01*
X488710Y365030D01*
X488677Y365052D01*
X488649Y365076D01*
X488625Y365096D01*
X488605Y365115D01*
X488590Y365131D01*
X488579Y365142D01*
X488573Y365150D01*
X488570Y365152D01*
X488542Y365190D01*
X488518Y365229D01*
X488496Y365270D01*
X488479Y365309D01*
X488464Y365349D01*
X488451Y365388D01*
X488440Y365427D01*
X488431Y365462D01*
X488424Y365497D01*
X488420Y365527D01*
X488416Y365553D01*
X488413Y365578D01*
X488411Y365597D01*
Y365610D01*
Y365621D01*
Y365623D01*
X488413Y365676D01*
X488420Y365726D01*
X488429Y365774D01*
X488440Y365817D01*
X488453Y365861D01*
X488470Y365898D01*
X488485Y365935D01*
X488503Y365968D01*
X488520Y365996D01*
X488536Y366020D01*
X488551Y366044D01*
X488566Y366061D01*
X488577Y366075D01*
X488586Y366086D01*
X488592Y366092D01*
X488594Y366094D01*
X488629Y366127D01*
X488666Y366155D01*
X488703Y366179D01*
X488740Y366201D01*
X488778Y366218D01*
X488815Y366234D01*
X488849Y366245D01*
X488884Y366255D01*
X488915Y366262D01*
X488945Y366269D01*
X488972Y366271D01*
X488993Y366275D01*
X489011D01*
X489026Y366277D01*
X489037D01*
X489074Y366275D01*
X489111Y366273D01*
X489146Y366266D01*
X489181Y366258D01*
X489244Y366238D01*
X489275Y366225D01*
X489301Y366214D01*
X489327Y366203D01*
X489349Y366190D01*
X489368Y366179D01*
X489386Y366171D01*
X489399Y366162D01*
X489408Y366157D01*
X489414Y366153D01*
X489416Y366151D01*
X489310Y366691D01*
X488505D01*
Y366927D01*
X489506D01*
X489700Y365894D01*
D02*
G37*
G36*
X302772D02*
X302541Y365861D01*
X302520Y365891D01*
X302496Y365920D01*
X302469Y365944D01*
X302448Y365966D01*
X302426Y365981D01*
X302408Y365994D01*
X302397Y366001D01*
X302393Y366003D01*
X302356Y366022D01*
X302319Y366035D01*
X302282Y366046D01*
X302247Y366053D01*
X302219Y366057D01*
X302195Y366059D01*
X302175D01*
X302140Y366057D01*
X302108Y366055D01*
X302075Y366048D01*
X302046Y366040D01*
X301992Y366020D01*
X301970Y366009D01*
X301948Y365998D01*
X301929Y365985D01*
X301913Y365974D01*
X301898Y365963D01*
X301887Y365955D01*
X301879Y365946D01*
X301870Y365939D01*
X301868Y365937D01*
X301866Y365935D01*
X301844Y365911D01*
X301826Y365885D01*
X301809Y365859D01*
X301796Y365833D01*
X301774Y365776D01*
X301761Y365724D01*
X301757Y365697D01*
X301752Y365676D01*
X301750Y365654D01*
X301748Y365636D01*
X301746Y365621D01*
Y365610D01*
Y365604D01*
Y365601D01*
X301748Y365560D01*
X301750Y365523D01*
X301757Y365486D01*
X301765Y365451D01*
X301774Y365421D01*
X301785Y365390D01*
X301796Y365364D01*
X301807Y365340D01*
X301820Y365318D01*
X301831Y365299D01*
X301842Y365283D01*
X301850Y365268D01*
X301859Y365257D01*
X301866Y365250D01*
X301868Y365246D01*
X301870Y365244D01*
X301894Y365220D01*
X301918Y365200D01*
X301942Y365183D01*
X301968Y365168D01*
X301994Y365155D01*
X302018Y365144D01*
X302066Y365128D01*
X302108Y365118D01*
X302125Y365115D01*
X302140Y365113D01*
X302153Y365111D01*
X302171D01*
X302199Y365113D01*
X302225Y365115D01*
X302273Y365126D01*
X302317Y365142D01*
X302354Y365159D01*
X302384Y365174D01*
X302406Y365190D01*
X302415Y365196D01*
X302421Y365200D01*
X302424Y365205D01*
X302426D01*
X302443Y365224D01*
X302461Y365244D01*
X302489Y365288D01*
X302513Y365336D01*
X302531Y365381D01*
X302541Y365423D01*
X302548Y365442D01*
X302550Y365458D01*
X302552Y365471D01*
X302554Y365479D01*
X302557Y365486D01*
Y365488D01*
X302816Y365469D01*
X302810Y365423D01*
X302801Y365377D01*
X302790Y365336D01*
X302775Y365296D01*
X302759Y365261D01*
X302744Y365227D01*
X302727Y365196D01*
X302709Y365170D01*
X302692Y365144D01*
X302677Y365122D01*
X302661Y365105D01*
X302646Y365089D01*
X302635Y365076D01*
X302626Y365067D01*
X302622Y365063D01*
X302620Y365061D01*
X302585Y365035D01*
X302550Y365011D01*
X302513Y364991D01*
X302476Y364974D01*
X302439Y364958D01*
X302402Y364945D01*
X302365Y364934D01*
X302330Y364928D01*
X302297Y364921D01*
X302267Y364917D01*
X302240Y364913D01*
X302217Y364910D01*
X302197Y364908D01*
X302171D01*
X302110Y364910D01*
X302053Y364919D01*
X301999Y364930D01*
X301948Y364948D01*
X301901Y364965D01*
X301857Y364985D01*
X301818Y365009D01*
X301783Y365030D01*
X301750Y365052D01*
X301722Y365076D01*
X301698Y365096D01*
X301678Y365115D01*
X301663Y365131D01*
X301652Y365142D01*
X301645Y365150D01*
X301643Y365152D01*
X301615Y365190D01*
X301591Y365229D01*
X301569Y365270D01*
X301552Y365309D01*
X301536Y365349D01*
X301523Y365388D01*
X301512Y365427D01*
X301504Y365462D01*
X301497Y365497D01*
X301493Y365527D01*
X301488Y365553D01*
X301486Y365578D01*
X301484Y365597D01*
Y365610D01*
Y365621D01*
Y365623D01*
X301486Y365676D01*
X301493Y365726D01*
X301501Y365774D01*
X301512Y365817D01*
X301525Y365861D01*
X301543Y365898D01*
X301558Y365935D01*
X301576Y365968D01*
X301593Y365996D01*
X301608Y366020D01*
X301624Y366044D01*
X301639Y366061D01*
X301650Y366075D01*
X301659Y366086D01*
X301665Y366092D01*
X301667Y366094D01*
X301702Y366127D01*
X301739Y366155D01*
X301776Y366179D01*
X301813Y366201D01*
X301850Y366218D01*
X301887Y366234D01*
X301922Y366245D01*
X301957Y366255D01*
X301988Y366262D01*
X302018Y366269D01*
X302044Y366271D01*
X302066Y366275D01*
X302084D01*
X302099Y366277D01*
X302110D01*
X302147Y366275D01*
X302184Y366273D01*
X302219Y366266D01*
X302254Y366258D01*
X302317Y366238D01*
X302347Y366225D01*
X302374Y366214D01*
X302400Y366203D01*
X302421Y366190D01*
X302441Y366179D01*
X302459Y366171D01*
X302472Y366162D01*
X302480Y366157D01*
X302487Y366153D01*
X302489Y366151D01*
X302382Y366691D01*
X301578D01*
Y366927D01*
X302578D01*
X302772Y365894D01*
D02*
G37*
G36*
X115845D02*
X115614Y365861D01*
X115592Y365891D01*
X115568Y365920D01*
X115542Y365944D01*
X115520Y365966D01*
X115499Y365981D01*
X115481Y365994D01*
X115470Y366001D01*
X115466Y366003D01*
X115429Y366022D01*
X115392Y366035D01*
X115355Y366046D01*
X115320Y366053D01*
X115292Y366057D01*
X115268Y366059D01*
X115248D01*
X115213Y366057D01*
X115180Y366055D01*
X115148Y366048D01*
X115119Y366040D01*
X115065Y366020D01*
X115043Y366009D01*
X115021Y365998D01*
X115001Y365985D01*
X114986Y365974D01*
X114971Y365963D01*
X114960Y365955D01*
X114951Y365946D01*
X114943Y365939D01*
X114941Y365937D01*
X114938Y365935D01*
X114917Y365911D01*
X114899Y365885D01*
X114882Y365859D01*
X114869Y365833D01*
X114847Y365776D01*
X114834Y365724D01*
X114829Y365697D01*
X114825Y365676D01*
X114823Y365654D01*
X114821Y365636D01*
X114818Y365621D01*
Y365610D01*
Y365604D01*
Y365601D01*
X114821Y365560D01*
X114823Y365523D01*
X114829Y365486D01*
X114838Y365451D01*
X114847Y365421D01*
X114858Y365390D01*
X114869Y365364D01*
X114880Y365340D01*
X114893Y365318D01*
X114903Y365299D01*
X114914Y365283D01*
X114923Y365268D01*
X114932Y365257D01*
X114938Y365250D01*
X114941Y365246D01*
X114943Y365244D01*
X114967Y365220D01*
X114991Y365200D01*
X115015Y365183D01*
X115041Y365168D01*
X115067Y365155D01*
X115091Y365144D01*
X115139Y365128D01*
X115180Y365118D01*
X115198Y365115D01*
X115213Y365113D01*
X115226Y365111D01*
X115243D01*
X115272Y365113D01*
X115298Y365115D01*
X115346Y365126D01*
X115390Y365142D01*
X115427Y365159D01*
X115457Y365174D01*
X115479Y365190D01*
X115488Y365196D01*
X115494Y365200D01*
X115496Y365205D01*
X115499D01*
X115516Y365224D01*
X115533Y365244D01*
X115562Y365288D01*
X115586Y365336D01*
X115603Y365381D01*
X115614Y365423D01*
X115621Y365442D01*
X115623Y365458D01*
X115625Y365471D01*
X115627Y365479D01*
X115629Y365486D01*
Y365488D01*
X115889Y365469D01*
X115882Y365423D01*
X115874Y365377D01*
X115863Y365336D01*
X115847Y365296D01*
X115832Y365261D01*
X115817Y365227D01*
X115799Y365196D01*
X115782Y365170D01*
X115765Y365144D01*
X115749Y365122D01*
X115734Y365105D01*
X115719Y365089D01*
X115708Y365076D01*
X115699Y365067D01*
X115695Y365063D01*
X115693Y365061D01*
X115658Y365035D01*
X115623Y365011D01*
X115586Y364991D01*
X115549Y364974D01*
X115512Y364958D01*
X115475Y364945D01*
X115438Y364934D01*
X115403Y364928D01*
X115370Y364921D01*
X115340Y364917D01*
X115313Y364913D01*
X115289Y364910D01*
X115270Y364908D01*
X115243D01*
X115182Y364910D01*
X115126Y364919D01*
X115071Y364930D01*
X115021Y364948D01*
X114973Y364965D01*
X114930Y364985D01*
X114890Y365009D01*
X114856Y365030D01*
X114823Y365052D01*
X114795Y365076D01*
X114770Y365096D01*
X114751Y365115D01*
X114736Y365131D01*
X114725Y365142D01*
X114718Y365150D01*
X114716Y365152D01*
X114688Y365190D01*
X114664Y365229D01*
X114642Y365270D01*
X114624Y365309D01*
X114609Y365349D01*
X114596Y365388D01*
X114585Y365427D01*
X114576Y365462D01*
X114570Y365497D01*
X114566Y365527D01*
X114561Y365553D01*
X114559Y365578D01*
X114557Y365597D01*
Y365610D01*
Y365621D01*
Y365623D01*
X114559Y365676D01*
X114566Y365726D01*
X114574Y365774D01*
X114585Y365817D01*
X114598Y365861D01*
X114616Y365898D01*
X114631Y365935D01*
X114648Y365968D01*
X114666Y365996D01*
X114681Y366020D01*
X114696Y366044D01*
X114712Y366061D01*
X114723Y366075D01*
X114731Y366086D01*
X114738Y366092D01*
X114740Y366094D01*
X114775Y366127D01*
X114812Y366155D01*
X114849Y366179D01*
X114886Y366201D01*
X114923Y366218D01*
X114960Y366234D01*
X114995Y366245D01*
X115030Y366255D01*
X115060Y366262D01*
X115091Y366269D01*
X115117Y366271D01*
X115139Y366275D01*
X115156D01*
X115172Y366277D01*
X115182D01*
X115220Y366275D01*
X115257Y366273D01*
X115292Y366266D01*
X115326Y366258D01*
X115390Y366238D01*
X115420Y366225D01*
X115446Y366214D01*
X115472Y366203D01*
X115494Y366190D01*
X115514Y366179D01*
X115531Y366171D01*
X115544Y366162D01*
X115553Y366157D01*
X115560Y366153D01*
X115562Y366151D01*
X115455Y366691D01*
X114651D01*
Y366927D01*
X115651D01*
X115845Y365894D01*
D02*
G37*
G36*
X676587Y310079D02*
X676620Y310031D01*
X676657Y309985D01*
X676694Y309946D01*
X676726Y309909D01*
X676742Y309896D01*
X676753Y309883D01*
X676763Y309872D01*
X676772Y309865D01*
X676777Y309861D01*
X676779Y309859D01*
X676838Y309808D01*
X676901Y309765D01*
X676962Y309723D01*
X677019Y309689D01*
X677043Y309676D01*
X677067Y309662D01*
X677088Y309649D01*
X677106Y309641D01*
X677121Y309634D01*
X677132Y309628D01*
X677139Y309625D01*
X677141Y309623D01*
Y309386D01*
X677097Y309403D01*
X677051Y309423D01*
X677008Y309444D01*
X676968Y309464D01*
X676934Y309484D01*
X676918Y309490D01*
X676905Y309499D01*
X676894Y309503D01*
X676888Y309508D01*
X676883Y309512D01*
X676881D01*
X676829Y309545D01*
X676783Y309575D01*
X676742Y309604D01*
X676709Y309630D01*
X676681Y309651D01*
X676661Y309667D01*
X676650Y309678D01*
X676646Y309682D01*
Y308110D01*
X676399D01*
Y310129D01*
X676559D01*
X676587Y310079D01*
D02*
G37*
G36*
X489660D02*
X489692Y310031D01*
X489729Y309985D01*
X489767Y309946D01*
X489799Y309909D01*
X489815Y309896D01*
X489825Y309883D01*
X489836Y309872D01*
X489845Y309865D01*
X489849Y309861D01*
X489852Y309859D01*
X489910Y309808D01*
X489974Y309765D01*
X490035Y309723D01*
X490091Y309689D01*
X490115Y309676D01*
X490139Y309662D01*
X490161Y309649D01*
X490178Y309641D01*
X490194Y309634D01*
X490205Y309628D01*
X490211Y309625D01*
X490213Y309623D01*
Y309386D01*
X490170Y309403D01*
X490124Y309423D01*
X490080Y309444D01*
X490041Y309464D01*
X490006Y309484D01*
X489991Y309490D01*
X489978Y309499D01*
X489967Y309503D01*
X489960Y309508D01*
X489956Y309512D01*
X489954D01*
X489902Y309545D01*
X489856Y309575D01*
X489815Y309604D01*
X489782Y309630D01*
X489753Y309651D01*
X489734Y309667D01*
X489723Y309678D01*
X489718Y309682D01*
Y308110D01*
X489472D01*
Y310129D01*
X489631D01*
X489660Y310079D01*
D02*
G37*
G36*
X302732D02*
X302765Y310031D01*
X302802Y309985D01*
X302839Y309946D01*
X302872Y309909D01*
X302887Y309896D01*
X302898Y309883D01*
X302909Y309872D01*
X302918Y309865D01*
X302922Y309861D01*
X302924Y309859D01*
X302983Y309808D01*
X303046Y309765D01*
X303107Y309723D01*
X303164Y309689D01*
X303188Y309676D01*
X303212Y309662D01*
X303234Y309649D01*
X303251Y309641D01*
X303267Y309634D01*
X303277Y309628D01*
X303284Y309625D01*
X303286Y309623D01*
Y309386D01*
X303242Y309403D01*
X303197Y309423D01*
X303153Y309444D01*
X303114Y309464D01*
X303079Y309484D01*
X303064Y309490D01*
X303051Y309499D01*
X303040Y309503D01*
X303033Y309508D01*
X303029Y309512D01*
X303027D01*
X302974Y309545D01*
X302929Y309575D01*
X302887Y309604D01*
X302854Y309630D01*
X302826Y309651D01*
X302806Y309667D01*
X302796Y309678D01*
X302791Y309682D01*
Y308110D01*
X302545D01*
Y310129D01*
X302704D01*
X302732Y310079D01*
D02*
G37*
G36*
X115805D02*
X115838Y310031D01*
X115875Y309985D01*
X115912Y309946D01*
X115945Y309909D01*
X115960Y309896D01*
X115971Y309883D01*
X115982Y309872D01*
X115990Y309865D01*
X115995Y309861D01*
X115997Y309859D01*
X116056Y309808D01*
X116119Y309765D01*
X116180Y309723D01*
X116237Y309689D01*
X116261Y309676D01*
X116285Y309662D01*
X116306Y309649D01*
X116324Y309641D01*
X116339Y309634D01*
X116350Y309628D01*
X116357Y309625D01*
X116359Y309623D01*
Y309386D01*
X116315Y309403D01*
X116270Y309423D01*
X116226Y309444D01*
X116187Y309464D01*
X116152Y309484D01*
X116137Y309490D01*
X116123Y309499D01*
X116112Y309503D01*
X116106Y309508D01*
X116102Y309512D01*
X116100D01*
X116047Y309545D01*
X116001Y309575D01*
X115960Y309604D01*
X115927Y309630D01*
X115899Y309651D01*
X115879Y309667D01*
X115868Y309678D01*
X115864Y309682D01*
Y308110D01*
X115618D01*
Y310129D01*
X115777D01*
X115805Y310079D01*
D02*
G37*
G36*
X677493Y273898D02*
X677525Y273850D01*
X677562Y273804D01*
X677599Y273765D01*
X677632Y273728D01*
X677647Y273715D01*
X677658Y273702D01*
X677669Y273691D01*
X677678Y273684D01*
X677682Y273680D01*
X677684Y273677D01*
X677743Y273627D01*
X677806Y273584D01*
X677867Y273542D01*
X677924Y273507D01*
X677948Y273494D01*
X677972Y273481D01*
X677994Y273468D01*
X678011Y273460D01*
X678027Y273453D01*
X678037Y273446D01*
X678044Y273444D01*
X678046Y273442D01*
Y273204D01*
X678003Y273222D01*
X677957Y273241D01*
X677913Y273263D01*
X677874Y273283D01*
X677839Y273303D01*
X677824Y273309D01*
X677811Y273318D01*
X677800Y273322D01*
X677793Y273326D01*
X677789Y273331D01*
X677787D01*
X677734Y273364D01*
X677689Y273394D01*
X677647Y273423D01*
X677614Y273449D01*
X677586Y273470D01*
X677567Y273486D01*
X677556Y273497D01*
X677551Y273501D01*
Y271929D01*
X677305D01*
Y273948D01*
X677464D01*
X677493Y273898D01*
D02*
G37*
G36*
X490565D02*
X490598Y273850D01*
X490635Y273804D01*
X490672Y273765D01*
X490705Y273728D01*
X490720Y273715D01*
X490731Y273702D01*
X490742Y273691D01*
X490751Y273684D01*
X490755Y273680D01*
X490757Y273677D01*
X490816Y273627D01*
X490879Y273584D01*
X490940Y273542D01*
X490997Y273507D01*
X491021Y273494D01*
X491045Y273481D01*
X491067Y273468D01*
X491084Y273460D01*
X491099Y273453D01*
X491110Y273446D01*
X491117Y273444D01*
X491119Y273442D01*
Y273204D01*
X491075Y273222D01*
X491030Y273241D01*
X490986Y273263D01*
X490947Y273283D01*
X490912Y273303D01*
X490897Y273309D01*
X490883Y273318D01*
X490873Y273322D01*
X490866Y273326D01*
X490862Y273331D01*
X490860D01*
X490807Y273364D01*
X490761Y273394D01*
X490720Y273423D01*
X490687Y273449D01*
X490659Y273470D01*
X490639Y273486D01*
X490628Y273497D01*
X490624Y273501D01*
Y271929D01*
X490378D01*
Y273948D01*
X490537D01*
X490565Y273898D01*
D02*
G37*
G36*
X303638D02*
X303671Y273850D01*
X303708Y273804D01*
X303745Y273765D01*
X303777Y273728D01*
X303793Y273715D01*
X303804Y273702D01*
X303815Y273691D01*
X303823Y273684D01*
X303828Y273680D01*
X303830Y273677D01*
X303889Y273627D01*
X303952Y273584D01*
X304013Y273542D01*
X304070Y273507D01*
X304094Y273494D01*
X304117Y273481D01*
X304139Y273468D01*
X304157Y273460D01*
X304172Y273453D01*
X304183Y273446D01*
X304189Y273444D01*
X304192Y273442D01*
Y273204D01*
X304148Y273222D01*
X304102Y273241D01*
X304059Y273263D01*
X304019Y273283D01*
X303984Y273303D01*
X303969Y273309D01*
X303956Y273318D01*
X303945Y273322D01*
X303939Y273326D01*
X303934Y273331D01*
X303932D01*
X303880Y273364D01*
X303834Y273394D01*
X303793Y273423D01*
X303760Y273449D01*
X303732Y273470D01*
X303712Y273486D01*
X303701Y273497D01*
X303697Y273501D01*
Y271929D01*
X303450D01*
Y273948D01*
X303610D01*
X303638Y273898D01*
D02*
G37*
G36*
X116711D02*
X116743Y273850D01*
X116780Y273804D01*
X116817Y273765D01*
X116850Y273728D01*
X116866Y273715D01*
X116876Y273702D01*
X116887Y273691D01*
X116896Y273684D01*
X116900Y273680D01*
X116902Y273677D01*
X116961Y273627D01*
X117025Y273584D01*
X117086Y273542D01*
X117142Y273507D01*
X117166Y273494D01*
X117190Y273481D01*
X117212Y273468D01*
X117229Y273460D01*
X117245Y273453D01*
X117256Y273446D01*
X117262Y273444D01*
X117264Y273442D01*
Y273204D01*
X117221Y273222D01*
X117175Y273241D01*
X117131Y273263D01*
X117092Y273283D01*
X117057Y273303D01*
X117042Y273309D01*
X117029Y273318D01*
X117018Y273322D01*
X117011Y273326D01*
X117007Y273331D01*
X117005D01*
X116953Y273364D01*
X116907Y273394D01*
X116866Y273423D01*
X116833Y273449D01*
X116804Y273470D01*
X116785Y273486D01*
X116774Y273497D01*
X116770Y273501D01*
Y271929D01*
X116523D01*
Y273948D01*
X116682D01*
X116711Y273898D01*
D02*
G37*
G36*
X676627Y272882D02*
X676396Y272849D01*
X676374Y272880D01*
X676350Y272908D01*
X676324Y272932D01*
X676302Y272954D01*
X676280Y272969D01*
X676263Y272982D01*
X676252Y272989D01*
X676248Y272991D01*
X676211Y273010D01*
X676173Y273024D01*
X676136Y273034D01*
X676102Y273041D01*
X676073Y273045D01*
X676049Y273047D01*
X676030D01*
X675995Y273045D01*
X675962Y273043D01*
X675929Y273037D01*
X675901Y273028D01*
X675847Y273008D01*
X675825Y272997D01*
X675803Y272987D01*
X675783Y272973D01*
X675768Y272962D01*
X675753Y272952D01*
X675742Y272943D01*
X675733Y272934D01*
X675725Y272928D01*
X675722Y272925D01*
X675720Y272923D01*
X675698Y272899D01*
X675681Y272873D01*
X675663Y272847D01*
X675650Y272821D01*
X675629Y272764D01*
X675616Y272712D01*
X675611Y272686D01*
X675607Y272664D01*
X675605Y272642D01*
X675602Y272625D01*
X675600Y272609D01*
Y272598D01*
Y272592D01*
Y272590D01*
X675602Y272548D01*
X675605Y272511D01*
X675611Y272474D01*
X675620Y272439D01*
X675629Y272409D01*
X675639Y272378D01*
X675650Y272352D01*
X675661Y272328D01*
X675674Y272306D01*
X675685Y272287D01*
X675696Y272271D01*
X675705Y272256D01*
X675714Y272245D01*
X675720Y272239D01*
X675722Y272234D01*
X675725Y272232D01*
X675748Y272208D01*
X675772Y272189D01*
X675796Y272171D01*
X675823Y272156D01*
X675849Y272143D01*
X675873Y272132D01*
X675921Y272117D01*
X675962Y272106D01*
X675980Y272104D01*
X675995Y272101D01*
X676008Y272099D01*
X676025D01*
X676054Y272101D01*
X676080Y272104D01*
X676128Y272114D01*
X676171Y272130D01*
X676208Y272147D01*
X676239Y272162D01*
X676261Y272178D01*
X676269Y272184D01*
X676276Y272189D01*
X676278Y272193D01*
X676280D01*
X676298Y272213D01*
X676315Y272232D01*
X676344Y272276D01*
X676368Y272324D01*
X676385Y272370D01*
X676396Y272411D01*
X676403Y272431D01*
X676405Y272446D01*
X676407Y272459D01*
X676409Y272468D01*
X676411Y272474D01*
Y272476D01*
X676671Y272457D01*
X676664Y272411D01*
X676655Y272365D01*
X676644Y272324D01*
X676629Y272285D01*
X676614Y272250D01*
X676599Y272215D01*
X676581Y272184D01*
X676564Y272158D01*
X676546Y272132D01*
X676531Y272110D01*
X676516Y272093D01*
X676501Y272077D01*
X676490Y272064D01*
X676481Y272056D01*
X676477Y272051D01*
X676474Y272049D01*
X676440Y272023D01*
X676405Y271999D01*
X676368Y271979D01*
X676331Y271962D01*
X676294Y271947D01*
X676256Y271934D01*
X676219Y271923D01*
X676185Y271916D01*
X676152Y271909D01*
X676121Y271905D01*
X676095Y271901D01*
X676071Y271899D01*
X676052Y271897D01*
X676025D01*
X675964Y271899D01*
X675908Y271907D01*
X675853Y271918D01*
X675803Y271936D01*
X675755Y271953D01*
X675711Y271973D01*
X675672Y271997D01*
X675637Y272019D01*
X675605Y272040D01*
X675576Y272064D01*
X675552Y272084D01*
X675533Y272104D01*
X675517Y272119D01*
X675506Y272130D01*
X675500Y272138D01*
X675498Y272141D01*
X675469Y272178D01*
X675445Y272217D01*
X675424Y272258D01*
X675406Y272298D01*
X675391Y272337D01*
X675378Y272376D01*
X675367Y272415D01*
X675358Y272450D01*
X675352Y272485D01*
X675347Y272516D01*
X675343Y272542D01*
X675341Y272566D01*
X675339Y272585D01*
Y272598D01*
Y272609D01*
Y272611D01*
X675341Y272664D01*
X675347Y272714D01*
X675356Y272762D01*
X675367Y272806D01*
X675380Y272849D01*
X675397Y272886D01*
X675413Y272923D01*
X675430Y272956D01*
X675448Y272984D01*
X675463Y273008D01*
X675478Y273032D01*
X675493Y273050D01*
X675504Y273063D01*
X675513Y273074D01*
X675520Y273080D01*
X675522Y273082D01*
X675557Y273115D01*
X675594Y273143D01*
X675631Y273167D01*
X675668Y273189D01*
X675705Y273207D01*
X675742Y273222D01*
X675777Y273233D01*
X675812Y273244D01*
X675842Y273250D01*
X675873Y273257D01*
X675899Y273259D01*
X675921Y273263D01*
X675938D01*
X675953Y273266D01*
X675964D01*
X676001Y273263D01*
X676038Y273261D01*
X676073Y273255D01*
X676108Y273246D01*
X676171Y273226D01*
X676202Y273213D01*
X676228Y273202D01*
X676254Y273191D01*
X676276Y273178D01*
X676296Y273167D01*
X676313Y273159D01*
X676326Y273150D01*
X676335Y273146D01*
X676341Y273141D01*
X676344Y273139D01*
X676237Y273680D01*
X675432D01*
Y273915D01*
X676433D01*
X676627Y272882D01*
D02*
G37*
G36*
X489700D02*
X489469Y272849D01*
X489447Y272880D01*
X489423Y272908D01*
X489397Y272932D01*
X489375Y272954D01*
X489353Y272969D01*
X489336Y272982D01*
X489325Y272989D01*
X489320Y272991D01*
X489283Y273010D01*
X489246Y273024D01*
X489209Y273034D01*
X489174Y273041D01*
X489146Y273045D01*
X489122Y273047D01*
X489102D01*
X489068Y273045D01*
X489035Y273043D01*
X489002Y273037D01*
X488974Y273028D01*
X488919Y273008D01*
X488898Y272997D01*
X488876Y272987D01*
X488856Y272973D01*
X488841Y272962D01*
X488826Y272952D01*
X488815Y272943D01*
X488806Y272934D01*
X488797Y272928D01*
X488795Y272925D01*
X488793Y272923D01*
X488771Y272899D01*
X488754Y272873D01*
X488736Y272847D01*
X488723Y272821D01*
X488701Y272764D01*
X488688Y272712D01*
X488684Y272686D01*
X488680Y272664D01*
X488677Y272642D01*
X488675Y272625D01*
X488673Y272609D01*
Y272598D01*
Y272592D01*
Y272590D01*
X488675Y272548D01*
X488677Y272511D01*
X488684Y272474D01*
X488693Y272439D01*
X488701Y272409D01*
X488712Y272378D01*
X488723Y272352D01*
X488734Y272328D01*
X488747Y272306D01*
X488758Y272287D01*
X488769Y272271D01*
X488778Y272256D01*
X488786Y272245D01*
X488793Y272239D01*
X488795Y272234D01*
X488797Y272232D01*
X488821Y272208D01*
X488845Y272189D01*
X488869Y272171D01*
X488895Y272156D01*
X488921Y272143D01*
X488945Y272132D01*
X488993Y272117D01*
X489035Y272106D01*
X489052Y272104D01*
X489068Y272101D01*
X489081Y272099D01*
X489098D01*
X489126Y272101D01*
X489152Y272104D01*
X489200Y272114D01*
X489244Y272130D01*
X489281Y272147D01*
X489312Y272162D01*
X489333Y272178D01*
X489342Y272184D01*
X489349Y272189D01*
X489351Y272193D01*
X489353D01*
X489371Y272213D01*
X489388Y272232D01*
X489416Y272276D01*
X489440Y272324D01*
X489458Y272370D01*
X489469Y272411D01*
X489475Y272431D01*
X489477Y272446D01*
X489480Y272459D01*
X489482Y272468D01*
X489484Y272474D01*
Y272476D01*
X489743Y272457D01*
X489737Y272411D01*
X489728Y272365D01*
X489717Y272324D01*
X489702Y272285D01*
X489687Y272250D01*
X489671Y272215D01*
X489654Y272184D01*
X489637Y272158D01*
X489619Y272132D01*
X489604Y272110D01*
X489589Y272093D01*
X489573Y272077D01*
X489562Y272064D01*
X489554Y272056D01*
X489549Y272051D01*
X489547Y272049D01*
X489512Y272023D01*
X489477Y271999D01*
X489440Y271979D01*
X489403Y271962D01*
X489366Y271947D01*
X489329Y271934D01*
X489292Y271923D01*
X489257Y271916D01*
X489224Y271909D01*
X489194Y271905D01*
X489168Y271901D01*
X489144Y271899D01*
X489124Y271897D01*
X489098D01*
X489037Y271899D01*
X488980Y271907D01*
X488926Y271918D01*
X488876Y271936D01*
X488828Y271953D01*
X488784Y271973D01*
X488745Y271997D01*
X488710Y272019D01*
X488677Y272040D01*
X488649Y272064D01*
X488625Y272084D01*
X488605Y272104D01*
X488590Y272119D01*
X488579Y272130D01*
X488573Y272138D01*
X488570Y272141D01*
X488542Y272178D01*
X488518Y272217D01*
X488496Y272258D01*
X488479Y272298D01*
X488464Y272337D01*
X488451Y272376D01*
X488440Y272415D01*
X488431Y272450D01*
X488424Y272485D01*
X488420Y272516D01*
X488416Y272542D01*
X488413Y272566D01*
X488411Y272585D01*
Y272598D01*
Y272609D01*
Y272611D01*
X488413Y272664D01*
X488420Y272714D01*
X488429Y272762D01*
X488440Y272806D01*
X488453Y272849D01*
X488470Y272886D01*
X488485Y272923D01*
X488503Y272956D01*
X488520Y272984D01*
X488536Y273008D01*
X488551Y273032D01*
X488566Y273050D01*
X488577Y273063D01*
X488586Y273074D01*
X488592Y273080D01*
X488594Y273082D01*
X488629Y273115D01*
X488666Y273143D01*
X488703Y273167D01*
X488740Y273189D01*
X488778Y273207D01*
X488815Y273222D01*
X488849Y273233D01*
X488884Y273244D01*
X488915Y273250D01*
X488945Y273257D01*
X488972Y273259D01*
X488993Y273263D01*
X489011D01*
X489026Y273266D01*
X489037D01*
X489074Y273263D01*
X489111Y273261D01*
X489146Y273255D01*
X489181Y273246D01*
X489244Y273226D01*
X489275Y273213D01*
X489301Y273202D01*
X489327Y273191D01*
X489349Y273178D01*
X489368Y273167D01*
X489386Y273159D01*
X489399Y273150D01*
X489408Y273146D01*
X489414Y273141D01*
X489416Y273139D01*
X489310Y273680D01*
X488505D01*
Y273915D01*
X489506D01*
X489700Y272882D01*
D02*
G37*
G36*
X302772D02*
X302541Y272849D01*
X302520Y272880D01*
X302496Y272908D01*
X302469Y272932D01*
X302448Y272954D01*
X302426Y272969D01*
X302408Y272982D01*
X302397Y272989D01*
X302393Y272991D01*
X302356Y273010D01*
X302319Y273024D01*
X302282Y273034D01*
X302247Y273041D01*
X302219Y273045D01*
X302195Y273047D01*
X302175D01*
X302140Y273045D01*
X302108Y273043D01*
X302075Y273037D01*
X302046Y273028D01*
X301992Y273008D01*
X301970Y272997D01*
X301948Y272987D01*
X301929Y272973D01*
X301913Y272962D01*
X301898Y272952D01*
X301887Y272943D01*
X301879Y272934D01*
X301870Y272928D01*
X301868Y272925D01*
X301866Y272923D01*
X301844Y272899D01*
X301826Y272873D01*
X301809Y272847D01*
X301796Y272821D01*
X301774Y272764D01*
X301761Y272712D01*
X301757Y272686D01*
X301752Y272664D01*
X301750Y272642D01*
X301748Y272625D01*
X301746Y272609D01*
Y272598D01*
Y272592D01*
Y272590D01*
X301748Y272548D01*
X301750Y272511D01*
X301757Y272474D01*
X301765Y272439D01*
X301774Y272409D01*
X301785Y272378D01*
X301796Y272352D01*
X301807Y272328D01*
X301820Y272306D01*
X301831Y272287D01*
X301842Y272271D01*
X301850Y272256D01*
X301859Y272245D01*
X301866Y272239D01*
X301868Y272234D01*
X301870Y272232D01*
X301894Y272208D01*
X301918Y272189D01*
X301942Y272171D01*
X301968Y272156D01*
X301994Y272143D01*
X302018Y272132D01*
X302066Y272117D01*
X302108Y272106D01*
X302125Y272104D01*
X302140Y272101D01*
X302153Y272099D01*
X302171D01*
X302199Y272101D01*
X302225Y272104D01*
X302273Y272114D01*
X302317Y272130D01*
X302354Y272147D01*
X302384Y272162D01*
X302406Y272178D01*
X302415Y272184D01*
X302421Y272189D01*
X302424Y272193D01*
X302426D01*
X302443Y272213D01*
X302461Y272232D01*
X302489Y272276D01*
X302513Y272324D01*
X302531Y272370D01*
X302541Y272411D01*
X302548Y272431D01*
X302550Y272446D01*
X302552Y272459D01*
X302554Y272468D01*
X302557Y272474D01*
Y272476D01*
X302816Y272457D01*
X302810Y272411D01*
X302801Y272365D01*
X302790Y272324D01*
X302775Y272285D01*
X302759Y272250D01*
X302744Y272215D01*
X302727Y272184D01*
X302709Y272158D01*
X302692Y272132D01*
X302677Y272110D01*
X302661Y272093D01*
X302646Y272077D01*
X302635Y272064D01*
X302626Y272056D01*
X302622Y272051D01*
X302620Y272049D01*
X302585Y272023D01*
X302550Y271999D01*
X302513Y271979D01*
X302476Y271962D01*
X302439Y271947D01*
X302402Y271934D01*
X302365Y271923D01*
X302330Y271916D01*
X302297Y271909D01*
X302267Y271905D01*
X302240Y271901D01*
X302217Y271899D01*
X302197Y271897D01*
X302171D01*
X302110Y271899D01*
X302053Y271907D01*
X301999Y271918D01*
X301948Y271936D01*
X301901Y271953D01*
X301857Y271973D01*
X301818Y271997D01*
X301783Y272019D01*
X301750Y272040D01*
X301722Y272064D01*
X301698Y272084D01*
X301678Y272104D01*
X301663Y272119D01*
X301652Y272130D01*
X301645Y272138D01*
X301643Y272141D01*
X301615Y272178D01*
X301591Y272217D01*
X301569Y272258D01*
X301552Y272298D01*
X301536Y272337D01*
X301523Y272376D01*
X301512Y272415D01*
X301504Y272450D01*
X301497Y272485D01*
X301493Y272516D01*
X301488Y272542D01*
X301486Y272566D01*
X301484Y272585D01*
Y272598D01*
Y272609D01*
Y272611D01*
X301486Y272664D01*
X301493Y272714D01*
X301501Y272762D01*
X301512Y272806D01*
X301525Y272849D01*
X301543Y272886D01*
X301558Y272923D01*
X301576Y272956D01*
X301593Y272984D01*
X301608Y273008D01*
X301624Y273032D01*
X301639Y273050D01*
X301650Y273063D01*
X301659Y273074D01*
X301665Y273080D01*
X301667Y273082D01*
X301702Y273115D01*
X301739Y273143D01*
X301776Y273167D01*
X301813Y273189D01*
X301850Y273207D01*
X301887Y273222D01*
X301922Y273233D01*
X301957Y273244D01*
X301988Y273250D01*
X302018Y273257D01*
X302044Y273259D01*
X302066Y273263D01*
X302084D01*
X302099Y273266D01*
X302110D01*
X302147Y273263D01*
X302184Y273261D01*
X302219Y273255D01*
X302254Y273246D01*
X302317Y273226D01*
X302347Y273213D01*
X302374Y273202D01*
X302400Y273191D01*
X302421Y273178D01*
X302441Y273167D01*
X302459Y273159D01*
X302472Y273150D01*
X302480Y273146D01*
X302487Y273141D01*
X302489Y273139D01*
X302382Y273680D01*
X301578D01*
Y273915D01*
X302578D01*
X302772Y272882D01*
D02*
G37*
G36*
X115845D02*
X115614Y272849D01*
X115592Y272880D01*
X115568Y272908D01*
X115542Y272932D01*
X115520Y272954D01*
X115499Y272969D01*
X115481Y272982D01*
X115470Y272989D01*
X115466Y272991D01*
X115429Y273010D01*
X115392Y273024D01*
X115355Y273034D01*
X115320Y273041D01*
X115292Y273045D01*
X115268Y273047D01*
X115248D01*
X115213Y273045D01*
X115180Y273043D01*
X115148Y273037D01*
X115119Y273028D01*
X115065Y273008D01*
X115043Y272997D01*
X115021Y272987D01*
X115001Y272973D01*
X114986Y272962D01*
X114971Y272952D01*
X114960Y272943D01*
X114951Y272934D01*
X114943Y272928D01*
X114941Y272925D01*
X114938Y272923D01*
X114917Y272899D01*
X114899Y272873D01*
X114882Y272847D01*
X114869Y272821D01*
X114847Y272764D01*
X114834Y272712D01*
X114829Y272686D01*
X114825Y272664D01*
X114823Y272642D01*
X114821Y272625D01*
X114818Y272609D01*
Y272598D01*
Y272592D01*
Y272590D01*
X114821Y272548D01*
X114823Y272511D01*
X114829Y272474D01*
X114838Y272439D01*
X114847Y272409D01*
X114858Y272378D01*
X114869Y272352D01*
X114880Y272328D01*
X114893Y272306D01*
X114903Y272287D01*
X114914Y272271D01*
X114923Y272256D01*
X114932Y272245D01*
X114938Y272239D01*
X114941Y272234D01*
X114943Y272232D01*
X114967Y272208D01*
X114991Y272189D01*
X115015Y272171D01*
X115041Y272156D01*
X115067Y272143D01*
X115091Y272132D01*
X115139Y272117D01*
X115180Y272106D01*
X115198Y272104D01*
X115213Y272101D01*
X115226Y272099D01*
X115243D01*
X115272Y272101D01*
X115298Y272104D01*
X115346Y272114D01*
X115390Y272130D01*
X115427Y272147D01*
X115457Y272162D01*
X115479Y272178D01*
X115488Y272184D01*
X115494Y272189D01*
X115496Y272193D01*
X115499D01*
X115516Y272213D01*
X115533Y272232D01*
X115562Y272276D01*
X115586Y272324D01*
X115603Y272370D01*
X115614Y272411D01*
X115621Y272431D01*
X115623Y272446D01*
X115625Y272459D01*
X115627Y272468D01*
X115629Y272474D01*
Y272476D01*
X115889Y272457D01*
X115882Y272411D01*
X115874Y272365D01*
X115863Y272324D01*
X115847Y272285D01*
X115832Y272250D01*
X115817Y272215D01*
X115799Y272184D01*
X115782Y272158D01*
X115765Y272132D01*
X115749Y272110D01*
X115734Y272093D01*
X115719Y272077D01*
X115708Y272064D01*
X115699Y272056D01*
X115695Y272051D01*
X115693Y272049D01*
X115658Y272023D01*
X115623Y271999D01*
X115586Y271979D01*
X115549Y271962D01*
X115512Y271947D01*
X115475Y271934D01*
X115438Y271923D01*
X115403Y271916D01*
X115370Y271909D01*
X115340Y271905D01*
X115313Y271901D01*
X115289Y271899D01*
X115270Y271897D01*
X115243D01*
X115182Y271899D01*
X115126Y271907D01*
X115071Y271918D01*
X115021Y271936D01*
X114973Y271953D01*
X114930Y271973D01*
X114890Y271997D01*
X114856Y272019D01*
X114823Y272040D01*
X114795Y272064D01*
X114770Y272084D01*
X114751Y272104D01*
X114736Y272119D01*
X114725Y272130D01*
X114718Y272138D01*
X114716Y272141D01*
X114688Y272178D01*
X114664Y272217D01*
X114642Y272258D01*
X114624Y272298D01*
X114609Y272337D01*
X114596Y272376D01*
X114585Y272415D01*
X114576Y272450D01*
X114570Y272485D01*
X114566Y272516D01*
X114561Y272542D01*
X114559Y272566D01*
X114557Y272585D01*
Y272598D01*
Y272609D01*
Y272611D01*
X114559Y272664D01*
X114566Y272714D01*
X114574Y272762D01*
X114585Y272806D01*
X114598Y272849D01*
X114616Y272886D01*
X114631Y272923D01*
X114648Y272956D01*
X114666Y272984D01*
X114681Y273008D01*
X114696Y273032D01*
X114712Y273050D01*
X114723Y273063D01*
X114731Y273074D01*
X114738Y273080D01*
X114740Y273082D01*
X114775Y273115D01*
X114812Y273143D01*
X114849Y273167D01*
X114886Y273189D01*
X114923Y273207D01*
X114960Y273222D01*
X114995Y273233D01*
X115030Y273244D01*
X115060Y273250D01*
X115091Y273257D01*
X115117Y273259D01*
X115139Y273263D01*
X115156D01*
X115172Y273266D01*
X115182D01*
X115220Y273263D01*
X115257Y273261D01*
X115292Y273255D01*
X115326Y273246D01*
X115390Y273226D01*
X115420Y273213D01*
X115446Y273202D01*
X115472Y273191D01*
X115494Y273178D01*
X115514Y273167D01*
X115531Y273159D01*
X115544Y273150D01*
X115553Y273146D01*
X115560Y273141D01*
X115562Y273139D01*
X115455Y273680D01*
X114651D01*
Y273915D01*
X115651D01*
X115845Y272882D01*
D02*
G37*
G36*
X676587Y217067D02*
X676620Y217019D01*
X676657Y216973D01*
X676694Y216934D01*
X676726Y216897D01*
X676742Y216884D01*
X676753Y216871D01*
X676763Y216860D01*
X676772Y216853D01*
X676777Y216849D01*
X676779Y216847D01*
X676838Y216797D01*
X676901Y216753D01*
X676962Y216712D01*
X677019Y216677D01*
X677043Y216664D01*
X677067Y216651D01*
X677088Y216637D01*
X677106Y216629D01*
X677121Y216622D01*
X677132Y216616D01*
X677139Y216614D01*
X677141Y216611D01*
Y216374D01*
X677097Y216391D01*
X677051Y216411D01*
X677008Y216433D01*
X676968Y216452D01*
X676934Y216472D01*
X676918Y216478D01*
X676905Y216487D01*
X676894Y216492D01*
X676888Y216496D01*
X676883Y216500D01*
X676881D01*
X676829Y216533D01*
X676783Y216563D01*
X676742Y216592D01*
X676709Y216618D01*
X676681Y216640D01*
X676661Y216655D01*
X676650Y216666D01*
X676646Y216670D01*
Y215099D01*
X676399D01*
Y217117D01*
X676559D01*
X676587Y217067D01*
D02*
G37*
G36*
X489660D02*
X489692Y217019D01*
X489729Y216973D01*
X489767Y216934D01*
X489799Y216897D01*
X489815Y216884D01*
X489825Y216871D01*
X489836Y216860D01*
X489845Y216853D01*
X489849Y216849D01*
X489852Y216847D01*
X489910Y216797D01*
X489974Y216753D01*
X490035Y216712D01*
X490091Y216677D01*
X490115Y216664D01*
X490139Y216651D01*
X490161Y216637D01*
X490178Y216629D01*
X490194Y216622D01*
X490205Y216616D01*
X490211Y216614D01*
X490213Y216611D01*
Y216374D01*
X490170Y216391D01*
X490124Y216411D01*
X490080Y216433D01*
X490041Y216452D01*
X490006Y216472D01*
X489991Y216478D01*
X489978Y216487D01*
X489967Y216492D01*
X489960Y216496D01*
X489956Y216500D01*
X489954D01*
X489902Y216533D01*
X489856Y216563D01*
X489815Y216592D01*
X489782Y216618D01*
X489753Y216640D01*
X489734Y216655D01*
X489723Y216666D01*
X489718Y216670D01*
Y215099D01*
X489472D01*
Y217117D01*
X489631D01*
X489660Y217067D01*
D02*
G37*
G36*
X302732D02*
X302765Y217019D01*
X302802Y216973D01*
X302839Y216934D01*
X302872Y216897D01*
X302887Y216884D01*
X302898Y216871D01*
X302909Y216860D01*
X302918Y216853D01*
X302922Y216849D01*
X302924Y216847D01*
X302983Y216797D01*
X303046Y216753D01*
X303107Y216712D01*
X303164Y216677D01*
X303188Y216664D01*
X303212Y216651D01*
X303234Y216637D01*
X303251Y216629D01*
X303267Y216622D01*
X303277Y216616D01*
X303284Y216614D01*
X303286Y216611D01*
Y216374D01*
X303242Y216391D01*
X303197Y216411D01*
X303153Y216433D01*
X303114Y216452D01*
X303079Y216472D01*
X303064Y216478D01*
X303051Y216487D01*
X303040Y216492D01*
X303033Y216496D01*
X303029Y216500D01*
X303027D01*
X302974Y216533D01*
X302929Y216563D01*
X302887Y216592D01*
X302854Y216618D01*
X302826Y216640D01*
X302806Y216655D01*
X302796Y216666D01*
X302791Y216670D01*
Y215099D01*
X302545D01*
Y217117D01*
X302704D01*
X302732Y217067D01*
D02*
G37*
G36*
X115805D02*
X115838Y217019D01*
X115875Y216973D01*
X115912Y216934D01*
X115945Y216897D01*
X115960Y216884D01*
X115971Y216871D01*
X115982Y216860D01*
X115990Y216853D01*
X115995Y216849D01*
X115997Y216847D01*
X116056Y216797D01*
X116119Y216753D01*
X116180Y216712D01*
X116237Y216677D01*
X116261Y216664D01*
X116285Y216651D01*
X116306Y216637D01*
X116324Y216629D01*
X116339Y216622D01*
X116350Y216616D01*
X116357Y216614D01*
X116359Y216611D01*
Y216374D01*
X116315Y216391D01*
X116270Y216411D01*
X116226Y216433D01*
X116187Y216452D01*
X116152Y216472D01*
X116137Y216478D01*
X116123Y216487D01*
X116112Y216492D01*
X116106Y216496D01*
X116102Y216500D01*
X116100D01*
X116047Y216533D01*
X116001Y216563D01*
X115960Y216592D01*
X115927Y216618D01*
X115899Y216640D01*
X115879Y216655D01*
X115868Y216666D01*
X115864Y216670D01*
Y215099D01*
X115618D01*
Y217117D01*
X115777D01*
X115805Y217067D01*
D02*
G37*
G36*
X677493Y180886D02*
X677525Y180838D01*
X677562Y180792D01*
X677599Y180753D01*
X677632Y180716D01*
X677647Y180703D01*
X677658Y180690D01*
X677669Y180679D01*
X677678Y180672D01*
X677682Y180668D01*
X677684Y180666D01*
X677743Y180616D01*
X677806Y180572D01*
X677867Y180531D01*
X677924Y180496D01*
X677948Y180483D01*
X677972Y180470D01*
X677994Y180456D01*
X678011Y180448D01*
X678027Y180441D01*
X678037Y180435D01*
X678044Y180432D01*
X678046Y180430D01*
Y180193D01*
X678003Y180210D01*
X677957Y180230D01*
X677913Y180252D01*
X677874Y180271D01*
X677839Y180291D01*
X677824Y180297D01*
X677811Y180306D01*
X677800Y180310D01*
X677793Y180315D01*
X677789Y180319D01*
X677787D01*
X677734Y180352D01*
X677689Y180382D01*
X677647Y180411D01*
X677614Y180437D01*
X677586Y180459D01*
X677567Y180474D01*
X677556Y180485D01*
X677551Y180489D01*
Y178917D01*
X677305D01*
Y180936D01*
X677464D01*
X677493Y180886D01*
D02*
G37*
G36*
X490565D02*
X490598Y180838D01*
X490635Y180792D01*
X490672Y180753D01*
X490705Y180716D01*
X490720Y180703D01*
X490731Y180690D01*
X490742Y180679D01*
X490751Y180672D01*
X490755Y180668D01*
X490757Y180666D01*
X490816Y180616D01*
X490879Y180572D01*
X490940Y180531D01*
X490997Y180496D01*
X491021Y180483D01*
X491045Y180470D01*
X491067Y180456D01*
X491084Y180448D01*
X491099Y180441D01*
X491110Y180435D01*
X491117Y180432D01*
X491119Y180430D01*
Y180193D01*
X491075Y180210D01*
X491030Y180230D01*
X490986Y180252D01*
X490947Y180271D01*
X490912Y180291D01*
X490897Y180297D01*
X490883Y180306D01*
X490873Y180310D01*
X490866Y180315D01*
X490862Y180319D01*
X490860D01*
X490807Y180352D01*
X490761Y180382D01*
X490720Y180411D01*
X490687Y180437D01*
X490659Y180459D01*
X490639Y180474D01*
X490628Y180485D01*
X490624Y180489D01*
Y178917D01*
X490378D01*
Y180936D01*
X490537D01*
X490565Y180886D01*
D02*
G37*
G36*
X303638D02*
X303671Y180838D01*
X303708Y180792D01*
X303745Y180753D01*
X303777Y180716D01*
X303793Y180703D01*
X303804Y180690D01*
X303815Y180679D01*
X303823Y180672D01*
X303828Y180668D01*
X303830Y180666D01*
X303889Y180616D01*
X303952Y180572D01*
X304013Y180531D01*
X304070Y180496D01*
X304094Y180483D01*
X304117Y180470D01*
X304139Y180456D01*
X304157Y180448D01*
X304172Y180441D01*
X304183Y180435D01*
X304189Y180432D01*
X304192Y180430D01*
Y180193D01*
X304148Y180210D01*
X304102Y180230D01*
X304059Y180252D01*
X304019Y180271D01*
X303984Y180291D01*
X303969Y180297D01*
X303956Y180306D01*
X303945Y180310D01*
X303939Y180315D01*
X303934Y180319D01*
X303932D01*
X303880Y180352D01*
X303834Y180382D01*
X303793Y180411D01*
X303760Y180437D01*
X303732Y180459D01*
X303712Y180474D01*
X303701Y180485D01*
X303697Y180489D01*
Y178917D01*
X303450D01*
Y180936D01*
X303610D01*
X303638Y180886D01*
D02*
G37*
G36*
X116711D02*
X116743Y180838D01*
X116780Y180792D01*
X116817Y180753D01*
X116850Y180716D01*
X116866Y180703D01*
X116876Y180690D01*
X116887Y180679D01*
X116896Y180672D01*
X116900Y180668D01*
X116902Y180666D01*
X116961Y180616D01*
X117025Y180572D01*
X117086Y180531D01*
X117142Y180496D01*
X117166Y180483D01*
X117190Y180470D01*
X117212Y180456D01*
X117229Y180448D01*
X117245Y180441D01*
X117256Y180435D01*
X117262Y180432D01*
X117264Y180430D01*
Y180193D01*
X117221Y180210D01*
X117175Y180230D01*
X117131Y180252D01*
X117092Y180271D01*
X117057Y180291D01*
X117042Y180297D01*
X117029Y180306D01*
X117018Y180310D01*
X117011Y180315D01*
X117007Y180319D01*
X117005D01*
X116953Y180352D01*
X116907Y180382D01*
X116866Y180411D01*
X116833Y180437D01*
X116804Y180459D01*
X116785Y180474D01*
X116774Y180485D01*
X116770Y180489D01*
Y178917D01*
X116523D01*
Y180936D01*
X116682D01*
X116711Y180886D01*
D02*
G37*
G36*
X676627Y179870D02*
X676396Y179837D01*
X676374Y179868D01*
X676350Y179896D01*
X676324Y179920D01*
X676302Y179942D01*
X676280Y179957D01*
X676263Y179970D01*
X676252Y179977D01*
X676248Y179979D01*
X676211Y179999D01*
X676173Y180012D01*
X676136Y180023D01*
X676102Y180029D01*
X676073Y180034D01*
X676049Y180036D01*
X676030D01*
X675995Y180034D01*
X675962Y180031D01*
X675929Y180025D01*
X675901Y180016D01*
X675847Y179997D01*
X675825Y179985D01*
X675803Y179975D01*
X675783Y179962D01*
X675768Y179951D01*
X675753Y179940D01*
X675742Y179931D01*
X675733Y179922D01*
X675725Y179916D01*
X675722Y179914D01*
X675720Y179911D01*
X675698Y179887D01*
X675681Y179861D01*
X675663Y179835D01*
X675650Y179809D01*
X675629Y179752D01*
X675616Y179700D01*
X675611Y179674D01*
X675607Y179652D01*
X675605Y179630D01*
X675602Y179613D01*
X675600Y179597D01*
Y179587D01*
Y179580D01*
Y179578D01*
X675602Y179536D01*
X675605Y179499D01*
X675611Y179462D01*
X675620Y179428D01*
X675629Y179397D01*
X675639Y179366D01*
X675650Y179340D01*
X675661Y179316D01*
X675674Y179295D01*
X675685Y179275D01*
X675696Y179260D01*
X675705Y179244D01*
X675714Y179233D01*
X675720Y179227D01*
X675722Y179223D01*
X675725Y179220D01*
X675748Y179196D01*
X675772Y179177D01*
X675796Y179159D01*
X675823Y179144D01*
X675849Y179131D01*
X675873Y179120D01*
X675921Y179105D01*
X675962Y179094D01*
X675980Y179092D01*
X675995Y179090D01*
X676008Y179087D01*
X676025D01*
X676054Y179090D01*
X676080Y179092D01*
X676128Y179103D01*
X676171Y179118D01*
X676208Y179135D01*
X676239Y179151D01*
X676261Y179166D01*
X676269Y179172D01*
X676276Y179177D01*
X676278Y179181D01*
X676280D01*
X676298Y179201D01*
X676315Y179220D01*
X676344Y179264D01*
X676368Y179312D01*
X676385Y179358D01*
X676396Y179399D01*
X676403Y179419D01*
X676405Y179434D01*
X676407Y179447D01*
X676409Y179456D01*
X676411Y179462D01*
Y179464D01*
X676671Y179445D01*
X676664Y179399D01*
X676655Y179353D01*
X676644Y179312D01*
X676629Y179273D01*
X676614Y179238D01*
X676599Y179203D01*
X676581Y179172D01*
X676564Y179146D01*
X676546Y179120D01*
X676531Y179098D01*
X676516Y179081D01*
X676501Y179066D01*
X676490Y179052D01*
X676481Y179044D01*
X676477Y179039D01*
X676474Y179037D01*
X676440Y179011D01*
X676405Y178987D01*
X676368Y178967D01*
X676331Y178950D01*
X676294Y178935D01*
X676256Y178922D01*
X676219Y178911D01*
X676185Y178904D01*
X676152Y178898D01*
X676121Y178893D01*
X676095Y178889D01*
X676071Y178887D01*
X676052Y178885D01*
X676025D01*
X675964Y178887D01*
X675908Y178896D01*
X675853Y178906D01*
X675803Y178924D01*
X675755Y178941D01*
X675711Y178961D01*
X675672Y178985D01*
X675637Y179007D01*
X675605Y179028D01*
X675576Y179052D01*
X675552Y179072D01*
X675533Y179092D01*
X675517Y179107D01*
X675506Y179118D01*
X675500Y179127D01*
X675498Y179129D01*
X675469Y179166D01*
X675445Y179205D01*
X675424Y179246D01*
X675406Y179286D01*
X675391Y179325D01*
X675378Y179364D01*
X675367Y179403D01*
X675358Y179438D01*
X675352Y179473D01*
X675347Y179504D01*
X675343Y179530D01*
X675341Y179554D01*
X675339Y179574D01*
Y179587D01*
Y179597D01*
Y179600D01*
X675341Y179652D01*
X675347Y179702D01*
X675356Y179750D01*
X675367Y179794D01*
X675380Y179837D01*
X675397Y179874D01*
X675413Y179911D01*
X675430Y179944D01*
X675448Y179973D01*
X675463Y179997D01*
X675478Y180020D01*
X675493Y180038D01*
X675504Y180051D01*
X675513Y180062D01*
X675520Y180068D01*
X675522Y180071D01*
X675557Y180103D01*
X675594Y180132D01*
X675631Y180156D01*
X675668Y180177D01*
X675705Y180195D01*
X675742Y180210D01*
X675777Y180221D01*
X675812Y180232D01*
X675842Y180238D01*
X675873Y180245D01*
X675899Y180247D01*
X675921Y180252D01*
X675938D01*
X675953Y180254D01*
X675964D01*
X676001Y180252D01*
X676038Y180249D01*
X676073Y180243D01*
X676108Y180234D01*
X676171Y180215D01*
X676202Y180201D01*
X676228Y180191D01*
X676254Y180180D01*
X676276Y180166D01*
X676296Y180156D01*
X676313Y180147D01*
X676326Y180138D01*
X676335Y180134D01*
X676341Y180129D01*
X676344Y180127D01*
X676237Y180668D01*
X675432D01*
Y180903D01*
X676433D01*
X676627Y179870D01*
D02*
G37*
G36*
X489700D02*
X489469Y179837D01*
X489447Y179868D01*
X489423Y179896D01*
X489397Y179920D01*
X489375Y179942D01*
X489353Y179957D01*
X489336Y179970D01*
X489325Y179977D01*
X489320Y179979D01*
X489283Y179999D01*
X489246Y180012D01*
X489209Y180023D01*
X489174Y180029D01*
X489146Y180034D01*
X489122Y180036D01*
X489102D01*
X489068Y180034D01*
X489035Y180031D01*
X489002Y180025D01*
X488974Y180016D01*
X488919Y179997D01*
X488898Y179985D01*
X488876Y179975D01*
X488856Y179962D01*
X488841Y179951D01*
X488826Y179940D01*
X488815Y179931D01*
X488806Y179922D01*
X488797Y179916D01*
X488795Y179914D01*
X488793Y179911D01*
X488771Y179887D01*
X488754Y179861D01*
X488736Y179835D01*
X488723Y179809D01*
X488701Y179752D01*
X488688Y179700D01*
X488684Y179674D01*
X488680Y179652D01*
X488677Y179630D01*
X488675Y179613D01*
X488673Y179597D01*
Y179587D01*
Y179580D01*
Y179578D01*
X488675Y179536D01*
X488677Y179499D01*
X488684Y179462D01*
X488693Y179428D01*
X488701Y179397D01*
X488712Y179366D01*
X488723Y179340D01*
X488734Y179316D01*
X488747Y179295D01*
X488758Y179275D01*
X488769Y179260D01*
X488778Y179244D01*
X488786Y179233D01*
X488793Y179227D01*
X488795Y179223D01*
X488797Y179220D01*
X488821Y179196D01*
X488845Y179177D01*
X488869Y179159D01*
X488895Y179144D01*
X488921Y179131D01*
X488945Y179120D01*
X488993Y179105D01*
X489035Y179094D01*
X489052Y179092D01*
X489068Y179090D01*
X489081Y179087D01*
X489098D01*
X489126Y179090D01*
X489152Y179092D01*
X489200Y179103D01*
X489244Y179118D01*
X489281Y179135D01*
X489312Y179151D01*
X489333Y179166D01*
X489342Y179172D01*
X489349Y179177D01*
X489351Y179181D01*
X489353D01*
X489371Y179201D01*
X489388Y179220D01*
X489416Y179264D01*
X489440Y179312D01*
X489458Y179358D01*
X489469Y179399D01*
X489475Y179419D01*
X489477Y179434D01*
X489480Y179447D01*
X489482Y179456D01*
X489484Y179462D01*
Y179464D01*
X489743Y179445D01*
X489737Y179399D01*
X489728Y179353D01*
X489717Y179312D01*
X489702Y179273D01*
X489687Y179238D01*
X489671Y179203D01*
X489654Y179172D01*
X489637Y179146D01*
X489619Y179120D01*
X489604Y179098D01*
X489589Y179081D01*
X489573Y179066D01*
X489562Y179052D01*
X489554Y179044D01*
X489549Y179039D01*
X489547Y179037D01*
X489512Y179011D01*
X489477Y178987D01*
X489440Y178967D01*
X489403Y178950D01*
X489366Y178935D01*
X489329Y178922D01*
X489292Y178911D01*
X489257Y178904D01*
X489224Y178898D01*
X489194Y178893D01*
X489168Y178889D01*
X489144Y178887D01*
X489124Y178885D01*
X489098D01*
X489037Y178887D01*
X488980Y178896D01*
X488926Y178906D01*
X488876Y178924D01*
X488828Y178941D01*
X488784Y178961D01*
X488745Y178985D01*
X488710Y179007D01*
X488677Y179028D01*
X488649Y179052D01*
X488625Y179072D01*
X488605Y179092D01*
X488590Y179107D01*
X488579Y179118D01*
X488573Y179127D01*
X488570Y179129D01*
X488542Y179166D01*
X488518Y179205D01*
X488496Y179246D01*
X488479Y179286D01*
X488464Y179325D01*
X488451Y179364D01*
X488440Y179403D01*
X488431Y179438D01*
X488424Y179473D01*
X488420Y179504D01*
X488416Y179530D01*
X488413Y179554D01*
X488411Y179574D01*
Y179587D01*
Y179597D01*
Y179600D01*
X488413Y179652D01*
X488420Y179702D01*
X488429Y179750D01*
X488440Y179794D01*
X488453Y179837D01*
X488470Y179874D01*
X488485Y179911D01*
X488503Y179944D01*
X488520Y179973D01*
X488536Y179997D01*
X488551Y180020D01*
X488566Y180038D01*
X488577Y180051D01*
X488586Y180062D01*
X488592Y180068D01*
X488594Y180071D01*
X488629Y180103D01*
X488666Y180132D01*
X488703Y180156D01*
X488740Y180177D01*
X488778Y180195D01*
X488815Y180210D01*
X488849Y180221D01*
X488884Y180232D01*
X488915Y180238D01*
X488945Y180245D01*
X488972Y180247D01*
X488993Y180252D01*
X489011D01*
X489026Y180254D01*
X489037D01*
X489074Y180252D01*
X489111Y180249D01*
X489146Y180243D01*
X489181Y180234D01*
X489244Y180215D01*
X489275Y180201D01*
X489301Y180191D01*
X489327Y180180D01*
X489349Y180166D01*
X489368Y180156D01*
X489386Y180147D01*
X489399Y180138D01*
X489408Y180134D01*
X489414Y180129D01*
X489416Y180127D01*
X489310Y180668D01*
X488505D01*
Y180903D01*
X489506D01*
X489700Y179870D01*
D02*
G37*
G36*
X302772D02*
X302541Y179837D01*
X302520Y179868D01*
X302496Y179896D01*
X302469Y179920D01*
X302448Y179942D01*
X302426Y179957D01*
X302408Y179970D01*
X302397Y179977D01*
X302393Y179979D01*
X302356Y179999D01*
X302319Y180012D01*
X302282Y180023D01*
X302247Y180029D01*
X302219Y180034D01*
X302195Y180036D01*
X302175D01*
X302140Y180034D01*
X302108Y180031D01*
X302075Y180025D01*
X302046Y180016D01*
X301992Y179997D01*
X301970Y179985D01*
X301948Y179975D01*
X301929Y179962D01*
X301913Y179951D01*
X301898Y179940D01*
X301887Y179931D01*
X301879Y179922D01*
X301870Y179916D01*
X301868Y179914D01*
X301866Y179911D01*
X301844Y179887D01*
X301826Y179861D01*
X301809Y179835D01*
X301796Y179809D01*
X301774Y179752D01*
X301761Y179700D01*
X301757Y179674D01*
X301752Y179652D01*
X301750Y179630D01*
X301748Y179613D01*
X301746Y179597D01*
Y179587D01*
Y179580D01*
Y179578D01*
X301748Y179536D01*
X301750Y179499D01*
X301757Y179462D01*
X301765Y179428D01*
X301774Y179397D01*
X301785Y179366D01*
X301796Y179340D01*
X301807Y179316D01*
X301820Y179295D01*
X301831Y179275D01*
X301842Y179260D01*
X301850Y179244D01*
X301859Y179233D01*
X301866Y179227D01*
X301868Y179223D01*
X301870Y179220D01*
X301894Y179196D01*
X301918Y179177D01*
X301942Y179159D01*
X301968Y179144D01*
X301994Y179131D01*
X302018Y179120D01*
X302066Y179105D01*
X302108Y179094D01*
X302125Y179092D01*
X302140Y179090D01*
X302153Y179087D01*
X302171D01*
X302199Y179090D01*
X302225Y179092D01*
X302273Y179103D01*
X302317Y179118D01*
X302354Y179135D01*
X302384Y179151D01*
X302406Y179166D01*
X302415Y179172D01*
X302421Y179177D01*
X302424Y179181D01*
X302426D01*
X302443Y179201D01*
X302461Y179220D01*
X302489Y179264D01*
X302513Y179312D01*
X302531Y179358D01*
X302541Y179399D01*
X302548Y179419D01*
X302550Y179434D01*
X302552Y179447D01*
X302554Y179456D01*
X302557Y179462D01*
Y179464D01*
X302816Y179445D01*
X302810Y179399D01*
X302801Y179353D01*
X302790Y179312D01*
X302775Y179273D01*
X302759Y179238D01*
X302744Y179203D01*
X302727Y179172D01*
X302709Y179146D01*
X302692Y179120D01*
X302677Y179098D01*
X302661Y179081D01*
X302646Y179066D01*
X302635Y179052D01*
X302626Y179044D01*
X302622Y179039D01*
X302620Y179037D01*
X302585Y179011D01*
X302550Y178987D01*
X302513Y178967D01*
X302476Y178950D01*
X302439Y178935D01*
X302402Y178922D01*
X302365Y178911D01*
X302330Y178904D01*
X302297Y178898D01*
X302267Y178893D01*
X302240Y178889D01*
X302217Y178887D01*
X302197Y178885D01*
X302171D01*
X302110Y178887D01*
X302053Y178896D01*
X301999Y178906D01*
X301948Y178924D01*
X301901Y178941D01*
X301857Y178961D01*
X301818Y178985D01*
X301783Y179007D01*
X301750Y179028D01*
X301722Y179052D01*
X301698Y179072D01*
X301678Y179092D01*
X301663Y179107D01*
X301652Y179118D01*
X301645Y179127D01*
X301643Y179129D01*
X301615Y179166D01*
X301591Y179205D01*
X301569Y179246D01*
X301552Y179286D01*
X301536Y179325D01*
X301523Y179364D01*
X301512Y179403D01*
X301504Y179438D01*
X301497Y179473D01*
X301493Y179504D01*
X301488Y179530D01*
X301486Y179554D01*
X301484Y179574D01*
Y179587D01*
Y179597D01*
Y179600D01*
X301486Y179652D01*
X301493Y179702D01*
X301501Y179750D01*
X301512Y179794D01*
X301525Y179837D01*
X301543Y179874D01*
X301558Y179911D01*
X301576Y179944D01*
X301593Y179973D01*
X301608Y179997D01*
X301624Y180020D01*
X301639Y180038D01*
X301650Y180051D01*
X301659Y180062D01*
X301665Y180068D01*
X301667Y180071D01*
X301702Y180103D01*
X301739Y180132D01*
X301776Y180156D01*
X301813Y180177D01*
X301850Y180195D01*
X301887Y180210D01*
X301922Y180221D01*
X301957Y180232D01*
X301988Y180238D01*
X302018Y180245D01*
X302044Y180247D01*
X302066Y180252D01*
X302084D01*
X302099Y180254D01*
X302110D01*
X302147Y180252D01*
X302184Y180249D01*
X302219Y180243D01*
X302254Y180234D01*
X302317Y180215D01*
X302347Y180201D01*
X302374Y180191D01*
X302400Y180180D01*
X302421Y180166D01*
X302441Y180156D01*
X302459Y180147D01*
X302472Y180138D01*
X302480Y180134D01*
X302487Y180129D01*
X302489Y180127D01*
X302382Y180668D01*
X301578D01*
Y180903D01*
X302578D01*
X302772Y179870D01*
D02*
G37*
G36*
X115845D02*
X115614Y179837D01*
X115592Y179868D01*
X115568Y179896D01*
X115542Y179920D01*
X115520Y179942D01*
X115499Y179957D01*
X115481Y179970D01*
X115470Y179977D01*
X115466Y179979D01*
X115429Y179999D01*
X115392Y180012D01*
X115355Y180023D01*
X115320Y180029D01*
X115292Y180034D01*
X115268Y180036D01*
X115248D01*
X115213Y180034D01*
X115180Y180031D01*
X115148Y180025D01*
X115119Y180016D01*
X115065Y179997D01*
X115043Y179985D01*
X115021Y179975D01*
X115001Y179962D01*
X114986Y179951D01*
X114971Y179940D01*
X114960Y179931D01*
X114951Y179922D01*
X114943Y179916D01*
X114941Y179914D01*
X114938Y179911D01*
X114917Y179887D01*
X114899Y179861D01*
X114882Y179835D01*
X114869Y179809D01*
X114847Y179752D01*
X114834Y179700D01*
X114829Y179674D01*
X114825Y179652D01*
X114823Y179630D01*
X114821Y179613D01*
X114818Y179597D01*
Y179587D01*
Y179580D01*
Y179578D01*
X114821Y179536D01*
X114823Y179499D01*
X114829Y179462D01*
X114838Y179428D01*
X114847Y179397D01*
X114858Y179366D01*
X114869Y179340D01*
X114880Y179316D01*
X114893Y179295D01*
X114903Y179275D01*
X114914Y179260D01*
X114923Y179244D01*
X114932Y179233D01*
X114938Y179227D01*
X114941Y179223D01*
X114943Y179220D01*
X114967Y179196D01*
X114991Y179177D01*
X115015Y179159D01*
X115041Y179144D01*
X115067Y179131D01*
X115091Y179120D01*
X115139Y179105D01*
X115180Y179094D01*
X115198Y179092D01*
X115213Y179090D01*
X115226Y179087D01*
X115243D01*
X115272Y179090D01*
X115298Y179092D01*
X115346Y179103D01*
X115390Y179118D01*
X115427Y179135D01*
X115457Y179151D01*
X115479Y179166D01*
X115488Y179172D01*
X115494Y179177D01*
X115496Y179181D01*
X115499D01*
X115516Y179201D01*
X115533Y179220D01*
X115562Y179264D01*
X115586Y179312D01*
X115603Y179358D01*
X115614Y179399D01*
X115621Y179419D01*
X115623Y179434D01*
X115625Y179447D01*
X115627Y179456D01*
X115629Y179462D01*
Y179464D01*
X115889Y179445D01*
X115882Y179399D01*
X115874Y179353D01*
X115863Y179312D01*
X115847Y179273D01*
X115832Y179238D01*
X115817Y179203D01*
X115799Y179172D01*
X115782Y179146D01*
X115765Y179120D01*
X115749Y179098D01*
X115734Y179081D01*
X115719Y179066D01*
X115708Y179052D01*
X115699Y179044D01*
X115695Y179039D01*
X115693Y179037D01*
X115658Y179011D01*
X115623Y178987D01*
X115586Y178967D01*
X115549Y178950D01*
X115512Y178935D01*
X115475Y178922D01*
X115438Y178911D01*
X115403Y178904D01*
X115370Y178898D01*
X115340Y178893D01*
X115313Y178889D01*
X115289Y178887D01*
X115270Y178885D01*
X115243D01*
X115182Y178887D01*
X115126Y178896D01*
X115071Y178906D01*
X115021Y178924D01*
X114973Y178941D01*
X114930Y178961D01*
X114890Y178985D01*
X114856Y179007D01*
X114823Y179028D01*
X114795Y179052D01*
X114770Y179072D01*
X114751Y179092D01*
X114736Y179107D01*
X114725Y179118D01*
X114718Y179127D01*
X114716Y179129D01*
X114688Y179166D01*
X114664Y179205D01*
X114642Y179246D01*
X114624Y179286D01*
X114609Y179325D01*
X114596Y179364D01*
X114585Y179403D01*
X114576Y179438D01*
X114570Y179473D01*
X114566Y179504D01*
X114561Y179530D01*
X114559Y179554D01*
X114557Y179574D01*
Y179587D01*
Y179597D01*
Y179600D01*
X114559Y179652D01*
X114566Y179702D01*
X114574Y179750D01*
X114585Y179794D01*
X114598Y179837D01*
X114616Y179874D01*
X114631Y179911D01*
X114648Y179944D01*
X114666Y179973D01*
X114681Y179997D01*
X114696Y180020D01*
X114712Y180038D01*
X114723Y180051D01*
X114731Y180062D01*
X114738Y180068D01*
X114740Y180071D01*
X114775Y180103D01*
X114812Y180132D01*
X114849Y180156D01*
X114886Y180177D01*
X114923Y180195D01*
X114960Y180210D01*
X114995Y180221D01*
X115030Y180232D01*
X115060Y180238D01*
X115091Y180245D01*
X115117Y180247D01*
X115139Y180252D01*
X115156D01*
X115172Y180254D01*
X115182D01*
X115220Y180252D01*
X115257Y180249D01*
X115292Y180243D01*
X115326Y180234D01*
X115390Y180215D01*
X115420Y180201D01*
X115446Y180191D01*
X115472Y180180D01*
X115494Y180166D01*
X115514Y180156D01*
X115531Y180147D01*
X115544Y180138D01*
X115553Y180134D01*
X115560Y180129D01*
X115562Y180127D01*
X115455Y180668D01*
X114651D01*
Y180903D01*
X115651D01*
X115845Y179870D01*
D02*
G37*
G36*
X676587Y124055D02*
X676620Y124007D01*
X676657Y123961D01*
X676694Y123922D01*
X676726Y123885D01*
X676742Y123872D01*
X676753Y123859D01*
X676763Y123848D01*
X676772Y123842D01*
X676777Y123837D01*
X676779Y123835D01*
X676838Y123785D01*
X676901Y123741D01*
X676962Y123700D01*
X677019Y123665D01*
X677043Y123652D01*
X677067Y123639D01*
X677088Y123626D01*
X677106Y123617D01*
X677121Y123610D01*
X677132Y123604D01*
X677139Y123602D01*
X677141Y123600D01*
Y123362D01*
X677097Y123379D01*
X677051Y123399D01*
X677008Y123421D01*
X676968Y123440D01*
X676934Y123460D01*
X676918Y123467D01*
X676905Y123475D01*
X676894Y123480D01*
X676888Y123484D01*
X676883Y123488D01*
X676881D01*
X676829Y123521D01*
X676783Y123552D01*
X676742Y123580D01*
X676709Y123606D01*
X676681Y123628D01*
X676661Y123643D01*
X676650Y123654D01*
X676646Y123658D01*
Y122087D01*
X676399D01*
Y124105D01*
X676559D01*
X676587Y124055D01*
D02*
G37*
G36*
X489660D02*
X489692Y124007D01*
X489729Y123961D01*
X489767Y123922D01*
X489799Y123885D01*
X489815Y123872D01*
X489825Y123859D01*
X489836Y123848D01*
X489845Y123842D01*
X489849Y123837D01*
X489852Y123835D01*
X489910Y123785D01*
X489974Y123741D01*
X490035Y123700D01*
X490091Y123665D01*
X490115Y123652D01*
X490139Y123639D01*
X490161Y123626D01*
X490178Y123617D01*
X490194Y123610D01*
X490205Y123604D01*
X490211Y123602D01*
X490213Y123600D01*
Y123362D01*
X490170Y123379D01*
X490124Y123399D01*
X490080Y123421D01*
X490041Y123440D01*
X490006Y123460D01*
X489991Y123467D01*
X489978Y123475D01*
X489967Y123480D01*
X489960Y123484D01*
X489956Y123488D01*
X489954D01*
X489902Y123521D01*
X489856Y123552D01*
X489815Y123580D01*
X489782Y123606D01*
X489753Y123628D01*
X489734Y123643D01*
X489723Y123654D01*
X489718Y123658D01*
Y122087D01*
X489472D01*
Y124105D01*
X489631D01*
X489660Y124055D01*
D02*
G37*
G36*
X302732D02*
X302765Y124007D01*
X302802Y123961D01*
X302839Y123922D01*
X302872Y123885D01*
X302887Y123872D01*
X302898Y123859D01*
X302909Y123848D01*
X302918Y123842D01*
X302922Y123837D01*
X302924Y123835D01*
X302983Y123785D01*
X303046Y123741D01*
X303107Y123700D01*
X303164Y123665D01*
X303188Y123652D01*
X303212Y123639D01*
X303234Y123626D01*
X303251Y123617D01*
X303267Y123610D01*
X303277Y123604D01*
X303284Y123602D01*
X303286Y123600D01*
Y123362D01*
X303242Y123379D01*
X303197Y123399D01*
X303153Y123421D01*
X303114Y123440D01*
X303079Y123460D01*
X303064Y123467D01*
X303051Y123475D01*
X303040Y123480D01*
X303033Y123484D01*
X303029Y123488D01*
X303027D01*
X302974Y123521D01*
X302929Y123552D01*
X302887Y123580D01*
X302854Y123606D01*
X302826Y123628D01*
X302806Y123643D01*
X302796Y123654D01*
X302791Y123658D01*
Y122087D01*
X302545D01*
Y124105D01*
X302704D01*
X302732Y124055D01*
D02*
G37*
G36*
X115805D02*
X115838Y124007D01*
X115875Y123961D01*
X115912Y123922D01*
X115945Y123885D01*
X115960Y123872D01*
X115971Y123859D01*
X115982Y123848D01*
X115990Y123842D01*
X115995Y123837D01*
X115997Y123835D01*
X116056Y123785D01*
X116119Y123741D01*
X116180Y123700D01*
X116237Y123665D01*
X116261Y123652D01*
X116285Y123639D01*
X116306Y123626D01*
X116324Y123617D01*
X116339Y123610D01*
X116350Y123604D01*
X116357Y123602D01*
X116359Y123600D01*
Y123362D01*
X116315Y123379D01*
X116270Y123399D01*
X116226Y123421D01*
X116187Y123440D01*
X116152Y123460D01*
X116137Y123467D01*
X116123Y123475D01*
X116112Y123480D01*
X116106Y123484D01*
X116102Y123488D01*
X116100D01*
X116047Y123521D01*
X116001Y123552D01*
X115960Y123580D01*
X115927Y123606D01*
X115899Y123628D01*
X115879Y123643D01*
X115868Y123654D01*
X115864Y123658D01*
Y122087D01*
X115618D01*
Y124105D01*
X115777D01*
X115805Y124055D01*
D02*
G37*
G36*
X677493Y87874D02*
X677525Y87826D01*
X677562Y87780D01*
X677599Y87741D01*
X677632Y87704D01*
X677647Y87691D01*
X677658Y87678D01*
X677669Y87667D01*
X677678Y87660D01*
X677682Y87656D01*
X677684Y87654D01*
X677743Y87604D01*
X677806Y87560D01*
X677867Y87519D01*
X677924Y87484D01*
X677948Y87471D01*
X677972Y87458D01*
X677994Y87445D01*
X678011Y87436D01*
X678027Y87429D01*
X678037Y87423D01*
X678044Y87421D01*
X678046Y87419D01*
Y87181D01*
X678003Y87198D01*
X677957Y87218D01*
X677913Y87240D01*
X677874Y87259D01*
X677839Y87279D01*
X677824Y87286D01*
X677811Y87294D01*
X677800Y87299D01*
X677793Y87303D01*
X677789Y87307D01*
X677787D01*
X677734Y87340D01*
X677689Y87371D01*
X677647Y87399D01*
X677614Y87425D01*
X677586Y87447D01*
X677567Y87462D01*
X677556Y87473D01*
X677551Y87477D01*
Y85905D01*
X677305D01*
Y87924D01*
X677464D01*
X677493Y87874D01*
D02*
G37*
G36*
X490565D02*
X490598Y87826D01*
X490635Y87780D01*
X490672Y87741D01*
X490705Y87704D01*
X490720Y87691D01*
X490731Y87678D01*
X490742Y87667D01*
X490751Y87660D01*
X490755Y87656D01*
X490757Y87654D01*
X490816Y87604D01*
X490879Y87560D01*
X490940Y87519D01*
X490997Y87484D01*
X491021Y87471D01*
X491045Y87458D01*
X491067Y87445D01*
X491084Y87436D01*
X491099Y87429D01*
X491110Y87423D01*
X491117Y87421D01*
X491119Y87419D01*
Y87181D01*
X491075Y87198D01*
X491030Y87218D01*
X490986Y87240D01*
X490947Y87259D01*
X490912Y87279D01*
X490897Y87286D01*
X490883Y87294D01*
X490873Y87299D01*
X490866Y87303D01*
X490862Y87307D01*
X490860D01*
X490807Y87340D01*
X490761Y87371D01*
X490720Y87399D01*
X490687Y87425D01*
X490659Y87447D01*
X490639Y87462D01*
X490628Y87473D01*
X490624Y87477D01*
Y85905D01*
X490378D01*
Y87924D01*
X490537D01*
X490565Y87874D01*
D02*
G37*
G36*
X303638D02*
X303671Y87826D01*
X303708Y87780D01*
X303745Y87741D01*
X303777Y87704D01*
X303793Y87691D01*
X303804Y87678D01*
X303815Y87667D01*
X303823Y87660D01*
X303828Y87656D01*
X303830Y87654D01*
X303889Y87604D01*
X303952Y87560D01*
X304013Y87519D01*
X304070Y87484D01*
X304094Y87471D01*
X304117Y87458D01*
X304139Y87445D01*
X304157Y87436D01*
X304172Y87429D01*
X304183Y87423D01*
X304189Y87421D01*
X304192Y87419D01*
Y87181D01*
X304148Y87198D01*
X304102Y87218D01*
X304059Y87240D01*
X304019Y87259D01*
X303984Y87279D01*
X303969Y87286D01*
X303956Y87294D01*
X303945Y87299D01*
X303939Y87303D01*
X303934Y87307D01*
X303932D01*
X303880Y87340D01*
X303834Y87371D01*
X303793Y87399D01*
X303760Y87425D01*
X303732Y87447D01*
X303712Y87462D01*
X303701Y87473D01*
X303697Y87477D01*
Y85905D01*
X303450D01*
Y87924D01*
X303610D01*
X303638Y87874D01*
D02*
G37*
G36*
X116711D02*
X116743Y87826D01*
X116780Y87780D01*
X116817Y87741D01*
X116850Y87704D01*
X116866Y87691D01*
X116876Y87678D01*
X116887Y87667D01*
X116896Y87660D01*
X116900Y87656D01*
X116902Y87654D01*
X116961Y87604D01*
X117025Y87560D01*
X117086Y87519D01*
X117142Y87484D01*
X117166Y87471D01*
X117190Y87458D01*
X117212Y87445D01*
X117229Y87436D01*
X117245Y87429D01*
X117256Y87423D01*
X117262Y87421D01*
X117264Y87419D01*
Y87181D01*
X117221Y87198D01*
X117175Y87218D01*
X117131Y87240D01*
X117092Y87259D01*
X117057Y87279D01*
X117042Y87286D01*
X117029Y87294D01*
X117018Y87299D01*
X117011Y87303D01*
X117007Y87307D01*
X117005D01*
X116953Y87340D01*
X116907Y87371D01*
X116866Y87399D01*
X116833Y87425D01*
X116804Y87447D01*
X116785Y87462D01*
X116774Y87473D01*
X116770Y87477D01*
Y85905D01*
X116523D01*
Y87924D01*
X116682D01*
X116711Y87874D01*
D02*
G37*
G36*
X676627Y86858D02*
X676396Y86826D01*
X676374Y86856D01*
X676350Y86884D01*
X676324Y86908D01*
X676302Y86930D01*
X676280Y86945D01*
X676263Y86958D01*
X676252Y86965D01*
X676248Y86967D01*
X676211Y86987D01*
X676173Y87000D01*
X676136Y87011D01*
X676102Y87017D01*
X676073Y87022D01*
X676049Y87024D01*
X676030D01*
X675995Y87022D01*
X675962Y87019D01*
X675929Y87013D01*
X675901Y87004D01*
X675847Y86985D01*
X675825Y86974D01*
X675803Y86963D01*
X675783Y86950D01*
X675768Y86939D01*
X675753Y86928D01*
X675742Y86919D01*
X675733Y86910D01*
X675725Y86904D01*
X675722Y86902D01*
X675720Y86900D01*
X675698Y86876D01*
X675681Y86849D01*
X675663Y86823D01*
X675650Y86797D01*
X675629Y86740D01*
X675616Y86688D01*
X675611Y86662D01*
X675607Y86640D01*
X675605Y86618D01*
X675602Y86601D01*
X675600Y86586D01*
Y86575D01*
Y86568D01*
Y86566D01*
X675602Y86525D01*
X675605Y86488D01*
X675611Y86450D01*
X675620Y86416D01*
X675629Y86385D01*
X675639Y86355D01*
X675650Y86329D01*
X675661Y86304D01*
X675674Y86283D01*
X675685Y86263D01*
X675696Y86248D01*
X675705Y86233D01*
X675714Y86222D01*
X675720Y86215D01*
X675722Y86211D01*
X675725Y86209D01*
X675748Y86185D01*
X675772Y86165D01*
X675796Y86147D01*
X675823Y86132D01*
X675849Y86119D01*
X675873Y86108D01*
X675921Y86093D01*
X675962Y86082D01*
X675980Y86080D01*
X675995Y86078D01*
X676008Y86076D01*
X676025D01*
X676054Y86078D01*
X676080Y86080D01*
X676128Y86091D01*
X676171Y86106D01*
X676208Y86124D01*
X676239Y86139D01*
X676261Y86154D01*
X676269Y86161D01*
X676276Y86165D01*
X676278Y86169D01*
X676280D01*
X676298Y86189D01*
X676315Y86209D01*
X676344Y86252D01*
X676368Y86300D01*
X676385Y86346D01*
X676396Y86387D01*
X676403Y86407D01*
X676405Y86422D01*
X676407Y86435D01*
X676409Y86444D01*
X676411Y86450D01*
Y86453D01*
X676671Y86433D01*
X676664Y86387D01*
X676655Y86342D01*
X676644Y86300D01*
X676629Y86261D01*
X676614Y86226D01*
X676599Y86191D01*
X676581Y86161D01*
X676564Y86134D01*
X676546Y86108D01*
X676531Y86086D01*
X676516Y86069D01*
X676501Y86054D01*
X676490Y86041D01*
X676481Y86032D01*
X676477Y86028D01*
X676474Y86025D01*
X676440Y85999D01*
X676405Y85975D01*
X676368Y85956D01*
X676331Y85938D01*
X676294Y85923D01*
X676256Y85910D01*
X676219Y85899D01*
X676185Y85892D01*
X676152Y85886D01*
X676121Y85882D01*
X676095Y85877D01*
X676071Y85875D01*
X676052Y85873D01*
X676025D01*
X675964Y85875D01*
X675908Y85884D01*
X675853Y85895D01*
X675803Y85912D01*
X675755Y85930D01*
X675711Y85949D01*
X675672Y85973D01*
X675637Y85995D01*
X675605Y86017D01*
X675576Y86041D01*
X675552Y86060D01*
X675533Y86080D01*
X675517Y86095D01*
X675506Y86106D01*
X675500Y86115D01*
X675498Y86117D01*
X675469Y86154D01*
X675445Y86193D01*
X675424Y86235D01*
X675406Y86274D01*
X675391Y86313D01*
X675378Y86352D01*
X675367Y86392D01*
X675358Y86427D01*
X675352Y86461D01*
X675347Y86492D01*
X675343Y86518D01*
X675341Y86542D01*
X675339Y86562D01*
Y86575D01*
Y86586D01*
Y86588D01*
X675341Y86640D01*
X675347Y86690D01*
X675356Y86738D01*
X675367Y86782D01*
X675380Y86826D01*
X675397Y86863D01*
X675413Y86900D01*
X675430Y86932D01*
X675448Y86961D01*
X675463Y86985D01*
X675478Y87009D01*
X675493Y87026D01*
X675504Y87039D01*
X675513Y87050D01*
X675520Y87057D01*
X675522Y87059D01*
X675557Y87091D01*
X675594Y87120D01*
X675631Y87144D01*
X675668Y87166D01*
X675705Y87183D01*
X675742Y87198D01*
X675777Y87209D01*
X675812Y87220D01*
X675842Y87227D01*
X675873Y87233D01*
X675899Y87235D01*
X675921Y87240D01*
X675938D01*
X675953Y87242D01*
X675964D01*
X676001Y87240D01*
X676038Y87238D01*
X676073Y87231D01*
X676108Y87222D01*
X676171Y87203D01*
X676202Y87190D01*
X676228Y87179D01*
X676254Y87168D01*
X676276Y87155D01*
X676296Y87144D01*
X676313Y87135D01*
X676326Y87126D01*
X676335Y87122D01*
X676341Y87118D01*
X676344Y87115D01*
X676237Y87656D01*
X675432D01*
Y87892D01*
X676433D01*
X676627Y86858D01*
D02*
G37*
G36*
X489700D02*
X489469Y86826D01*
X489447Y86856D01*
X489423Y86884D01*
X489397Y86908D01*
X489375Y86930D01*
X489353Y86945D01*
X489336Y86958D01*
X489325Y86965D01*
X489320Y86967D01*
X489283Y86987D01*
X489246Y87000D01*
X489209Y87011D01*
X489174Y87017D01*
X489146Y87022D01*
X489122Y87024D01*
X489102D01*
X489068Y87022D01*
X489035Y87019D01*
X489002Y87013D01*
X488974Y87004D01*
X488919Y86985D01*
X488898Y86974D01*
X488876Y86963D01*
X488856Y86950D01*
X488841Y86939D01*
X488826Y86928D01*
X488815Y86919D01*
X488806Y86910D01*
X488797Y86904D01*
X488795Y86902D01*
X488793Y86900D01*
X488771Y86876D01*
X488754Y86849D01*
X488736Y86823D01*
X488723Y86797D01*
X488701Y86740D01*
X488688Y86688D01*
X488684Y86662D01*
X488680Y86640D01*
X488677Y86618D01*
X488675Y86601D01*
X488673Y86586D01*
Y86575D01*
Y86568D01*
Y86566D01*
X488675Y86525D01*
X488677Y86488D01*
X488684Y86450D01*
X488693Y86416D01*
X488701Y86385D01*
X488712Y86355D01*
X488723Y86329D01*
X488734Y86304D01*
X488747Y86283D01*
X488758Y86263D01*
X488769Y86248D01*
X488778Y86233D01*
X488786Y86222D01*
X488793Y86215D01*
X488795Y86211D01*
X488797Y86209D01*
X488821Y86185D01*
X488845Y86165D01*
X488869Y86147D01*
X488895Y86132D01*
X488921Y86119D01*
X488945Y86108D01*
X488993Y86093D01*
X489035Y86082D01*
X489052Y86080D01*
X489068Y86078D01*
X489081Y86076D01*
X489098D01*
X489126Y86078D01*
X489152Y86080D01*
X489200Y86091D01*
X489244Y86106D01*
X489281Y86124D01*
X489312Y86139D01*
X489333Y86154D01*
X489342Y86161D01*
X489349Y86165D01*
X489351Y86169D01*
X489353D01*
X489371Y86189D01*
X489388Y86209D01*
X489416Y86252D01*
X489440Y86300D01*
X489458Y86346D01*
X489469Y86387D01*
X489475Y86407D01*
X489477Y86422D01*
X489480Y86435D01*
X489482Y86444D01*
X489484Y86450D01*
Y86453D01*
X489743Y86433D01*
X489737Y86387D01*
X489728Y86342D01*
X489717Y86300D01*
X489702Y86261D01*
X489687Y86226D01*
X489671Y86191D01*
X489654Y86161D01*
X489637Y86134D01*
X489619Y86108D01*
X489604Y86086D01*
X489589Y86069D01*
X489573Y86054D01*
X489562Y86041D01*
X489554Y86032D01*
X489549Y86028D01*
X489547Y86025D01*
X489512Y85999D01*
X489477Y85975D01*
X489440Y85956D01*
X489403Y85938D01*
X489366Y85923D01*
X489329Y85910D01*
X489292Y85899D01*
X489257Y85892D01*
X489224Y85886D01*
X489194Y85882D01*
X489168Y85877D01*
X489144Y85875D01*
X489124Y85873D01*
X489098D01*
X489037Y85875D01*
X488980Y85884D01*
X488926Y85895D01*
X488876Y85912D01*
X488828Y85930D01*
X488784Y85949D01*
X488745Y85973D01*
X488710Y85995D01*
X488677Y86017D01*
X488649Y86041D01*
X488625Y86060D01*
X488605Y86080D01*
X488590Y86095D01*
X488579Y86106D01*
X488573Y86115D01*
X488570Y86117D01*
X488542Y86154D01*
X488518Y86193D01*
X488496Y86235D01*
X488479Y86274D01*
X488464Y86313D01*
X488451Y86352D01*
X488440Y86392D01*
X488431Y86427D01*
X488424Y86461D01*
X488420Y86492D01*
X488416Y86518D01*
X488413Y86542D01*
X488411Y86562D01*
Y86575D01*
Y86586D01*
Y86588D01*
X488413Y86640D01*
X488420Y86690D01*
X488429Y86738D01*
X488440Y86782D01*
X488453Y86826D01*
X488470Y86863D01*
X488485Y86900D01*
X488503Y86932D01*
X488520Y86961D01*
X488536Y86985D01*
X488551Y87009D01*
X488566Y87026D01*
X488577Y87039D01*
X488586Y87050D01*
X488592Y87057D01*
X488594Y87059D01*
X488629Y87091D01*
X488666Y87120D01*
X488703Y87144D01*
X488740Y87166D01*
X488778Y87183D01*
X488815Y87198D01*
X488849Y87209D01*
X488884Y87220D01*
X488915Y87227D01*
X488945Y87233D01*
X488972Y87235D01*
X488993Y87240D01*
X489011D01*
X489026Y87242D01*
X489037D01*
X489074Y87240D01*
X489111Y87238D01*
X489146Y87231D01*
X489181Y87222D01*
X489244Y87203D01*
X489275Y87190D01*
X489301Y87179D01*
X489327Y87168D01*
X489349Y87155D01*
X489368Y87144D01*
X489386Y87135D01*
X489399Y87126D01*
X489408Y87122D01*
X489414Y87118D01*
X489416Y87115D01*
X489310Y87656D01*
X488505D01*
Y87892D01*
X489506D01*
X489700Y86858D01*
D02*
G37*
G36*
X302772D02*
X302541Y86826D01*
X302520Y86856D01*
X302496Y86884D01*
X302469Y86908D01*
X302448Y86930D01*
X302426Y86945D01*
X302408Y86958D01*
X302397Y86965D01*
X302393Y86967D01*
X302356Y86987D01*
X302319Y87000D01*
X302282Y87011D01*
X302247Y87017D01*
X302219Y87022D01*
X302195Y87024D01*
X302175D01*
X302140Y87022D01*
X302108Y87019D01*
X302075Y87013D01*
X302046Y87004D01*
X301992Y86985D01*
X301970Y86974D01*
X301948Y86963D01*
X301929Y86950D01*
X301913Y86939D01*
X301898Y86928D01*
X301887Y86919D01*
X301879Y86910D01*
X301870Y86904D01*
X301868Y86902D01*
X301866Y86900D01*
X301844Y86876D01*
X301826Y86849D01*
X301809Y86823D01*
X301796Y86797D01*
X301774Y86740D01*
X301761Y86688D01*
X301757Y86662D01*
X301752Y86640D01*
X301750Y86618D01*
X301748Y86601D01*
X301746Y86586D01*
Y86575D01*
Y86568D01*
Y86566D01*
X301748Y86525D01*
X301750Y86488D01*
X301757Y86450D01*
X301765Y86416D01*
X301774Y86385D01*
X301785Y86355D01*
X301796Y86329D01*
X301807Y86304D01*
X301820Y86283D01*
X301831Y86263D01*
X301842Y86248D01*
X301850Y86233D01*
X301859Y86222D01*
X301866Y86215D01*
X301868Y86211D01*
X301870Y86209D01*
X301894Y86185D01*
X301918Y86165D01*
X301942Y86147D01*
X301968Y86132D01*
X301994Y86119D01*
X302018Y86108D01*
X302066Y86093D01*
X302108Y86082D01*
X302125Y86080D01*
X302140Y86078D01*
X302153Y86076D01*
X302171D01*
X302199Y86078D01*
X302225Y86080D01*
X302273Y86091D01*
X302317Y86106D01*
X302354Y86124D01*
X302384Y86139D01*
X302406Y86154D01*
X302415Y86161D01*
X302421Y86165D01*
X302424Y86169D01*
X302426D01*
X302443Y86189D01*
X302461Y86209D01*
X302489Y86252D01*
X302513Y86300D01*
X302531Y86346D01*
X302541Y86387D01*
X302548Y86407D01*
X302550Y86422D01*
X302552Y86435D01*
X302554Y86444D01*
X302557Y86450D01*
Y86453D01*
X302816Y86433D01*
X302810Y86387D01*
X302801Y86342D01*
X302790Y86300D01*
X302775Y86261D01*
X302759Y86226D01*
X302744Y86191D01*
X302727Y86161D01*
X302709Y86134D01*
X302692Y86108D01*
X302677Y86086D01*
X302661Y86069D01*
X302646Y86054D01*
X302635Y86041D01*
X302626Y86032D01*
X302622Y86028D01*
X302620Y86025D01*
X302585Y85999D01*
X302550Y85975D01*
X302513Y85956D01*
X302476Y85938D01*
X302439Y85923D01*
X302402Y85910D01*
X302365Y85899D01*
X302330Y85892D01*
X302297Y85886D01*
X302267Y85882D01*
X302240Y85877D01*
X302217Y85875D01*
X302197Y85873D01*
X302171D01*
X302110Y85875D01*
X302053Y85884D01*
X301999Y85895D01*
X301948Y85912D01*
X301901Y85930D01*
X301857Y85949D01*
X301818Y85973D01*
X301783Y85995D01*
X301750Y86017D01*
X301722Y86041D01*
X301698Y86060D01*
X301678Y86080D01*
X301663Y86095D01*
X301652Y86106D01*
X301645Y86115D01*
X301643Y86117D01*
X301615Y86154D01*
X301591Y86193D01*
X301569Y86235D01*
X301552Y86274D01*
X301536Y86313D01*
X301523Y86352D01*
X301512Y86392D01*
X301504Y86427D01*
X301497Y86461D01*
X301493Y86492D01*
X301488Y86518D01*
X301486Y86542D01*
X301484Y86562D01*
Y86575D01*
Y86586D01*
Y86588D01*
X301486Y86640D01*
X301493Y86690D01*
X301501Y86738D01*
X301512Y86782D01*
X301525Y86826D01*
X301543Y86863D01*
X301558Y86900D01*
X301576Y86932D01*
X301593Y86961D01*
X301608Y86985D01*
X301624Y87009D01*
X301639Y87026D01*
X301650Y87039D01*
X301659Y87050D01*
X301665Y87057D01*
X301667Y87059D01*
X301702Y87091D01*
X301739Y87120D01*
X301776Y87144D01*
X301813Y87166D01*
X301850Y87183D01*
X301887Y87198D01*
X301922Y87209D01*
X301957Y87220D01*
X301988Y87227D01*
X302018Y87233D01*
X302044Y87235D01*
X302066Y87240D01*
X302084D01*
X302099Y87242D01*
X302110D01*
X302147Y87240D01*
X302184Y87238D01*
X302219Y87231D01*
X302254Y87222D01*
X302317Y87203D01*
X302347Y87190D01*
X302374Y87179D01*
X302400Y87168D01*
X302421Y87155D01*
X302441Y87144D01*
X302459Y87135D01*
X302472Y87126D01*
X302480Y87122D01*
X302487Y87118D01*
X302489Y87115D01*
X302382Y87656D01*
X301578D01*
Y87892D01*
X302578D01*
X302772Y86858D01*
D02*
G37*
G36*
X115845D02*
X115614Y86826D01*
X115592Y86856D01*
X115568Y86884D01*
X115542Y86908D01*
X115520Y86930D01*
X115499Y86945D01*
X115481Y86958D01*
X115470Y86965D01*
X115466Y86967D01*
X115429Y86987D01*
X115392Y87000D01*
X115355Y87011D01*
X115320Y87017D01*
X115292Y87022D01*
X115268Y87024D01*
X115248D01*
X115213Y87022D01*
X115180Y87019D01*
X115148Y87013D01*
X115119Y87004D01*
X115065Y86985D01*
X115043Y86974D01*
X115021Y86963D01*
X115001Y86950D01*
X114986Y86939D01*
X114971Y86928D01*
X114960Y86919D01*
X114951Y86910D01*
X114943Y86904D01*
X114941Y86902D01*
X114938Y86900D01*
X114917Y86876D01*
X114899Y86849D01*
X114882Y86823D01*
X114869Y86797D01*
X114847Y86740D01*
X114834Y86688D01*
X114829Y86662D01*
X114825Y86640D01*
X114823Y86618D01*
X114821Y86601D01*
X114818Y86586D01*
Y86575D01*
Y86568D01*
Y86566D01*
X114821Y86525D01*
X114823Y86488D01*
X114829Y86450D01*
X114838Y86416D01*
X114847Y86385D01*
X114858Y86355D01*
X114869Y86329D01*
X114880Y86304D01*
X114893Y86283D01*
X114903Y86263D01*
X114914Y86248D01*
X114923Y86233D01*
X114932Y86222D01*
X114938Y86215D01*
X114941Y86211D01*
X114943Y86209D01*
X114967Y86185D01*
X114991Y86165D01*
X115015Y86147D01*
X115041Y86132D01*
X115067Y86119D01*
X115091Y86108D01*
X115139Y86093D01*
X115180Y86082D01*
X115198Y86080D01*
X115213Y86078D01*
X115226Y86076D01*
X115243D01*
X115272Y86078D01*
X115298Y86080D01*
X115346Y86091D01*
X115390Y86106D01*
X115427Y86124D01*
X115457Y86139D01*
X115479Y86154D01*
X115488Y86161D01*
X115494Y86165D01*
X115496Y86169D01*
X115499D01*
X115516Y86189D01*
X115533Y86209D01*
X115562Y86252D01*
X115586Y86300D01*
X115603Y86346D01*
X115614Y86387D01*
X115621Y86407D01*
X115623Y86422D01*
X115625Y86435D01*
X115627Y86444D01*
X115629Y86450D01*
Y86453D01*
X115889Y86433D01*
X115882Y86387D01*
X115874Y86342D01*
X115863Y86300D01*
X115847Y86261D01*
X115832Y86226D01*
X115817Y86191D01*
X115799Y86161D01*
X115782Y86134D01*
X115765Y86108D01*
X115749Y86086D01*
X115734Y86069D01*
X115719Y86054D01*
X115708Y86041D01*
X115699Y86032D01*
X115695Y86028D01*
X115693Y86025D01*
X115658Y85999D01*
X115623Y85975D01*
X115586Y85956D01*
X115549Y85938D01*
X115512Y85923D01*
X115475Y85910D01*
X115438Y85899D01*
X115403Y85892D01*
X115370Y85886D01*
X115340Y85882D01*
X115313Y85877D01*
X115289Y85875D01*
X115270Y85873D01*
X115243D01*
X115182Y85875D01*
X115126Y85884D01*
X115071Y85895D01*
X115021Y85912D01*
X114973Y85930D01*
X114930Y85949D01*
X114890Y85973D01*
X114856Y85995D01*
X114823Y86017D01*
X114795Y86041D01*
X114770Y86060D01*
X114751Y86080D01*
X114736Y86095D01*
X114725Y86106D01*
X114718Y86115D01*
X114716Y86117D01*
X114688Y86154D01*
X114664Y86193D01*
X114642Y86235D01*
X114624Y86274D01*
X114609Y86313D01*
X114596Y86352D01*
X114585Y86392D01*
X114576Y86427D01*
X114570Y86461D01*
X114566Y86492D01*
X114561Y86518D01*
X114559Y86542D01*
X114557Y86562D01*
Y86575D01*
Y86586D01*
Y86588D01*
X114559Y86640D01*
X114566Y86690D01*
X114574Y86738D01*
X114585Y86782D01*
X114598Y86826D01*
X114616Y86863D01*
X114631Y86900D01*
X114648Y86932D01*
X114666Y86961D01*
X114681Y86985D01*
X114696Y87009D01*
X114712Y87026D01*
X114723Y87039D01*
X114731Y87050D01*
X114738Y87057D01*
X114740Y87059D01*
X114775Y87091D01*
X114812Y87120D01*
X114849Y87144D01*
X114886Y87166D01*
X114923Y87183D01*
X114960Y87198D01*
X114995Y87209D01*
X115030Y87220D01*
X115060Y87227D01*
X115091Y87233D01*
X115117Y87235D01*
X115139Y87240D01*
X115156D01*
X115172Y87242D01*
X115182D01*
X115220Y87240D01*
X115257Y87238D01*
X115292Y87231D01*
X115326Y87222D01*
X115390Y87203D01*
X115420Y87190D01*
X115446Y87179D01*
X115472Y87168D01*
X115494Y87155D01*
X115514Y87144D01*
X115531Y87135D01*
X115544Y87126D01*
X115553Y87122D01*
X115560Y87118D01*
X115562Y87115D01*
X115455Y87656D01*
X114651D01*
Y87892D01*
X115651D01*
X115845Y86858D01*
D02*
G37*
D63*
X0Y425197D02*
X778740D01*
X0Y51181D02*
X778740Y50787D01*
D65*
X88618Y85649D02*
X88897Y85370D01*
X89843Y86874D02*
X90122Y86595D01*
X92993Y89925D02*
X93271Y89647D01*
X91768Y88700D02*
X92046Y88421D01*
X275546Y85649D02*
X275824Y85370D01*
X276771Y86874D02*
X277049Y86595D01*
X279920Y89925D02*
X280199Y89647D01*
X278695Y88700D02*
X278974Y88421D01*
X462473Y85649D02*
X462751Y85370D01*
X463698Y86874D02*
X463976Y86595D01*
X466848Y89925D02*
X467126Y89647D01*
X465623Y88700D02*
X465901Y88421D01*
X649400Y85649D02*
X649679Y85370D01*
X650625Y86874D02*
X650904Y86595D01*
X653775Y89925D02*
X654053Y89647D01*
X652550Y88700D02*
X652828Y88421D01*
X88618Y178661D02*
X88897Y178382D01*
X89843Y179885D02*
X90122Y179607D01*
X92993Y182937D02*
X93271Y182658D01*
X91768Y181712D02*
X92046Y181433D01*
X275546Y178661D02*
X275824Y178382D01*
X276771Y179885D02*
X277049Y179607D01*
X279920Y182937D02*
X280199Y182658D01*
X278695Y181712D02*
X278974Y181433D01*
X462473Y178661D02*
X462751Y178382D01*
X463698Y179885D02*
X463976Y179607D01*
X466848Y182937D02*
X467126Y182658D01*
X465623Y181712D02*
X465901Y181433D01*
X649400Y178661D02*
X649679Y178382D01*
X650625Y179885D02*
X650904Y179607D01*
X653775Y182937D02*
X654053Y182658D01*
X652550Y181712D02*
X652828Y181433D01*
X88618Y271672D02*
X88897Y271394D01*
X89843Y272897D02*
X90122Y272619D01*
X92993Y275949D02*
X93271Y275670D01*
X91768Y274724D02*
X92046Y274445D01*
X275546Y271672D02*
X275824Y271394D01*
X276771Y272897D02*
X277049Y272619D01*
X279920Y275949D02*
X280199Y275670D01*
X278695Y274724D02*
X278974Y274445D01*
X462473Y271672D02*
X462751Y271394D01*
X463698Y272897D02*
X463976Y272619D01*
X466848Y275949D02*
X467126Y275670D01*
X465623Y274724D02*
X465901Y274445D01*
X649400Y271672D02*
X649679Y271394D01*
X650625Y272897D02*
X650904Y272619D01*
X653775Y275949D02*
X654053Y275670D01*
X652550Y274724D02*
X652828Y274445D01*
X88618Y364684D02*
X88897Y364406D01*
X89843Y365909D02*
X90122Y365631D01*
X92993Y368960D02*
X93271Y368682D01*
X91768Y367735D02*
X92046Y367457D01*
X275546Y364684D02*
X275824Y364406D01*
X276771Y365909D02*
X277049Y365631D01*
X279920Y368960D02*
X280199Y368682D01*
X278695Y367735D02*
X278974Y367457D01*
X462473Y364684D02*
X462751Y364406D01*
X463698Y365909D02*
X463976Y365631D01*
X466848Y368960D02*
X467126Y368682D01*
X465623Y367735D02*
X465901Y367457D01*
X649400Y364684D02*
X649679Y364406D01*
X650625Y365909D02*
X650904Y365631D01*
X653775Y368960D02*
X654053Y368682D01*
X652550Y367735D02*
X652828Y367457D01*
D115*
X92716Y75984D02*
X90749D01*
X90093Y76640D01*
X90749Y77296D01*
X92061D01*
X92716Y77952D01*
X92061Y78608D01*
X90093D01*
X88781Y75984D02*
Y78608D01*
X86813D01*
X86157Y77952D01*
Y75984D01*
X82221Y79920D02*
Y75984D01*
X84189D01*
X84845Y76640D01*
Y77952D01*
X84189Y78608D01*
X82221D01*
X53348Y107874D02*
X57283D01*
Y105906D01*
X56628Y105250D01*
X55971D01*
X55316D01*
X54660Y105906D01*
Y107874D01*
Y103282D02*
Y101970D01*
X55316Y101314D01*
X57283D01*
Y103282D01*
X56628Y103938D01*
X55971Y103282D01*
Y101314D01*
X54004Y99347D02*
X54660D01*
Y100003D01*
Y98691D01*
Y99347D01*
X56628D01*
X57283Y98691D01*
X139764Y82124D02*
X137796D01*
X137140Y82780D01*
X137796Y83436D01*
X139108D01*
X139764Y84092D01*
X139108Y84748D01*
X137140D01*
X135828Y82124D02*
X134516D01*
X135172D01*
Y86060D01*
X135828Y85404D01*
X139764Y75984D02*
X137796D01*
X137140Y76640D01*
X137796Y77296D01*
X139108D01*
X139764Y77952D01*
X139108Y78608D01*
X137140D01*
X133204Y75984D02*
X135828D01*
X133204Y78608D01*
Y79264D01*
X133860Y79920D01*
X135172D01*
X135828Y79264D01*
X279644Y75984D02*
X277676D01*
X277020Y76640D01*
X277676Y77296D01*
X278988D01*
X279644Y77952D01*
X278988Y78608D01*
X277020D01*
X275708Y75984D02*
Y78608D01*
X273740D01*
X273084Y77952D01*
Y75984D01*
X269148Y79920D02*
Y75984D01*
X271116D01*
X271772Y76640D01*
Y77952D01*
X271116Y78608D01*
X269148D01*
X240275Y107874D02*
X244211D01*
Y105906D01*
X243555Y105250D01*
X242899D01*
X242243D01*
X241587Y105906D01*
Y107874D01*
Y103282D02*
Y101970D01*
X242243Y101314D01*
X244211D01*
Y103282D01*
X243555Y103938D01*
X242899Y103282D01*
Y101314D01*
X240931Y99347D02*
X241587D01*
Y100003D01*
Y98691D01*
Y99347D01*
X243555D01*
X244211Y98691D01*
X326691Y82124D02*
X324723D01*
X324067Y82780D01*
X324723Y83436D01*
X326035D01*
X326691Y84092D01*
X326035Y84748D01*
X324067D01*
X322755Y82124D02*
X321443D01*
X322099D01*
Y86060D01*
X322755Y85404D01*
X326691Y75984D02*
X324723D01*
X324067Y76640D01*
X324723Y77296D01*
X326035D01*
X326691Y77952D01*
X326035Y78608D01*
X324067D01*
X320131Y75984D02*
X322755D01*
X320131Y78608D01*
Y79264D01*
X320787Y79920D01*
X322099D01*
X322755Y79264D01*
X466571Y75984D02*
X464603D01*
X463947Y76640D01*
X464603Y77296D01*
X465915D01*
X466571Y77952D01*
X465915Y78608D01*
X463947D01*
X462635Y75984D02*
Y78608D01*
X460667D01*
X460011Y77952D01*
Y75984D01*
X456076Y79920D02*
Y75984D01*
X458044D01*
X458700Y76640D01*
Y77952D01*
X458044Y78608D01*
X456076D01*
X427202Y107874D02*
X431138D01*
Y105906D01*
X430482Y105250D01*
X429826D01*
X429170D01*
X428514Y105906D01*
Y107874D01*
Y103282D02*
Y101970D01*
X429170Y101314D01*
X431138D01*
Y103282D01*
X430482Y103938D01*
X429826Y103282D01*
Y101314D01*
X427858Y99347D02*
X428514D01*
Y100003D01*
Y98691D01*
Y99347D01*
X430482D01*
X431138Y98691D01*
X513618Y82124D02*
X511650D01*
X510994Y82780D01*
X511650Y83436D01*
X512962D01*
X513618Y84092D01*
X512962Y84748D01*
X510994D01*
X509683Y82124D02*
X508371D01*
X509027D01*
Y86060D01*
X509683Y85404D01*
X513618Y75984D02*
X511650D01*
X510994Y76640D01*
X511650Y77296D01*
X512962D01*
X513618Y77952D01*
X512962Y78608D01*
X510994D01*
X507059Y75984D02*
X509683D01*
X507059Y78608D01*
Y79264D01*
X507715Y79920D01*
X509027D01*
X509683Y79264D01*
X653498Y75984D02*
X651530D01*
X650875Y76640D01*
X651530Y77296D01*
X652842D01*
X653498Y77952D01*
X652842Y78608D01*
X650875D01*
X649563Y75984D02*
Y78608D01*
X647595D01*
X646939Y77952D01*
Y75984D01*
X643003Y79920D02*
Y75984D01*
X644971D01*
X645627Y76640D01*
Y77952D01*
X644971Y78608D01*
X643003D01*
X614129Y107874D02*
X618065D01*
Y105906D01*
X617409Y105250D01*
X616753D01*
X616097D01*
X615441Y105906D01*
Y107874D01*
Y103282D02*
Y101970D01*
X616097Y101314D01*
X618065D01*
Y103282D01*
X617409Y103938D01*
X616753Y103282D01*
Y101314D01*
X614785Y99347D02*
X615441D01*
Y100003D01*
Y98691D01*
Y99347D01*
X617409D01*
X618065Y98691D01*
X700546Y82124D02*
X698578D01*
X697922Y82780D01*
X698578Y83436D01*
X699890D01*
X700546Y84092D01*
X699890Y84748D01*
X697922D01*
X696610Y82124D02*
X695298D01*
X695954D01*
Y86060D01*
X696610Y85404D01*
X700546Y75984D02*
X698578D01*
X697922Y76640D01*
X698578Y77296D01*
X699890D01*
X700546Y77952D01*
X699890Y78608D01*
X697922D01*
X693986Y75984D02*
X696610D01*
X693986Y78608D01*
Y79264D01*
X694642Y79920D01*
X695954D01*
X696610Y79264D01*
X92716Y168996D02*
X90749D01*
X90093Y169652D01*
X90749Y170308D01*
X92061D01*
X92716Y170964D01*
X92061Y171620D01*
X90093D01*
X88781Y168996D02*
Y171620D01*
X86813D01*
X86157Y170964D01*
Y168996D01*
X82221Y172932D02*
Y168996D01*
X84189D01*
X84845Y169652D01*
Y170964D01*
X84189Y171620D01*
X82221D01*
X53348Y200886D02*
X57283D01*
Y198918D01*
X56628Y198262D01*
X55971D01*
X55316D01*
X54660Y198918D01*
Y200886D01*
Y196294D02*
Y194982D01*
X55316Y194326D01*
X57283D01*
Y196294D01*
X56628Y196950D01*
X55971Y196294D01*
Y194326D01*
X54004Y192358D02*
X54660D01*
Y193014D01*
Y191702D01*
Y192358D01*
X56628D01*
X57283Y191702D01*
X139764Y175136D02*
X137796D01*
X137140Y175792D01*
X137796Y176448D01*
X139108D01*
X139764Y177104D01*
X139108Y177760D01*
X137140D01*
X135828Y175136D02*
X134516D01*
X135172D01*
Y179072D01*
X135828Y178416D01*
X139764Y168996D02*
X137796D01*
X137140Y169652D01*
X137796Y170308D01*
X139108D01*
X139764Y170964D01*
X139108Y171620D01*
X137140D01*
X133204Y168996D02*
X135828D01*
X133204Y171620D01*
Y172276D01*
X133860Y172932D01*
X135172D01*
X135828Y172276D01*
X279644Y168996D02*
X277676D01*
X277020Y169652D01*
X277676Y170308D01*
X278988D01*
X279644Y170964D01*
X278988Y171620D01*
X277020D01*
X275708Y168996D02*
Y171620D01*
X273740D01*
X273084Y170964D01*
Y168996D01*
X269148Y172932D02*
Y168996D01*
X271116D01*
X271772Y169652D01*
Y170964D01*
X271116Y171620D01*
X269148D01*
X240275Y200886D02*
X244211D01*
Y198918D01*
X243555Y198262D01*
X242899D01*
X242243D01*
X241587Y198918D01*
Y200886D01*
Y196294D02*
Y194982D01*
X242243Y194326D01*
X244211D01*
Y196294D01*
X243555Y196950D01*
X242899Y196294D01*
Y194326D01*
X240931Y192358D02*
X241587D01*
Y193014D01*
Y191702D01*
Y192358D01*
X243555D01*
X244211Y191702D01*
X326691Y175136D02*
X324723D01*
X324067Y175792D01*
X324723Y176448D01*
X326035D01*
X326691Y177104D01*
X326035Y177760D01*
X324067D01*
X322755Y175136D02*
X321443D01*
X322099D01*
Y179072D01*
X322755Y178416D01*
X326691Y168996D02*
X324723D01*
X324067Y169652D01*
X324723Y170308D01*
X326035D01*
X326691Y170964D01*
X326035Y171620D01*
X324067D01*
X320131Y168996D02*
X322755D01*
X320131Y171620D01*
Y172276D01*
X320787Y172932D01*
X322099D01*
X322755Y172276D01*
X466571Y168996D02*
X464603D01*
X463947Y169652D01*
X464603Y170308D01*
X465915D01*
X466571Y170964D01*
X465915Y171620D01*
X463947D01*
X462635Y168996D02*
Y171620D01*
X460667D01*
X460011Y170964D01*
Y168996D01*
X456076Y172932D02*
Y168996D01*
X458044D01*
X458700Y169652D01*
Y170964D01*
X458044Y171620D01*
X456076D01*
X427202Y200886D02*
X431138D01*
Y198918D01*
X430482Y198262D01*
X429826D01*
X429170D01*
X428514Y198918D01*
Y200886D01*
Y196294D02*
Y194982D01*
X429170Y194326D01*
X431138D01*
Y196294D01*
X430482Y196950D01*
X429826Y196294D01*
Y194326D01*
X427858Y192358D02*
X428514D01*
Y193014D01*
Y191702D01*
Y192358D01*
X430482D01*
X431138Y191702D01*
X513618Y175136D02*
X511650D01*
X510994Y175792D01*
X511650Y176448D01*
X512962D01*
X513618Y177104D01*
X512962Y177760D01*
X510994D01*
X509683Y175136D02*
X508371D01*
X509027D01*
Y179072D01*
X509683Y178416D01*
X513618Y168996D02*
X511650D01*
X510994Y169652D01*
X511650Y170308D01*
X512962D01*
X513618Y170964D01*
X512962Y171620D01*
X510994D01*
X507059Y168996D02*
X509683D01*
X507059Y171620D01*
Y172276D01*
X507715Y172932D01*
X509027D01*
X509683Y172276D01*
X653498Y168996D02*
X651530D01*
X650875Y169652D01*
X651530Y170308D01*
X652842D01*
X653498Y170964D01*
X652842Y171620D01*
X650875D01*
X649563Y168996D02*
Y171620D01*
X647595D01*
X646939Y170964D01*
Y168996D01*
X643003Y172932D02*
Y168996D01*
X644971D01*
X645627Y169652D01*
Y170964D01*
X644971Y171620D01*
X643003D01*
X614129Y200886D02*
X618065D01*
Y198918D01*
X617409Y198262D01*
X616753D01*
X616097D01*
X615441Y198918D01*
Y200886D01*
Y196294D02*
Y194982D01*
X616097Y194326D01*
X618065D01*
Y196294D01*
X617409Y196950D01*
X616753Y196294D01*
Y194326D01*
X614785Y192358D02*
X615441D01*
Y193014D01*
Y191702D01*
Y192358D01*
X617409D01*
X618065Y191702D01*
X700546Y175136D02*
X698578D01*
X697922Y175792D01*
X698578Y176448D01*
X699890D01*
X700546Y177104D01*
X699890Y177760D01*
X697922D01*
X696610Y175136D02*
X695298D01*
X695954D01*
Y179072D01*
X696610Y178416D01*
X700546Y168996D02*
X698578D01*
X697922Y169652D01*
X698578Y170308D01*
X699890D01*
X700546Y170964D01*
X699890Y171620D01*
X697922D01*
X693986Y168996D02*
X696610D01*
X693986Y171620D01*
Y172276D01*
X694642Y172932D01*
X695954D01*
X696610Y172276D01*
X92716Y262008D02*
X90749D01*
X90093Y262664D01*
X90749Y263320D01*
X92061D01*
X92716Y263976D01*
X92061Y264632D01*
X90093D01*
X88781Y262008D02*
Y264632D01*
X86813D01*
X86157Y263976D01*
Y262008D01*
X82221Y265944D02*
Y262008D01*
X84189D01*
X84845Y262664D01*
Y263976D01*
X84189Y264632D01*
X82221D01*
X53348Y293898D02*
X57283D01*
Y291930D01*
X56628Y291274D01*
X55971D01*
X55316D01*
X54660Y291930D01*
Y293898D01*
Y289306D02*
Y287994D01*
X55316Y287338D01*
X57283D01*
Y289306D01*
X56628Y289962D01*
X55971Y289306D01*
Y287338D01*
X54004Y285370D02*
X54660D01*
Y286026D01*
Y284714D01*
Y285370D01*
X56628D01*
X57283Y284714D01*
X139764Y268148D02*
X137796D01*
X137140Y268804D01*
X137796Y269460D01*
X139108D01*
X139764Y270116D01*
X139108Y270772D01*
X137140D01*
X135828Y268148D02*
X134516D01*
X135172D01*
Y272084D01*
X135828Y271428D01*
X139764Y262008D02*
X137796D01*
X137140Y262664D01*
X137796Y263320D01*
X139108D01*
X139764Y263976D01*
X139108Y264632D01*
X137140D01*
X133204Y262008D02*
X135828D01*
X133204Y264632D01*
Y265288D01*
X133860Y265944D01*
X135172D01*
X135828Y265288D01*
X279644Y262008D02*
X277676D01*
X277020Y262664D01*
X277676Y263320D01*
X278988D01*
X279644Y263976D01*
X278988Y264632D01*
X277020D01*
X275708Y262008D02*
Y264632D01*
X273740D01*
X273084Y263976D01*
Y262008D01*
X269148Y265944D02*
Y262008D01*
X271116D01*
X271772Y262664D01*
Y263976D01*
X271116Y264632D01*
X269148D01*
X240275Y293898D02*
X244211D01*
Y291930D01*
X243555Y291274D01*
X242899D01*
X242243D01*
X241587Y291930D01*
Y293898D01*
Y289306D02*
Y287994D01*
X242243Y287338D01*
X244211D01*
Y289306D01*
X243555Y289962D01*
X242899Y289306D01*
Y287338D01*
X240931Y285370D02*
X241587D01*
Y286026D01*
Y284714D01*
Y285370D01*
X243555D01*
X244211Y284714D01*
X326691Y268148D02*
X324723D01*
X324067Y268804D01*
X324723Y269460D01*
X326035D01*
X326691Y270116D01*
X326035Y270772D01*
X324067D01*
X322755Y268148D02*
X321443D01*
X322099D01*
Y272084D01*
X322755Y271428D01*
X326691Y262008D02*
X324723D01*
X324067Y262664D01*
X324723Y263320D01*
X326035D01*
X326691Y263976D01*
X326035Y264632D01*
X324067D01*
X320131Y262008D02*
X322755D01*
X320131Y264632D01*
Y265288D01*
X320787Y265944D01*
X322099D01*
X322755Y265288D01*
X466571Y262008D02*
X464603D01*
X463947Y262664D01*
X464603Y263320D01*
X465915D01*
X466571Y263976D01*
X465915Y264632D01*
X463947D01*
X462635Y262008D02*
Y264632D01*
X460667D01*
X460011Y263976D01*
Y262008D01*
X456076Y265944D02*
Y262008D01*
X458044D01*
X458700Y262664D01*
Y263976D01*
X458044Y264632D01*
X456076D01*
X427202Y293898D02*
X431138D01*
Y291930D01*
X430482Y291274D01*
X429826D01*
X429170D01*
X428514Y291930D01*
Y293898D01*
Y289306D02*
Y287994D01*
X429170Y287338D01*
X431138D01*
Y289306D01*
X430482Y289962D01*
X429826Y289306D01*
Y287338D01*
X427858Y285370D02*
X428514D01*
Y286026D01*
Y284714D01*
Y285370D01*
X430482D01*
X431138Y284714D01*
X513618Y268148D02*
X511650D01*
X510994Y268804D01*
X511650Y269460D01*
X512962D01*
X513618Y270116D01*
X512962Y270772D01*
X510994D01*
X509683Y268148D02*
X508371D01*
X509027D01*
Y272084D01*
X509683Y271428D01*
X513618Y262008D02*
X511650D01*
X510994Y262664D01*
X511650Y263320D01*
X512962D01*
X513618Y263976D01*
X512962Y264632D01*
X510994D01*
X507059Y262008D02*
X509683D01*
X507059Y264632D01*
Y265288D01*
X507715Y265944D01*
X509027D01*
X509683Y265288D01*
X653498Y262008D02*
X651530D01*
X650875Y262664D01*
X651530Y263320D01*
X652842D01*
X653498Y263976D01*
X652842Y264632D01*
X650875D01*
X649563Y262008D02*
Y264632D01*
X647595D01*
X646939Y263976D01*
Y262008D01*
X643003Y265944D02*
Y262008D01*
X644971D01*
X645627Y262664D01*
Y263976D01*
X644971Y264632D01*
X643003D01*
X614129Y293898D02*
X618065D01*
Y291930D01*
X617409Y291274D01*
X616753D01*
X616097D01*
X615441Y291930D01*
Y293898D01*
Y289306D02*
Y287994D01*
X616097Y287338D01*
X618065D01*
Y289306D01*
X617409Y289962D01*
X616753Y289306D01*
Y287338D01*
X614785Y285370D02*
X615441D01*
Y286026D01*
Y284714D01*
Y285370D01*
X617409D01*
X618065Y284714D01*
X700546Y268148D02*
X698578D01*
X697922Y268804D01*
X698578Y269460D01*
X699890D01*
X700546Y270116D01*
X699890Y270772D01*
X697922D01*
X696610Y268148D02*
X695298D01*
X695954D01*
Y272084D01*
X696610Y271428D01*
X700546Y262008D02*
X698578D01*
X697922Y262664D01*
X698578Y263320D01*
X699890D01*
X700546Y263976D01*
X699890Y264632D01*
X697922D01*
X693986Y262008D02*
X696610D01*
X693986Y264632D01*
Y265288D01*
X694642Y265944D01*
X695954D01*
X696610Y265288D01*
X92716Y355020D02*
X90749D01*
X90093Y355676D01*
X90749Y356332D01*
X92061D01*
X92716Y356988D01*
X92061Y357644D01*
X90093D01*
X88781Y355020D02*
Y357644D01*
X86813D01*
X86157Y356988D01*
Y355020D01*
X82221Y358955D02*
Y355020D01*
X84189D01*
X84845Y355676D01*
Y356988D01*
X84189Y357644D01*
X82221D01*
X53348Y386909D02*
X57283D01*
Y384942D01*
X56628Y384286D01*
X55971D01*
X55316D01*
X54660Y384942D01*
Y386909D01*
Y382318D02*
Y381006D01*
X55316Y380350D01*
X57283D01*
Y382318D01*
X56628Y382974D01*
X55971Y382318D01*
Y380350D01*
X54004Y378382D02*
X54660D01*
Y379038D01*
Y377726D01*
Y378382D01*
X56628D01*
X57283Y377726D01*
X139764Y361160D02*
X137796D01*
X137140Y361816D01*
X137796Y362472D01*
X139108D01*
X139764Y363128D01*
X139108Y363784D01*
X137140D01*
X135828Y361160D02*
X134516D01*
X135172D01*
Y365096D01*
X135828Y364440D01*
X139764Y355020D02*
X137796D01*
X137140Y355676D01*
X137796Y356332D01*
X139108D01*
X139764Y356988D01*
X139108Y357644D01*
X137140D01*
X133204Y355020D02*
X135828D01*
X133204Y357644D01*
Y358299D01*
X133860Y358955D01*
X135172D01*
X135828Y358299D01*
X279644Y355020D02*
X277676D01*
X277020Y355676D01*
X277676Y356332D01*
X278988D01*
X279644Y356988D01*
X278988Y357644D01*
X277020D01*
X275708Y355020D02*
Y357644D01*
X273740D01*
X273084Y356988D01*
Y355020D01*
X269148Y358955D02*
Y355020D01*
X271116D01*
X271772Y355676D01*
Y356988D01*
X271116Y357644D01*
X269148D01*
X240275Y386909D02*
X244211D01*
Y384942D01*
X243555Y384286D01*
X242899D01*
X242243D01*
X241587Y384942D01*
Y386909D01*
Y382318D02*
Y381006D01*
X242243Y380350D01*
X244211D01*
Y382318D01*
X243555Y382974D01*
X242899Y382318D01*
Y380350D01*
X240931Y378382D02*
X241587D01*
Y379038D01*
Y377726D01*
Y378382D01*
X243555D01*
X244211Y377726D01*
X326691Y361160D02*
X324723D01*
X324067Y361816D01*
X324723Y362472D01*
X326035D01*
X326691Y363128D01*
X326035Y363784D01*
X324067D01*
X322755Y361160D02*
X321443D01*
X322099D01*
Y365096D01*
X322755Y364440D01*
X326691Y355020D02*
X324723D01*
X324067Y355676D01*
X324723Y356332D01*
X326035D01*
X326691Y356988D01*
X326035Y357644D01*
X324067D01*
X320131Y355020D02*
X322755D01*
X320131Y357644D01*
Y358299D01*
X320787Y358955D01*
X322099D01*
X322755Y358299D01*
X466571Y355020D02*
X464603D01*
X463947Y355676D01*
X464603Y356332D01*
X465915D01*
X466571Y356988D01*
X465915Y357644D01*
X463947D01*
X462635Y355020D02*
Y357644D01*
X460667D01*
X460011Y356988D01*
Y355020D01*
X456076Y358955D02*
Y355020D01*
X458044D01*
X458700Y355676D01*
Y356988D01*
X458044Y357644D01*
X456076D01*
X427202Y386909D02*
X431138D01*
Y384942D01*
X430482Y384286D01*
X429826D01*
X429170D01*
X428514Y384942D01*
Y386909D01*
Y382318D02*
Y381006D01*
X429170Y380350D01*
X431138D01*
Y382318D01*
X430482Y382974D01*
X429826Y382318D01*
Y380350D01*
X427858Y378382D02*
X428514D01*
Y379038D01*
Y377726D01*
Y378382D01*
X430482D01*
X431138Y377726D01*
X513618Y361160D02*
X511650D01*
X510994Y361816D01*
X511650Y362472D01*
X512962D01*
X513618Y363128D01*
X512962Y363784D01*
X510994D01*
X509683Y361160D02*
X508371D01*
X509027D01*
Y365096D01*
X509683Y364440D01*
X513618Y355020D02*
X511650D01*
X510994Y355676D01*
X511650Y356332D01*
X512962D01*
X513618Y356988D01*
X512962Y357644D01*
X510994D01*
X507059Y355020D02*
X509683D01*
X507059Y357644D01*
Y358299D01*
X507715Y358955D01*
X509027D01*
X509683Y358299D01*
X653498Y355020D02*
X651530D01*
X650875Y355676D01*
X651530Y356332D01*
X652842D01*
X653498Y356988D01*
X652842Y357644D01*
X650875D01*
X649563Y355020D02*
Y357644D01*
X647595D01*
X646939Y356988D01*
Y355020D01*
X643003Y358955D02*
Y355020D01*
X644971D01*
X645627Y355676D01*
Y356988D01*
X644971Y357644D01*
X643003D01*
X614129Y386909D02*
X618065D01*
Y384942D01*
X617409Y384286D01*
X616753D01*
X616097D01*
X615441Y384942D01*
Y386909D01*
Y382318D02*
Y381006D01*
X616097Y380350D01*
X618065D01*
Y382318D01*
X617409Y382974D01*
X616753Y382318D01*
Y380350D01*
X614785Y378382D02*
X615441D01*
Y379038D01*
Y377726D01*
Y378382D01*
X617409D01*
X618065Y377726D01*
X700546Y361160D02*
X698578D01*
X697922Y361816D01*
X698578Y362472D01*
X699890D01*
X700546Y363128D01*
X699890Y363784D01*
X697922D01*
X696610Y361160D02*
X695298D01*
X695954D01*
Y365096D01*
X696610Y364440D01*
X700546Y355020D02*
X698578D01*
X697922Y355676D01*
X698578Y356332D01*
X699890D01*
X700546Y356988D01*
X699890Y357644D01*
X697922D01*
X693986Y355020D02*
X696610D01*
X693986Y357644D01*
Y358299D01*
X694642Y358955D01*
X695954D01*
X696610Y358299D01*
M02*
