M48
;Layer_Color=9474304
;FILE_FORMAT=2:5
INCH,LZ
;TYPE=PLATED
T1F00S00C0.00787
T2F00S00C0.01181
T3F00S00C0.01575
T4F00S00C0.01968
T5F00S00C0.04331
;TYPE=NON_PLATED
T6F00S00C0.04528
%
T01
X067525Y0087697
X0668719Y0094675
X0666986Y0097243
X0668915Y0099793
X0667183Y0102361
X0668342Y010501
X0672793Y0115255
X0671662Y0117657
X0672104Y0122736
X067593Y0121329
X0677124Y0116338
X0680171Y0111221
X0683134Y0111525
X0683321Y0108957
X0681992Y0103615
X0724174Y0120964
X0738938Y0123145
Y0216157
X0724174Y0213976
X067593Y0214341
X0672104Y0215748
X0671662Y0210669
X0672793Y0208267
X0677124Y020935
X0680171Y0204232
X0683134Y0204537
X0683321Y0201969
X0681992Y0196626
X0668342Y0198022
X0667183Y0195373
X0668915Y0192805
X0666986Y0190254
X0668719Y0187687
X067525Y0180709
X0656156Y0177854
X0653864Y0175846
X0634504Y0186022
X0629975Y0188389
X0632238Y0203346
X0634404Y0204823
X0638734Y0216535
X0643065Y0213189
X0621904Y021752
X0552011Y0216157
X0537247Y0213976
Y0120964
X0552011Y0123145
X0621904Y0124508
X0638734Y0123524
X0643065Y0120177
X0634404Y0111811
X0632238Y0110335
X0629975Y0095377
X0634504Y009301
X0653864Y0082834
X0656156Y0084842
X0488323Y0087697
X0481791Y0094675
X0480059Y0097243
X0481988Y0099793
X0480256Y0102361
X0481415Y010501
X0485866Y0115255
X0484734Y0117657
X0485177Y0122736
X0489003Y0121329
X0490197Y0116338
X0493244Y0111221
X0496207Y0111525
X0496394Y0108957
X0495065Y0103615
X0469229Y0084842
X0466936Y0082834
X0447577Y009301
X0443047Y0095377
X0445311Y0110335
X0447476Y0111811
X0451807Y0123524
X0456138Y0120177
X0434976Y0124508
X0365084Y0123145
Y0216157
X0434976Y021752
X0451807Y0216535
X0456138Y0213189
X0447476Y0204823
X0445311Y0203346
X0443047Y0188389
X0447577Y0186022
X0466936Y0175846
X0469229Y0177854
X0488323Y0180709
X0481791Y0187687
X0480059Y0190254
X0481988Y0192805
X0480256Y0195373
X0481415Y0198022
X0485866Y0208267
X0484734Y0210669
X0485177Y0215748
X0489003Y0214341
X0490197Y020935
X0493244Y0204232
X0496207Y0204537
X0496394Y0201969
X0495065Y0196626
X0350319Y0213976
X0302075Y0214341
X029825Y0215748
X0297807Y0210669
X0298939Y0208267
X030327Y020935
X0306317Y0204232
X0309279Y0204537
X0309467Y0201969
X0308137Y0196626
X0294487Y0198022
X0293328Y0195373
X0295061Y0192805
X0293131Y0190254
X0294864Y0187687
X0301396Y0180709
X0282301Y0177854
X0280009Y0175846
X0260649Y0186022
X025612Y0188389
X0258384Y0203346
X0260549Y0204823
X026488Y0216535
X0269211Y0213189
X0248049Y021752
Y0124508
X026488Y0123524
X0269211Y0120177
X0260549Y0111811
X0258384Y0110335
X025612Y0095377
X0260649Y009301
X0280009Y0082834
X0282301Y0084842
X0301396Y0087697
X0294864Y0094675
X0293131Y0097243
X0295061Y0099793
X0293328Y0102361
X0294487Y010501
X0298939Y0115255
X0297807Y0117657
X029825Y0122736
X0302075Y0121329
X030327Y0116338
X0306317Y0111221
X0309279Y0111525
X0309467Y0108957
X0308137Y0103615
X0350319Y0120964
X0178156Y0123145
X0163392Y0120964
X0115148Y0121329
X0111322Y0122736
X011088Y0117657
X0112012Y0115255
X0116342Y0116338
X011939Y0111221
X0122352Y0111525
X0122539Y0108957
X012121Y0103615
X010756Y010501
X0106401Y0102361
X0108133Y0099793
X0106204Y0097243
X0107937Y0094675
X0114469Y0087697
X0095374Y0084842
X0093082Y0082834
X0073722Y009301
X0069193Y0095377
X0071457Y0110335
X0073622Y0111811
X0077953Y0123524
X0082283Y0120177
X0061122Y0124508
X0069193Y0188389
X0073722Y0186022
X0073622Y0204823
X0071457Y0203346
X0077953Y0216535
X0082283Y0213189
X0061122Y021752
X0111322Y0215748
X0115148Y0214341
X0116342Y020935
X0112012Y0208267
X011088Y0210669
X011939Y0204232
X0122352Y0204537
X0122539Y0201969
X012121Y0196626
X010756Y0198022
X0106401Y0195373
X0108133Y0192805
X0106204Y0190254
X0107937Y0187687
X0114469Y0180709
X0095374Y0177854
X0093082Y0175846
X0163392Y0213976
X0178156Y0216157
Y0309169
X0163392Y0306988
X0115148Y0307353
X0111322Y030876
X011088Y0303681
X0112012Y0301279
X0116342Y0302362
X011939Y0297244
X0122352Y0297549
X0122539Y029498
X012121Y0289638
X010756Y0291034
X0106401Y0288385
X0108133Y0285817
X0106204Y0283266
X0107937Y0280698
X0114469Y0273721
X0095374Y0270866
X0093082Y0268858
X0073722Y0279034
X0069193Y02814
X0071457Y0296358
X0073622Y0297835
X0077953Y0309547
X0082283Y0306201
X0061122Y0310531
X0069193Y0374412
X0073722Y0372045
X0073622Y0390846
X0071457Y038937
X010756Y0384046
X0106401Y0381396
X0108133Y0378828
X0106204Y0376278
X0107937Y037371
X0114469Y0366732
X0095374Y0363878
X0093082Y036187
X012121Y038265
X0122539Y0387992
X0122352Y0390561
X011939Y0390256
X0258384Y038937
X0260549Y0390846
X0260649Y0372045
X025612Y0374412
X0280009Y036187
X0282301Y0363878
X0301396Y0366732
X0294864Y037371
X0293131Y0376278
X0295061Y0378828
X0293328Y0381396
X0294487Y0384046
X0308137Y038265
X0309467Y0387992
X0309279Y0390561
X0306317Y0390256
X0302075Y0307353
X029825Y030876
X0297807Y0303681
X0298939Y0301279
X030327Y0302362
X0306317Y0297244
X0309279Y0297549
X0309467Y029498
X0308137Y0289638
X0294487Y0291034
X0293328Y0288385
X0295061Y0285817
X0293131Y0283266
X0294864Y0280698
X0301396Y0273721
X0282301Y0270866
X0280009Y0268858
X0260649Y0279034
X025612Y02814
X0258384Y0296358
X0260549Y0297835
X026488Y0309547
X0269211Y0306201
X0248049Y0310531
X0350319Y0306988
X0365084Y0309169
X0434976Y0310531
X0451807Y0309547
X0456138Y0306201
X0447476Y0297835
X0445311Y0296358
X0443047Y02814
X0447577Y0279034
X0466936Y0268858
X0469229Y0270866
X0488323Y0273721
X0481791Y0280698
X0480059Y0283266
X0481988Y0285817
X0480256Y0288385
X0481415Y0291034
X0485866Y0301279
X0484734Y0303681
X0485177Y030876
X0489003Y0307353
X0490197Y0302362
X0493244Y0297244
X0496207Y0297549
X0496394Y029498
X0495065Y0289638
X0488323Y0366732
X0481791Y037371
X0480059Y0376278
X0481988Y0378828
X0480256Y0381396
X0481415Y0384046
X0495065Y038265
X0496394Y0387992
X0496207Y0390561
X0493244Y0390256
X0447476Y0390846
X0445311Y038937
X0443047Y0374412
X0447577Y0372045
X0466936Y036187
X0469229Y0363878
X0537247Y0306988
X0552011Y0309169
X0621904Y0310531
X0638734Y0309547
X0643065Y0306201
X0634404Y0297835
X0632238Y0296358
X0629975Y02814
X0634504Y0279034
X0653864Y0268858
X0656156Y0270866
Y0363878
X0653864Y036187
X0634504Y0372045
X0629975Y0374412
X0632238Y038937
X0634404Y0390846
X0668342Y0384046
X0667183Y0381396
X0668915Y0378828
X0666986Y0376278
X0668719Y037371
X067525Y0366732
X0681992Y038265
X0683321Y0387992
X0683134Y0390561
X0680171Y0390256
X067593Y0307353
X0672104Y030876
X0671662Y0303681
X0672793Y0301279
X0677124Y0302362
X0680171Y0297244
X0683134Y0297549
X0683321Y029498
X0681992Y0289638
X0668342Y0291034
X0667183Y0288385
X0668915Y0285817
X0666986Y0283266
X0668719Y0280698
X067525Y0273721
X0724174Y0306988
X0738938Y0309169
Y040218
X0724174Y04
X067593Y0400365
X0672104Y0401771
X0671662Y0396693
X0672793Y0394291
X0677124Y0395373
X0643065Y0399213
X0638734Y0402559
X0621904Y0403543
X0552011Y040218
X0537247Y04
X0489003Y0400365
X0485177Y0401771
X0484734Y0396693
X0485866Y0394291
X0490197Y0395373
X0456138Y0399213
X0451807Y0402559
X0434976Y0403543
X0365084Y040218
X0350319Y04
X0302075Y0400365
X029825Y0401771
X0297807Y0396693
X0298939Y0394291
X030327Y0395373
X0269211Y0399213
X026488Y0402559
X0248049Y0403543
X0178156Y040218
X0163392Y04
X0115148Y0400365
X0111322Y0401771
X011088Y0396693
X0112012Y0394291
X0116342Y0395373
X0082283Y0399213
X0077953Y0402559
X0061122Y0403543
T02
X0049016Y0077165
X0058563Y0077953
X0099705Y0075984
X0124606Y0076083
X0166437Y0078543
X0235943Y0077165
X024549Y0077953
X0286632Y0075984
X0311533Y0076083
X0353364Y0078543
X042287Y0077165
X0432417Y0077953
X0473559Y0075984
X0498461Y0076083
X0540292Y0078543
X0609797Y0077165
X0619345Y0077953
X0660487Y0075984
X0685388Y0076083
X0727219Y0078543
X0717475Y0083071
X0713734Y0095177
X0719345Y0100689
X0732238Y0102264
X0732829Y011752
X0730375Y0120669
X0733912Y0125591
X0716295Y0113976
X0704187Y0114609
X0691987Y0122441
X0680274Y0115452
X0688636Y0105315
X0684896Y0098524
X0685782Y0082972
X0679778Y008002
X0675156Y0090943
X066649Y0084055
X0736864Y0087008
Y018002
X0727219Y0171555
X0717475Y0176083
X0713734Y0188189
X0719345Y0193701
X0732238Y0195276
X0732829Y0210531
X0730375Y0213681
X0733912Y0218602
X0716295Y0206988
X0704187Y020762
X0691987Y0215453
X0680274Y0208464
X0688636Y0198327
X0684896Y0191535
X0685782Y0175984
X0685388Y0169095
X0679778Y0173031
X0675156Y0183955
X066649Y0177067
X0660487Y0168996
X0647891Y0173029
X0647593Y0183465
X0634896Y0180217
X0626038Y0181791
X0625842Y0185234
X0626039Y0176769
X0621018Y0173524
X0619345Y0170965
X0609797Y0170177
X0616885Y0191042
X0626137Y0193896
X0635487Y0195472
X0649561Y0199902
X065527Y0200886
X0658239Y021093
X066295Y0210629
X0648183Y0207087
X0640213Y0212106
X0633223Y0212016
X0624463Y020748
X0614916Y0212008
X0612948Y0201377
X0609897Y0203149
X0604581Y0201378
X0545311Y0195276
X0532417Y0193701
X0526807Y0188189
X0530547Y0176083
X0540292Y0171555
X0549937Y018002
X0545902Y0210531
X0543447Y0213681
X0546984Y0218602
X0529367Y0206988
X051726Y020762
Y0114609
X0529367Y0113976
X0532417Y0100689
X0526807Y0095177
X0530547Y0083071
X0549937Y0087008
X0545311Y0102264
X0545902Y011752
X0543447Y0120669
X0546984Y0125591
X0614916Y0118996
X0612948Y0108365
X0609897Y0110137
X0604581Y0108366
X0616885Y009803
X0626137Y0100884
X0625842Y0092223
X0626038Y0088779
X0626039Y0083758
X0621018Y0080512
X0634896Y0087205
X0635487Y0102461
X0649561Y010689
X065527Y0107874
X0658239Y0117918
X066295Y0117618
X0648183Y0114075
X0640213Y0119094
X0633223Y0119004
X0624463Y0114469
X0647593Y0090453
X0647891Y0080017
X0498854Y0082972
X0492851Y008002
X0488228Y0090943
X0479563Y0084055
X0460963Y0080017
X0460666Y0090453
X0447969Y0087205
X043911Y0088779
X0438915Y0092223
X0439112Y0083758
X0434091Y0080512
X0429958Y009803
X043921Y0100884
X0448559Y0102461
X0462634Y010689
X0468343Y0107874
X0471312Y0117918
X0476023Y0117618
X0461256Y0114075
X0453286Y0119094
X0446295Y0119004
X0437536Y0114469
X0427988Y0118996
X0426021Y0108365
X0422969Y0110137
X0417654Y0108366
X0358384Y0102264
X0358975Y011752
X035652Y0120669
X0360057Y0125591
X036301Y0087008
Y018002
X0353364Y0171555
X0358384Y0195276
X0358975Y0210531
X035652Y0213681
X0360057Y0218602
X0427988Y0212008
X0426021Y0201377
X0422969Y0203149
X0417654Y0201378
X0429958Y0191042
X043921Y0193896
X0438915Y0185234
X043911Y0181791
X0439112Y0176769
X0434091Y0173524
X0432417Y0170965
X042287Y0170177
X0447969Y0180217
X0448559Y0195472
X0462634Y0199902
X0468343Y0200886
X0471312Y021093
X0476023Y0210629
X0461256Y0207087
X0453286Y0212106
X0446295Y0212016
X0437536Y020748
X0460666Y0183465
X0460963Y0173029
X0473559Y0168996
X0479563Y0177067
X0488228Y0183955
X0492851Y0173031
X0498854Y0175984
X0498461Y0169095
X0497969Y0191535
X0501709Y0198327
X0493347Y0208464
X050506Y0215453
Y0122441
X0493347Y0115452
X0501709Y0105315
X0497969Y0098524
X034549Y0100689
X033988Y0095177
X034362Y0083071
X0311927Y0082972
X0305923Y008002
X0301301Y0090943
X0292636Y0084055
X0274036Y0080017
X0273738Y0090453
X0261041Y0087205
X0252183Y0088779
X0251988Y0092223
X0252185Y0083758
X0247164Y0080512
X0243031Y009803
X0252283Y0100884
X0261632Y0102461
X0275707Y010689
X0281415Y0107874
X0284384Y0117918
X0289096Y0117618
X0274329Y0114075
X0266358Y0119094
X0259368Y0119004
X0250608Y0114469
X0241061Y0118996
X0239093Y0108365
X0236042Y0110137
X0230726Y0108366
X0235943Y0170177
X024549Y0170965
X0247164Y0173524
X0252185Y0176769
X0252183Y0181791
X0251988Y0185234
X0252283Y0193896
X0261632Y0195472
X0261041Y0180217
X0273738Y0183465
X0274036Y0173029
X0286632Y0168996
X0292636Y0177067
X0301301Y0183955
X0305923Y0173031
X0311927Y0175984
X0311533Y0169095
X0311041Y0191535
X0314782Y0198327
X0306419Y0208464
X0318133Y0215453
X0330333Y020762
X034244Y0206988
X034549Y0193701
X033988Y0188189
X034362Y0176083
X034244Y0113976
X0330333Y0114609
X0318133Y0122441
X0306419Y0115452
X0314782Y0105315
X0311041Y0098524
X0281415Y0200886
X0275707Y0199902
X0274329Y0207087
X0266358Y0212106
X0259368Y0212016
X0250608Y020748
X0241061Y0212008
X0239093Y0201377
X0236042Y0203149
X0230726Y0201378
X0243031Y0191042
X0284384Y021093
X0289096Y0210629
X0172047Y0210531
X0169593Y0213681
X017313Y0218602
X0171457Y0195276
X0158563Y0193701
X0152953Y0188189
X0156693Y0176083
X0166437Y0171555
X0176083Y018002
X0155513Y0206988
X0143406Y020762
X0131205Y0215453
X0119492Y0208464
X0127854Y0198327
X0124114Y0191535
X0125Y0175984
X0124606Y0169095
X0118996Y0173031
X0114374Y0183955
X0105709Y0177067
X0099705Y0168996
X0087109Y0173029
X0086811Y0183465
X0074114Y0180217
X0065256Y0181791
X006506Y0185234
X0065257Y0176769
X0060236Y0173524
X0058563Y0170965
X0049016Y0170177
X0056103Y0191042
X0065356Y0193896
X0074705Y0195472
X0088779Y0199902
X0094488Y0200886
X0097457Y021093
X0102169Y0210629
X0087401Y0207087
X0079431Y0212106
X0072441Y0212016
X0063681Y020748
X0054134Y0212008
X0052166Y0201377
X0049115Y0203149
X0043799Y0201378
X0054134Y0118996
X0052166Y0108365
X0049115Y0110137
X0043799Y0108366
X0056103Y009803
X0065356Y0100884
X006506Y0092223
X0065256Y0088779
X0065257Y0083758
X0060236Y0080512
X0074114Y0087205
X0074705Y0102461
X0088779Y010689
X0094488Y0107874
X0097457Y0117918
X0102169Y0117618
X0087401Y0114075
X0079431Y0119094
X0072441Y0119004
X0063681Y0114469
X0086811Y0090453
X0087109Y0080017
X0105709Y0084055
X0114374Y0090943
X0118996Y008002
X0125Y0082972
X0124114Y0098524
X0127854Y0105315
X0119492Y0115452
X0131205Y0122441
X0143406Y0114609
X0155513Y0113976
X0158563Y0100689
X0152953Y0095177
X0156693Y0083071
X0176083Y0087008
X0171457Y0102264
X0172047Y011752
X0169593Y0120669
X017313Y0125591
X0166437Y0264567
X0156693Y0269094
X0152953Y0281201
X0158563Y0286713
X0171457Y0288287
X0172047Y0303543
X0169593Y0306693
X017313Y0311614
X0155513Y03
X0143406Y0300632
X0131205Y0308464
X0119492Y0301476
X0127854Y0291339
X0124114Y0284547
X0125Y0268996
X0124606Y0262106
X0118996Y0266043
X0114374Y0276967
X0105709Y0270079
X0099705Y0262008
X0087109Y0266041
X0086811Y0276476
X0074114Y0273228
X0065256Y0274803
X006506Y0278246
X0065257Y0269781
X0060236Y0266535
X0058563Y0263976
X0049016Y0263189
X0056103Y0284054
X0065356Y0286908
X0074705Y0288484
X0088779Y0292913
X0094488Y0293898
X0097457Y0303942
X0102169Y0303641
X0087401Y0300098
X0079431Y0305118
X0072441Y0305028
X0063681Y0300492
X0054134Y030502
X0052166Y0294389
X0049115Y0296161
X0043799Y029439
X0049016Y0356201
X0058563Y0356988
X0060236Y0359547
X0065257Y0362793
X0065256Y0367815
X006506Y0371258
X0065356Y037992
X0074705Y0381496
X0074114Y036624
X0086811Y0369488
X0087109Y0359053
X0099705Y035502
X0105709Y036309
X0114374Y0369978
X0118996Y0359055
X0125Y0362008
X0124606Y0355118
X0124114Y0377559
X0127854Y038435
X0152953Y0374213
X0158563Y0379724
X0171457Y0381299
X0176083Y0366043
X0166437Y0357579
X0156693Y0362106
X0094488Y0386909
X0088779Y0385925
X0052166Y0387401
X0049115Y0389172
X0043799Y0387402
X0056103Y0377065
X0176083Y0273031
X0235943Y0263189
X024549Y0263976
X0247164Y0266535
X0252185Y0269781
X0252183Y0274803
X0251988Y0278246
X0252283Y0286908
X0261632Y0288484
X0261041Y0273228
X0273738Y0276476
X0274036Y0266041
X0286632Y0262008
X0292636Y0270079
X0301301Y0276967
X0305923Y0266043
X0311927Y0268996
X0311533Y0262106
X0311041Y0284547
X0314782Y0291339
X0306419Y0301476
X0318133Y0308464
X0330333Y0300632
X034244Y03
X034549Y0286713
X033988Y0281201
X034362Y0269094
X0281415Y0293898
X0275707Y0292913
X0274329Y0300098
X0266358Y0305118
X0259368Y0305028
X0250608Y0300492
X0241061Y030502
X0239093Y0294389
X0236042Y0296161
X0230726Y029439
X0243031Y0284054
X0284384Y0303942
X0289096Y0303641
X0286632Y035502
X0292636Y036309
X0301301Y0369978
X0305923Y0359055
X0311927Y0362008
X0311533Y0355118
X0311041Y0377559
X0314782Y038435
X033988Y0374213
X034549Y0379724
X034362Y0362106
X0274036Y0359053
X0273738Y0369488
X0261041Y036624
X0252183Y0367815
X0251988Y0371258
X0252185Y0362793
X0247164Y0359547
X024549Y0356988
X0235943Y0356201
X0243031Y0377065
X0252283Y037992
X0261632Y0381496
X0275707Y0385925
X0281415Y0386909
X0239093Y0387401
X0236042Y0389172
X0230726Y0387402
X0358384Y0381299
X036301Y0366043
X0353364Y0357579
X0360057Y0311614
X035652Y0306693
X0358975Y0303543
X0358384Y0288287
X036301Y0273031
X0353364Y0264567
X042287Y0263189
X0432417Y0263976
X0434091Y0266535
X0439112Y0269781
X043911Y0274803
X0438915Y0278246
X043921Y0286908
X0448559Y0288484
X0447969Y0273228
X0460666Y0276476
X0460963Y0266041
X0473559Y0262008
X0479563Y0270079
X0488228Y0276967
X0492851Y0266043
X0498854Y0268996
X0498461Y0262106
X0497969Y0284547
X0501709Y0291339
X0493347Y0301476
X050506Y0308464
X0476023Y0303641
X0471312Y0303942
X0468343Y0293898
X0462634Y0292913
X0461256Y0300098
X0453286Y0305118
X0446295Y0305028
X0437536Y0300492
X0427988Y030502
X0426021Y0294389
X0422969Y0296161
X0417654Y029439
X0429958Y0284054
X0432417Y0356988
X0434091Y0359547
X0439112Y0362793
X043911Y0367815
X0438915Y0371258
X043921Y037992
X0448559Y0381496
X0447969Y036624
X0460666Y0369488
X0460963Y0359053
X0473559Y035502
X0479563Y036309
X0488228Y0369978
X0492851Y0359055
X0498854Y0362008
X0498461Y0355118
X0497969Y0377559
X0501709Y038435
X0468343Y0386909
X0462634Y0385925
X0426021Y0387401
X0422969Y0389172
X0417654Y0387402
X0429958Y0377065
X042287Y0356201
X0530547Y0362106
X0540292Y0357579
X0549937Y0366043
X0545311Y0381299
X0532417Y0379724
X0526807Y0374213
X0529367Y03
X051726Y0300632
X0526807Y0281201
X0532417Y0286713
X0545311Y0288287
X0545902Y0303543
X0543447Y0306693
X0546984Y0311614
X0549937Y0273031
X0540292Y0264567
X0530547Y0269094
X0609797Y0263189
X0619345Y0263976
X0621018Y0266535
X0626039Y0269781
X0626038Y0274803
X0625842Y0278246
X0626137Y0286908
X0635487Y0288484
X0634896Y0273228
X0647593Y0276476
X0647891Y0266041
X0660487Y0262008
X065527Y0293898
X0649561Y0292913
X0648183Y0300098
X0640213Y0305118
X0633223Y0305028
X0624463Y0300492
X0614916Y030502
X0612948Y0294389
X0609897Y0296161
X0604581Y029439
X0616885Y0284054
X0658239Y0303942
X066295Y0303641
X0660487Y035502
X0647891Y0359053
X0647593Y0369488
X0634896Y036624
X0626038Y0367815
X0625842Y0371258
X0626039Y0362793
X0621018Y0359547
X0619345Y0356988
X0609797Y0356201
X0616885Y0377065
X0626137Y037992
X0635487Y0381496
X0649561Y0385925
X065527Y0386909
X0612948Y0387401
X0609897Y0389172
X0604581Y0387402
X066649Y036309
X0675156Y0369978
X0679778Y0359055
X0685782Y0362008
X0685388Y0355118
X0684896Y0377559
X0688636Y038435
X0713734Y0374213
X0719345Y0379724
X0732238Y0381299
X0736864Y0366043
X0727219Y0357579
X0717475Y0362106
X0716295Y03
X0704187Y0300632
X0691987Y0308464
X0680274Y0301476
X0688636Y0291339
X0684896Y0284547
X0685782Y0268996
X0685388Y0262106
X0679778Y0266043
X0675156Y0276967
X066649Y0270079
X0717475Y0269094
X0727219Y0264567
X0736864Y0273031
X0732238Y0288287
X0719345Y0286713
X0713734Y0281201
X0732829Y0303543
X0730375Y0306693
X0733912Y0311614
X0732829Y0396555
X0730375Y0399704
X0733912Y0404626
X0716295Y0393012
X0704187Y0393644
X0691987Y0401476
X0680274Y0394488
X066295Y0396653
X0658239Y0396954
X0648183Y039311
X0640213Y039813
X0633223Y0398039
X0624463Y0393504
X0614916Y0398031
X0545902Y0396555
X0543447Y0399704
X0546984Y0404626
X0529367Y0393012
X051726Y0393644
X050506Y0401476
X0493347Y0394488
X0476023Y0396653
X0471312Y0396954
X0461256Y039311
X0453286Y039813
X0446295Y0398039
X0437536Y0393504
X0427988Y0398031
X0358975Y0396555
X035652Y0399704
X0360057Y0404626
X034244Y0393012
X0330333Y0393644
X0318133Y0401476
X0306419Y0394488
X0289096Y0396653
X0284384Y0396954
X0274329Y039311
X0266358Y039813
X0259368Y0398039
X0250608Y0393504
X0241061Y0398031
X0172047Y0396555
X0169593Y0399704
X017313Y0404626
X0155513Y0393012
X0143406Y0393644
X0131205Y0401476
X0119492Y0394488
X0102169Y0396653
X0097457Y0396954
X0087401Y039311
X0079431Y039813
X0072441Y0398039
X0063681Y0393504
X0054134Y0398031
T03
X0112992Y0077067
X0130807Y0077264
X0299919Y0077067
X0317734Y0077264
X0486847Y0077067
X0504662Y0077264
X0673774Y0077067
X0691589Y0077264
Y0083563
Y0170276
Y0176575
X0673774Y0170079
X0626924Y0190256
X0620624Y0189862
X0621412Y0202461
X062899Y0202953
Y0109941
X0621412Y0109449
X0620624Y009685
X0626924Y0097244
X0504662Y0083563
X0439996Y0097244
X0433697Y009685
X0434484Y0109449
X0442063Y0109941
X0439996Y0190256
X0433697Y0189862
X0434484Y0202461
X0442063Y0202953
X0486847Y0170079
X0504662Y0170276
Y0176575
X0317734
Y0170276
X0299919Y0170079
X0253069Y0190256
X024677Y0189862
X0247557Y0202461
X0255136Y0202953
Y0109941
X0247557Y0109449
X024677Y009685
X0253069Y0097244
X0317734Y0083563
X0130807
X0066142Y0097244
X0059842Y009685
X006063Y0109449
X0068209Y0109941
X0066142Y0190256
X0059842Y0189862
X006063Y0202461
X0068209Y0202953
X0112992Y0170079
X0130807Y0170276
Y0176575
Y0263287
Y0269587
X0112992Y0263091
X0066142Y0283268
X0059842Y0282874
X006063Y0295472
X0068209Y0295965
X0066142Y0376279
X0059842Y0375886
X006063Y0388484
X0068209Y0388976
X0112992Y0356102
X0130807Y0356299
Y0362598
X024677Y0375886
X0253069Y0376279
X0255136Y0388976
X0247557Y0388484
X0299919Y0356102
X0317734Y0356299
Y0362598
Y0269587
Y0263287
X0299919Y0263091
X0253069Y0283268
X024677Y0282874
X0247557Y0295472
X0255136Y0295965
X0434484Y0295472
X0442063Y0295965
X0439996Y0283268
X0433697Y0282874
X0486847Y0263091
X0504662Y0263287
Y0269587
Y0356299
Y0362598
X0486847Y0356102
X0439996Y0376279
X0433697Y0375886
X0434484Y0388484
X0442063Y0388976
X0621412Y0388484
X062899Y0388976
X0626924Y0376279
X0620624Y0375886
X0621412Y0295472
X062899Y0295965
X0626924Y0283268
X0620624Y0282874
X0673774Y0263091
X0691589Y0263287
Y0269587
Y0356299
Y0362598
X0673774Y0356102
T04
X0065059Y0077854
X0078838Y0077756
X0100984Y0072342
X0104264
X0107545
X0110826
X0251986Y0077854
X0265766Y0077756
X0287911Y0072342
X0291192
X0294473
X0297753
X0438913Y0077854
X0452693Y0077756
X0474838Y0072342
X0478119
X04814
X0484681
X0625841Y0077854
X063962Y0077756
X0661765Y0072342
X0665046
X0668327
X0671608
X0671511Y0129429
X066823
X0668327Y0165354
X0671608
X0671511Y0222441
X066823
X0743065Y0197244
Y0193963
Y0190682
Y0187401
Y0104232
Y0100951
Y009767
Y0094389
X0664949Y0129429
X0661668
X0661765Y0165354
X0665046
X063962Y0170768
X0625841Y0170866
X0597199Y0204626
Y0207907
Y0211188
Y0214469
X0556138Y0197244
Y0193963
Y0190682
Y0187401
Y0104232
Y0100951
Y009767
Y0094389
X0597199Y0111614
Y0114895
Y0118176
Y0121457
X0661668Y0222441
X0664949
X0484583
X0481302
X0478022
X0474741
X0474838Y0165354
X0478119
X04814
X0484681
X0484583Y0129429
X0481302
X0478022
X0474741
X0452693Y0170768
X0438913Y0170866
X0410272Y0204626
Y0207907
Y0211188
Y0214469
X0369211Y0197244
Y0193963
Y0190682
Y0187401
Y0104232
Y0100951
Y009767
Y0094389
X0410272Y0111614
Y0114895
Y0118176
Y0121457
X0297656Y0129429
X0294375
X0291094
X0287813
X0287911Y0165354
X0291192
X0294473
X0297753
X0265766Y0170768
X0251986Y0170866
X0223344Y0204626
Y0207907
Y0211188
Y0214469
X0287813Y0222441
X0291094
X0294375
X0297656
X0223344Y0121457
Y0118176
Y0114895
Y0111614
X0182283Y0104232
Y0100951
Y009767
Y0094389
Y0187401
Y0190682
Y0193963
Y0197244
X0110729Y0222441
X0107448
X0104167
X0100886
X0100984Y0165354
X0104264
X0107545
X0110826
X0110729Y0129429
X0107448
X0104167
X0100886
X0078838Y0170768
X0065059Y0170866
X0036417Y0204626
Y0207907
Y0211188
Y0214469
Y0121457
Y0118176
Y0114895
Y0111614
Y0297638
Y0300919
Y03042
Y030748
Y039065
X0065059Y035689
X0078838Y0356791
X0100984Y0351378
X0104264
X0107545
X0110826
X0110729Y0315453
X0107448
X0104167
X0100886
X0100984Y0258366
X0104264
X0107545
X0110826
X0078838Y0263779
X0065059Y0263878
X0182283Y0280413
Y0283694
Y0286975
Y0290255
Y0373425
Y0376706
Y0379986
Y0383267
X0223344Y039065
X0251986Y035689
X0265766Y0356791
X0287911Y0351378
X0291192
X0294473
X0297753
X0297656Y0315453
X0294375
X0291094
X0287813
X0287911Y0258366
X0291192
X0294473
X0297753
X0265766Y0263779
X0251986Y0263878
X0223344Y0297638
Y0300919
Y03042
Y030748
X0369211Y0290255
Y0286975
Y0283694
Y0280413
X0410272Y0297638
Y0300919
Y03042
Y030748
X0438913Y0263878
X0452693Y0263779
X0474838Y0258366
X0478119
X04814
X0484681
X0484583Y0315453
X0481302
X0478022
X0474741
X0474838Y0351378
X0478119
X04814
X0484681
X0452693Y0356791
X0438913Y035689
X0410272Y039065
X0369211Y0383267
Y0379986
Y0376706
Y0373425
X0556138
Y0376706
Y0379986
Y0383267
X0597199Y039065
X0625841Y035689
X063962Y0356791
X0661765Y0351378
X0665046
X0664949Y0315453
X0661668
X0661765Y0258366
X0665046
X063962Y0263779
X0625841Y0263878
X0597199Y0297638
Y0300919
Y03042
Y030748
X0556138Y0290255
Y0286975
Y0283694
Y0280413
X0668327Y0258366
X0671608
X0671511Y0315453
X066823
X0668327Y0351378
X0671608
X0743065Y0373425
Y0376706
Y0379986
Y0383267
Y0290255
Y0286975
Y0283694
Y0280413
X0671511Y0408464
X066823
X0664949
X0661668
X0597199Y0400492
Y0397211
Y0393931
X0484583Y0408464
X0481302
X0478022
X0474741
X0410272Y0400492
Y0397211
Y0393931
X0297656Y0408464
X0294375
X0291094
X0287813
X0223344Y0400492
Y0397211
Y0393931
X0110729Y0408464
X0107448
X0104167
X0100886
X0036417Y0400492
Y0397211
Y0393931
T05
X0043504Y0077559
X0230431
X0417358
X0604286
Y0103543
Y0170571
Y0196555
X0417358
Y0170571
Y0103543
X0230431
Y0170571
Y0196555
X0043504
Y0170571
Y0103543
Y0263583
Y0289567
Y0356594
Y0382579
X0230431
Y0356594
Y0289567
Y0263583
X0417358
Y0289567
Y0356594
Y0382579
X0604286
Y0356594
Y0289567
Y0263583
T06
X0733223Y0093209
Y0108169
Y018622
Y0201181
X0546295
Y018622
Y0108169
Y0093209
X0359368
Y0108169
Y018622
Y0201181
X0172441
Y018622
Y0108169
Y0093209
Y0279232
Y0294193
Y0372244
Y0387205
X0359368
Y0372244
Y0294193
Y0279232
X0546295
Y0294193
Y0372244
Y0387205
X0733223
Y0372244
Y0294193
Y0279232
M30
